<svg width="25" height="25" viewBox="0 0 25 25" fill="none" xmlns="http://www.w3.org/2000/svg">
<path d="M12.5 17.0755C10.11 17.0755 8.17001 15.1355 8.17001 12.7455C8.17001 10.3555 10.11 8.41553 12.5 8.41553C14.89 8.41553 16.83 10.3555 16.83 12.7455C16.83 15.1355 14.89 17.0755 12.5 17.0755ZM12.5 9.91553C10.94 9.91553 9.67001 11.1855 9.67001 12.7455C9.67001 14.3055 10.94 15.5755 12.5 15.5755C14.06 15.5755 15.33 14.3055 15.33 12.7455C15.33 11.1855 14.06 9.91553 12.5 9.91553Z" fill="#292723"/>
<path d="M12.5 21.7656C8.73999 21.7656 5.18999 19.5656 2.74999 15.7456C1.68999 14.0956 1.68999 11.4056 2.74999 9.74559C5.19999 5.92559 8.74999 3.72559 12.5 3.72559C16.25 3.72559 19.8 5.92559 22.24 9.74559C23.3 11.3956 23.3 14.0856 22.24 15.7456C19.8 19.5656 16.25 21.7656 12.5 21.7656ZM12.5 5.22559C9.26999 5.22559 6.17999 7.16559 4.01999 10.5556C3.26999 11.7256 3.26999 13.7656 4.01999 14.9356C6.17999 18.3256 9.26999 20.2656 12.5 20.2656C15.73 20.2656 18.82 18.3256 20.98 14.9356C21.73 13.7656 21.73 11.7256 20.98 10.5556C18.82 7.16559 15.73 5.22559 12.5 5.22559Z" fill="#1C1C28"/>
</svg>
