<svg width="18" height="19" viewBox="0 0 18 19" fill="none" xmlns="http://www.w3.org/2000/svg">
<rect width="18" height="19" fill="#141414"/>
<path d="M-479 -986C-479 -987.104 -478.105 -988 -477 -988H12544C12545.1 -988 12546 -987.105 12546 -986V2084C12546 2085.1 12545.1 2086 12544 2086H-477C-478.105 2086 -479 2085.1 -479 2084V-986Z" fill="#444444"/>
<path d="M-477 -987H12544V-989H-477V-987ZM12545 -986V2084H12547V-986H12545ZM12544 2085H-477V2087H12544V2085ZM-478 2084V-986H-480V2084H-478ZM-477 2085C-477.552 2085 -478 2084.55 -478 2084H-480C-480 2085.66 -478.657 2087 -477 2087V2085ZM12545 2084C12545 2084.55 12544.6 2085 12544 2085V2087C12545.7 2087 12547 2085.66 12547 2084H12545ZM12544 -987C12544.6 -987 12545 -986.552 12545 -986H12547C12547 -987.657 12545.7 -989 12544 -989V-987ZM-477 -989C-478.657 -989 -480 -987.657 -480 -986H-478C-478 -986.552 -477.552 -987 -477 -987V-989Z" fill="white" fill-opacity="0.1"/>
<rect x="-302" y="-724" width="1920" height="1080" rx="48" fill="white"/>
<rect x="-128" y="-18.7544" width="458" height="57" rx="12.5" fill="white"/>
<rect x="-128" y="-18.7544" width="458" height="57" rx="12.5" stroke="black"/>
<g clip-path="url(#clip0_6823_47707)">
<path fill-rule="evenodd" clip-rule="evenodd" d="M17.64 9.95028C17.64 9.3121 17.5827 8.69847 17.4764 8.10938H9V11.5907H13.8436C13.635 12.7157 13.0009 13.6689 12.0477 14.3071V16.5653H14.9564C16.6582 14.9985 17.64 12.6912 17.64 9.95028Z" fill="#4285F4"/>
<path fill-rule="evenodd" clip-rule="evenodd" d="M9 18.7456C11.43 18.7456 13.4673 17.9397 14.9564 16.5651L12.0477 14.3069C11.2418 14.8469 10.2109 15.166 9 15.166C6.65591 15.166 4.67182 13.5828 3.96409 11.4556H0.957275V13.7874C2.43818 16.7287 5.48182 18.7456 9 18.7456Z" fill="#34A853"/>
<path fill-rule="evenodd" clip-rule="evenodd" d="M3.96409 11.4557C3.78409 10.9157 3.68182 10.3389 3.68182 9.74568C3.68182 9.15249 3.78409 8.57568 3.96409 8.03568V5.70386H0.957273C0.347727 6.91886 0 8.2934 0 9.74568C0 11.1979 0.347727 12.5725 0.957273 13.7875L3.96409 11.4557Z" fill="#FBBC05"/>
<path fill-rule="evenodd" clip-rule="evenodd" d="M9 4.32515C10.3214 4.32515 11.5077 4.77924 12.4405 5.67106L15.0218 3.0897C13.4632 1.63742 11.4259 0.745605 9 0.745605C5.48182 0.745605 2.43818 2.76242 0.957275 5.70379L3.96409 8.03561C4.67182 5.90833 6.65591 4.32515 9 4.32515Z" fill="#EA4335"/>
</g>
<defs>
<clipPath id="clip0_6823_47707">
<rect y="0.745605" width="18" height="18" rx="6" fill="white"/>
</clipPath>
</defs>
</svg>
