<svg width="273" height="283" viewBox="0 0 273 283" fill="none" xmlns="http://www.w3.org/2000/svg">
<path d="M139.33 282.233C213.115 282.233 272.929 247.699 272.929 205.1C272.929 162.501 213.115 127.968 139.33 127.968C65.546 127.968 5.73193 162.501 5.73193 205.1C5.73193 247.699 65.546 282.233 139.33 282.233Z" fill="#F5F5F5"/>
<path d="M118.078 232.117C135.397 232.117 149.438 224.01 149.438 214.01C149.438 204.01 135.397 195.904 118.078 195.904C100.758 195.904 86.7177 204.01 86.7177 214.01C86.7177 224.01 100.758 232.117 118.078 232.117Z" fill="#E0E0E0"/>
<path d="M171.245 248.93C192.215 248.93 209.215 239.116 209.215 227.009C209.215 214.902 192.215 205.087 171.245 205.087C150.274 205.087 133.274 214.902 133.274 227.009C133.274 239.116 150.274 248.93 171.245 248.93Z" fill="#E0E0E0"/>
<path d="M128.841 207.081C128.841 205.489 127.797 203.897 125.695 202.693C121.498 200.266 114.69 200.266 110.492 202.693C108.391 203.903 107.34 205.495 107.34 207.081V211.991C107.34 213.584 108.391 215.176 110.492 216.386C114.69 218.806 121.498 218.806 125.695 216.386C127.797 215.169 128.841 213.584 128.841 211.991V207.081Z" fill="#263238"/>
<path d="M125.72 207.603C129.917 210.03 129.917 213.972 125.72 216.386C121.523 218.8 114.715 218.806 110.518 216.386C106.321 213.966 106.315 210.017 110.518 207.603C114.721 205.189 121.523 205.183 125.72 207.603Z" fill="#37474F"/>
<path d="M128.867 207.081H107.365V211.991H128.867V207.081Z" fill="#37474F"/>
<path d="M125.72 202.712C129.917 205.132 129.917 209.081 125.72 211.488C121.523 213.896 114.715 213.915 110.518 211.488C106.321 209.062 106.315 205.119 110.518 202.712C114.721 200.305 121.523 200.266 125.72 202.712Z" fill="#455A64"/>
<path d="M121.695 203.808C123.676 204.948 123.676 206.801 121.695 207.941C120.586 208.503 119.36 208.796 118.116 208.796C116.872 208.796 115.646 208.503 114.537 207.941C112.562 206.801 112.562 204.948 114.537 203.808C115.646 203.245 116.872 202.952 118.116 202.952C119.36 202.952 120.586 203.245 121.695 203.808Z" fill="#263238"/>
<path d="M123.179 113.173H113.053V205.877H123.179V113.173Z" fill="#263238"/>
<path d="M159.469 70.3617V70.2916C159.373 69.763 159.258 69.228 159.125 68.693C159.143 68.7495 159.157 68.8069 159.169 68.865C159.087 68.502 158.991 68.139 158.889 67.7759C158.927 67.9097 158.959 68.0434 158.991 68.1772C158.889 67.7759 158.774 67.3811 158.653 66.9798C158.711 67.1518 158.768 67.3301 158.813 67.5021C158.749 67.2728 158.679 67.0435 158.609 66.8142L158.494 66.4512V66.4003V66.4385C157.639 63.8412 156.511 61.3414 155.131 58.9806C155.087 58.8978 155.042 58.815 154.991 58.7322C151.52 52.8283 146.489 47.4339 140.872 44.084L140.598 43.9184C138.987 42.9828 137.278 42.2268 135.503 41.6638C134.027 41.197 132.49 40.9502 130.943 40.9314H130.408H130.083C129.815 40.9314 129.554 40.9823 129.3 41.0206H129.064L128.631 41.1034C128.446 41.1416 128.261 41.1861 128.083 41.2371L127.586 41.3836C127.586 41.3836 127.586 41.3836 127.555 41.3836L127.058 41.5619C126.892 41.632 126.727 41.702 126.574 41.7784L125.478 42.4153L70.318 74.2594H70.2735C67.2865 75.9344 65.4777 79.3544 65.4777 84.2138V114.217L44.7218 125.681C42.6655 126.815 40.9472 128.474 39.7428 130.49C38.5385 132.505 37.8912 134.805 37.8672 137.153C37.8432 139.501 38.4434 141.813 39.6064 143.852C40.7694 145.892 42.4534 147.586 44.4861 148.762C50.2661 152.096 56.8213 153.851 63.4939 153.851C70.1664 153.851 76.7217 152.096 82.5016 148.762L104.003 136.661L159.876 104.377V74.3676C159.86 73.0228 159.724 71.6821 159.469 70.3617Z" fill="#BA68C8"/>
<path d="M69.3627 112.135V78.6157L104.85 58.3247L108.047 89.3153L69.3627 112.135Z" fill="#BA68C8"/>
<path opacity="0.5" d="M69.3627 112.135V78.6157L104.85 58.3247L108.047 89.3153L69.3627 112.135Z" fill="black"/>
<path d="M69.3627 112.135L108.047 89.3152V125.789L100.048 129.853L69.3627 112.135Z" fill="#BA68C8"/>
<path opacity="0.3" d="M69.3627 112.135L108.047 89.3152V125.789L100.048 129.853L69.3627 112.135Z" fill="black"/>
<path d="M159.475 70.3618L155.807 72.3807L133.478 84.6024L129.44 86.7997L101.532 102.085C99.761 99.0915 95.1628 85.1247 92.7108 82.5962C90.3486 80.1118 87.6521 77.9683 84.6988 76.2274C81.196 74.2021 77.916 73.2405 75.0819 73.2405C73.4144 73.2063 71.7658 73.5987 70.2926 74.3805L125.459 42.5364L126.555 41.8995C126.707 41.8231 126.873 41.7531 127.039 41.683L127.535 41.5047C127.535 41.5047 127.535 41.5047 127.567 41.5047L128.064 41.3582C128.242 41.3072 128.427 41.2627 128.612 41.2245L129.045 41.1417H129.28C129.535 41.1034 129.796 41.0716 130.064 41.0525H130.389H130.924C132.471 41.0713 134.008 41.3181 135.484 41.7849C137.259 42.3479 138.968 43.1039 140.579 44.0395L140.853 44.2051C150.081 49.5867 157.736 60.6111 159.475 70.3618Z" fill="#BA68C8"/>
<g opacity="0.3">
<path d="M159.475 70.3618L155.807 72.3807L133.478 84.6024L129.44 86.7997L101.532 102.085C99.761 99.0915 95.1628 85.1247 92.7108 82.5962C90.3486 80.1118 87.6521 77.9683 84.6988 76.2274C81.196 74.2021 77.916 73.2405 75.0819 73.2405C73.4144 73.2063 71.7658 73.5987 70.2926 74.3805L125.459 42.5364L126.555 41.8995C126.707 41.8231 126.873 41.7531 127.039 41.683L127.535 41.5047C127.535 41.5047 127.535 41.5047 127.567 41.5047L128.064 41.3582C128.242 41.3072 128.427 41.2627 128.612 41.2245L129.045 41.1417H129.28C129.535 41.1034 129.796 41.0716 130.064 41.0525H130.389H130.924C132.471 41.0713 134.008 41.3181 135.484 41.7849C137.259 42.3479 138.968 43.1039 140.579 44.0395L140.853 44.2051C150.081 49.5867 157.736 60.6111 159.475 70.3618Z" fill="black"/>
</g>
<path d="M154.953 58.7769C155.004 58.8533 155.055 58.9361 155.1 59.0189C155.074 58.917 155.03 58.8342 154.953 58.7769Z" fill="#BA68C8"/>
<path d="M157.915 64.8271C158.605 66.6197 159.127 68.4725 159.475 70.3616L155.807 72.3806L133.478 84.6023L129.44 86.7995L101.532 102.085L104.003 136.661L159.876 104.377V74.3676C159.802 71.0954 159.137 67.8634 157.915 64.8271Z" fill="#BA68C8"/>
<path d="M157.087 62.8275C156.851 62.3052 156.603 61.7766 156.342 61.2544C156.603 61.7766 156.864 62.3052 157.087 62.8275Z" fill="#BA68C8"/>
<path d="M155.374 59.4138C155.641 59.8978 155.908 60.3819 156.157 60.8723C155.908 60.4073 155.647 59.9233 155.374 59.4138Z" fill="#BA68C8"/>
<g opacity="0.5">
<path d="M154.953 58.7769C155.004 58.8533 155.055 58.9361 155.1 59.0189C155.074 58.917 155.03 58.8342 154.953 58.7769Z" fill="black"/>
<path d="M157.915 64.8271C158.605 66.6197 159.127 68.4725 159.475 70.3616L155.807 72.3806L133.478 84.6023L129.44 86.7995L101.532 102.085L104.003 136.661L159.876 104.377V74.3676C159.802 71.0954 159.137 67.8634 157.915 64.8271Z" fill="black"/>
<path d="M157.087 62.8275C156.851 62.3052 156.603 61.7766 156.342 61.2544C156.603 61.7766 156.864 62.3052 157.087 62.8275Z" fill="black"/>
<path d="M155.374 59.4138C155.641 59.8978 155.908 60.3819 156.157 60.8723C155.908 60.4073 155.647 59.9233 155.374 59.4138Z" fill="black"/>
</g>
<path d="M75.0819 77.2018C77.3046 77.2018 79.954 78.0488 82.7245 79.6602C92.1057 85.0736 100.035 97.4355 100.035 106.658V129.853L69.35 112.135V84.3985C69.35 78.4501 72.458 77.2018 75.0819 77.2018ZM75.0819 73.2659C69.3118 73.2659 65.4332 77.2591 65.4332 84.3985V114.402L103.977 136.693V106.658C103.977 96.0089 95.3475 82.3987 84.7052 76.2528C81.2023 74.2339 77.9097 73.2659 75.0819 73.2659Z" fill="#BA68C8"/>
<path d="M65.4332 114.402L44.6772 125.866C42.6209 126.999 40.9027 128.659 39.6983 130.675C38.4939 132.69 37.8466 134.99 37.8226 137.337C37.7986 139.685 38.3989 141.997 39.5618 144.037C40.7248 146.077 42.4088 147.771 44.4416 148.947C50.2215 152.281 56.7767 154.036 63.4493 154.036C70.1219 154.036 76.6771 152.281 82.457 148.947L104.003 136.661L65.4332 114.402Z" fill="#BA68C8"/>
<path opacity="0.2" d="M65.4332 114.402L44.6772 125.866C42.6209 126.999 40.9027 128.659 39.6983 130.675C38.4939 132.69 37.8466 134.99 37.8226 137.337C37.7986 139.685 38.3989 141.997 39.5618 144.037C40.7248 146.077 42.4088 147.771 44.4416 148.947C50.2215 152.281 56.7767 154.036 63.4493 154.036C70.1219 154.036 76.6771 152.281 82.457 148.947L104.003 136.661L65.4332 114.402Z" fill="white"/>
<path d="M116.836 127.522L112.505 130.019V88.2073L116.836 85.7043V127.522Z" fill="#E0E0E0"/>
<path d="M125.013 89.3407L112.505 96.5566V88.2071L125.013 80.9849V89.3407Z" fill="#E0E0E0"/>
<path d="M118.702 126.051C118.626 127.461 118.218 128.833 117.512 130.055C116.806 131.278 115.821 132.317 114.639 133.088C112.39 134.362 110.569 133.337 110.569 130.745C110.65 129.339 111.061 127.973 111.768 126.756C112.475 125.539 113.458 124.506 114.639 123.739C116.88 122.408 118.702 123.459 118.702 126.051Z" fill="#BA68C8"/>
<path opacity="0.2" d="M118.702 126.051C118.626 127.461 118.218 128.833 117.512 130.055C116.806 131.278 115.821 132.317 114.639 133.088C112.39 134.362 110.569 133.337 110.569 130.745C110.65 129.339 111.061 127.973 111.768 126.756C112.475 125.539 113.458 124.506 114.639 123.739C116.88 122.408 118.702 123.459 118.702 126.051Z" fill="black"/>
<path d="M120.052 126.834C119.971 128.239 119.562 129.604 118.856 130.821C118.15 132.038 117.168 133.072 115.989 133.84C113.747 135.114 111.925 134.082 111.925 131.49C112.003 130.08 112.412 128.709 113.118 127.486C113.823 126.264 114.807 125.224 115.989 124.452C118.237 123.191 120.052 124.242 120.052 126.834Z" fill="#BA68C8"/>
<path d="M210.82 195.706L218.004 199.871C218.004 199.871 214.374 188.287 216.387 176.638C217.145 172.244 218.75 170.059 219.31 168.881C219.87 167.703 224.214 160.442 220.393 157.092C216.571 153.742 207.623 160.404 208.024 178.351C208.222 184.231 209.161 190.062 210.82 195.706Z" fill="#BA68C8"/>
<path opacity="0.3" d="M210.82 195.706L218.004 199.871C218.004 199.871 214.374 188.287 216.387 176.638C217.145 172.244 218.75 170.059 219.31 168.881C219.87 167.703 224.214 160.442 220.393 157.092C216.571 153.742 207.623 160.404 208.024 178.351C208.222 184.231 209.161 190.062 210.82 195.706Z" fill="black"/>
<path d="M214.183 197.961C214.118 197.959 214.055 197.938 214.002 197.901C213.949 197.864 213.907 197.811 213.884 197.751C213.884 197.674 211.139 190.108 211.279 178.007C211.419 165.907 217.826 159.334 217.89 159.27C217.95 159.21 218.031 159.177 218.116 159.177C218.201 159.177 218.282 159.21 218.342 159.27C218.402 159.33 218.436 159.412 218.436 159.497C218.436 159.581 218.402 159.663 218.342 159.723C218.278 159.786 212.062 166.091 211.922 178.014C211.782 189.936 214.47 197.445 214.47 197.521C214.498 197.601 214.494 197.688 214.459 197.765C214.423 197.841 214.358 197.9 214.279 197.929C214.249 197.946 214.217 197.957 214.183 197.961Z" fill="white"/>
<path d="M216.393 198.961L228.271 205.966C228.271 205.966 233.71 205.164 233.302 200.044C232.895 194.923 230.678 193.713 233.43 191.465C236.181 189.217 236.894 189.07 236.761 186.86C236.627 184.65 235.149 183.676 234.449 182.822C233.748 181.969 231.806 180.116 233.175 177.453C234.544 174.791 236.398 172.225 233.646 171.008C231.997 170.282 229.233 171.193 227.405 173.135C225.577 175.078 224.055 176.485 222.31 176.957C220.565 177.428 216.954 177.441 217.075 180.434C217.196 183.427 217.973 184.459 217.246 185.784C215.89 188.248 210.05 189.599 216.393 198.961Z" fill="#BA68C8"/>
<path d="M221.233 202.126C221.152 202.126 221.074 202.095 221.015 202.04C220.956 201.984 220.92 201.908 220.915 201.827C220.915 201.648 219.603 183.943 231.907 172.314C231.936 172.278 231.973 172.248 232.014 172.227C232.055 172.206 232.1 172.194 232.147 172.192C232.193 172.19 232.239 172.198 232.282 172.215C232.325 172.233 232.363 172.259 232.395 172.292C232.427 172.325 232.452 172.365 232.467 172.409C232.482 172.452 232.488 172.499 232.484 172.545C232.48 172.591 232.467 172.636 232.444 172.676C232.421 172.716 232.391 172.751 232.353 172.779C220.253 184.191 221.526 201.604 221.526 201.776C221.533 201.861 221.507 201.945 221.452 202.011C221.397 202.077 221.318 202.118 221.233 202.126Z" fill="white"/>
<path d="M223.361 186.943C223.28 186.943 223.203 186.913 223.144 186.859C223.085 186.804 223.049 186.73 223.042 186.65C222.948 185.289 222.58 183.961 221.959 182.746C221.339 181.531 220.479 180.454 219.431 179.58C219.397 179.556 219.368 179.525 219.347 179.489C219.325 179.453 219.31 179.413 219.304 179.372C219.297 179.331 219.299 179.288 219.309 179.248C219.318 179.207 219.336 179.169 219.361 179.135C219.386 179.101 219.417 179.072 219.452 179.05C219.488 179.028 219.528 179.014 219.569 179.007C219.611 179.001 219.653 179.002 219.694 179.012C219.734 179.022 219.773 179.04 219.807 179.065C220.938 179.984 221.867 181.129 222.535 182.426C223.203 183.722 223.594 185.143 223.685 186.599C223.689 186.641 223.684 186.684 223.671 186.724C223.657 186.765 223.636 186.802 223.608 186.834C223.58 186.866 223.546 186.892 223.508 186.911C223.47 186.93 223.428 186.94 223.386 186.943H223.361Z" fill="white"/>
<path d="M222.463 189.974C222.382 189.976 222.305 189.947 222.246 189.892C222.216 189.862 222.192 189.827 222.176 189.788C222.16 189.749 222.152 189.708 222.152 189.666C222.152 189.623 222.16 189.582 222.176 189.543C222.192 189.504 222.216 189.469 222.246 189.439C222.373 189.293 225.469 185.949 232.627 186.93C232.712 186.943 232.788 186.988 232.84 187.055C232.892 187.123 232.917 187.208 232.907 187.293C232.895 187.377 232.85 187.453 232.782 187.504C232.714 187.555 232.629 187.578 232.544 187.567C225.717 186.631 222.756 189.834 222.724 189.866C222.691 189.903 222.651 189.931 222.605 189.95C222.56 189.969 222.511 189.977 222.463 189.974Z" fill="white"/>
<path d="M80.0241 94.7796C79.4573 94.7796 78.8841 94.7796 78.3236 94.7096C78.2463 94.704 78.1708 94.683 78.1017 94.6477C78.0326 94.6124 77.9713 94.5637 77.9214 94.5043C77.8716 94.4449 77.8341 94.3761 77.8113 94.302C77.7885 94.2278 77.7808 94.1499 77.7886 94.0727C77.8032 93.9177 77.8782 93.7747 77.9974 93.6746C78.1166 93.5745 78.2704 93.5253 78.4255 93.5377C79.1813 93.6076 79.9409 93.6268 80.6992 93.595C80.8537 93.5932 81.0029 93.6511 81.1157 93.7568C81.2285 93.8624 81.296 94.0076 81.3042 94.1619C81.3094 94.3162 81.2534 94.4664 81.1485 94.5797C81.0435 94.693 80.8981 94.7603 80.7438 94.7669C80.4954 94.7796 80.2598 94.7796 80.0241 94.7796ZM83.0429 94.5376C82.8941 94.5401 82.7499 94.4859 82.6396 94.386C82.5293 94.2861 82.4612 94.148 82.449 93.9996C82.4368 93.8513 82.4816 93.7039 82.5741 93.5874C82.6667 93.4708 82.8002 93.3939 82.9474 93.3721C83.6948 93.2499 84.4331 93.0775 85.1574 92.8563C85.3036 92.8194 85.4583 92.8404 85.5894 92.9147C85.7206 92.9891 85.818 93.1111 85.8615 93.2555C85.905 93.3998 85.8911 93.5554 85.8228 93.6898C85.7546 93.8242 85.6371 93.9271 85.4949 93.9772C84.7228 94.2149 83.9356 94.4 83.1385 94.5312L83.0429 94.5376ZM76.0372 94.372H75.9226C75.1345 94.2026 74.3564 93.99 73.5916 93.7351C73.4443 93.6843 73.3227 93.578 73.2525 93.4388C73.1823 93.2997 73.1692 93.1387 73.2158 92.99C73.2666 92.8429 73.3732 92.7216 73.5127 92.6525C73.6521 92.5834 73.8132 92.5719 73.961 92.6206C74.6814 92.8584 75.4151 93.054 76.1582 93.2065C76.2339 93.2217 76.3058 93.2517 76.3697 93.295C76.4336 93.3383 76.4882 93.3939 76.5303 93.4585C76.5724 93.5232 76.6012 93.5956 76.615 93.6716C76.6287 93.7475 76.6272 93.8254 76.6104 93.9007C76.5844 94.0313 76.5148 94.1491 76.4129 94.2347C76.311 94.3204 76.183 94.3688 76.05 94.372H76.0372ZM87.5011 93.1556C87.368 93.156 87.2388 93.1112 87.1346 93.0284C87.0304 92.9457 86.9575 92.8299 86.9279 92.7002C86.8982 92.5705 86.9136 92.4346 86.9715 92.3148C87.0294 92.195 87.1263 92.0984 87.2463 92.041L87.6539 91.8436C87.7229 91.8046 87.799 91.7801 87.8778 91.7714C87.9565 91.7626 88.0362 91.77 88.112 91.7929C88.1878 91.8159 88.2581 91.854 88.3188 91.9049C88.3795 91.9558 88.4292 92.0185 88.465 92.0892C88.5007 92.1598 88.5218 92.237 88.5269 92.3161C88.532 92.3951 88.521 92.4743 88.4946 92.549C88.4682 92.6237 88.427 92.6922 88.3733 92.7505C88.3197 92.8088 88.2548 92.8556 88.1825 92.8881L87.7495 93.1046C87.6763 93.1423 87.596 93.1641 87.5138 93.1683L87.5011 93.1556ZM71.5791 92.9072C71.4931 92.9066 71.4083 92.887 71.3307 92.8499C70.6035 92.5111 69.8955 92.1326 69.2099 91.7162C69.1442 91.6744 69.0874 91.6201 69.0428 91.5563C68.9981 91.4926 68.9665 91.4206 68.9496 91.3446C68.9328 91.2686 68.931 91.1901 68.9445 91.1134C68.9581 91.0367 68.9865 90.9635 69.0284 90.8978C69.0702 90.8322 69.1245 90.7754 69.1883 90.7308C69.252 90.6861 69.324 90.6544 69.4 90.6376C69.4759 90.6207 69.5545 90.619 69.6312 90.6325C69.7078 90.646 69.7811 90.6745 69.8467 90.7163C70.4977 91.1091 71.1696 91.4663 71.8593 91.7863C71.9769 91.8456 72.0714 91.9424 72.1278 92.0614C72.1842 92.1803 72.1994 92.3147 72.1709 92.4433C72.1424 92.5719 72.0719 92.6873 71.9705 92.7713C71.8691 92.8553 71.7425 92.9031 71.6109 92.9072H71.5791ZM67.5667 90.487C67.4412 90.4842 67.3193 90.4443 67.2164 90.3724C66.5795 89.9011 65.9427 89.3853 65.3695 88.8375C65.3126 88.7857 65.2665 88.7231 65.2338 88.6535C65.2011 88.5838 65.1824 88.5084 65.1789 88.4315C65.1753 88.3546 65.187 88.2778 65.2131 88.2054C65.2393 88.133 65.2794 88.0665 65.3313 88.0096C65.3831 87.9527 65.4457 87.9066 65.5153 87.8739C65.585 87.8412 65.6604 87.8226 65.7373 87.819C65.8142 87.8155 65.891 87.8271 65.9634 87.8532C66.0358 87.8794 66.1023 87.9195 66.1592 87.9714C66.7324 88.4936 67.3247 88.984 67.9234 89.4362C68.0205 89.5107 68.0919 89.6138 68.1274 89.731C68.163 89.8481 68.161 89.9735 68.1216 90.0894C68.0823 90.2054 68.0076 90.3061 67.9081 90.3774C67.8085 90.4487 67.6891 90.4871 67.5667 90.487ZM64.1084 87.3345C64.0269 87.3349 63.9461 87.3181 63.8715 87.2852C63.7969 87.2523 63.73 87.204 63.6754 87.1434C63.1467 86.5639 62.6245 85.9461 62.1405 85.3092C62.0936 85.2482 62.0593 85.1785 62.0394 85.1041C62.0195 85.0298 62.0144 84.9523 62.0245 84.876C62.0448 84.7219 62.1254 84.5822 62.2488 84.4876C62.3721 84.393 62.5279 84.3513 62.682 84.3716C62.836 84.3919 62.9757 84.4726 63.0703 84.5959C63.5352 85.2328 64.032 85.7932 64.5415 86.3537C64.5934 86.4106 64.6336 86.4771 64.6597 86.5495C64.6859 86.6219 64.6975 86.6987 64.6939 86.7756C64.6904 86.8525 64.6717 86.9279 64.639 86.9976C64.6063 87.0672 64.5602 87.1298 64.5033 87.1816C64.4033 87.2725 64.2752 87.3264 64.1403 87.3345H64.1084ZM61.2871 83.6151C61.1887 83.6154 61.0919 83.5903 61.006 83.5424C60.9201 83.4944 60.848 83.4251 60.7967 83.3413C60.5419 82.9464 60.2935 82.5388 60.0579 82.1312C59.8987 81.8509 59.7394 81.5644 59.5866 81.2778C59.5281 81.1426 59.5227 80.9903 59.5715 80.8513C59.6203 80.7123 59.7196 80.5968 59.8497 80.5277C59.9798 80.4586 60.1311 80.4411 60.2736 80.4786C60.416 80.5161 60.5391 80.6059 60.6183 80.73C60.7648 81.0039 60.9177 81.2778 61.0705 81.5452C61.2998 81.9401 61.5354 82.3286 61.7838 82.7107C61.8392 82.8 61.8698 82.9023 61.8725 83.0072C61.8753 83.1122 61.8501 83.216 61.7996 83.308C61.749 83.4 61.6749 83.4769 61.5849 83.5309C61.4948 83.5849 61.392 83.6139 61.2871 83.6151ZM59.0962 79.4754C58.9809 79.4758 58.868 79.4422 58.7717 79.3787C58.6754 79.3153 58.6 79.2249 58.5548 79.1187C58.2428 78.3799 57.9625 77.6221 57.7205 76.8705C57.6967 76.7974 57.6875 76.7202 57.6934 76.6434C57.6994 76.5667 57.7204 76.4919 57.7553 76.4233C57.7902 76.3547 57.8383 76.2936 57.8968 76.2436C57.9553 76.1936 58.0231 76.1556 58.0963 76.1318C58.2449 76.0856 58.4058 76.0998 58.544 76.1713C58.6823 76.2428 58.7868 76.3659 58.8351 76.5139C59.0643 77.2336 59.3318 77.9532 59.6312 78.6602C59.6706 78.7488 59.6872 78.846 59.6793 78.9427C59.6715 79.0395 59.6395 79.1327 59.5862 79.2138C59.533 79.295 59.4602 79.3614 59.3746 79.4071C59.289 79.4528 59.1932 79.4763 59.0962 79.4754ZM57.6696 75.0172C57.5355 75.016 57.4058 74.9694 57.3017 74.8849C57.1976 74.8005 57.1252 74.6832 57.0964 74.5523C56.9261 73.7679 56.7986 72.9749 56.7143 72.1767C56.7 72.0232 56.7468 71.8703 56.8446 71.751C56.9424 71.6318 57.0832 71.5559 57.2365 71.5398C57.3182 71.5208 57.4032 71.5208 57.4849 71.5398C57.5276 71.4606 57.5886 71.3928 57.6628 71.3418C57.737 71.2909 57.8223 71.2583 57.9116 71.2469C58.6536 71.1444 59.3863 70.9825 60.1025 70.7629C60.2511 70.7164 60.4121 70.7309 60.5501 70.8032C60.688 70.8754 60.7916 70.9995 60.8381 71.1482C60.8845 71.2968 60.87 71.4578 60.7977 71.5958C60.7255 71.7337 60.6014 71.8373 60.4527 71.8838C59.6737 72.1214 58.8773 72.2982 58.0708 72.4124C58.0222 72.4188 57.9729 72.4188 57.9243 72.4124C58.0008 73.0493 58.109 73.6861 58.2428 74.2848C58.2595 74.3601 58.2611 74.438 58.2473 74.514C58.2336 74.5899 58.2048 74.6623 58.1627 74.727C58.1205 74.7917 58.0659 74.8473 58.002 74.8905C57.9382 74.9338 57.8663 74.9639 57.7906 74.979C57.7529 75.0003 57.7121 75.0153 57.6696 75.0236V75.0172ZM55.6507 72.5843C54.8426 72.5719 54.0362 72.5059 53.2369 72.3869C53.0843 72.3628 52.9475 72.2794 52.8561 72.155C52.7646 72.0305 52.7261 71.8749 52.7487 71.7222C52.7714 71.5694 52.8535 71.4317 52.9771 71.3392C53.1007 71.2466 53.2559 71.2065 53.4088 71.2278C54.1551 71.3423 54.9085 71.404 55.6634 71.4125C55.8188 71.4125 55.9678 71.4742 56.0777 71.5841C56.1876 71.694 56.2493 71.843 56.2493 71.9984C56.2493 72.1538 56.1876 72.3028 56.0777 72.4127C55.9678 72.5226 55.8188 72.5843 55.6634 72.5843H55.6507ZM51.0269 71.8965C50.9742 71.9057 50.9204 71.9057 50.8677 71.8965C50.0927 71.6699 49.3332 71.3934 48.594 71.0686C48.4513 71.0069 48.3389 70.8911 48.2816 70.7466C48.2242 70.602 48.2267 70.4407 48.2883 70.2979C48.35 70.1552 48.4658 70.0428 48.6103 69.9855C48.7548 69.9281 48.9162 69.9306 49.0589 69.9922C49.7547 70.292 50.4695 70.5452 51.1989 70.7501C51.3475 70.7945 51.4728 70.8954 51.5478 71.0312C51.6228 71.1669 51.6416 71.3267 51.6001 71.4762C51.5631 71.5995 51.4874 71.7076 51.3842 71.7844C51.2809 71.8613 51.1556 71.9028 51.0269 71.9029V71.8965ZM62.4462 71.0494C62.3166 71.0472 62.1914 71.002 62.0902 70.921C61.989 70.84 61.9175 70.7278 61.887 70.6018C61.8564 70.4759 61.8684 70.3433 61.9212 70.225C61.974 70.1066 62.0646 70.0091 62.1787 69.9476C62.8347 69.6112 63.4501 69.2009 64.0129 68.7248C64.1309 68.624 64.2838 68.5735 64.4386 68.5842C64.5934 68.595 64.7379 68.666 64.8409 68.7822C64.8912 68.8406 64.9295 68.9085 64.9535 68.9818C64.9776 69.0551 64.9869 69.1324 64.981 69.2093C64.9751 69.2863 64.954 69.3613 64.9191 69.4301C64.8841 69.4988 64.8359 69.56 64.7772 69.6101C64.1495 70.15 63.4588 70.6119 62.72 70.9858C62.6357 71.0306 62.5418 71.0547 62.4462 71.0558V71.0494ZM57.1919 70.3616C57.0359 70.3583 56.8876 70.2935 56.7791 70.1814C56.6705 70.0693 56.6106 69.919 56.6124 69.7629C56.6252 68.9575 56.6868 68.1535 56.797 67.3555C56.805 67.277 56.8288 67.2009 56.8669 67.1317C56.9051 67.0626 56.9568 67.0019 57.019 66.9532C57.0811 66.9046 57.1525 66.869 57.2288 66.8487C57.3051 66.8283 57.3847 66.8235 57.4628 66.8347C57.541 66.8459 57.6161 66.8727 57.6836 66.9136C57.7511 66.9545 57.8097 67.0087 57.8558 67.0728C57.9019 67.1369 57.9345 67.2097 57.9518 67.2867C57.969 67.3637 57.9705 67.4435 57.9562 67.5211C57.8534 68.2706 57.7959 69.0256 57.7842 69.7821C57.7825 69.938 57.7194 70.0871 57.6085 70.1968C57.4976 70.3065 57.3479 70.368 57.1919 70.368V70.3616ZM46.7216 70.0623C46.6192 70.0607 46.5187 70.0345 46.4286 69.9859C45.732 69.5802 45.0599 69.1335 44.4161 68.6484C44.354 68.6032 44.3017 68.5459 44.2622 68.4801C44.2227 68.4142 44.1969 68.3411 44.1862 68.2651C44.1755 68.189 44.1802 68.1116 44.2 68.0374C44.2198 67.9632 44.2543 67.8938 44.3014 67.8332C44.3473 67.7712 44.405 67.7188 44.4712 67.6791C44.5374 67.6395 44.6108 67.6133 44.6871 67.602C44.7634 67.5908 44.8412 67.5947 44.916 67.6136C44.9909 67.6325 45.0612 67.666 45.123 67.7122C45.7322 68.177 46.3704 68.6024 47.0337 68.986C47.1464 69.05 47.2347 69.1496 47.2848 69.2692C47.3349 69.3888 47.3439 69.5216 47.3104 69.6468C47.2769 69.7721 47.2028 69.8827 47.0997 69.9613C46.9966 70.04 46.8703 70.0822 46.7407 70.0814L46.7216 70.0623ZM65.9044 67.9733C65.8018 67.9736 65.7009 67.9473 65.6115 67.8969C65.5449 67.8581 65.4867 67.8065 65.4401 67.7451C65.3935 67.6837 65.3595 67.6138 65.3399 67.5392C65.3204 67.4647 65.3158 67.387 65.3263 67.3107C65.3369 67.2344 65.3623 67.1609 65.4013 67.0944C65.5686 66.8041 65.7093 66.4993 65.8217 66.1837C65.9423 65.8474 66.0152 65.4958 66.0382 65.1392C66.0429 65.0613 66.0634 64.9851 66.0983 64.9153C66.1332 64.8455 66.1819 64.7834 66.2413 64.7329C66.3008 64.6823 66.3699 64.6443 66.4444 64.6211C66.519 64.5979 66.5974 64.59 66.6751 64.5978C66.7527 64.6034 66.8284 64.6245 66.8978 64.6596C66.9672 64.6948 67.0289 64.7435 67.0793 64.8028C67.1297 64.8621 67.1678 64.9308 67.1913 65.0049C67.2149 65.0791 67.2234 65.1572 67.2164 65.2347C67.1828 65.6952 67.0886 66.1491 66.9362 66.5849C66.8002 66.9689 66.6296 67.3398 66.4267 67.6931C66.3727 67.7827 66.296 67.8565 66.2042 67.9068C66.1125 67.9572 66.0091 67.9823 65.9044 67.9797V67.9733ZM42.9767 67.2473C42.8246 67.2465 42.6787 67.1872 42.5691 67.0817L42.1806 66.6868C41.7539 66.2474 41.3399 65.7824 40.9451 65.2984C40.8471 65.1776 40.8011 65.0229 40.8173 64.8682C40.8334 64.7136 40.9103 64.5716 41.0311 64.4737C41.1518 64.3757 41.3066 64.3297 41.4612 64.3458C41.6159 64.3619 41.7579 64.4389 41.8558 64.5596C42.2252 65.0182 42.6201 65.4576 43.0213 65.8716L43.3843 66.241C43.4394 66.295 43.4832 66.3594 43.513 66.4304C43.5429 66.5015 43.5583 66.5779 43.5583 66.655C43.5583 66.7321 43.5429 66.8084 43.513 66.8795C43.4832 66.9506 43.4394 67.015 43.3843 67.0689C43.2806 67.1779 43.1396 67.2439 42.9895 67.2536L42.9767 67.2473ZM57.8543 65.7315C57.7973 65.7408 57.7393 65.7408 57.6823 65.7315C57.6087 65.7089 57.5402 65.6721 57.4809 65.6231C57.4215 65.5741 57.3723 65.5138 57.3363 65.4458C57.3002 65.3778 57.2779 65.3033 57.2706 65.2267C57.2633 65.15 57.2712 65.0727 57.2938 64.9991C57.5295 64.1998 57.87 63.4353 58.3065 62.7254C58.3909 62.5937 58.5242 62.5009 58.6771 62.4674C58.83 62.434 58.9899 62.4626 59.1217 62.5471C59.2534 62.6315 59.3462 62.7649 59.3797 62.9178C59.4131 63.0706 59.3844 63.2305 59.3 63.3623C58.9177 63.9845 58.62 64.6549 58.4147 65.3557C58.374 65.4681 58.2995 65.5652 58.2014 65.6336C58.1034 65.702 57.9866 65.7384 57.867 65.7379L57.8543 65.7315ZM40.0216 63.617C39.9239 63.6174 39.8278 63.593 39.742 63.5463C39.6563 63.4995 39.5838 63.4318 39.5312 63.3495C39.095 62.6784 38.6932 61.9854 38.3275 61.2733C38.2566 61.1348 38.2435 60.9738 38.2913 60.8257C38.3391 60.6776 38.4437 60.5545 38.5823 60.4836C38.7208 60.4126 38.8818 60.3996 39.0299 60.4474C39.178 60.4952 39.301 60.5998 39.372 60.7383C39.7178 61.4156 40.0983 62.0746 40.512 62.7127C40.5692 62.801 40.6016 62.9032 40.6056 63.0084C40.6097 63.1135 40.5854 63.2179 40.5352 63.3104C40.4851 63.4029 40.4109 63.4803 40.3205 63.5342C40.2301 63.5882 40.1269 63.6168 40.0216 63.617ZM66.242 63.4706C66.126 63.4705 66.0126 63.4359 65.9162 63.3713C65.8198 63.3066 65.7448 63.2149 65.7006 63.1075C65.4569 62.4828 65.0336 61.9443 64.4842 61.5599C64.3737 61.468 64.3009 61.3386 64.2796 61.1965C64.2582 61.0543 64.2899 60.9093 64.3685 60.789C64.4472 60.6687 64.5673 60.5814 64.7061 60.5439C64.8448 60.5064 64.9925 60.5212 65.1211 60.5855C65.8621 61.0998 66.4339 61.8224 66.7642 62.6617C66.7945 62.7323 66.8104 62.8082 66.8111 62.885C66.8118 62.9619 66.7971 63.038 66.7681 63.1091C66.7391 63.1803 66.6962 63.2449 66.6419 63.2993C66.5877 63.3537 66.5232 63.3967 66.4522 63.426C66.3898 63.4544 66.323 63.4716 66.2547 63.4769L66.242 63.4706ZM60.4018 61.9038C60.3066 61.9034 60.2129 61.88 60.1286 61.8357C60.0444 61.7913 59.972 61.7273 59.9178 61.6491C59.8742 61.5855 59.8436 61.514 59.8277 61.4387C59.8118 61.3633 59.8109 61.2855 59.8251 61.2098C59.8393 61.1341 59.8683 61.0619 59.9104 60.9974C59.9526 60.9329 60.007 60.8773 60.0706 60.8339C60.7999 60.3295 61.6463 60.0203 62.529 59.9359C62.6079 59.9244 62.6884 59.9291 62.7654 59.9498C62.8424 59.9705 62.9144 60.0068 62.977 60.0563C63.0395 60.1058 63.0913 60.1675 63.1292 60.2378C63.167 60.308 63.1901 60.3852 63.1971 60.4647C63.204 60.5441 63.1947 60.6242 63.1696 60.6999C63.1445 60.7756 63.1042 60.8454 63.0512 60.905C62.9982 60.9647 62.9336 61.0128 62.8613 61.0466C62.789 61.0803 62.7106 61.099 62.6309 61.1014C61.9435 61.1676 61.2851 61.4112 60.7202 61.8083C60.6288 61.8679 60.5235 61.903 60.4145 61.9102L60.4018 61.9038ZM37.8753 59.4582C37.7585 59.4576 37.6446 59.4221 37.5482 59.3563C37.4517 59.2905 37.3771 59.1973 37.334 59.0888C37.041 58.3564 36.7735 57.5985 36.5442 56.8279C36.5179 56.7532 36.5071 56.6739 36.5123 56.5949C36.5175 56.5158 36.5387 56.4387 36.5746 56.3681C36.6104 56.2974 36.6602 56.2348 36.721 56.184C36.7817 56.1332 36.8522 56.0952 36.928 56.0724C37.0038 56.0495 37.0835 56.0423 37.1622 56.0511C37.2409 56.06 37.3171 56.0847 37.386 56.1237C37.4549 56.1628 37.5151 56.2154 37.5631 56.2784C37.6111 56.3414 37.6458 56.4135 37.6651 56.4903C37.888 57.2228 38.1428 57.9552 38.423 58.6557C38.4776 58.8003 38.4735 58.9605 38.4116 59.1021C38.3498 59.2437 38.235 59.3555 38.0919 59.4136C38.0282 59.4446 37.9588 59.4619 37.8881 59.4646L37.8753 59.4582ZM36.5188 55C36.3844 55 36.2541 54.9538 36.1498 54.8692C36.0454 54.7845 35.9733 54.6666 35.9456 54.5351C35.78 53.7645 35.6462 52.9748 35.538 52.1787C35.5286 52.0304 35.5758 51.8842 35.6702 51.7695C35.7645 51.6548 35.8989 51.5802 36.0461 51.5608C36.1934 51.5413 36.3425 51.5786 36.4633 51.6649C36.5842 51.7512 36.6677 51.8802 36.6971 52.0258C36.799 52.7901 36.9327 53.548 37.092 54.2931C37.124 54.4451 37.0944 54.6037 37.0096 54.7338C36.9248 54.864 36.7918 54.9552 36.6398 54.9873L36.5188 55ZM35.8819 50.3572C35.7323 50.3559 35.5887 50.298 35.4801 50.1953C35.3714 50.0925 35.3056 49.9524 35.2959 49.8031C35.2959 49.1662 35.245 48.5293 35.245 47.8925V47.4021C35.2516 47.2477 35.3175 47.1019 35.4291 46.9951C35.5407 46.8883 35.6892 46.8287 35.8437 46.8289C35.9206 46.8288 35.9967 46.8443 36.0675 46.8742C36.1383 46.9042 36.2024 46.9482 36.2559 47.0034C36.3094 47.0587 36.3512 47.1242 36.3788 47.1959C36.4065 47.2677 36.4194 47.3443 36.4169 47.4212V47.8925C36.4169 48.5293 36.4169 49.1153 36.4678 49.7203C36.4739 49.7981 36.4645 49.8764 36.4403 49.9506C36.416 50.0248 36.3773 50.0934 36.3264 50.1526C36.2755 50.2118 36.2134 50.2604 36.1437 50.2955C36.0739 50.3306 35.9979 50.3515 35.9201 50.3572H35.8819Z" fill="#263238"/>
<path d="M41.7539 29.0344L38.2511 44.2559L0 36.0465L41.7539 29.0344Z" fill="#BA68C8"/>
<path opacity="0.3" d="M41.7539 29.0344L38.2511 44.2559L0 36.0465L41.7539 29.0344Z" fill="black"/>
<path d="M0 36.0465L47.626 34.7727L58.816 52.0194L0 36.0465Z" fill="#BA68C8"/>
<path d="M0 36.0466L41.7539 29.0345L31.9141 17.6216L0 36.0466Z" fill="#BA68C8"/>
<path d="M165.889 194.656L155.81 194.399L155.29 214.805L165.369 215.062L165.889 194.656Z" fill="#945959"/>
<path d="M152.648 112.721C152.648 112.721 151.941 147.443 152.183 161.2C152.367 171.562 153.985 202.597 153.985 202.597C153.985 202.597 160.519 206.864 167.404 203.298C167.404 203.298 171.378 171.951 170.41 162.506C170.286 161.36 170.286 160.205 170.41 159.06L176.486 106.492L152.648 112.721Z" fill="#37474F"/>
<path d="M158.774 211.979C158.774 211.979 164.36 211.342 165.487 209.52V208.336C165.487 208.336 166.455 208.851 166.271 210.813C166.105 212.635 166.831 215.736 166.939 219.519C166.946 219.828 166.881 220.134 166.748 220.413C166.615 220.691 166.419 220.935 166.175 221.124C165.092 221.958 162.806 223.239 158.774 223.411C157.361 223.474 151.705 227.098 146.999 227.098C142.292 227.098 139.216 224.767 139.216 221.506C139.216 218.245 148.814 215.297 148.814 215.297L153.425 210.839C153.425 210.839 152.527 205.979 155.463 207.145C158.399 208.31 158.774 209.52 158.774 211.979Z" fill="#37474F"/>
<path d="M157.755 214.813C157.693 214.813 157.632 214.793 157.582 214.757C157.532 214.72 157.494 214.668 157.475 214.609C156.494 211.673 153.431 211.132 153.399 211.125C153.361 211.119 153.325 211.105 153.292 211.085C153.259 211.065 153.23 211.038 153.208 211.007C153.186 210.975 153.169 210.94 153.161 210.902C153.152 210.865 153.151 210.826 153.157 210.788C153.171 210.711 153.214 210.644 153.277 210.599C153.34 210.553 153.418 210.534 153.495 210.546C154.521 210.746 155.478 211.208 156.273 211.888C157.067 212.567 157.673 213.441 158.029 214.424C158.054 214.498 158.048 214.578 158.013 214.647C157.978 214.716 157.918 214.769 157.845 214.794L157.755 214.813Z" fill="#FAFAFA"/>
<path d="M155.915 216.634C155.853 216.633 155.793 216.612 155.743 216.576C155.693 216.539 155.655 216.489 155.635 216.43C154.66 213.507 151.59 212.953 151.559 212.947C151.521 212.941 151.484 212.927 151.452 212.906C151.419 212.886 151.391 212.859 151.369 212.828C151.347 212.796 151.332 212.761 151.324 212.723C151.316 212.686 151.316 212.647 151.323 212.609C151.329 212.571 151.343 212.534 151.363 212.502C151.383 212.469 151.41 212.44 151.441 212.418C151.473 212.395 151.508 212.379 151.546 212.371C151.583 212.362 151.622 212.361 151.66 212.367C152.687 212.567 153.644 213.029 154.439 213.709C155.233 214.389 155.838 215.263 156.195 216.246C156.207 216.282 156.211 216.321 156.208 216.36C156.205 216.398 156.194 216.436 156.176 216.47C156.159 216.504 156.134 216.535 156.105 216.56C156.075 216.585 156.041 216.603 156.004 216.615C155.976 216.628 155.946 216.635 155.915 216.634Z" fill="#FAFAFA"/>
<path d="M154.316 218.214C154.256 218.214 154.196 218.195 154.147 218.16C154.098 218.124 154.061 218.074 154.042 218.016C153.068 215.087 149.998 214.533 149.966 214.526C149.925 214.525 149.884 214.514 149.847 214.496C149.809 214.477 149.776 214.451 149.75 214.419C149.724 214.386 149.705 214.349 149.694 214.309C149.683 214.268 149.681 214.226 149.688 214.185C149.695 214.144 149.711 214.105 149.734 214.07C149.757 214.036 149.787 214.007 149.822 213.985C149.858 213.963 149.898 213.948 149.939 213.943C149.98 213.937 150.022 213.941 150.062 213.953C151.089 214.151 152.047 214.613 152.842 215.293C153.637 215.973 154.241 216.848 154.597 217.832C154.621 217.905 154.615 217.985 154.58 218.054C154.546 218.124 154.485 218.176 154.412 218.201L154.316 218.214Z" fill="#FAFAFA"/>
<path d="M139.241 221.506C139.241 224.729 142.254 227.041 146.884 227.092L153.476 224.449C153.476 217.615 148.852 215.297 148.852 215.297C148.852 215.297 139.241 218.252 139.241 221.506Z" fill="#EBEBEB"/>
<path d="M166.799 219.799C165.672 220.672 163.277 222.016 159.061 222.2C157.577 222.264 151.667 226.022 146.744 226.022C143.368 226.022 140.795 224.875 139.509 223.047C140.343 225.461 143.12 227.066 147.024 227.066C151.731 227.066 157.386 223.442 158.8 223.379C162.831 223.207 165.118 221.927 166.2 221.092C166.425 220.917 166.608 220.696 166.738 220.443C166.868 220.19 166.941 219.912 166.952 219.627C166.905 219.688 166.854 219.746 166.799 219.799Z" fill="#263238"/>
<path d="M158.488 117.58C158.488 117.58 159.411 125.439 165.436 129.592L170.754 156.258L174.168 122.917L158.488 117.58Z" fill="#263238"/>
<path d="M193.101 200.25L183.05 201.036L184.641 221.386L194.692 220.6L193.101 200.25Z" fill="#945959"/>
<path d="M189.236 113.549C189.236 113.549 190.453 118.153 191.039 137.151C191.51 152.207 191.86 160.869 191.988 163.811C192.019 164.544 192.097 165.273 192.223 165.996C193.461 173.588 194.291 181.242 194.707 188.923C195.567 203.572 195.637 210.507 195.637 210.507C195.637 210.507 189.421 215.367 181.919 211.552L174.658 167.9L167.016 127.388C167.016 127.388 156.539 123.395 155.616 112.74L189.236 113.549Z" fill="#37474F"/>
<path d="M194.331 215.934L194.491 217.921C194.491 217.921 193.293 219.602 191.88 220.092C191.88 220.092 190.797 216.137 188.88 215.934C186.963 215.73 182.982 215.551 183.517 217.755C183.816 218.904 184.001 220.079 184.071 221.264L180.377 228.149C180.377 228.149 172.881 234.607 176.015 238.721C179.148 242.835 189.663 240.632 190.701 234.174C190.867 233.201 191.233 232.273 191.774 231.448C192.315 230.623 193.021 229.918 193.847 229.378C194.525 228.951 195.059 228.329 195.378 227.594C195.697 226.859 195.787 226.045 195.637 225.257C195.446 223.78 195 220.939 195.134 219.659C195.268 218.379 195.624 215.953 194.331 215.934Z" fill="#37474F"/>
<path d="M176.015 238.721C178.62 242.141 186.3 241.205 189.434 237.091C189.571 236.422 189.64 235.742 189.638 235.059C189.638 227.703 180.377 228.149 180.377 228.149C180.377 228.149 172.881 234.607 176.015 238.721Z" fill="#EBEBEB"/>
<path d="M195.637 225.258C195.637 225.149 195.605 225.022 195.586 224.895C195.514 225.483 195.31 226.047 194.989 226.546C194.668 227.044 194.239 227.464 193.733 227.773C192.879 228.332 192.15 229.061 191.591 229.915C191.032 230.769 190.656 231.729 190.485 232.735C189.428 239.345 178.792 241.651 175.416 237.568C175.546 237.985 175.749 238.375 176.015 238.721C179.148 242.842 189.663 240.632 190.701 234.174C190.867 233.201 191.233 232.273 191.774 231.448C192.315 230.623 193.021 229.918 193.847 229.378C194.525 228.951 195.059 228.329 195.378 227.594C195.697 226.859 195.787 226.045 195.637 225.258Z" fill="#263238"/>
<path d="M189.517 222.799C189.442 222.8 189.369 222.773 189.313 222.723C187.071 220.602 184.103 221.564 184.071 221.576C184.034 221.592 183.994 221.6 183.954 221.6C183.913 221.599 183.873 221.59 183.836 221.574C183.8 221.557 183.766 221.533 183.739 221.503C183.712 221.473 183.692 221.438 183.679 221.399C183.666 221.361 183.661 221.32 183.665 221.28C183.669 221.24 183.681 221.201 183.7 221.165C183.72 221.13 183.746 221.099 183.778 221.074C183.811 221.05 183.847 221.032 183.887 221.022C184.885 220.711 185.947 220.665 186.969 220.888C187.991 221.112 188.937 221.597 189.714 222.296C189.742 222.323 189.764 222.355 189.779 222.391C189.795 222.426 189.803 222.464 189.803 222.503C189.803 222.542 189.795 222.58 189.779 222.616C189.764 222.651 189.742 222.683 189.714 222.71C189.662 222.763 189.591 222.795 189.517 222.799Z" fill="#FAFAFA"/>
<path d="M188.23 225.353C188.157 225.353 188.087 225.325 188.033 225.277C185.791 223.156 182.823 224.118 182.791 224.13C182.717 224.155 182.636 224.149 182.566 224.114C182.496 224.078 182.443 224.017 182.419 223.943C182.394 223.868 182.4 223.787 182.435 223.717C182.471 223.647 182.532 223.594 182.607 223.57C183.605 223.262 184.667 223.217 185.688 223.441C186.709 223.664 187.655 224.147 188.434 224.844C188.487 224.899 188.517 224.974 188.517 225.051C188.517 225.128 188.487 225.202 188.434 225.258C188.381 225.314 188.308 225.348 188.23 225.353Z" fill="#FAFAFA"/>
<path d="M186.95 227.907C186.877 227.906 186.807 227.879 186.753 227.83C184.511 225.71 181.543 226.671 181.511 226.684C181.437 226.709 181.356 226.702 181.286 226.667C181.216 226.632 181.163 226.57 181.139 226.496C181.114 226.422 181.12 226.341 181.155 226.271C181.191 226.201 181.252 226.148 181.326 226.124C182.325 225.814 183.387 225.768 184.408 225.991C185.43 226.215 186.376 226.699 187.154 227.397C187.207 227.453 187.237 227.527 187.237 227.604C187.237 227.681 187.207 227.756 187.154 227.811C187.1 227.867 187.028 227.901 186.95 227.907Z" fill="#FAFAFA"/>
<path d="M122.51 31.1362C121.905 28.5663 121.479 25.9572 121.237 23.328C121.084 20.2519 120.192 19.1756 118.313 20.7168C116.435 22.2581 112.155 26.729 112.409 30.2127C112.618 34.073 113.846 37.809 115.97 41.0397L121.447 42.6956L123.638 38.1992L122.51 31.1362Z" fill="#945959"/>
<path d="M146.253 58.9808L135.28 56.5543C135.28 56.5543 130.605 48.9818 127.898 44.9885C125.192 40.9953 123.657 38.2312 123.657 38.2312L118.562 36.6836L115.963 41.0717C115.963 41.0717 124.504 62.2989 128.465 65.9101C130.459 67.7061 143.336 71.6929 143.336 71.6929C143.336 71.6929 148.744 65.9865 146.253 58.9808Z" fill="#945959"/>
<path d="M160.086 61.9613L146.253 58.9807C146.065 63.3498 145.086 67.6484 143.362 71.6674L157.259 75.9727L160.086 61.9613Z" fill="#BA68C8"/>
<path opacity="0.3" d="M160.086 61.9613L146.253 58.9807C146.065 63.3498 145.086 67.6484 143.362 71.6674L157.259 75.9727L160.086 61.9613Z" fill="white"/>
<path d="M179.276 63.6234L185.708 65.6487L189.236 84.6787L187.147 93.9071C186.861 95.1605 186.807 96.4556 186.988 97.7284L189.236 113.549C189.236 113.549 182.868 117.612 171.155 117.612C159.443 117.612 152.648 112.752 152.648 112.752L153.533 76.8451C153.863 71.2587 156.189 65.9768 160.086 61.9612L168.067 62.8847L179.276 63.6234Z" fill="#BA68C8"/>
<path d="M158.997 33.4163C158.997 33.4163 152.851 38.8106 158.195 50.835L164.443 34.5754L158.997 33.4163Z" fill="#263238"/>
<path d="M179.276 63.6234L171.531 66.1136L168.067 62.8846V48.3701H179.276V63.6234Z" fill="#945959"/>
<path d="M168.067 61.9612C171.85 61.9612 177.62 58.5921 177.62 56.2293L178.894 48.3511H168.067V61.9612Z" fill="#703838"/>
<path d="M171.047 30.1172C167.277 30.1172 159.258 32.2189 158.31 42.0842C157.361 51.9495 158.832 60.3499 163.373 60.3499C172.289 60.3499 180.861 59.2163 180.932 44.619C181.008 31.7094 174.728 30.1172 171.047 30.1172Z" fill="#945959"/>
<path d="M179.276 53.236L177.824 48.7778C177.715 48.8696 177.582 48.9285 177.441 48.9476C177.299 48.9668 177.156 48.9454 177.026 48.886C176.897 48.8266 176.787 48.7316 176.709 48.6121C176.632 48.4926 176.59 48.3535 176.588 48.211V40.25C176.588 40.25 172.881 39.1991 173.276 36.0784C173.276 36.0784 171.366 37.7789 164.099 37.7789C156.832 37.7789 155.055 31.6075 155.781 28.2065C155.781 28.2065 157.131 29.6013 160.978 29.6013C164.825 29.6013 180.842 24.7674 181.256 34.4416C181.256 34.4416 182.607 32.4609 184.791 34.4416L181.982 36.1102C181.982 36.1102 185.313 36.0083 184.791 40.8932C184.453 44.0776 183.275 49.7395 182.511 53.2105C182.084 55.1499 180.925 56.8496 179.276 57.9553V53.236Z" fill="#263238"/>
<path d="M165.532 45.0203V51.3572L161.819 50.2172L165.532 45.0203Z" fill="#703838"/>
<path d="M171.429 46.0394C171.428 46.2734 171.357 46.5018 171.227 46.6957C171.096 46.8897 170.91 47.0406 170.694 47.1292C170.477 47.2179 170.239 47.2405 170.01 47.194C169.78 47.1476 169.57 47.0343 169.405 46.8684C169.24 46.7025 169.128 46.4914 169.082 46.2618C169.037 46.0321 169.061 45.7943 169.151 45.5782C169.241 45.3621 169.393 45.1775 169.587 45.0476C169.782 44.9177 170.011 44.8484 170.245 44.8484C170.401 44.8484 170.555 44.8792 170.699 44.9392C170.844 44.9991 170.974 45.0869 171.085 45.1976C171.195 45.3083 171.282 45.4396 171.341 45.5841C171.4 45.7285 171.43 45.8833 171.429 46.0394Z" fill="#263238"/>
<path d="M162.558 45.1985C162.558 45.4328 162.488 45.6618 162.358 45.8566C162.228 46.0515 162.043 46.2033 161.826 46.2929C161.61 46.3826 161.372 46.4061 161.142 46.3603C160.912 46.3146 160.701 46.2018 160.535 46.0362C160.37 45.8705 160.257 45.6594 160.211 45.4296C160.165 45.1998 160.189 44.9616 160.278 44.7452C160.368 44.5287 160.52 44.3437 160.715 44.2136C160.91 44.0834 161.139 44.0139 161.373 44.0139C161.687 44.0139 161.988 44.1387 162.211 44.3609C162.433 44.583 162.558 44.8843 162.558 45.1985Z" fill="#263238"/>
<path d="M159.927 42.7275L162.245 41.3519C162.245 41.3519 161.354 40.4284 160.469 40.9825C159.583 41.5366 159.927 42.7275 159.927 42.7275Z" fill="#263238"/>
<path d="M172.658 43.5874L170.334 42.2181C170.334 42.2181 171.225 41.2946 172.111 41.8487C172.996 42.4028 172.658 43.5874 172.658 43.5874Z" fill="#263238"/>
<path d="M165.831 54.4013C165.831 54.4013 167.551 53.2995 169.207 52.0576C169.207 52.0576 170.168 53.9301 168.652 54.8981C167.137 55.8662 165.831 54.4013 165.831 54.4013Z" fill="#703838"/>
<path d="M177.722 48.8414L181.823 44.396L178.874 42.6255L177.722 48.8414Z" fill="#253239"/>
<path d="M178.397 47.1092C177.053 49.4401 177.403 52.2679 179.276 53.236C180.479 53.8728 184.033 52.5163 185.377 50.1853C186.721 47.8543 185.969 45.8609 184.141 44.81C182.314 43.7592 179.741 44.7654 178.397 47.1092Z" fill="#945959"/>
<path d="M168.067 62.8848L166.538 65.3113C166.243 65.7782 166.05 66.302 165.971 66.8485C165.892 67.3951 165.929 67.9521 166.08 68.4833C166.231 69.0145 166.492 69.508 166.846 69.9315C167.201 70.3551 167.64 70.6992 168.137 70.9414C169.039 71.3801 170.022 71.6255 171.025 71.6618C172.027 71.6981 173.026 71.5245 173.957 71.1521C174.888 70.7797 175.731 70.2168 176.432 69.4994C177.133 68.782 177.677 67.926 178.027 66.9863L179.301 63.6236L173.697 61.6174L168.067 62.8848Z" fill="#945959"/>
<path d="M123.657 38.2311C123.657 38.2311 125.529 35.3778 125.497 32.6711C125.466 29.9643 125.803 28.7097 126.268 28.0601C126.733 27.4104 126.211 26.4615 124.962 26.7863C123.905 27.0729 122.6 28.6969 122.313 30.1936C122.271 30.4317 122.177 30.6575 122.037 30.8547C121.897 31.0519 121.715 31.2155 121.504 31.3336C120.186 32.0406 117.727 34.0659 118.893 38.9762L123.657 38.2311Z" fill="#945959"/>
<path d="M118.651 35.6326C118.593 35.6232 118.541 35.5911 118.506 35.5433C118.471 35.4956 118.457 35.4361 118.466 35.3778C118.589 34.4917 118.918 33.6469 119.428 32.9121C119.939 32.1773 120.615 31.5733 121.402 31.1489C121.586 31.0501 121.745 30.9102 121.867 30.7402C121.988 30.5701 122.069 30.3744 122.103 30.1681C122.115 30.1109 122.149 30.0609 122.198 30.0287C122.247 29.9965 122.307 29.9848 122.364 29.9962C122.392 30.0015 122.419 30.0123 122.443 30.0281C122.466 30.0438 122.487 30.0641 122.503 30.0877C122.519 30.1114 122.53 30.138 122.536 30.166C122.541 30.194 122.541 30.2229 122.536 30.2509C122.487 30.5189 122.379 30.7726 122.219 30.9931C122.059 31.2136 121.852 31.3952 121.612 31.5247C120.884 31.9166 120.259 32.4751 119.787 33.1546C119.316 33.8342 119.011 34.6156 118.899 35.4351C118.897 35.4648 118.889 35.4937 118.875 35.52C118.861 35.5463 118.841 35.5695 118.818 35.588C118.795 35.6065 118.768 35.62 118.739 35.6277C118.71 35.6354 118.68 35.637 118.651 35.6326Z" fill="#703838"/>
<path d="M186.651 89.1116L189.478 95.0728L203.993 100.817L198.14 83.0803L186.651 89.1116Z" fill="#945959"/>
<path d="M184.848 65.3813C184.848 65.3813 180.008 70.3554 182.103 77.3675C183.282 81.4043 184.804 85.3333 186.651 89.1115C186.651 89.1115 194.809 89.3536 198.115 83.0803L193.956 72.5845C193.3 70.9343 192.267 69.4604 190.94 68.2805C189.613 67.1006 188.029 66.2473 186.313 65.789L184.848 65.3813Z" fill="#BA68C8"/>
<path opacity="0.3" d="M184.848 65.3813C184.848 65.3813 180.008 70.3554 182.103 77.3675C183.282 81.4043 184.804 85.3333 186.651 89.1115C186.651 89.1115 194.809 89.3536 198.115 83.0803L193.956 72.5845C193.3 70.9343 192.267 69.4604 190.94 68.2805C189.613 67.1006 188.029 66.2473 186.313 65.789L184.848 65.3813Z" fill="white"/>
<path d="M188.663 93.9644C192.332 95.0408 203.146 98.2443 203.146 98.2443C203.146 98.2443 203.229 98.4799 203.993 100.792C205.165 104.39 201.445 113.096 188.275 106.778C175.104 100.461 170.296 97.0788 170.296 97.0788L171.729 89.0859C171.729 89.0859 184.479 92.7353 188.663 93.9644Z" fill="#945959"/>
<path d="M189.052 94.1493L195.873 96.1172L188.237 92.4297L189.052 94.1493Z" fill="#703838"/>
<path d="M169.691 100.69L161.131 99.7793C160.824 99.7481 160.534 99.6241 160.3 99.4238C160.065 99.2235 159.898 98.9565 159.819 98.6584L155.144 81.0678C155.112 80.9475 155.109 80.8213 155.134 80.6995C155.16 80.5776 155.214 80.4636 155.293 80.3668C155.371 80.2699 155.471 80.1929 155.585 80.142C155.698 80.0912 155.822 80.068 155.947 80.0742L164.226 80.4627C164.534 80.4753 164.83 80.5859 165.07 80.7783C165.311 80.9708 165.484 81.2351 165.564 81.5327L170.544 99.7029C170.575 99.8271 170.576 99.957 170.547 100.082C170.517 100.206 170.458 100.322 170.374 100.419C170.291 100.516 170.185 100.591 170.066 100.638C169.947 100.685 169.818 100.703 169.691 100.69Z" fill="#37474F"/>
<path d="M158.488 82.6536C158.488 82.8 158.444 82.9431 158.363 83.0647C158.281 83.1863 158.166 83.281 158.03 83.3367C157.895 83.3925 157.746 83.4067 157.603 83.3777C157.459 83.3487 157.327 83.2777 157.224 83.1737C157.121 83.0697 157.051 82.9375 157.024 82.7938C156.996 82.6501 157.011 82.5013 157.068 82.3664C157.125 82.2316 157.221 82.1166 157.343 82.0362C157.466 81.9558 157.609 81.9136 157.755 81.9148C157.95 81.9165 158.137 81.9951 158.274 82.1334C158.411 82.2718 158.488 82.4588 158.488 82.6536Z" fill="#263238"/>
<path d="M171.729 89.1115C171.729 89.1115 169.251 84.8062 166.175 83.7617L167.404 88.4937C167.404 88.4937 165.067 88.6784 162.424 88.6784C159.781 88.6784 156.889 86.8952 156.055 86.4366C155.221 85.9781 154.444 89.1752 157.768 95.2001C161.093 101.225 170.321 97.1107 170.321 97.1107L171.729 89.1115Z" fill="#945959"/>
<path d="M209.126 2.4956L213.737 5.11954V3.48913C213.737 3.37449 213.737 3.25348 213.737 3.14521C213.737 3.03694 213.737 2.92231 213.737 2.81404V2.77582C213.903 0.610427 215.54 -0.217518 217.559 0.935236C218.463 1.4932 219.239 2.23798 219.832 3.11974C220.284 0.183717 222.679 -0.879875 225.564 0.795122C228.774 2.64845 231.379 7.18941 231.379 10.8833V14.3798C231.381 14.6568 231.455 14.9285 231.593 15.1684C231.732 15.4084 231.93 15.6084 232.169 15.7491L234.875 17.3349C235.459 17.6833 235.943 18.1777 236.278 18.7695C236.613 19.3614 236.788 20.0303 236.786 20.7104C236.784 20.9929 236.709 21.27 236.567 21.5142C236.424 21.7584 236.221 21.9611 235.976 22.1021C235.731 22.2432 235.454 22.3177 235.171 22.3182C234.889 22.3188 234.611 22.2453 234.366 22.1052L209.196 7.54606C208.526 7.15855 207.971 6.60124 207.585 5.93034C207.199 5.25944 206.997 4.49868 206.999 3.72478C207.001 3.47675 207.068 3.23362 207.193 3.01938C207.318 2.80514 207.497 2.62719 207.712 2.50309C207.927 2.37899 208.17 2.31303 208.418 2.31172C208.666 2.3104 208.91 2.37378 209.126 2.4956Z" fill="#E6E6E6"/>
<path d="M229.112 31.8241L232.519 33.7348V32.5565C232.519 32.4674 232.519 32.3846 232.519 32.3018C232.519 32.219 232.519 32.1362 232.519 32.0534C232.64 30.4548 233.85 29.8434 235.328 30.6968C235.998 31.1064 236.571 31.6561 237.009 32.3081C237.34 30.1364 239.111 29.353 241.257 30.5886C242.509 31.4085 243.551 32.5112 244.299 33.8077C245.047 35.1042 245.479 36.5583 245.562 38.0528V40.6385C245.563 40.8431 245.616 41.0441 245.718 41.2216C245.819 41.3992 245.966 41.5472 246.142 41.6512L248.148 42.823C248.582 43.0791 248.943 43.444 249.193 43.8819C249.443 44.3197 249.575 44.8153 249.575 45.3196C249.574 45.5282 249.519 45.7331 249.415 45.9138C249.311 46.0944 249.161 46.2445 248.98 46.349C248.799 46.4535 248.595 46.5087 248.386 46.5091C248.177 46.5095 247.972 46.4551 247.791 46.3514L229.163 35.5562C228.672 35.2686 228.266 34.8572 227.984 34.3632C227.702 33.8692 227.555 33.3099 227.558 32.7412C227.559 32.5594 227.607 32.3809 227.697 32.2232C227.788 32.0656 227.918 31.9341 228.074 31.8417C228.231 31.7493 228.409 31.6991 228.591 31.696C228.772 31.6929 228.952 31.737 229.112 31.8241Z" fill="#E6E6E6"/>
</svg>
