<svg width="18" height="18" viewBox="0 0 18 18" fill="none" xmlns="http://www.w3.org/2000/svg">
<path fill-rule="evenodd" clip-rule="evenodd" d="M5.17383 5.86948C5.17383 5.48528 5.48528 5.17383 5.86948 5.17383H12.1303C12.5145 5.17383 12.826 5.48528 12.826 5.86948V12.1303C12.826 12.5145 12.5145 12.826 12.1303 12.826H5.86948C5.48528 12.826 5.17383 12.5145 5.17383 12.1303V5.86948Z" stroke="black" stroke-width="1.04348" stroke-linecap="round" stroke-linejoin="round"/>
<path d="M14.2168 3.7826L16.9994 1" stroke="black" stroke-width="1.04348" stroke-linecap="round" stroke-linejoin="round"/>
<path d="M1 16.9994L3.7826 14.2168" stroke="black" stroke-width="1.04348" stroke-linecap="round" stroke-linejoin="round"/>
<path d="M4.47825 16.9997H1V13.5215" stroke="black" stroke-width="1.04348" stroke-linecap="round" stroke-linejoin="round"/>
<path d="M16.9997 4.47825V1H13.5215" stroke="black" stroke-width="1.04348" stroke-linecap="round" stroke-linejoin="round"/>
<path d="M14.2168 14.2158L16.9994 16.9998" stroke="black" stroke-width="1.04348" stroke-linecap="round" stroke-linejoin="round"/>
<path d="M1 1L3.7826 3.7826" stroke="black" stroke-width="1.04348" stroke-linecap="round" stroke-linejoin="round"/>
<path d="M1 4.47825V1H4.47825" stroke="black" stroke-width="1.04348" stroke-linecap="round" stroke-linejoin="round"/>
<path d="M13.5215 16.9997H16.9997V13.5215" stroke="black" stroke-width="1.04348" stroke-linecap="round" stroke-linejoin="round"/>
</svg>
