<svg width="180" height="53" viewBox="0 0 180 53" fill="none" xmlns="http://www.w3.org/2000/svg">
<path d="M179 46.4775C179 49.2486 176.709 51.4933 173.874 51.4933H6.13243C3.2995 51.4933 1 49.2486 1 46.4775V6.47794C1 3.7081 3.2995 1.45557 6.13243 1.45557H173.873C176.709 1.45557 178.999 3.7081 178.999 6.47794L179 46.4775Z" fill="#292723"/>
<path d="M173.333 1.51623C176.42 1.51623 178.932 3.96511 178.932 6.97461V45.9746C178.932 48.9841 176.42 51.433 173.333 51.433H6.66667C3.58 51.433 1.06833 48.9841 1.06833 45.9746V6.97461C1.06833 3.96511 3.58 1.51623 6.66667 1.51623H173.333ZM173.333 0.474612H6.66667C3.00167 0.474612 0 3.40124 0 6.97461V45.9746C0 49.548 3.00167 52.4746 6.66667 52.4746H173.333C176.998 52.4746 180 49.548 180 45.9746V6.97461C180 3.40124 176.998 0.474612 173.333 0.474612Z" fill="#A6A6A6"/>
<path d="M40.1707 26.1937C40.132 22.0038 43.6894 19.9654 43.852 19.8705C41.8374 17.0066 38.7147 16.6153 37.6174 16.5841C34.9947 16.315 32.4507 18.1142 31.1147 18.1142C29.752 18.1142 27.6947 16.6101 25.4774 16.6543C22.624 16.6972 19.9547 18.3079 18.4907 20.8091C15.4694 25.909 17.7227 33.4035 20.6174 37.5258C22.0654 39.5447 23.7574 41.7989 25.972 41.7196C28.1387 41.6325 28.948 40.3728 31.5627 40.3728C34.1534 40.3728 34.9134 41.7196 37.172 41.6689C39.4974 41.6325 40.9614 39.6409 42.3587 37.6038C44.032 35.2898 44.704 33.0109 44.7307 32.8939C44.676 32.8757 40.2147 31.2156 40.1707 26.1937Z" fill="white"/>
<path d="M35.904 13.8723C37.0694 12.4514 37.8667 10.5183 37.6454 8.55664C35.9587 8.62944 33.8494 9.69414 32.6347 11.0838C31.56 12.3084 30.6 14.3156 30.848 16.2032C32.7427 16.341 34.688 15.2711 35.904 13.8723Z" fill="white"/>
<path d="M65.4 13.4864C65.4 15.0165 64.9294 16.1683 63.9894 16.9418C63.1187 17.6555 61.8814 18.013 60.2787 18.013C59.484 18.013 58.804 17.9792 58.2347 17.9116V9.55131C58.9773 9.43431 59.7773 9.37451 60.6413 9.37451C62.168 9.37451 63.3187 9.69821 64.0947 10.3456C64.964 11.0775 65.4 12.124 65.4 13.4864ZM63.9267 13.5241C63.9267 12.5322 63.6574 11.7717 63.1187 11.2413C62.58 10.7122 61.7934 10.447 60.7574 10.447C60.3174 10.447 59.9427 10.4756 59.632 10.5354V16.8911C59.804 16.9171 60.1187 16.9288 60.576 16.9288C61.6454 16.9288 62.4707 16.6389 63.052 16.0591C63.6334 15.4793 63.9267 14.6343 63.9267 13.5241Z" fill="white"/>
<path d="M73.212 14.8228C73.212 15.7653 72.936 16.5375 72.384 17.1433C71.8054 17.766 71.0387 18.0767 70.0814 18.0767C69.1587 18.0767 68.424 17.779 67.876 17.181C67.3294 16.5843 67.056 15.8316 67.056 14.9242C67.056 13.9752 67.3374 13.1965 67.9027 12.592C68.468 11.9875 69.228 11.6846 70.1854 11.6846C71.108 11.6846 71.8494 11.9823 72.4107 12.579C72.944 13.1588 73.212 13.9076 73.212 14.8228ZM71.7627 14.867C71.7627 14.3015 71.6374 13.8166 71.388 13.4123C71.0947 12.9235 70.6774 12.6791 70.1347 12.6791C69.5734 12.6791 69.1467 12.9235 68.8534 13.4123C68.6027 13.8166 68.4787 14.3093 68.4787 14.8917C68.4787 15.4572 68.604 15.9421 68.8534 16.3464C69.156 16.8352 69.5774 17.0796 70.1214 17.0796C70.6547 17.0796 71.0734 16.8313 71.3747 16.3334C71.6334 15.9213 71.7627 15.4325 71.7627 14.867Z" fill="white"/>
<path d="M83.6867 11.8096L81.72 17.9378H80.44L79.6253 15.2767C79.4187 14.6124 79.2507 13.952 79.12 13.2968H79.0947C78.9733 13.9702 78.8053 14.6293 78.5893 15.2767L77.724 17.9378H76.4293L74.58 11.8096H76.016L76.7267 14.7229C76.8987 15.4119 77.04 16.0684 77.1533 16.6898H77.1787C77.2827 16.1776 77.4547 15.525 77.6973 14.7359L78.5893 11.8109H79.728L80.5827 14.6735C80.7893 15.3716 80.9573 16.0437 81.0867 16.6911H81.1253C81.22 16.0606 81.3627 15.3885 81.552 14.6735L82.3147 11.8109H83.6867V11.8096Z" fill="white"/>
<path d="M90.9307 17.9376H89.5334V14.4276C89.5334 13.346 89.112 12.8052 88.2667 12.8052C87.852 12.8052 87.5174 12.9534 87.2574 13.2511C87 13.5488 86.8694 13.8998 86.8694 14.3015V17.9363H85.472V13.5605C85.472 13.0223 85.4547 12.4386 85.4214 11.8068H86.6494L86.7147 12.7649H86.7534C86.9161 12.4672 87.1587 12.2215 87.4774 12.0252C87.856 11.7964 88.28 11.6807 88.744 11.6807C89.3307 11.6807 89.8187 11.8653 90.2067 12.2358C90.6894 12.6895 90.9307 13.3668 90.9307 14.2664V17.9376Z" fill="white"/>
<path d="M94.784 17.9377H93.388V8.99756H94.784V17.9377Z" fill="white"/>
<path d="M103.011 14.8228C103.011 15.7653 102.735 16.5375 102.183 17.1433C101.604 17.766 100.836 18.0767 99.88 18.0767C98.956 18.0767 98.2213 17.779 97.6747 17.181C97.128 16.5843 96.8547 15.8316 96.8547 14.9242C96.8547 13.9752 97.136 13.1965 97.7013 12.592C98.2667 11.9875 99.0267 11.6846 99.9827 11.6846C100.907 11.6846 101.647 11.9823 102.209 12.579C102.743 13.1588 103.011 13.9076 103.011 14.8228ZM101.56 14.867C101.56 14.3015 101.435 13.8166 101.185 13.4123C100.893 12.9235 100.475 12.6791 99.9333 12.6791C99.3707 12.6791 98.944 12.9235 98.652 13.4123C98.4013 13.8166 98.2773 14.3093 98.2773 14.8917C98.2773 15.4572 98.4027 15.9421 98.652 16.3464C98.9547 16.8352 99.376 17.0796 99.92 17.0796C100.453 17.0796 100.871 16.8313 101.172 16.3334C101.432 15.9213 101.56 15.4325 101.56 14.867Z" fill="white"/>
<path d="M109.773 17.9376H108.519L108.415 17.2317H108.376C107.947 17.7946 107.335 18.0767 106.54 18.0767C105.947 18.0767 105.467 17.8908 105.105 17.5216C104.777 17.1862 104.613 16.7689 104.613 16.2736C104.613 15.5248 104.933 14.9541 105.577 14.5589C106.22 14.1637 107.124 13.97 108.288 13.9791V13.8647C108.288 13.0574 107.853 12.6544 106.983 12.6544C106.363 12.6544 105.816 12.8065 105.344 13.1081L105.06 12.2137C105.644 11.8614 106.365 11.6846 107.216 11.6846C108.859 11.6846 109.683 12.5296 109.683 14.2196V16.4764C109.683 17.0887 109.713 17.5762 109.773 17.9376ZM108.323 15.8316V14.8865C106.781 14.8605 106.011 15.2726 106.011 16.1215C106.011 16.4413 106.099 16.6805 106.279 16.8404C106.459 17.0003 106.688 17.0796 106.961 17.0796C107.268 17.0796 107.555 16.9847 107.816 16.7962C108.079 16.6064 108.24 16.3659 108.3 16.0708C108.315 16.0045 108.323 15.9239 108.323 15.8316Z" fill="white"/>
<path d="M117.713 17.9377H116.473L116.408 16.9536H116.369C115.973 17.7024 115.299 18.0768 114.351 18.0768C113.593 18.0768 112.963 17.7869 112.463 17.2071C111.963 16.6273 111.713 15.8746 111.713 14.9503C111.713 13.9584 111.984 13.155 112.528 12.5414C113.055 11.9694 113.7 11.6834 114.468 11.6834C115.312 11.6834 115.903 11.9603 116.239 12.5154H116.265V8.99756H117.664V16.2867C117.664 16.8834 117.68 17.4333 117.713 17.9377ZM116.265 15.3533V14.3315C116.265 14.1547 116.252 14.0117 116.227 13.9025C116.148 13.5749 115.979 13.2993 115.721 13.077C115.461 12.8547 115.148 12.7429 114.787 12.7429C114.265 12.7429 113.857 12.9444 113.557 13.3487C113.26 13.753 113.109 14.2691 113.109 14.8996C113.109 15.5054 113.252 15.9968 113.539 16.3751C113.841 16.7781 114.249 16.9796 114.76 16.9796C115.219 16.9796 115.585 16.8119 115.864 16.4752C116.133 16.1645 116.265 15.7901 116.265 15.3533Z" fill="white"/>
<path d="M129.664 14.8228C129.664 15.7653 129.388 16.5375 128.836 17.1433C128.257 17.766 127.492 18.0767 126.533 18.0767C125.612 18.0767 124.877 17.779 124.328 17.181C123.781 16.5843 123.508 15.8316 123.508 14.9242C123.508 13.9752 123.789 13.1965 124.355 12.592C124.92 11.9875 125.68 11.6846 126.639 11.6846C127.56 11.6846 128.303 11.9823 128.863 12.579C129.396 13.1588 129.664 13.9076 129.664 14.8228ZM128.216 14.867C128.216 14.3015 128.091 13.8166 127.841 13.4123C127.547 12.9235 127.131 12.6791 126.587 12.6791C126.027 12.6791 125.6 12.9235 125.305 13.4123C125.055 13.8166 124.931 14.3093 124.931 14.8917C124.931 15.4572 125.056 15.9421 125.305 16.3464C125.608 16.8352 126.029 17.0796 126.573 17.0796C127.107 17.0796 127.527 16.8313 127.828 16.3334C128.085 15.9213 128.216 15.4325 128.216 14.867Z" fill="white"/>
<path d="M137.177 17.9376H135.781V14.4276C135.781 13.346 135.36 12.8052 134.513 12.8052C134.099 12.8052 133.764 12.9534 133.505 13.2511C133.247 13.5488 133.117 13.8998 133.117 14.3015V17.9363H131.719V13.5605C131.719 13.0223 131.703 12.4386 131.669 11.8068H132.896L132.961 12.7649H133C133.164 12.4672 133.407 12.2215 133.724 12.0252C134.104 11.7964 134.527 11.6807 134.992 11.6807C135.577 11.6807 136.065 11.8653 136.453 12.2358C136.937 12.6895 137.177 13.3668 137.177 14.2664V17.9376Z" fill="white"/>
<path d="M146.581 12.8299H145.043V15.8069C145.043 16.5635 145.316 16.9418 145.857 16.9418C146.108 16.9418 146.316 16.921 146.48 16.8781L146.516 17.9116C146.24 18.013 145.877 18.0637 145.431 18.0637C144.879 18.0637 144.449 17.8999 144.139 17.5723C143.827 17.2447 143.672 16.6935 143.672 15.92V12.8299H142.753V11.8094H143.672V10.6862L145.041 10.2832V11.8081H146.58V12.8299H146.581Z" fill="white"/>
<path d="M153.979 17.9377H152.58V14.4537C152.58 13.3552 152.159 12.8053 151.315 12.8053C150.667 12.8053 150.224 13.1238 149.981 13.7608C149.94 13.8947 149.916 14.0585 149.916 14.2509V17.9364H148.52V8.99756H149.916V12.6909H149.943C150.383 12.0188 151.013 11.6834 151.831 11.6834C152.409 11.6834 152.888 11.868 153.268 12.2385C153.741 12.7 153.979 13.3864 153.979 14.2938V17.9377Z" fill="white"/>
<path d="M161.609 14.5836C161.609 14.828 161.591 15.0334 161.557 15.2011H157.367C157.385 15.8069 157.585 16.2684 157.973 16.5882C158.328 16.8742 158.785 17.0172 159.345 17.0172C159.965 17.0172 160.531 16.921 161.04 16.7273L161.259 17.6736C160.663 17.9258 159.961 18.0519 159.149 18.0519C158.176 18.0519 157.409 17.7725 156.855 17.2135C156.297 16.6545 156.021 15.9044 156.021 14.9632C156.021 14.0389 156.279 13.2693 156.797 12.6557C157.339 12.0005 158.071 11.6729 158.995 11.6729C159.899 11.6729 160.585 12.0005 161.049 12.6557C161.424 13.1757 161.609 13.8192 161.609 14.5836ZM160.276 14.2313C160.287 13.827 160.195 13.4786 160.005 13.1848C159.763 12.8065 159.393 12.6167 158.893 12.6167C158.437 12.6167 158.065 12.8013 157.781 13.1718C157.549 13.4669 157.412 13.8192 157.367 14.2313H160.276Z" fill="white"/>
<path d="M71.5266 41.4298H68.4986L66.84 36.3481H61.0746L59.4946 41.4298H56.5466L62.2586 24.1294H65.7866L71.5266 41.4298ZM66.34 34.2161L64.84 29.6986C64.6813 29.2371 64.384 28.1503 63.9453 26.4395H63.892C63.7173 27.1753 63.436 28.2621 63.0493 29.6986L61.576 34.2161H66.34Z" fill="white"/>
<path d="M86.216 35.0393C86.216 37.1609 85.628 38.8379 84.452 40.069C83.3987 41.1649 82.0907 41.7122 80.5293 41.7122C78.844 41.7122 77.6333 41.122 76.896 39.9416H76.8427V46.5131H74V33.062C74 31.7282 73.964 30.3593 73.8947 28.9553H76.3947L76.5533 30.9326H76.6067C77.5547 29.4428 78.9933 28.6992 80.924 28.6992C82.4333 28.6992 83.6933 29.2803 84.7013 30.4438C85.712 31.6086 86.216 33.14 86.216 35.0393ZM83.32 35.1407C83.32 33.9265 83.04 32.9255 82.4773 32.1377C81.8627 31.3161 81.0373 30.9053 80.0027 30.9053C79.3013 30.9053 78.664 31.1341 78.0947 31.5852C77.524 32.0402 77.1506 32.6343 76.976 33.3701C76.888 33.7133 76.844 33.9941 76.844 34.2151V36.2951C76.844 37.2025 77.1293 37.9682 77.7 38.5935C78.2707 39.2188 79.012 39.5308 79.924 39.5308C80.9947 39.5308 81.828 39.1278 82.424 38.3244C83.0213 37.5197 83.32 36.4589 83.32 35.1407Z" fill="white"/>
<path d="M100.932 35.0393C100.932 37.1609 100.344 38.8379 99.1666 40.069C98.1146 41.1649 96.8066 41.7122 95.2453 41.7122C93.5599 41.7122 92.3493 41.122 91.6133 39.9416H91.5599V46.5131H88.7173V33.062C88.7173 31.7282 88.6813 30.3593 88.6119 28.9553H91.1119L91.2706 30.9326H91.3239C92.2706 29.4428 93.7093 28.6992 95.6413 28.6992C97.1493 28.6992 98.4093 29.2803 99.4199 30.4438C100.427 31.6086 100.932 33.14 100.932 35.0393ZM98.0359 35.1407C98.0359 33.9265 97.7546 32.9255 97.1919 32.1377C96.5773 31.3161 95.7546 30.9053 94.7186 30.9053C94.0159 30.9053 93.3799 31.1341 92.8093 31.5852C92.2386 32.0402 91.8666 32.6343 91.6919 33.3701C91.6053 33.7133 91.5599 33.9941 91.5599 34.2151V36.2951C91.5599 37.2025 91.8453 37.9682 92.4133 38.5935C92.9839 39.2175 93.7253 39.5308 94.6399 39.5308C95.7106 39.5308 96.5439 39.1278 97.1399 38.3244C97.7373 37.5197 98.0359 36.4589 98.0359 35.1407Z" fill="white"/>
<path d="M117.385 36.5783C117.385 38.0499 116.861 39.2472 115.809 40.1715C114.653 41.1816 113.044 41.686 110.976 41.686C109.067 41.686 107.536 41.3272 106.377 40.6083L107.036 38.2982C108.284 39.034 109.653 39.4032 111.145 39.4032C112.216 39.4032 113.049 39.1666 113.648 38.696C114.244 38.2254 114.541 37.5936 114.541 36.8058C114.541 36.1038 114.296 35.5123 113.804 35.0326C113.315 34.5529 112.497 34.107 111.356 33.6949C108.249 32.5652 106.697 30.9103 106.697 28.7341C106.697 27.3119 107.241 26.1458 108.331 25.2384C109.416 24.3297 110.864 23.876 112.675 23.876C114.289 23.876 115.631 24.1503 116.701 24.6976L115.991 26.957C114.991 26.4266 113.86 26.1614 112.595 26.1614C111.595 26.1614 110.813 26.4019 110.253 26.8803C109.78 27.308 109.543 27.8293 109.543 28.4468C109.543 29.1306 109.813 29.6961 110.357 30.1407C110.831 30.5515 111.691 30.9961 112.939 31.4758C114.465 32.0751 115.587 32.7758 116.308 33.5792C117.027 34.38 117.385 35.3823 117.385 36.5783Z" fill="white"/>
<path d="M126.784 31.035H123.651V37.0917C123.651 38.6322 124.203 39.4018 125.309 39.4018C125.817 39.4018 126.239 39.3589 126.572 39.2731L126.651 41.3778C126.091 41.5819 125.353 41.6846 124.44 41.6846C123.317 41.6846 122.44 41.3505 121.807 40.6836C121.176 40.0154 120.859 38.8948 120.859 37.3205V31.0324H118.992V28.9524H120.859V26.6683L123.651 25.8467V28.9524H126.784V31.035Z" fill="white"/>
<path d="M140.921 35.0897C140.921 37.0072 140.359 38.5815 139.236 39.8126C138.059 41.0801 136.496 41.7119 134.548 41.7119C132.671 41.7119 131.176 41.1048 130.061 39.8906C128.947 38.6764 128.389 37.1437 128.389 35.2964C128.389 33.3633 128.963 31.7799 130.113 30.5488C131.261 29.3164 132.811 28.7002 134.759 28.7002C136.636 28.7002 138.147 29.3073 139.287 30.5228C140.377 31.7019 140.921 33.2242 140.921 35.0897ZM137.972 35.1794C137.972 34.0289 137.72 33.0422 137.209 32.2193C136.613 31.2235 135.761 30.7269 134.657 30.7269C133.515 30.7269 132.647 31.2248 132.051 32.2193C131.54 33.0435 131.288 34.0458 131.288 35.2314C131.288 36.3819 131.54 37.3686 132.051 38.1902C132.665 39.186 133.524 39.6826 134.632 39.6826C135.717 39.6826 136.569 39.1756 137.184 38.1642C137.708 37.3257 137.972 36.3286 137.972 35.1794Z" fill="white"/>
<path d="M150.161 31.3928C149.88 31.3421 149.58 31.3161 149.265 31.3161C148.265 31.3161 147.492 31.684 146.948 32.4211C146.475 33.0711 146.237 33.8927 146.237 34.8846V41.4301H143.396L143.423 32.8839C143.423 31.4461 143.387 30.137 143.316 28.9566H145.792L145.896 31.3434H145.975C146.275 30.5231 146.748 29.8627 147.396 29.3674C148.029 28.9215 148.713 28.6992 149.451 28.6992C149.713 28.6992 149.951 28.7174 150.161 28.7499V31.3928Z" fill="white"/>
<path d="M162.875 34.6025C162.875 35.0991 162.841 35.5177 162.771 35.8596H154.243C154.276 37.092 154.688 38.0345 155.48 38.6845C156.199 39.2656 157.128 39.5568 158.269 39.5568C159.532 39.5568 160.684 39.3605 161.72 38.9666L162.165 40.8906C160.955 41.4054 159.525 41.6615 157.876 41.6615C155.892 41.6615 154.335 41.0921 153.201 39.9546C152.071 38.8171 151.504 37.2896 151.504 35.3734C151.504 33.4923 152.031 31.9258 153.085 30.6765C154.189 29.3427 155.681 28.6758 157.559 28.6758C159.403 28.6758 160.799 29.3427 161.747 30.6765C162.497 31.736 162.875 33.0464 162.875 34.6025ZM160.164 33.8836C160.183 33.062 159.997 32.3522 159.612 31.7529C159.12 30.982 158.364 30.5972 157.347 30.5972C156.417 30.5972 155.661 30.9729 155.084 31.7269C154.611 32.3262 154.329 33.0451 154.243 33.8823H160.164V33.8836Z" fill="white"/>
</svg>
