<svg width="1468" height="1304" viewBox="0 0 1468 1304" fill="none" xmlns="http://www.w3.org/2000/svg">
<g filter="url(#filter0_f_991_9494)">
<circle cx="93.3838" cy="861.688" r="148.41" fill="#FFC7D0"/>
</g>
<g filter="url(#filter1_f_991_9494)">
<circle cx="1374.46" cy="503.778" r="148.41" fill="#FFC7D0"/>
</g>
<g filter="url(#filter2_f_991_9494)">
<path d="M-93.415 580.997C18.0322 528.375 309.21 459.311 582.344 604.034C923.761 784.938 1318.53 622.584 1493.11 723.378" stroke="#0B99FF" stroke-width="25"/>
</g>
<g filter="url(#filter3_f_991_9494)">
<path d="M-104 871.183C-4.61816 793.104 275.136 655.918 599.101 731.804C1004.06 826.662 1363.15 573.57 1572.66 630.17" stroke="#0B99FF" stroke-width="25"/>
</g>
<rect x="108.626" y="479.201" width="133.168" height="206.705" rx="24" fill="#D9D9D9"/>
<rect x="301.794" y="750.676" width="133.168" height="206.705" rx="24" fill="#D9D9D9"/>
<rect x="1292.9" y="713.278" width="122.406" height="206.705" rx="24" fill="#D9D9D9"/>
<rect x="1205.14" y="412.135" width="122.406" height="206.705" rx="24" fill="#D9D9D9"/>
<defs>
<filter id="filter0_f_991_9494" x="-249.026" y="519.278" width="684.82" height="684.82" filterUnits="userSpaceOnUse" color-interpolation-filters="sRGB">
<feFlood flood-opacity="0" result="BackgroundImageFix"/>
<feBlend mode="normal" in="SourceGraphic" in2="BackgroundImageFix" result="shape"/>
<feGaussianBlur stdDeviation="97" result="effect1_foregroundBlur_991_9494"/>
</filter>
<filter id="filter1_f_991_9494" x="1032.05" y="161.367" width="684.82" height="684.82" filterUnits="userSpaceOnUse" color-interpolation-filters="sRGB">
<feFlood flood-opacity="0" result="BackgroundImageFix"/>
<feBlend mode="normal" in="SourceGraphic" in2="BackgroundImageFix" result="shape"/>
<feGaussianBlur stdDeviation="97" result="effect1_foregroundBlur_991_9494"/>
</filter>
<filter id="filter2_f_991_9494" x="-262.752" y="341.043" width="1926.11" height="557.161" filterUnits="userSpaceOnUse" color-interpolation-filters="sRGB">
<feFlood flood-opacity="0" result="BackgroundImageFix"/>
<feBlend mode="normal" in="SourceGraphic" in2="BackgroundImageFix" result="shape"/>
<feGaussianBlur stdDeviation="82" result="effect1_foregroundBlur_991_9494"/>
</filter>
<filter id="filter3_f_991_9494" x="-275.722" y="445.319" width="2015.64" height="599.693" filterUnits="userSpaceOnUse" color-interpolation-filters="sRGB">
<feFlood flood-opacity="0" result="BackgroundImageFix"/>
<feBlend mode="normal" in="SourceGraphic" in2="BackgroundImageFix" result="shape"/>
<feGaussianBlur stdDeviation="82" result="effect1_foregroundBlur_991_9494"/>
</filter>
</defs>
</svg>
