<svg width="192" height="170" viewBox="0 0 192 170" fill="none" xmlns="http://www.w3.org/2000/svg">
<path d="M94.9065 170.006C113.589 170.006 128.734 168.422 128.734 166.468C128.734 164.514 113.589 162.931 94.9065 162.931C76.2241 162.931 61.0791 164.514 61.0791 166.468C61.0791 168.422 76.2241 170.006 94.9065 170.006Z" fill="#FF6600"/>
<path opacity="0.5" d="M94.9065 170.006C113.589 170.006 128.734 168.422 128.734 166.468C128.734 164.514 113.589 162.931 94.9065 162.931C76.2241 162.931 61.0791 164.514 61.0791 166.468C61.0791 168.422 76.2241 170.006 94.9065 170.006Z" fill="white"/>
<path d="M171.347 137.24V131.841H165.324V121.365H156.671V78.8179H148.393V104.536H140.867V95.3292H130.71V119.141H126.571V126.76H116.79V123.903H119.797V122.316H107.38V124.222H108.888V132.477H102.489V116.917H79.9157V128.029H63.7317V119.773H57.7135V128.984H44.921V112.154H39.6545V106.441H30.2448V132.477H20.8395V138.19H14.8213V155.652H183.012V137.24H171.347Z" stroke="#2E353A" stroke-miterlimit="10"/>
<path d="M33.9462 112.079H31.9121V114.113H33.9462V112.079Z" fill="#2E353A"/>
<path d="M38.1815 112.079H36.1475V114.113H38.1815V112.079Z" fill="#2E353A"/>
<path d="M33.9462 116.32H31.9121V118.354H33.9462V116.32Z" fill="#2E353A"/>
<path d="M38.1815 116.32H36.1475V118.354H38.1815V116.32Z" fill="#2E353A"/>
<path d="M42.7587 116.32H40.7246V118.354H42.7587V116.32Z" fill="#2E353A"/>
<path d="M42.7587 120.556H40.7246V122.59H42.7587V120.556Z" fill="#2E353A"/>
<path d="M42.7587 124.796H40.7246V126.83H42.7587V124.796Z" fill="#2E353A"/>
<path d="M42.7587 129.033H40.7246V131.067H42.7587V129.033Z" fill="#2E353A"/>
<path d="M42.7587 133.273H40.7246V135.308H42.7587V133.273Z" fill="#2E353A"/>
<path d="M42.7587 137.514H40.7246V139.548H42.7587V137.514Z" fill="#2E353A"/>
<path d="M33.9462 120.556H31.9121V122.59H33.9462V120.556Z" fill="#2E353A"/>
<path d="M38.1815 120.556H36.1475V122.59H38.1815V120.556Z" fill="#2E353A"/>
<path d="M33.9462 124.796H31.9121V126.83H33.9462V124.796Z" fill="#2E353A"/>
<path d="M38.1815 124.796H36.1475V126.83H38.1815V124.796Z" fill="#2E353A"/>
<path d="M33.9462 129.033H31.9121V131.067H33.9462V129.033Z" fill="#2E353A"/>
<path d="M38.1815 129.033H36.1475V131.067H38.1815V129.033Z" fill="#2E353A"/>
<path d="M33.9462 133.273H31.9121V135.308H33.9462V133.273Z" fill="#2E353A"/>
<path d="M24.62 135.648H22.5859V137.682H24.62V135.648Z" fill="#2E353A"/>
<path d="M53.9501 131.067H51.916V133.101H53.9501V131.067Z" fill="#2E353A"/>
<path d="M58.0184 131.067H55.9844V133.101H58.0184V131.067Z" fill="#2E353A"/>
<path d="M151.78 81.2188H149.746V83.2528H151.78V81.2188Z" fill="#2E353A"/>
<path d="M154.323 81.2188H152.289V83.2528H154.323V81.2188Z" fill="#2E353A"/>
<path d="M151.78 85.4595H149.746V87.4935H151.78V85.4595Z" fill="#2E353A"/>
<path d="M154.323 85.4595H152.289V87.4935H154.323V85.4595Z" fill="#2E353A"/>
<path d="M151.78 89.6997H149.746V91.7338H151.78V89.6997Z" fill="#2E353A"/>
<path d="M154.323 89.6997H152.289V91.7338H154.323V89.6997Z" fill="#2E353A"/>
<path d="M151.78 93.9365H149.746V95.9706H151.78V93.9365Z" fill="#2E353A"/>
<path d="M154.323 93.9365H152.289V95.9706H154.323V93.9365Z" fill="#2E353A"/>
<path d="M151.78 98.1768H149.746V100.211H151.78V98.1768Z" fill="#2E353A"/>
<path d="M154.323 98.1768H152.289V100.211H154.323V98.1768Z" fill="#2E353A"/>
<path d="M151.78 102.413H149.746V104.447H151.78V102.413Z" fill="#2E353A"/>
<path d="M154.323 102.413H152.289V104.447H154.323V102.413Z" fill="#2E353A"/>
<path d="M151.78 106.653H149.746V108.687H151.78V106.653Z" fill="#2E353A"/>
<path d="M154.323 106.653H152.289V108.687H154.323V106.653Z" fill="#2E353A"/>
<path d="M151.78 110.894H149.746V112.928H151.78V110.894Z" fill="#2E353A"/>
<path d="M154.323 110.894H152.289V112.928H154.323V110.894Z" fill="#2E353A"/>
<path d="M151.78 115.13H149.746V117.164H151.78V115.13Z" fill="#2E353A"/>
<path d="M154.323 115.13H152.289V117.164H154.323V115.13Z" fill="#2E353A"/>
<path d="M134.486 115.13H132.452V117.164H134.486V115.13Z" fill="#2E353A"/>
<path d="M138.895 115.13H136.861V117.164H138.895V115.13Z" fill="#2E353A"/>
<path d="M143.304 115.13H141.27V117.164H143.304V115.13Z" fill="#2E353A"/>
<path d="M134.486 124.288H132.452V126.322H134.486V124.288Z" fill="#2E353A"/>
<path d="M138.895 124.288H136.861V126.322H138.895V124.288Z" fill="#2E353A"/>
<path d="M143.304 124.288H141.27V126.322H143.304V124.288Z" fill="#2E353A"/>
<path d="M134.486 133.441H132.452V135.475H134.486V133.441Z" fill="#2E353A"/>
<path d="M138.895 133.441H136.861V135.475H138.895V133.441Z" fill="#2E353A"/>
<path d="M143.304 133.441H141.27V135.475H143.304V133.441Z" fill="#2E353A"/>
<path d="M151.78 119.371H149.746V121.405H151.78V119.371Z" fill="#2E353A"/>
<path d="M154.323 119.371H152.289V121.405H154.323V119.371Z" fill="#2E353A"/>
<path d="M151.78 123.607H149.746V125.641H151.78V123.607Z" fill="#2E353A"/>
<path d="M154.323 123.607H152.289V125.641H154.323V123.607Z" fill="#2E353A"/>
<path d="M151.78 127.848H149.746V129.882H151.78V127.848Z" fill="#2E353A"/>
<path d="M154.323 127.848H152.289V129.882H154.323V127.848Z" fill="#2E353A"/>
<path d="M158.563 123.607H156.529V125.641H158.563V123.607Z" fill="#2E353A"/>
<path d="M163.312 123.607H161.278V125.641H163.312V123.607Z" fill="#2E353A"/>
<path d="M158.563 127.68H156.529V129.714H158.563V127.68Z" fill="#2E353A"/>
<path d="M163.312 127.68H161.278V129.714H163.312V127.68Z" fill="#2E353A"/>
<path d="M158.563 131.748H156.529V133.782H158.563V131.748Z" fill="#2E353A"/>
<path d="M163.312 131.748H161.278V133.782H163.312V131.748Z" fill="#2E353A"/>
<path d="M158.563 135.815H156.529V137.849H158.563V135.815Z" fill="#2E353A"/>
<path d="M163.312 135.815H161.278V137.849H163.312V135.815Z" fill="#2E353A"/>
<path d="M151.78 132.088H149.746V134.122H151.78V132.088Z" fill="#2E353A"/>
<path d="M154.323 132.088H152.289V134.122H154.323V132.088Z" fill="#2E353A"/>
<path d="M151.78 136.324H149.746V138.358H151.78V136.324Z" fill="#2E353A"/>
<path d="M154.323 136.324H152.289V138.358H154.323V136.324Z" fill="#2E353A"/>
<path d="M38.1815 133.273H36.1475V135.308H38.1815V133.273Z" fill="#2E353A"/>
<path d="M33.9462 137.514H31.9121V139.548H33.9462V137.514Z" fill="#2E353A"/>
<path d="M38.1815 137.514H36.1475V139.548H38.1815V137.514Z" fill="#2E353A"/>
<path d="M33.9462 141.75H31.9121V143.784H33.9462V141.75Z" fill="#2E353A"/>
<path d="M38.1815 141.75H36.1475V143.784H38.1815V141.75Z" fill="#2E353A"/>
<path d="M33.9462 145.99H31.9121V148.024H33.9462V145.99Z" fill="#2E353A"/>
<path d="M38.1815 145.99H36.1475V148.024H38.1815V145.99Z" fill="#2E353A"/>
<path d="M145.337 147.264V155.652H128.384V138.973H145.337V145.77" stroke="#2E353A" stroke-miterlimit="10"/>
<path d="M176.538 153.119V155.653H159.58V146.835H163.082" stroke="#2E353A" stroke-miterlimit="10"/>
<path d="M165.147 146.835H176.538V151.744" stroke="#2E353A" stroke-miterlimit="10"/>
<path d="M51.5719 146.835H63.6171V155.653H46.6592V146.835H49.9623" stroke="#2E353A" stroke-miterlimit="10"/>
<path d="M25.045 146.835H26.6545V155.653H20.3799V146.835H23.7803" stroke="#2E353A" stroke-miterlimit="10"/>
<path d="M138.215 138.973H135.504V155.652H138.215V138.973Z" stroke="#2E353A" stroke-miterlimit="10"/>
<path d="M117.143 141.242H114.481V136.833H123.467V141.242H119.558" stroke="#2E353A" stroke-miterlimit="10"/>
<path d="M69.5508 133.782H59.208V137.514H69.5508V133.782Z" stroke="#2E353A" stroke-miterlimit="10"/>
<path d="M65.142 133.782H64.125V155.652H65.142V133.782Z" stroke="#2E353A" stroke-miterlimit="10"/>
<path d="M96.8693 0.926758C81.7408 0.926758 67.2319 6.93654 56.5344 17.634C45.8369 28.3315 39.8271 42.8404 39.8271 57.969C39.8271 86.4237 92.4475 153.481 92.4475 153.481H96.8693C96.8693 153.481 153.912 89.4704 153.912 57.969C153.912 42.8404 147.902 28.3315 137.204 17.634C126.507 6.93654 111.998 0.926758 96.8693 0.926758ZM96.8693 85.8268C91.3596 85.8268 85.9736 84.1929 81.3924 81.1319C76.8112 78.0708 73.2406 73.72 71.1321 68.6297C69.0236 63.5393 68.4719 57.9381 69.5468 52.5342C70.6217 47.1303 73.2749 42.1665 77.1709 38.2705C81.0669 34.3745 86.0307 31.7213 91.4346 30.6464C96.8384 29.5715 102.44 30.1232 107.53 32.2317C112.62 34.3402 116.971 37.9108 120.032 42.492C123.093 47.0732 124.727 52.4592 124.727 57.969C124.727 61.6273 124.007 65.2498 122.607 68.6297C121.207 72.0096 119.155 75.0806 116.568 77.6674C113.981 80.2543 110.91 82.3062 107.53 83.7062C104.15 85.1062 100.528 85.8268 96.8693 85.8268Z" fill="#2E353A" stroke="#2E353A" stroke-linecap="round" stroke-linejoin="round"/>
<path d="M92.4475 0.926758C77.3189 0.926758 62.81 6.93654 52.1125 17.634C41.4151 28.3315 35.4053 42.8404 35.4053 57.969C35.4053 89.4704 92.4475 153.481 92.4475 153.481C92.4475 153.481 149.49 89.4704 149.49 57.969C149.49 42.8404 143.48 28.3315 132.782 17.634C122.085 6.93654 107.576 0.926758 92.4475 0.926758ZM92.4475 85.8268C86.9377 85.8268 81.5517 84.1929 76.9705 81.1319C72.3893 78.0708 68.8187 73.72 66.7102 68.6297C64.6017 63.5393 64.05 57.9381 65.1249 52.5342C66.1998 47.1303 68.853 42.1665 72.749 38.2705C76.645 34.3745 81.6088 31.7213 87.0127 30.6464C92.4166 29.5715 98.0179 30.1232 103.108 32.2317C108.199 34.3402 112.549 37.9108 115.61 42.492C118.671 47.0732 120.305 52.4592 120.305 57.969C120.305 65.3573 117.37 72.4431 112.146 77.6674C106.922 82.8918 99.8358 85.8268 92.4475 85.8268Z" fill="#FF6600" stroke="#2E353A" stroke-linecap="round" stroke-linejoin="round"/>
<path d="M74.5068 92.7343L80.808 82.0112L80.9186 85.8804L77.16 93.3976L74.5068 92.7343Z" fill="white" stroke="#2E353A" stroke-linecap="round" stroke-linejoin="round"/>
<path d="M80.919 128.958C80.5642 130.825 79.7496 132.574 78.5489 134.048C76.5369 136.537 73.813 141.392 73.6848 146.009C73.5566 150.625 68.2326 163.4 68.8207 164.346C69.4089 165.293 74.6222 166.597 76.6342 166.597C77.691 166.597 79.4421 167.004 80.1407 165.974C80.1805 165.916 76.0063 163.763 75.7189 163.555C75.4314 163.347 73.1055 161.711 73.1807 161.503C73.1807 161.503 78.6373 146.716 81.3612 142.931C84.085 139.146 86.097 136.298 86.9239 133.933C87.7508 131.567 88.4937 129.325 88.4937 129.325L80.919 128.958Z" fill="white"/>
<mask id="mask0_1058_27953" style="mask-type:luminance" maskUnits="userSpaceOnUse" x="68" y="128" width="21" height="39">
<path d="M80.919 128.958C80.5642 130.825 79.7496 132.574 78.5489 134.048C76.5369 136.537 73.813 141.392 73.6848 146.009C73.5566 150.625 68.2326 163.4 68.8207 164.346C69.4089 165.293 74.6222 166.597 76.6342 166.597C77.691 166.597 79.4421 167.004 80.1407 165.974C80.1805 165.916 76.0063 163.763 75.7189 163.555C75.4314 163.347 73.1055 161.711 73.1807 161.503C73.1807 161.503 78.6373 146.716 81.3612 142.931C84.085 139.146 86.097 136.298 86.9239 133.933C87.7508 131.567 88.4937 129.325 88.4937 129.325L80.919 128.958Z" fill="white"/>
</mask>
<g mask="url(#mask0_1058_27953)">
<g style="mix-blend-mode:multiply">
<path d="M79.4375 132.782C81.7289 133.764 84.1362 134.449 86.6009 134.821C86.7336 134.516 86.853 134.22 86.9547 133.937C87.786 131.566 88.4935 129.316 88.4935 129.316L80.9188 128.962C80.6659 130.316 80.1636 131.612 79.4375 132.782Z" fill="#FF6600"/>
</g>
</g>
<path d="M80.919 128.958C80.5642 130.825 79.7496 132.574 78.5489 134.048C76.5369 136.537 73.813 141.392 73.6848 146.009C73.5566 150.625 68.2326 163.4 68.8207 164.346C69.4089 165.293 74.6222 166.597 76.6342 166.597C77.691 166.597 79.4421 167.004 80.1407 165.974C80.1805 165.916 76.0063 163.763 75.7189 163.555C75.4314 163.347 73.1055 161.711 73.1807 161.503C73.1807 161.503 78.6373 146.716 81.3612 142.931C84.085 139.146 86.097 136.298 86.9239 133.933C87.7508 131.567 88.4937 129.325 88.4937 129.325L80.919 128.958Z" stroke="#2E353A" stroke-linecap="round" stroke-linejoin="round"/>
<path d="M98.0537 129.927C99.2086 131.438 99.9684 133.213 100.265 135.091C100.764 138.253 102.551 143.524 105.907 146.703C109.263 149.882 115.193 163.254 116.29 163.444C117.576 163.674 119.54 162.029 120.495 161.362C121.711 160.513 124.501 158.779 124.917 157.28C125.416 155.556 123.643 156.422 122.896 156.98C121.927 157.7 117.094 158.306 117.094 158.306C117.094 158.306 109.75 143.475 108.759 138.921C107.769 134.366 106.99 130.961 105.792 128.75C104.594 126.539 103.391 124.519 103.391 124.519L98.0537 129.927Z" fill="white"/>
<mask id="mask1_1058_27953" style="mask-type:luminance" maskUnits="userSpaceOnUse" x="98" y="124" width="28" height="40">
<path d="M98.0547 129.927C99.2095 131.438 99.9694 133.213 100.266 135.091C100.765 138.253 102.552 143.524 105.908 146.703C109.264 149.882 115.194 163.254 116.291 163.444C117.577 163.674 119.541 162.029 120.496 161.362C121.712 160.513 124.502 158.779 124.918 157.28C125.417 155.556 123.644 156.422 122.897 156.98C121.928 157.7 117.095 158.306 117.095 158.306C117.095 158.306 109.751 143.475 108.76 138.921C107.77 134.366 106.991 130.961 105.793 128.75C104.595 126.539 103.392 124.519 103.392 124.519L98.0547 129.927Z" fill="white"/>
</mask>
<g mask="url(#mask1_1058_27953)">
<g style="mix-blend-mode:multiply">
<path d="M105.793 128.763C104.586 126.553 103.387 124.532 103.387 124.532L98.0547 129.926C98.96 131.111 99.62 132.464 99.9959 133.906C102.402 133.477 104.769 132.849 107.071 132.027C106.757 130.898 106.329 129.805 105.793 128.763Z" fill="#FF6600"/>
</g>
</g>
<path d="M98.0537 129.927C99.2086 131.438 99.9685 133.213 100.265 135.091C100.764 138.253 102.551 143.524 105.907 146.703C109.263 149.882 115.193 163.254 116.29 163.444C117.576 163.674 119.54 162.029 120.495 161.362C121.711 160.513 124.501 158.779 124.917 157.28C125.416 155.556 123.643 156.422 122.896 156.98C121.927 157.7 117.094 158.306 117.094 158.306C117.094 158.306 109.75 143.475 108.759 138.921C107.769 134.366 106.99 130.961 105.792 128.75C104.594 126.539 103.391 124.519 103.391 124.519L98.0537 129.927Z" stroke="#2E353A" stroke-linecap="round" stroke-linejoin="round"/>
<path d="M124.921 157.28C125.42 155.556 123.647 156.422 122.9 156.979C121.931 157.7 117.098 158.306 117.098 158.306C117.098 158.306 116.577 157.156 115.816 155.423C114.874 156.168 113.832 156.776 112.721 157.231C114.379 160.499 115.754 163.369 116.294 163.462C117.58 163.692 119.544 162.047 120.499 161.379C121.702 160.512 124.492 158.779 124.921 157.28Z" fill="white" stroke="#2E353A" stroke-linecap="round" stroke-linejoin="round"/>
<path d="M81.0786 105.328L76.9707 127.999C78.8235 129.184 80.7963 130.172 82.8562 130.943C86.093 132.12 91.7 131.828 91.7 131.828L93.9109 120.795L94.7953 131.094C94.7953 131.094 99.0624 131.536 102.153 130.948C105.244 130.36 110.245 127.119 110.245 127.119L100.517 109.024L98.3063 104.757L81.0919 104.315L81.0786 105.328Z" fill="white"/>
<mask id="mask2_1058_27953" style="mask-type:luminance" maskUnits="userSpaceOnUse" x="76" y="104" width="35" height="28">
<path d="M81.0776 105.328L76.9697 127.999C78.8226 129.185 80.7953 130.172 82.8552 130.944C86.0921 132.12 91.699 131.828 91.699 131.828L93.9099 120.796L94.7943 131.094C94.7943 131.094 99.0614 131.537 102.152 130.948C105.243 130.36 110.244 127.119 110.244 127.119L100.516 109.025L98.3053 104.758L81.0909 104.315L81.0776 105.328Z" fill="white"/>
</mask>
<g mask="url(#mask2_1058_27953)">
<g style="mix-blend-mode:multiply">
<path d="M94.0518 118.341C95.5464 116.471 96.0858 105.474 96.0858 105.474L81.078 104.337V105.328L79.2031 115.618C83.4039 116.971 92.8888 119.792 94.0518 118.341Z" fill="#FF6600"/>
</g>
</g>
<path d="M81.0786 105.328L76.9707 127.999C78.8235 129.184 80.7963 130.172 82.8562 130.943C86.093 132.12 91.7 131.828 91.7 131.828L93.9109 120.795L94.7953 131.094C94.7953 131.094 99.0624 131.536 102.153 130.948C105.244 130.36 110.245 127.119 110.245 127.119L100.517 109.024L98.3063 104.757L81.0919 104.315L81.0786 105.328Z" stroke="#2E353A" stroke-miterlimit="10"/>
<path d="M106.455 87.4275L114.857 89.6385L118.284 79.4682L105.46 77.0361L102.586 86.4326L106.455 87.4275Z" fill="#2E353A" stroke="#2E353A" stroke-linecap="round" stroke-linejoin="round"/>
<path d="M108.096 82.7231L113.437 84.0276" stroke="white" stroke-linecap="round" stroke-linejoin="round"/>
<path d="M107.578 84.0273L112.92 85.3318" stroke="white" stroke-linecap="round" stroke-linejoin="round"/>
<path d="M97.7225 87.9809C97.7225 87.9809 100.376 86.5438 101.26 85.3278C102.144 84.1117 103.139 82.0114 103.581 81.6797C104.024 81.3481 106.235 80.2426 106.677 79.911C107.119 79.5793 107.782 80.2426 107.008 80.9059C106.235 81.5692 104.576 83.0063 104.576 83.0063C104.576 83.0063 105.019 84.9961 104.466 85.6594C104.17 86.0251 103.837 86.3586 103.471 86.6543L106.456 87.4282C106.456 87.4282 104.466 88.8653 103.581 89.0864C102.705 89.255 101.819 89.3658 100.928 89.418L97.2803 92.2922L97.7225 87.9809Z" fill="white" stroke="#2E353A" stroke-linecap="round" stroke-linejoin="round"/>
<path d="M85.783 63.8327C85.783 63.8327 82.2455 68.9842 81.3611 75.0157C80.4768 81.0471 81.0693 105.328 81.0693 105.328C81.0693 105.328 85.7742 107.238 89.4709 107.238C93.1676 107.238 98.5932 107.534 98.7568 105.469C98.9204 103.404 97.7265 79.7205 96.1037 73.9809C94.9797 70.236 93.3428 66.6646 91.2396 63.3684C91.2396 63.3684 87.5518 60.8878 85.783 63.8327Z" fill="#2E353A" stroke="#2E353A" stroke-linecap="round" stroke-linejoin="round"/>
<path d="M93.8531 68.3032L89.0996 98.5931L93.3004 100.141L95.1797 71.0669L93.8531 68.3032Z" fill="white" stroke="#2E353A" stroke-linecap="round" stroke-linejoin="round"/>
<path d="M83.3281 52.0971C83.3281 52.0971 83.9162 54.8917 85.0969 56.3642C86.2775 57.8367 88.4796 58.5751 88.4796 58.5751L87.8473 61.9225L91.9685 64.4253L93.4807 57.2486L93.9229 48.7144C93.9229 48.7144 83.6023 50.4787 83.3281 52.0971Z" fill="white" stroke="#2E353A" stroke-linecap="round" stroke-linejoin="round"/>
<path d="M83.3281 52.0973C83.3281 52.0973 83.9162 54.8919 85.0969 56.3644C86.2775 57.8369 88.4796 58.5753 88.4796 58.5753C88.4796 58.5753 92.0171 57.545 92.3045 55.1926C92.5168 53.4946 92.1984 50.5806 91.9994 49.0815C88.997 49.6741 83.5404 50.9255 83.3281 52.0973Z" fill="#2E353A" stroke="#2E353A" stroke-linecap="round" stroke-linejoin="round"/>
<path d="M89.3516 52.8269C89.3516 52.8269 87.8791 51.0581 86.9992 51.7966C86.1192 52.535 86.4067 54.5956 87.4414 55.6259C88.4761 56.6562 89.7982 55.7718 89.7982 55.7718C89.7982 55.7718 90.3863 57.6821 91.4166 58.5664C92.4469 59.4508 95.9756 60.0389 97.1651 59.1546C98.3546 58.2702 97.8991 55.0334 97.8991 55.0334C97.8991 55.0334 99.9597 54.0031 99.8138 53.2646C99.6679 52.5262 98.191 51.9381 98.191 51.3544C98.1785 50.9089 98.1297 50.4653 98.045 50.0278V48.8472L91.2796 50.3197C91.2796 50.3197 90.3908 53.7112 89.3516 52.8269Z" fill="white"/>
<mask id="mask3_1058_27953" style="mask-type:luminance" maskUnits="userSpaceOnUse" x="86" y="48" width="14" height="12">
<path d="M89.3506 52.8269C89.3506 52.8269 87.8782 51.0581 86.9982 51.7966C86.1183 52.535 86.4057 54.5956 87.4404 55.6259C88.4751 56.6562 89.7973 55.7718 89.7973 55.7718C89.7973 55.7718 90.3854 57.6821 91.4157 58.5664C92.446 59.4508 95.9746 60.0389 97.1641 59.1546C98.3536 58.2702 97.8981 55.0334 97.8981 55.0334C97.8981 55.0334 99.9587 54.0031 99.8128 53.2646C99.6669 52.5262 98.19 51.9381 98.19 51.3544C98.1776 50.9089 98.1288 50.4653 98.0441 50.0278V48.8472L91.2786 50.3197C91.2786 50.3197 90.3898 53.7112 89.3506 52.8269Z" fill="white"/>
</mask>
<g mask="url(#mask3_1058_27953)">
<g style="mix-blend-mode:multiply" opacity="0.5">
<g style="mix-blend-mode:multiply">
<path d="M91.2746 50.3329C91.0848 51.0435 90.8085 51.7281 90.4521 52.3714C93.1053 52.252 95.9397 52.084 98.4778 51.8629C98.3217 51.7386 98.2176 51.5603 98.186 51.3632C98.1736 50.9178 98.1248 50.4741 98.0401 50.0367V48.8472L91.2746 50.3329Z" fill="#FF6600"/>
</g>
</g>
</g>
<path d="M89.3516 52.8269C89.3516 52.8269 87.8791 51.0581 86.9992 51.7966C86.1192 52.535 86.4067 54.5956 87.4414 55.6259C88.4761 56.6562 89.7982 55.7718 89.7982 55.7718C89.7982 55.7718 90.3863 57.6821 91.4166 58.5664C92.4469 59.4508 95.9756 60.0389 97.1651 59.1546C98.3546 58.2702 97.8991 55.0334 97.8991 55.0334C97.8991 55.0334 99.9597 54.0031 99.8138 53.2646C99.6679 52.5262 98.191 51.9381 98.191 51.3544C98.1785 50.9089 98.1297 50.4653 98.045 50.0278V48.8472L91.2796 50.3197C91.2796 50.3197 90.3908 53.7112 89.3516 52.8269Z" stroke="#2E353A" stroke-linecap="round" stroke-linejoin="round"/>
<path d="M83.3291 52.0971L98.0407 48.847C98.0407 48.847 95.9801 41.6349 93.4818 41.0468C90.9834 40.4587 86.1238 40.1624 83.4751 42.8156C80.8263 45.4687 83.3291 52.0971 83.3291 52.0971Z" fill="white" stroke="#2E353A" stroke-linecap="round" stroke-linejoin="round"/>
<path d="M93.1855 50.0367C95.1246 50.4673 97.0911 50.7628 99.0711 50.9211C101.724 51.067 107.751 48.7101 106.283 48.5642C104.815 48.4183 98.0408 48.8605 98.0408 48.8605L93.1855 50.0367Z" fill="#2E353A" stroke="#2E353A" stroke-linecap="round" stroke-linejoin="round"/>
<path d="M86.3754 60.7422L85.0488 63.6872L91.6728 67.8039L92.9949 63.6872L86.3754 60.7422Z" fill="white" stroke="#2E353A" stroke-linecap="round" stroke-linejoin="round"/>
<path d="M72.7385 91.5181L96.285 97.5981L93.8397 114.817C93.7997 115.098 93.7006 115.368 93.549 115.609C93.3973 115.849 93.1965 116.055 92.9598 116.212C92.723 116.37 92.4556 116.475 92.1752 116.522C91.8947 116.569 91.6075 116.556 91.3325 116.484L69.9262 110.921C69.5244 110.818 69.1788 110.562 68.9625 110.208C68.7462 109.853 68.6763 109.429 68.7676 109.024L72.7385 91.5181Z" fill="white" stroke="#2E353A" stroke-linecap="round" stroke-linejoin="round"/>
<path d="M72.7383 91.5181C72.7383 91.5181 78.2966 105.005 81.7014 106.774C85.1063 108.542 96.2936 97.6114 96.2936 97.6114" stroke="#2E353A" stroke-linecap="round" stroke-linejoin="round"/>
<path d="M77.4119 85.6108C77.4119 85.6108 75.9395 88.8477 76.3817 90.0327C76.8238 91.2178 95.0685 97.8329 95.0685 97.8329C95.0685 97.8329 95.2144 100.331 95.6566 100.928C96.0353 101.576 96.3323 102.268 96.541 102.989C96.541 102.989 95.6566 105.049 96.0988 105.492C96.541 105.934 97.8675 103.431 97.8675 102.697C97.8675 101.963 98.0135 97.9877 97.5757 96.9485C97.1379 95.9094 84.624 88.2684 84.624 88.2684L77.4119 85.6108Z" fill="white" stroke="#2E353A" stroke-linecap="round" stroke-linejoin="round"/>
<path d="M85.4913 67.9541L76.957 86.0484L84.6069 88.2594L90.7887 73.8396" fill="#2E353A"/>
<path d="M85.4913 67.9541L76.957 86.0484L84.6069 88.2594L90.7887 73.8396" stroke="#2E353A" stroke-linecap="round" stroke-linejoin="round"/>
<path d="M84.6074 88.2593L90.2409 75.626" stroke="white" stroke-linecap="round" stroke-linejoin="round"/>
<path d="M88.3086 80.2641L91.143 77.4297" stroke="white" stroke-linecap="round" stroke-linejoin="round"/>
<path d="M79.9062 127.525C83.4386 129.357 87.4075 130.178 91.3766 129.9" stroke="#2E353A" stroke-linecap="round" stroke-linejoin="round"/>
<path d="M77.9873 126.367C77.9873 126.367 78.3278 126.623 78.9601 127.003" stroke="#2E353A" stroke-linecap="round" stroke-linejoin="round"/>
<path d="M106.667 126.486C107.229 126.181 107.773 125.846 108.299 125.482" stroke="#2E353A" stroke-linecap="round" stroke-linejoin="round"/>
<path d="M95.3477 129.325C98.7997 129.28 102.207 128.54 105.368 127.15" stroke="#2E353A" stroke-linecap="round" stroke-linejoin="round"/>
<path d="M93.8789 120.778L97.0538 115.281" stroke="#2E353A" stroke-linecap="round" stroke-linejoin="round"/>
<path d="M94.0518 120.49L99.3447 114.49" stroke="#2E353A" stroke-linecap="round" stroke-linejoin="round"/>
<path d="M80.5525 118.107L80.1104 121.37C81.1964 122.13 82.3883 122.726 83.6479 123.139C85.7659 123.847 90.2807 123.758 90.2807 123.758L90.8997 120.663C90.8997 120.663 83.0465 119.778 81.459 118.452" stroke="#2E353A" stroke-linecap="round" stroke-linejoin="round"/>
<path d="M80.0255 122.604C80.0255 122.604 78.7873 125.606 79.5833 126.313C80.3792 127.021 86.0215 129.135 87.5426 128.967C89.0638 128.799 89.9216 125.084 89.9216 125.084" stroke="#2E353A" stroke-linecap="round" stroke-linejoin="round"/>
<path d="M124.921 157.28C125.421 155.556 123.648 156.422 122.9 156.98C121.932 157.7 117.099 158.306 117.099 158.306L116.511 156.98C115.625 157.758 114.61 158.378 113.513 158.81C114.799 161.366 115.83 163.374 116.281 163.449C117.568 163.679 119.531 162.034 120.486 161.366C121.702 160.513 124.492 158.779 124.921 157.28Z" fill="#2E353A" stroke="#2E353A" stroke-linecap="round" stroke-linejoin="round"/>
<path d="M121.246 159.695C119.256 160.729 116.935 161.985 115.595 162.688C115.887 163.13 116.121 163.418 116.28 163.444C117.567 163.674 119.53 162.029 120.485 161.362C121.701 160.513 124.492 158.779 124.907 157.28C125.119 156.555 124.907 156.29 124.576 156.268C123.842 157.497 122.701 158.952 121.246 159.695Z" fill="white" stroke="#2E353A" stroke-linecap="round" stroke-linejoin="round"/>
<path d="M75.7499 163.555C75.5376 163.396 73.1365 161.711 73.2117 161.503C73.2117 161.503 73.6937 160.207 74.4321 158.288C73.1659 158.13 71.9278 157.797 70.7531 157.298C69.5769 160.871 68.5422 163.904 68.834 164.346C69.4221 165.293 74.6355 166.597 76.6475 166.597C77.7043 166.597 79.4554 167.004 80.154 165.974C80.1938 165.916 76.0196 163.754 75.7499 163.555Z" fill="white" stroke="#2E353A" stroke-linecap="round" stroke-linejoin="round"/>
<path d="M80.1536 165.973C80.1934 165.916 76.0192 163.762 75.7318 163.555C75.4443 163.347 73.1184 161.711 73.1936 161.503L73.6623 160.251C72.4438 160.03 71.25 159.69 70.0983 159.234C69.2139 161.914 68.5904 163.983 68.8159 164.346C69.4041 165.292 74.6174 166.597 76.6294 166.597C77.7039 166.597 79.455 167.004 80.1536 165.973Z" fill="#2E353A" stroke="#2E353A" stroke-linecap="round" stroke-linejoin="round"/>
<path d="M76.0151 165.62C73.3045 165.456 70.2932 164.342 68.8207 163.732C68.7616 163.933 68.7616 164.146 68.8207 164.347C69.4088 165.293 74.6222 166.597 76.6341 166.597C77.691 166.597 79.442 167.004 80.1407 165.974C79.9434 165.834 79.7349 165.712 79.5172 165.607C78.3515 165.692 77.1813 165.697 76.0151 165.62Z" fill="white" stroke="#2E353A" stroke-linecap="round" stroke-linejoin="round"/>
<path d="M92.4209 50.0498L90.0596 44.4385" stroke="black" stroke-linecap="round" stroke-linejoin="round"/>
<path d="M89.7628 43.4082C89.7628 43.4082 89.0244 41.7809 89.6169 41.0425" stroke="black" stroke-linecap="round" stroke-linejoin="round"/>
</svg>
