<svg width="18" height="18" viewBox="0 0 18 18" fill="none" xmlns="http://www.w3.org/2000/svg">
<path d="M2.62502 15.375C3.24752 15.9975 4.25252 15.9975 4.87502 15.375L14.625 5.625C15.2475 5.0025 15.2475 3.9975 14.625 3.375C14.0025 2.7525 12.9975 2.7525 12.375 3.375L2.62502 13.125C2.00252 13.7475 2.00252 14.7525 2.62502 15.375Z" stroke="#1C1C28" stroke-width="1.5" stroke-linecap="round" stroke-linejoin="round"/>
<path d="M13.5075 6.7425L11.2575 4.4925" stroke="#1C1C28" stroke-width="1.5" stroke-linecap="round" stroke-linejoin="round"/>
<path d="M6.375 1.83L7.5 1.5L7.17 2.625L7.5 3.75L6.375 3.42L5.25 3.75L5.58 2.625L5.25 1.5L6.375 1.83Z" stroke="#1C1C28" stroke-linecap="round" stroke-linejoin="round"/>
<path d="M3.375 6.33L4.5 6L4.17 7.125L4.5 8.25L3.375 7.92L2.25 8.25L2.58 7.125L2.25 6L3.375 6.33Z" stroke="#1C1C28" stroke-linecap="round" stroke-linejoin="round"/>
<path d="M14.625 10.08L15.75 9.75L15.42 10.875L15.75 12L14.625 11.67L13.5 12L13.83 10.875L13.5 9.75L14.625 10.08Z" stroke="#1C1C28" stroke-linecap="round" stroke-linejoin="round"/>
</svg>
