<svg width="1289" height="724" viewBox="0 0 1289 724" fill="none" xmlns="http://www.w3.org/2000/svg">
<g filter="url(#filter0_f_8165_11685)">
<path d="M732.006 322.295C693.947 464.334 645.215 574.688 623.16 568.779C601.106 562.869 614.08 442.934 652.139 300.895C690.198 158.856 738.93 48.5017 760.985 54.4113C783.039 60.3208 770.065 180.257 732.006 322.295Z" fill="#A2D50B" fill-opacity="0.3"/>
<path d="M544.86 322.75C618.385 450.098 661.958 562.589 642.185 574.006C622.411 585.422 546.778 491.44 473.253 364.092C399.729 236.743 356.155 124.252 375.929 112.836C395.702 101.42 471.335 195.401 544.86 322.75Z" fill="#A2D50B" fill-opacity="0.3"/>
<path d="M412.849 455.404C554.888 493.463 665.242 542.195 659.333 564.249C653.423 586.304 533.487 573.329 391.449 535.27C249.41 497.211 139.055 448.479 144.965 426.425C150.874 404.37 270.81 417.344 412.849 455.404Z" fill="#A2D50B" fill-opacity="0.3"/>
<path d="M843.976 408.897C739.997 512.876 642.617 584.08 626.472 567.935C610.326 551.79 681.53 454.41 785.51 350.43C889.49 246.451 986.87 175.247 1003.01 191.392C1019.16 207.537 947.956 304.917 843.976 408.897Z" fill="#A2D50B" fill-opacity="0.3"/>
<path d="M897.645 539.88C755.606 577.94 635.67 590.914 629.761 568.859C623.851 546.805 734.206 498.073 876.245 460.014C1018.28 421.955 1138.22 408.98 1144.13 431.035C1150.04 453.089 1039.68 501.821 897.645 539.88Z" fill="#A2D50B" fill-opacity="0.3"/>
</g>
<defs>
<filter id="filter0_f_8165_11685" x="0.738281" y="-89.8154" width="1287.62" height="813.422" filterUnits="userSpaceOnUse" color-interpolation-filters="sRGB">
<feFlood flood-opacity="0" result="BackgroundImageFix"/>
<feBlend mode="normal" in="SourceGraphic" in2="BackgroundImageFix" result="shape"/>
<feGaussianBlur stdDeviation="72" result="effect1_foregroundBlur_8165_11685"/>
</filter>
</defs>
</svg>
