<svg width="17" height="17" viewBox="0 0 17 17" fill="none" xmlns="http://www.w3.org/2000/svg">
<path fill-rule="evenodd" clip-rule="evenodd" d="M1.08583 14.0235C1.35676 14.3718 1.79716 14.3815 2.38913 14.1561L6.86325 12.4116L9.87484 16.1619C10.2656 16.6506 10.6519 16.8624 11.0607 16.6963C11.4578 16.5369 11.6352 16.1316 11.5858 15.508L11.2859 10.7122L15.7869 9.0141C16.3739 8.80716 16.6861 8.4872 16.6566 8.04615C16.6314 7.62593 16.2973 7.32967 15.6886 7.17642L11.0496 5.97277L10.8305 1.1691C10.8019 0.541225 10.5984 0.161844 10.1759 0.0486258C9.76258 -0.0621194 9.39661 0.164682 9.0487 0.691656L6.45717 4.74224L1.83779 3.46511C1.23405 3.29349 0.805785 3.38547 0.564642 3.73432C0.327765 4.104 0.438114 4.53717 0.833862 5.00743L3.88283 8.72851L1.2252 12.7319C0.870535 13.2472 0.821624 13.6869 1.08583 14.0235Z" fill="#FF6600"/>
</svg>
