<svg width="21" height="21" viewBox="0 0 21 21" fill="none" xmlns="http://www.w3.org/2000/svg">
<g clip-path="url(#clip0_1_8660)">
<path d="M20.7524 15.8707C20.7524 16.46 20.5182 17.0253 20.1015 17.442C19.6847 17.8588 19.1195 18.0929 18.5301 18.0929H14.0857V3.64844H18.5301C19.1195 3.64844 19.6847 3.88256 20.1015 4.29931C20.5182 4.71606 20.7524 5.28129 20.7524 5.87066V15.8707Z" fill="#ED2939"/>
<path d="M2.97466 3.64844C2.38529 3.64844 1.82006 3.88256 1.40332 4.29931C0.986568 4.71606 0.752441 5.28129 0.752441 5.87066L0.752441 15.8707C0.752441 16.46 0.986568 17.0253 1.40332 17.442C1.82006 17.8588 2.38529 18.0929 2.97466 18.0929H7.41911V3.64844H2.97466Z" fill="#002495"/>
<path d="M7.41919 3.64844H14.0859V18.0929H7.41919V3.64844Z" fill="#EEEEEE"/>
</g>
<defs>
<clipPath id="clip0_1_8660">
<rect width="20" height="20" fill="white" transform="translate(0.752441 0.870605)"/>
</clipPath>
</defs>
</svg>
