<svg width="20" height="20" viewBox="0 0 20 20" fill="none" xmlns="http://www.w3.org/2000/svg">
<path d="M8.125 5.5498V6.60605H19.9891C19.9725 6.26543 19.9369 5.8348 19.8094 5.5498" fill="#EC1C24"/>
<path d="M19.25 4.49365H8.125V5.5499H19.8094C19.6825 5.15584 19.4937 4.79646 19.25 4.49365Z" fill="#E6E7E8"/>
<path d="M16.875 3.4375H8.125V4.49375H19.25C18.7284 3.84063 17.87 3.4375 16.875 3.4375Z" fill="#EC1C24"/>
<path d="M19.9891 6.60645H8.125V7.6627H20V6.95863C20 6.89582 19.9959 6.83457 19.9941 6.77301C19.9928 6.75613 19.9909 6.7127 19.9891 6.60645Z" fill="#E6E7E8"/>
<path d="M8.125 8.71885H20V7.6626H8.125V8.71885Z" fill="#EC1C24"/>
<path d="M8.125 9.775H20V8.71875H8.125V9.775Z" fill="#E6E7E8"/>
<path d="M8.125 9.7749H20V10.8312H8.125V9.7749Z" fill="#EC1C24"/>
<path d="M0 10.8311V11.8873H20V10.8311H8.125H0Z" fill="#E6E7E8"/>
<path d="M0 11.8877H20V12.9439H0V11.8877Z" fill="#EC1C24"/>
<path d="M0.0015625 13.5935C0.0015625 13.5935 -0.00125 13.8495 0.00625 14.0001H19.9937C20.0025 13.8457 19.9984 13.5935 19.9984 13.5935L20 12.9438H0L0.0015625 13.5935Z" fill="#E6E7E8"/>
<path d="M3.1249 17.1873H16.8749C17.8727 17.1873 18.7021 16.8248 19.2687 16.1123H0.728027C1.31303 16.8404 2.15803 17.1873 3.12334 17.1873" fill="#EC1C24"/>
<path d="M0.72959 16.1124H19.2702C19.5173 15.7983 19.7019 15.4398 19.814 15.0562H0.188965C0.303304 15.4385 0.4871 15.7966 0.731152 16.1124" fill="#E6E7E8"/>
<path d="M0.187598 15.0563H19.8126C19.9149 14.7126 19.9757 14.358 19.9938 14H0.00634766C0.0372852 14.3613 0.0660352 14.6341 0.187598 15.0563Z" fill="#EC1C24"/>
<path d="M8.125 3.4375H3.125C1.05406 3.4375 0 4.97656 0 6.875V10.8313H8.125V3.4375Z" fill="#176496"/>
<path d="M0.874395 5.30523L1.04439 5.17461L1.21408 5.30523L1.14814 5.09523L1.31721 4.9668H1.10846L1.04377 4.75586L0.979395 4.9668H0.770957L0.940645 5.09523L0.874395 5.30523ZM1.99752 5.30523L2.16752 5.17461L2.33721 5.30523L2.27158 5.09523L2.44033 4.9668H2.23189L2.16721 4.75586L2.10283 4.9668H1.89377L2.06346 5.09523L1.99752 5.30523ZM3.23658 5.30523L3.40627 5.17461L3.57627 5.30523L3.51033 5.09523L3.67908 4.9668H3.47189L3.40627 4.75586L3.34158 4.9668H3.13439L3.30221 5.09523L3.23658 5.30523ZM4.46658 5.30523L4.63627 5.17461L4.80627 5.30523L4.74064 5.09523L4.90939 4.9668H4.70002L4.63627 4.75586L4.57189 4.9668H4.36314L4.53252 5.09523L4.46658 5.30523ZM5.70096 5.30523L5.87096 5.17461L6.04064 5.30523L5.97502 5.09523L6.14408 4.9668H5.93502L5.87064 4.75586L5.80627 4.9668H5.59783L5.76658 5.09523L5.70096 5.30523ZM1.47221 5.85367L1.64189 5.72336L1.81158 5.85367L1.74627 5.64398L1.91502 5.51555H1.70627L1.64158 5.30492L1.57814 5.51555H1.36877L1.53783 5.64398L1.47221 5.85367ZM2.59564 5.85367L2.76533 5.72336L2.93502 5.85367L2.86939 5.64398L3.03814 5.51555H2.82814L2.76533 5.30492L2.70064 5.51555H2.49221L2.66127 5.64398L2.59564 5.85367ZM3.83471 5.85367L4.00408 5.72336L4.17377 5.85367L4.10814 5.64398L4.27721 5.51555H4.06877L4.00408 5.30492L3.93939 5.51555H3.73064L3.89971 5.64398L3.83471 5.85367ZM5.06408 5.85367L5.23408 5.72336L5.40408 5.85367L5.33752 5.64398L5.50689 5.51555H5.29846L5.23377 5.30492L5.16971 5.51555H4.96096L5.13002 5.64398L5.06408 5.85367ZM6.30002 5.85367L6.46846 5.72336L6.63814 5.85367L6.57189 5.64398L6.74127 5.51555H6.53314L6.46814 5.30492L6.40408 5.51555H6.19533L6.36439 5.64398L6.30002 5.85367ZM6.99596 5.30523L7.16564 5.17461L7.33564 5.30523L7.26971 5.09523L7.43846 4.9668H7.23127L7.16533 4.75586L7.10096 4.9668H6.89064L7.06158 5.09523L6.99596 5.30523ZM0.857832 9.69398L1.02783 9.56492L1.19752 9.69398L1.13189 9.48586L1.30064 9.35711L1.09221 9.35773L1.02721 9.14711L0.963457 9.35773L0.754395 9.35711L0.923457 9.48586L0.857832 9.69398ZM1.98127 9.69398L2.15096 9.56492L2.32096 9.69398L2.25502 9.48586L2.42377 9.35711L2.21564 9.35773L2.15064 9.14711L2.08658 9.35773L1.87814 9.35711L2.04689 9.48586L1.98127 9.69398ZM3.22033 9.69398L3.39002 9.56492L3.56002 9.69398L3.49408 9.48586L3.66283 9.35711L3.45314 9.35773L3.38971 9.14711L3.32533 9.35773L3.11689 9.35711L3.28596 9.48586L3.22033 9.69398ZM4.45033 9.69398L4.62002 9.56492L4.78971 9.69398L4.72502 9.48586L4.89283 9.35711L4.68408 9.35773L4.61971 9.14711L4.55533 9.35773L4.34689 9.35711L4.51564 9.48586L4.45033 9.69398ZM5.68439 9.69398L5.85439 9.56492L6.02439 9.69398L5.95939 9.48586L6.12721 9.35711L5.91877 9.35773L5.85408 9.14711L5.79002 9.35773L5.58127 9.35711L5.75002 9.48586L5.68439 9.69398ZM6.97939 9.69398L7.14908 9.56492L7.31908 9.69398L7.25314 9.48586L7.42221 9.35711L7.21252 9.35773L7.14877 9.14711L7.08439 9.35773L6.87502 9.35711L7.04502 9.48586L6.97939 9.69398ZM0.874395 6.40273L1.04439 6.27211L1.21408 6.40273L1.14814 6.19273L1.31721 6.0643L1.10846 6.06492L1.04377 5.85367L0.979395 6.06492L0.770957 6.0643L0.940645 6.19273L0.874395 6.40273ZM1.99752 6.40273L2.16752 6.27211L2.33721 6.40273L2.27158 6.19273L2.44033 6.0643L2.23189 6.06492L2.16721 5.85367L2.10283 6.06492L1.89377 6.0643L2.06346 6.19273L1.99752 6.40273ZM3.23658 6.40273L3.40627 6.27211L3.57627 6.40273L3.51033 6.19273L3.67908 6.0643L3.47189 6.06492L3.40627 5.85367L3.34158 6.06492L3.13439 6.0643L3.30221 6.19273L3.23658 6.40273ZM4.46658 6.40273L4.63627 6.27211L4.80627 6.40273L4.74064 6.19273L4.90939 6.0643L4.70002 6.06492L4.63627 5.85367L4.57189 6.06492L4.36314 6.0643L4.53252 6.19273L4.46658 6.40273ZM5.70096 6.40273L5.87096 6.27211L6.04064 6.40273L5.97502 6.19273L6.14408 6.0643L5.93502 6.06492L5.87064 5.85367L5.80627 6.06492L5.59783 6.0643L5.76658 6.19273L5.70096 6.40273ZM1.47221 6.95148L1.64189 6.82117L1.81158 6.95148L1.74627 6.7418L1.91502 6.61273H1.70627L1.64158 6.40273L1.57814 6.61273H1.36877L1.53783 6.7418L1.47221 6.95148ZM2.59564 6.95148L2.76533 6.82117L2.93502 6.95148L2.86939 6.7418L3.03814 6.61273H2.82814L2.76533 6.40273L2.70064 6.61273H2.49221L2.66127 6.7418L2.59564 6.95148ZM3.83471 6.95148L4.00408 6.82117L4.17377 6.95148L4.10814 6.7418L4.27721 6.61273H4.06877L4.00408 6.40273L3.93939 6.61273H3.73064L3.89971 6.7418L3.83471 6.95148ZM5.06408 6.95148L5.23408 6.82117L5.40408 6.95148L5.33752 6.7418L5.50689 6.61273H5.29846L5.23377 6.40273L5.16971 6.61273H4.96096L5.13002 6.7418L5.06408 6.95148ZM6.30002 6.95148L6.46846 6.82117L6.63814 6.95148L6.57189 6.7418L6.74127 6.61273H6.53314L6.46814 6.40273L6.40408 6.61273H6.19533L6.36439 6.7418L6.30002 6.95148ZM6.99596 6.40273L7.16564 6.27211L7.33564 6.40273L7.26971 6.19273L7.43846 6.0643L7.23127 6.06492L7.16533 5.85367L7.10096 6.06492L6.89064 6.0643L7.06158 6.19273L6.99596 6.40273ZM0.857832 7.50023L1.02783 7.36992L1.19752 7.50023L1.13158 7.29086L1.30064 7.16211L1.09189 7.16273L1.02721 6.95148L0.963457 7.16273L0.754395 7.16211L0.923457 7.29086L0.857832 7.50023ZM1.98127 7.50023L2.15096 7.36992L2.32096 7.50023L2.25502 7.29086L2.42377 7.16211L2.21564 7.16273L2.15064 6.95148L2.08658 7.16273L1.87814 7.16211L2.04658 7.29086L1.98127 7.50023ZM3.22033 7.50023L3.39002 7.36992L3.55971 7.50023L3.49408 7.29086L3.66283 7.16211L3.45314 7.16273L3.38971 6.95148L3.32533 7.16273L3.11689 7.16211L3.28596 7.29086L3.22033 7.50023ZM4.45033 7.50023L4.61971 7.36992L4.78971 7.50023L4.72502 7.29086L4.89283 7.16211L4.68408 7.16273L4.61971 6.95148L4.55533 7.16273L4.34689 7.16211L4.51564 7.29086L4.45033 7.50023ZM5.68439 7.50023L5.85439 7.36992L6.02408 7.50023L5.95939 7.29086L6.12721 7.16211L5.91846 7.16273L5.85408 6.95148L5.79002 7.16273L5.58127 7.16211L5.75002 7.29086L5.68439 7.50023ZM1.45564 8.04898L1.62533 7.91898L1.79502 8.04898L1.72971 7.84086L1.89814 7.71148H1.68939L1.62502 7.50023L1.56096 7.71148H1.35221L1.52127 7.84086L1.45564 8.04898ZM2.57908 8.04898L2.74877 7.91898L2.91846 8.04898L2.85283 7.84086L3.02158 7.71148H2.81252L2.74846 7.50023L2.68408 7.71148H2.47533L2.64471 7.84086L2.57908 8.04898ZM3.81846 8.04898L3.98752 7.91898L4.15752 8.04898L4.09064 7.84086L4.26064 7.71148H4.05221L3.98752 7.50023L3.92314 7.71148H3.71439L3.88346 7.84086L3.81846 8.04898ZM5.04689 8.04898L5.21752 7.91898L5.38752 8.04898L5.32189 7.84086L5.49033 7.71148H5.28189L5.21721 7.50023L5.15314 7.71148H4.94439L5.11346 7.84086L5.04689 8.04898ZM6.28127 8.04898L6.45189 7.91898L6.62189 8.04898L6.55596 7.84086L6.72533 7.71148H6.51689L6.45189 7.50023L6.38752 7.71148H6.17877L6.34783 7.84086L6.28127 8.04898ZM6.97939 7.50023L7.14908 7.36992L7.31877 7.50023L7.25314 7.29086L7.42221 7.16211L7.21252 7.16273L7.14877 6.95148L7.08439 7.16273L6.87502 7.16211L7.04502 7.29086L6.97939 7.50023ZM0.857832 8.59805L1.02783 8.46898L1.19752 8.59805L1.13158 8.38836L1.30064 8.25961L1.09189 8.26023L1.02721 8.04898L0.963457 8.26023L0.754395 8.25961L0.923457 8.38836L0.857832 8.59805ZM1.98127 8.59805L2.15096 8.46898L2.32096 8.59805L2.25502 8.38836L2.42377 8.25961L2.21564 8.26023L2.15064 8.04898L2.08658 8.26023L1.87814 8.25961L2.04658 8.38836L1.98127 8.59805ZM3.22033 8.59805L3.39002 8.46898L3.55971 8.59805L3.49408 8.38836L3.66283 8.25961L3.45314 8.26023L3.38971 8.04898L3.32533 8.26023L3.11689 8.25961L3.28596 8.38836L3.22033 8.59805ZM4.45033 8.59805L4.61971 8.46898L4.78971 8.59805L4.72502 8.38836L4.89283 8.25961L4.68408 8.26023L4.61971 8.04898L4.55533 8.26023L4.34689 8.25961L4.51564 8.38836L4.45033 8.59805ZM5.68439 8.59805L5.85439 8.46898L6.02408 8.59805L5.95939 8.38836L6.12721 8.25961L5.91846 8.26023L5.85408 8.04898L5.79002 8.26023L5.58127 8.25961L5.75002 8.38836L5.68439 8.59805ZM1.45564 9.14711L1.62533 9.01648L1.79502 9.14711L1.72971 8.93711L1.89814 8.80961H1.68939L1.62502 8.59805L1.56096 8.80961H1.35221L1.52127 8.93711L1.45564 9.14711ZM2.57908 9.14711L2.74877 9.01648L2.91846 9.14711L2.85283 8.93711L3.02158 8.80961H2.81252L2.74846 8.59805L2.68408 8.80961H2.47533L2.64471 8.93711L2.57908 9.14711ZM3.81846 9.14711L3.98752 9.01648L4.15752 9.14711L4.09064 8.93711L4.26064 8.80961H4.05221L3.98752 8.59805L3.92314 8.80961H3.71439L3.88346 8.93711L3.81846 9.14711ZM5.04689 9.14711L5.21752 9.01648L5.38752 9.14711L5.32189 8.93711L5.49033 8.80961H5.28189L5.21721 8.59805L5.15314 8.80961H4.94439L5.11346 8.93711L5.04689 9.14711ZM6.28127 9.14711L6.45189 9.01648L6.62189 9.14711L6.55596 8.93711L6.72533 8.80961H6.51689L6.45189 8.59805L6.38752 8.80961H6.17877L6.34783 8.93711L6.28127 9.14711ZM6.97939 8.59805L7.14908 8.46898L7.31877 8.59805L7.25314 8.38836L7.42221 8.25961L7.21252 8.26023L7.14877 8.04898L7.08439 8.26023L6.87502 8.25961L7.04502 8.38836L6.97939 8.59805Z" fill="white"/>
</svg>
