<svg width="25" height="24" viewBox="0 0 25 24" fill="none" xmlns="http://www.w3.org/2000/svg">
<g clip-path="url(#clip0_8165_11988)">
<path d="M4.53052 7C4.53052 5.343 5.87352 4 7.53052 4H17.5305C19.1875 4 20.5305 5.343 20.5305 7V17C20.5305 18.657 19.1875 20 17.5305 20H7.53052C5.87352 20 4.53052 18.657 4.53052 17V7ZM9.38052 17.393V10.169H6.96452V17.393H9.38052ZM8.17252 9.182C9.01452 9.182 9.53952 8.628 9.53952 7.934C9.52352 7.225 9.01452 6.686 8.18852 6.686C7.36152 6.686 6.82152 7.225 6.82152 7.934C6.82152 8.628 7.34552 9.182 8.15652 9.182H8.17252ZM13.1345 17.393V13.359C13.1345 13.143 13.1505 12.928 13.2135 12.773C13.3885 12.342 13.7865 11.895 14.4535 11.895C15.3285 11.895 15.6785 12.557 15.6785 13.529V17.393H18.0945V13.251C18.0945 11.032 16.9025 9.999 15.3125 9.999C14.0305 9.999 13.4555 10.699 13.1345 11.192V10.169H10.7175C10.7495 10.844 10.7185 17.352 10.7175 17.394L13.1345 17.393Z" fill="white"/>
</g>
<defs>
<clipPath id="clip0_8165_11988">
<rect width="24" height="24" fill="white" transform="translate(0.530518)"/>
</clipPath>
</defs>
</svg>
