<svg width="25" height="24" viewBox="0 0 25 24" fill="none" xmlns="http://www.w3.org/2000/svg">
<g opacity="0.699978">
<g clip-path="url(#clip0_8165_11979)">
<path d="M23.2444 12C23.2444 12 23.2444 15.487 22.7844 17.158C22.5294 18.082 21.7884 18.804 20.8394 19.052C19.1244 19.5 12.2444 19.5 12.2444 19.5C12.2444 19.5 5.36445 19.5 3.64945 19.052C2.70045 18.803 1.95945 18.082 1.70445 17.158C1.24445 15.487 1.24445 12 1.24445 12C1.24445 12 1.24445 8.513 1.70445 6.842C1.95945 5.918 2.70045 5.197 3.64945 4.948C5.36445 4.5 12.2444 4.5 12.2444 4.5C12.2444 4.5 19.1244 4.5 20.8394 4.948C21.7884 5.197 22.5294 5.918 22.7844 6.842C23.2424 8.513 23.2444 12 23.2444 12ZM10.0424 14.359C10.0424 14.742 10.4544 14.983 10.7874 14.795L14.9824 12.436C15.3224 12.245 15.3224 11.756 14.9824 11.564L10.7874 9.205C10.4544 9.018 10.0424 9.259 10.0424 9.641V14.359Z" fill="white"/>
</g>
</g>
<defs>
<clipPath id="clip0_8165_11979">
<rect width="24" height="24" fill="white" transform="translate(0.244446)"/>
</clipPath>
</defs>
</svg>
