<svg width="25" height="24" viewBox="0 0 25 24" fill="none" xmlns="http://www.w3.org/2000/svg">
<g opacity="0.699978">
<g clip-path="url(#clip0_8165_11983)">
<path d="M4.38745 8.667C4.38745 6.089 6.47645 4 9.05445 4H15.7205C18.2985 4 20.3875 6.089 20.3875 8.667V15.333C20.3875 17.911 18.2985 20 15.7205 20H9.05445C6.47645 20 4.38745 17.911 4.38745 15.333V8.667ZM15.7205 7.333C15.7095 7.817 15.9615 8.268 16.3785 8.513C16.7955 8.758 17.3115 8.758 17.7285 8.513C18.1455 8.269 18.3975 7.817 18.3865 7.334C18.3705 6.609 17.7785 6.03 17.0545 6.03C16.3295 6.03 15.7375 6.609 15.7205 7.333ZM9.05445 12C9.05445 13.841 10.5475 15.334 12.3885 15.333C14.2295 15.333 15.7215 13.84 15.7215 11.999C15.7215 10.158 14.2285 8.666 12.3875 8.666C10.5465 8.666 9.05345 10.159 9.05445 12Z" fill="white"/>
</g>
</g>
<defs>
<clipPath id="clip0_8165_11983">
<rect width="24" height="24" fill="white" transform="translate(0.387451)"/>
</clipPath>
</defs>
</svg>
