<svg width="109" height="35" viewBox="0 0 109 35" fill="none" xmlns="http://www.w3.org/2000/svg">
<path d="M5.93853 9.79365H8.59821V24.4219H5.93853V9.79365ZM11.9754 13.741C12.4679 13.6002 13.1082 13.4665 13.8963 13.3399C14.6843 13.2132 15.5568 13.1499 16.5137 13.1499C17.4144 13.1499 18.1673 13.2766 18.7724 13.5299C19.3775 13.7691 19.8559 14.1139 20.2077 14.5642C20.5736 15.0004 20.8269 15.5352 20.9677 16.1684C21.1224 16.7876 21.1998 17.4701 21.1998 18.216V24.4219H18.6457V18.617C18.6457 18.026 18.6035 17.5264 18.5191 17.1183C18.4487 16.6961 18.322 16.3584 18.1391 16.1051C17.9702 15.8377 17.731 15.6478 17.4214 15.5352C17.1259 15.4085 16.76 15.3452 16.3238 15.3452C16.0001 15.3452 15.6624 15.3663 15.3106 15.4085C14.9588 15.4507 14.6984 15.4859 14.5295 15.5141V24.4219H11.9754V13.741ZM27.0883 22.5854C27.7638 22.5854 28.2563 22.508 28.5659 22.3532C28.8755 22.1844 29.0303 21.9029 29.0303 21.5089C29.0303 21.143 28.8614 20.8405 28.5237 20.6012C28.2 20.362 27.6582 20.1017 26.8983 19.8202C26.4339 19.6513 26.0047 19.4754 25.6107 19.2925C25.2308 19.0955 24.9001 18.8703 24.6186 18.617C24.3372 18.3637 24.112 18.0612 23.9431 17.7094C23.7883 17.3435 23.7109 16.9002 23.7109 16.3795C23.7109 15.3663 24.0839 14.5712 24.8297 13.9943C25.5755 13.4032 26.5887 13.1077 27.8693 13.1077C28.5166 13.1077 29.1358 13.171 29.7269 13.2977C30.3179 13.4103 30.7612 13.5228 31.0567 13.6354L30.5923 15.704C30.3109 15.5774 29.952 15.4648 29.5158 15.3663C29.0795 15.2537 28.5729 15.1974 27.996 15.1974C27.4753 15.1974 27.0531 15.2889 26.7295 15.4719C26.4058 15.6407 26.244 15.9081 26.244 16.274C26.244 16.4569 26.2721 16.6187 26.3284 16.7595C26.3988 16.9002 26.5113 17.0339 26.6661 17.1605C26.8209 17.2731 27.025 17.3927 27.2783 17.5194C27.5316 17.632 27.8412 17.7516 28.2071 17.8782C28.8122 18.1034 29.3258 18.3285 29.748 18.5537C30.1702 18.7648 30.5149 19.0111 30.7823 19.2925C31.0637 19.5599 31.2678 19.8695 31.3944 20.2213C31.5211 20.5731 31.5844 20.9953 31.5844 21.4878C31.5844 22.5432 31.1904 23.3453 30.4023 23.8942C29.6284 24.4289 28.5166 24.6963 27.0672 24.6963C26.0962 24.6963 25.3152 24.6119 24.7241 24.443C24.1331 24.2882 23.718 24.1615 23.4787 24.063L23.922 21.9311C24.302 22.0859 24.7523 22.2336 25.273 22.3743C25.8077 22.5151 26.4128 22.5854 27.0883 22.5854ZM33.8437 10.4691L36.3978 10.047V13.3821H40.324V15.5141H36.3978V20.0102C36.3978 20.8967 36.5386 21.53 36.82 21.91C37.1014 22.2899 37.5799 22.4799 38.2554 22.4799C38.7198 22.4799 39.1279 22.4306 39.4797 22.3321C39.8456 22.2336 40.134 22.1422 40.3451 22.0577L40.7673 24.0841C40.4718 24.2108 40.0848 24.3374 39.6063 24.4641C39.1279 24.6048 38.565 24.6752 37.9176 24.6752C37.1296 24.6752 36.4682 24.5696 35.9334 24.3585C35.4128 24.1475 34.9976 23.8449 34.688 23.4509C34.3784 23.0428 34.1603 22.5573 34.0337 21.9944C33.907 21.4174 33.8437 20.7631 33.8437 20.0313V10.4691ZM46.677 22.6276C47.4651 22.6276 48.0632 22.5854 48.4713 22.501V19.6725C48.3305 19.6302 48.1265 19.588 47.8591 19.5458C47.5917 19.5036 47.2962 19.4825 46.9726 19.4825C46.6911 19.4825 46.4026 19.5036 46.1071 19.5458C45.8257 19.588 45.5653 19.6654 45.3261 19.778C45.1009 19.8906 44.918 20.0524 44.7773 20.2635C44.6365 20.4605 44.5662 20.7138 44.5662 21.0234C44.5662 21.6285 44.7562 22.0507 45.1361 22.2899C45.5161 22.5151 46.0297 22.6276 46.677 22.6276ZM46.4659 13.1077C47.3103 13.1077 48.0209 13.2132 48.5979 13.4243C49.1749 13.6354 49.6322 13.9309 49.97 14.3109C50.3218 14.6908 50.568 15.1552 50.7088 15.704C50.8636 16.2388 50.941 16.8298 50.941 17.4772V24.1686C50.5469 24.253 49.9489 24.3515 49.1467 24.4641C48.3587 24.5907 47.4651 24.6541 46.4659 24.6541C45.8045 24.6541 45.1994 24.5907 44.6506 24.4641C44.1018 24.3374 43.6304 24.1334 43.2363 23.8519C42.8564 23.5705 42.5538 23.2046 42.3287 22.7543C42.1176 22.304 42.012 21.7481 42.012 21.0867C42.012 20.4535 42.1317 19.9187 42.3709 19.4825C42.6242 19.0462 42.9619 18.6944 43.3841 18.427C43.8063 18.1456 44.2918 17.9486 44.8406 17.836C45.4035 17.7094 45.9875 17.646 46.5926 17.646C46.874 17.646 47.1696 17.6671 47.4792 17.7094C47.7887 17.7375 48.1194 17.7938 48.4713 17.8782V17.4561C48.4713 17.1605 48.4361 16.8791 48.3657 16.6117C48.2954 16.3443 48.1687 16.1121 47.9858 15.9151C47.8169 15.704 47.5847 15.5422 47.2892 15.4296C47.0077 15.3171 46.6489 15.2608 46.2126 15.2608C45.6216 15.2608 45.0798 15.303 44.5873 15.3874C44.0948 15.4719 43.6937 15.5704 43.3841 15.6829L43.0675 13.6143C43.3911 13.5017 43.8626 13.3891 44.4817 13.2766C45.1009 13.164 45.7623 13.1077 46.4659 13.1077Z" fill="white"/>
<path d="M105.187 8.21819V30.5441C105.187 31.8802 104.096 32.9715 102.76 32.9715H60.5148C59.1685 32.9715 58.0874 31.8802 58.0874 30.5441V8.21819V7.49405C58.0874 6.76991 58.7708 6.23956 59.4745 6.41295L79.9748 11.5227C80.5154 11.6655 81.0661 11.7267 81.6373 11.7267C82.188 11.7267 82.749 11.6553 83.2997 11.5227L103.453 6.49454C104.33 6.28035 105.177 6.9331 105.187 7.84083V8.21819Z" fill="#01121E"/>
<path d="M98.1194 3.84264C98.1194 3.84264 83.3715 8.10588 83.1981 8.14668C82.6983 8.26907 82.168 8.32006 81.6172 8.32006C81.0665 8.32006 80.5361 8.25887 80.0261 8.14668C79.8222 8.09568 65.1558 3.84264 65.1558 3.84264C63.6157 3.42447 63.9013 1.08887 65.4924 1.08887H97.7829C99.3739 1.09907 99.6595 3.43467 98.1194 3.84264Z" fill="#D1ECFF"/>
<path d="M60.4634 18.9125C60.4634 18.0963 60.5901 17.3364 60.8434 16.6328C61.0967 15.9151 61.4555 15.2959 61.9199 14.7753C62.3984 14.2546 62.9754 13.8465 63.6508 13.551C64.3263 13.2555 65.0862 13.1077 65.9305 13.1077C66.9719 13.1077 67.957 13.2977 68.8857 13.6776L68.3369 15.7674C68.0414 15.6407 67.7037 15.5352 67.3237 15.4507C66.9578 15.3663 66.5638 15.3241 66.1416 15.3241C65.1425 15.3241 64.3826 15.6407 63.8619 16.274C63.3412 16.8932 63.0809 17.7727 63.0809 18.9125C63.0809 20.0102 63.3272 20.8827 63.8197 21.53C64.3122 22.1633 65.1425 22.4799 66.3105 22.4799C66.7467 22.4799 67.176 22.4377 67.5981 22.3532C68.0203 22.2688 68.3862 22.1633 68.6958 22.0366L69.0546 24.1475C68.7732 24.2882 68.344 24.4148 67.767 24.5274C67.2041 24.64 66.6201 24.6963 66.015 24.6963C65.0721 24.6963 64.2489 24.5556 63.5453 24.2741C62.8557 23.9786 62.2788 23.5775 61.8144 23.0709C61.3641 22.5503 61.0263 21.9381 60.8012 21.2345C60.576 20.5168 60.4634 19.7428 60.4634 18.9125ZM74.916 22.6276C75.7041 22.6276 76.3022 22.5854 76.7103 22.501V19.6725C76.5695 19.6302 76.3655 19.588 76.0981 19.5458C75.8307 19.5036 75.5352 19.4825 75.2115 19.4825C74.9301 19.4825 74.6416 19.5036 74.3461 19.5458C74.0646 19.588 73.8043 19.6654 73.5651 19.778C73.3399 19.8906 73.157 20.0524 73.0163 20.2635C72.8755 20.4605 72.8052 20.7138 72.8052 21.0234C72.8052 21.6285 72.9951 22.0507 73.3751 22.2899C73.7551 22.5151 74.2687 22.6276 74.916 22.6276ZM74.7049 13.1077C75.5493 13.1077 76.2599 13.2132 76.8369 13.4243C77.4139 13.6354 77.8712 13.9309 78.209 14.3109C78.5608 14.6908 78.807 15.1552 78.9478 15.704C79.1026 16.2388 79.18 16.8298 79.18 17.4772V24.1686C78.7859 24.253 78.1879 24.3515 77.3857 24.4641C76.5977 24.5907 75.7041 24.6541 74.7049 24.6541C74.0435 24.6541 73.4384 24.5907 72.8896 24.4641C72.3408 24.3374 71.8694 24.1334 71.4753 23.8519C71.0954 23.5705 70.7928 23.2046 70.5677 22.7543C70.3566 22.304 70.251 21.7481 70.251 21.0867C70.251 20.4535 70.3707 19.9187 70.6099 19.4825C70.8632 19.0462 71.2009 18.6944 71.6231 18.427C72.0453 18.1456 72.5308 17.9486 73.0796 17.836C73.6425 17.7094 74.2265 17.646 74.8316 17.646C75.113 17.646 75.4086 17.6671 75.7182 17.7094C76.0277 17.7375 76.3584 17.7938 76.7103 17.8782V17.4561C76.7103 17.1605 76.6751 16.8791 76.6047 16.6117C76.5343 16.3443 76.4077 16.1121 76.2248 15.9151C76.0559 15.704 75.8237 15.5422 75.5282 15.4296C75.2467 15.3171 74.8879 15.2608 74.4516 15.2608C73.8606 15.2608 73.3188 15.303 72.8263 15.3874C72.3337 15.4719 71.9327 15.5704 71.6231 15.6829L71.3065 13.6143C71.6301 13.5017 72.1016 13.3891 72.7207 13.2766C73.3399 13.164 74.0013 13.1077 74.7049 13.1077ZM88.5982 15.6829C88.3871 15.6126 88.0916 15.5422 87.7116 15.4719C87.3457 15.3874 86.9165 15.3452 86.424 15.3452C86.1425 15.3452 85.84 15.3733 85.5163 15.4296C85.2067 15.4859 84.9886 15.5352 84.8619 15.5774V24.4219H82.3078V13.9098C82.8003 13.7269 83.4125 13.558 84.1443 13.4032C84.8901 13.2343 85.7133 13.1499 86.614 13.1499C86.7828 13.1499 86.9798 13.164 87.205 13.1921C87.4302 13.2062 87.6553 13.2343 87.8805 13.2766C88.1056 13.3047 88.3237 13.3469 88.5348 13.4032C88.7459 13.4454 88.9148 13.4876 89.0414 13.5299L88.5982 15.6829ZM92.8266 18.8703C92.8266 19.9961 93.094 20.8827 93.6288 21.53C94.1635 22.1633 94.9023 22.4799 95.8451 22.4799C96.2532 22.4799 96.598 22.4658 96.8795 22.4377C97.175 22.3955 97.4142 22.3532 97.5972 22.311V15.9785C97.372 15.8237 97.0694 15.6829 96.6895 15.5563C96.3236 15.4156 95.9296 15.3452 95.5074 15.3452C94.5786 15.3452 93.8961 15.6618 93.4599 16.2951C93.0377 16.9283 92.8266 17.7868 92.8266 18.8703ZM100.151 24.0841C99.6447 24.2389 99.0044 24.3797 98.2304 24.5063C97.4705 24.633 96.6684 24.6963 95.824 24.6963C94.9516 24.6963 94.1705 24.5626 93.481 24.2952C92.7914 24.0278 92.2004 23.6479 91.7079 23.1554C91.2294 22.6488 90.8565 22.0436 90.5891 21.34C90.3358 20.6223 90.2092 19.8202 90.2092 18.9337C90.2092 18.0612 90.3147 17.2731 90.5258 16.5695C90.751 15.8518 91.0746 15.2397 91.4968 14.7331C91.919 14.2264 92.4326 13.8395 93.0377 13.5721C93.6428 13.2906 94.3394 13.1499 95.1275 13.1499C95.6622 13.1499 96.1336 13.2132 96.5417 13.3399C96.9498 13.4665 97.3016 13.6073 97.5972 13.7621V8.46382L100.151 8.04164V24.0841Z" fill="#FAFAFA"/>
</svg>
