<svg width="48" height="48" viewBox="0 0 48 48" fill="none" xmlns="http://www.w3.org/2000/svg">
<path d="M20.2173 2.04423C21.5223 2.05904 21.725 2.26972 21.9746 3.36097C22.3967 5.25378 22.8674 7.13671 23.3281 9.02129C23.5358 9.87223 23.4956 10.687 22.7937 11.2943C22.4658 11.5954 22.0628 11.8061 21.6254 11.9052C21.1881 12.0044 20.7318 11.9884 20.3028 11.8589C19.492 11.6334 19.0431 11.0688 18.8789 10.2969C18.6326 9.14474 18.4517 7.99259 18.2088 6.84045C18.0916 6.19689 17.9241 5.55992 17.723 4.93776C17.2691 3.4696 17.775 2.54788 19.2876 2.1792C19.5946 2.11658 19.905 2.07151 20.2173 2.04423Z" fill="white"/>
<path d="M28.047 2.10513C26.479 2.63841 25.8425 3.66217 26.3484 5.16984C26.6298 6.00761 27.2195 6.80259 27.8426 7.45931C28.6802 8.33824 28.6048 9.5447 27.521 10.1224C25.8994 10.9849 24.4906 10.3874 24.045 8.61969C23.6078 6.89641 23.179 5.16325 22.7954 3.43339C22.591 2.51332 22.4469 1.52412 23.3666 0.870692C24.4119 0.131673 25.6147 -0.116861 26.8543 0.302849C27.6533 0.571134 27.846 1.3332 28.047 2.10513Z" fill="white"/>
<path d="M18.0634 10.7824C18.0416 12.1798 16.4167 12.9567 15.2441 12.2489C14.971 12.0844 14.6544 11.8375 14.559 11.5609C13.904 9.6813 13.2188 7.80495 12.7163 5.88581C12.4633 4.95751 13.5304 4.06542 14.8739 3.82676C15.8572 3.65065 16.6998 4.11315 16.9611 5.1435C17.3313 6.59849 17.5843 8.08312 17.8758 9.55622C17.9646 10.0121 18.0182 10.4746 18.0634 10.7824Z" fill="white"/>
<path d="M34.5333 2.77502C32.5918 2.61043 28.7037 2.21212 28.7037 2.21212C28.9131 1.66567 29.2817 0.694579 29.7088 0.39173C30.9317 -0.488838 33.4947 0.210678 34.1798 1.54387C34.3406 1.86647 34.3842 2.24833 34.5333 2.77502Z" fill="white"/>
<path d="M38.7631 15.0042C36.8065 17.0649 34.8399 19.119 32.9905 21.2752C31.5231 22.982 29.8446 23.6404 27.6702 22.8832C26.5479 22.4932 25.4339 22.08 24.3986 21.7081C24.7923 22.8602 26.6048 23.6074 30.8229 24.2312C30.8115 24.6686 30.6968 25.0975 30.4878 25.4838C30.4727 25.5111 30.4559 25.5375 30.4376 25.5628C30.0573 26.1455 29.3839 26.4088 28.4023 26.366C27.6669 26.3347 26.9281 26.2837 26.0135 26.2327H26.0034C26.2497 28.2078 26.8159 32.9678 27.0336 34.8014C27.0354 34.809 27.0397 34.8159 27.046 34.8208C27.0522 34.8257 27.06 34.8284 27.068 34.8284C27.076 34.8284 27.0838 34.8257 27.09 34.8208C27.0962 34.8159 27.1006 34.809 27.1023 34.8014C27.0923 32.7917 27.31 29.6463 27.2698 28.0103C27.2698 27.8144 27.6183 27.4605 27.831 27.4392C28.5698 27.3684 29.3202 27.4128 30.2148 27.4128L31.4058 34.4508L31.6705 36.1741L30.8128 36.3172L29.1108 36.4967L16.522 37.8216C16.3227 34.6269 16.1284 31.9424 16.0027 31.1441C16.0027 31.126 16.0027 31.1096 16.0027 31.0931C15.852 30.0595 15.6526 29.0324 15.4449 28.0086C15.3879 27.7255 15.3293 27.4441 15.2774 27.161C15.1718 26.6458 15.0663 26.129 14.9641 25.6122C14.934 25.4575 14.9122 25.2995 14.8971 25.2172L19.2525 24.7629C19.2525 24.6773 19.2408 24.5983 19.2341 24.5061C18.6796 24.5061 18.1252 24.4946 17.5707 24.5061C15.8419 24.5489 14.5872 23.7934 14.0713 22.2199C13.458 20.3212 12.9629 18.3875 12.5888 16.4296C12.1951 14.3409 11.9941 12.2177 11.6976 10.0566C12.5821 9.9644 12.9791 10.4286 13.1382 10.8993C13.8585 13.039 15.4198 13.5426 17.4802 13.2645C17.9962 13.1953 18.5305 13.2546 19.1738 13.2546C18.5406 14.9433 18.1687 16.5464 18.6361 18.2302C18.7098 17.6114 18.7232 16.9793 18.874 16.3786C19.045 15.6627 19.288 14.9652 19.5993 14.2965C19.9712 13.5212 20.663 13.2464 21.643 13.3863C21.2158 14.9828 21.2527 16.4971 22.0501 17.9817C22.0501 17.1587 22.0266 16.4049 22.0501 15.6511C22.112 14.0051 22.8089 12.746 24.4556 12.1502C26.0721 11.5659 27.6903 10.998 29.3135 10.4532C29.743 10.3353 30.1877 10.2799 30.6336 10.2887C31.1361 10.2755 31.714 10.185 32.1111 10.3956C32.436 10.5701 32.5365 11.1412 32.7526 11.528C32.9069 11.8296 33.1377 12.0869 33.4227 12.2753C33.2552 11.8078 33.0592 11.3486 32.9436 10.868C32.7074 9.89034 32.9637 9.55128 33.9487 9.25337C34.4861 9.08056 34.9901 8.82016 35.4396 8.48308C33.0089 9.45252 30.9686 8.34317 28.9467 7.3622C27.6401 6.73181 27.0169 5.59613 27.0873 4.13455C27.1208 3.44491 27.4223 3.0647 28.1895 3.13383C30.714 3.36097 33.2418 3.55189 35.7629 3.80537C36.835 3.914 37.5486 4.55261 37.8401 5.57473C38.4398 7.68151 39.0216 9.79323 39.5856 11.9099C39.9022 13.0834 39.6292 14.094 38.7631 15.0042Z" fill="white"/>
<path d="M47.9932 33.5373C48.0074 33.6635 47.996 33.7912 47.9597 33.913C47.9235 34.0349 47.8631 34.1485 47.7819 34.2473C47.7008 34.3461 47.6006 34.4282 47.4871 34.4888C47.3736 34.5495 47.249 34.5874 47.1204 34.6006L30.8228 36.314L29.1209 36.4934L16.532 37.8183L13.897 38.0948L2.04192 39.3375C1.91365 39.3512 1.78389 39.3399 1.66007 39.3043C1.53624 39.2687 1.42077 39.2095 1.32026 39.13C1.21976 39.0505 1.13619 38.9523 1.07433 38.8411C1.01247 38.7298 0.973541 38.6077 0.959765 38.4816L-0.000100511 29.7336C-0.0278115 29.4787 0.0485186 29.2234 0.21214 29.0238C0.375762 28.8241 0.61331 28.6964 0.872657 28.6687L13.4263 27.3519L15.269 27.1593L24.092 26.231H24.1021L28.615 25.7587L30.4442 25.5661L45.9596 23.9333C46.2188 23.9061 46.4784 23.9812 46.6813 24.142C46.8842 24.3028 47.0139 24.5362 47.0417 24.7909L47.9932 33.5373Z" fill="#0B99FF"/>
<path d="M11.6737 28.3181L12.4506 28.2409L13.2646 36.1559L12.4877 36.233L11.6737 28.3181ZM14.6899 30.2569C14.9045 30.1741 15.1945 30.0761 15.5599 29.9629C15.9253 29.8497 16.3784 29.7662 16.9192 29.7125C17.3686 29.6679 17.7485 29.6956 18.0588 29.7955C18.3768 29.8947 18.636 30.0575 18.8362 30.2837C19.0433 30.5016 19.2021 30.7743 19.3128 31.1018C19.4234 31.4292 19.4994 31.7947 19.5409 32.1983L19.8804 35.499L19.1378 35.5728L18.823 32.5119C18.7799 32.0931 18.713 31.742 18.6223 31.4588C18.5393 31.1747 18.4198 30.9481 18.2639 30.779C18.1156 30.6091 17.9271 30.4971 17.6984 30.4428C17.4765 30.3803 17.2018 30.3652 16.8742 30.3977C16.5239 30.4325 16.2211 30.4818 15.9661 30.5456C15.7186 30.6086 15.5584 30.6592 15.4854 30.6972L16.0186 35.8824L15.276 35.9562L14.6899 30.2569ZM22.9379 34.6647C23.3645 34.6224 23.7078 34.5191 23.9679 34.3548C24.2349 34.1821 24.3511 33.9283 24.3166 33.5933C24.3002 33.4334 24.2594 33.299 24.1944 33.19C24.1369 33.0804 24.0464 32.9855 23.9227 32.9055C23.7991 32.8255 23.6377 32.753 23.4387 32.6882C23.2473 32.6226 23.0086 32.5463 22.7226 32.4593C22.4924 32.3898 22.2735 32.3193 22.0661 32.2476C21.8578 32.1682 21.6713 32.0752 21.5064 31.9685C21.3408 31.8542 21.2032 31.714 21.0938 31.548C20.9844 31.3819 20.9168 31.1733 20.8909 30.922C20.8416 30.4423 20.9807 30.0362 21.3081 29.7037C21.6432 29.3704 22.1268 29.1724 22.759 29.1097C23.1627 29.0696 23.4976 29.071 23.7636 29.1138C24.0373 29.1558 24.2301 29.1982 24.3423 29.2409L24.239 29.9204C24.1429 29.8838 23.9805 29.8384 23.7518 29.7842C23.5307 29.7292 23.2107 29.7225 22.7917 29.7641C22.6241 29.7807 22.4662 29.8156 22.3177 29.8688C22.1761 29.9137 22.0521 29.9798 21.9457 30.0673C21.8385 30.1472 21.7565 30.2476 21.6997 30.3686C21.6421 30.482 21.6215 30.6187 21.638 30.7786C21.6544 30.9385 21.699 31.0725 21.7717 31.1807C21.8443 31.2888 21.9425 31.3829 22.0662 31.463C22.1966 31.5346 22.3496 31.6002 22.525 31.6597C22.708 31.7185 22.9147 31.7826 23.145 31.852C23.3829 31.9207 23.6097 31.9943 23.8256 32.0729C24.0482 32.1431 24.2466 32.2388 24.4206 32.3599C24.5939 32.4735 24.7398 32.6205 24.8584 32.8011C24.9763 32.974 25.0496 33.2013 25.0786 33.483C25.1334 34.016 24.9731 34.4396 24.5976 34.7538C24.2297 35.0672 23.6992 35.2583 23.006 35.3272C22.4881 35.3786 22.0873 35.3722 21.8037 35.3081C21.5209 35.2515 21.3314 35.205 21.2353 35.1684L21.3602 34.4752C21.3847 34.4882 21.4369 34.5099 21.517 34.5404C21.5963 34.5633 21.703 34.5912 21.8372 34.624C21.9706 34.6492 22.1265 34.6684 22.3048 34.6814C22.4908 34.6937 22.7018 34.6882 22.9379 34.6647ZM26.7576 28.8511L29.1112 28.6175L29.1758 29.2456L26.8222 29.4793L27.1452 32.6202C27.1796 32.9552 27.2345 33.2267 27.3097 33.4346C27.3918 33.6341 27.492 33.7857 27.6104 33.8893C27.7288 33.9929 27.8661 34.0562 28.0224 34.0792C28.1786 34.1021 28.3482 34.1045 28.531 34.0864C28.8433 34.0553 29.0911 33.9961 29.2745 33.9087C29.4571 33.8136 29.5985 33.7304 29.6989 33.6589L29.9451 34.2575C29.8456 34.3366 29.6672 34.4351 29.41 34.5529C29.152 34.6631 28.8668 34.7337 28.5546 34.7647C28.1889 34.801 27.8758 34.786 27.615 34.7196C27.3611 34.6448 27.1482 34.5198 26.9763 34.3446C26.8112 34.161 26.6833 33.9275 26.5926 33.6442C26.5019 33.3609 26.4362 33.0213 26.3955 32.6254L25.8364 27.1888L26.5649 26.978L26.7576 28.8511ZM32.8934 33.6648C33.1829 33.636 33.4334 33.6035 33.6451 33.5671C33.8637 33.5223 34.0475 33.4771 34.1968 33.4315L33.983 31.3529C33.8953 31.3231 33.7581 31.2983 33.5713 31.2783C33.3838 31.2508 33.1301 31.2529 32.8102 31.2847C32.6274 31.3028 32.4386 31.337 32.2437 31.3871C32.048 31.4296 31.871 31.5048 31.7129 31.6129C31.5539 31.7132 31.4289 31.8449 31.338 32.0077C31.247 32.1706 31.2144 32.3777 31.2403 32.629C31.263 32.8498 31.3164 33.0329 31.4006 33.1784C31.4925 33.3231 31.6078 33.4347 31.7467 33.5132C31.8932 33.591 32.0602 33.6437 32.2477 33.6712C32.4421 33.6904 32.6573 33.6882 32.8934 33.6648ZM32.2587 28.1665C32.6472 28.1279 32.9806 28.1525 33.2589 28.2403C33.5441 28.3197 33.7806 28.45 33.9686 28.6313C34.1557 28.8051 34.3011 29.0214 34.4046 29.2803C34.5082 29.5392 34.5761 29.8248 34.6082 30.137L34.9911 33.8603C34.9173 33.8907 34.8096 33.9284 34.668 33.9732C34.5256 34.0104 34.3608 34.0537 34.1735 34.103C33.9862 34.1524 33.7753 34.1964 33.5407 34.2351C33.3145 34.2806 33.0796 34.3155 32.8359 34.3397C32.5236 34.3707 32.2306 34.3652 31.957 34.3231C31.6909 34.2803 31.4515 34.1964 31.2385 34.0714C31.0325 33.938 30.8605 33.7628 30.7228 33.5457C30.5919 33.3202 30.5092 33.04 30.4748 32.705C30.4419 32.3852 30.4746 32.105 30.573 31.8645C30.6714 31.624 30.8236 31.4204 31.0296 31.2538C31.2348 31.0796 31.4862 30.9431 31.7839 30.8443C32.0815 30.7455 32.4093 30.6784 32.7673 30.6428C32.8739 30.6322 32.9852 30.6289 33.101 30.6328C33.2236 30.6283 33.3395 30.6322 33.4484 30.6444C33.5643 30.6483 33.6614 30.6579 33.7399 30.6732C33.8253 30.6801 33.884 30.6896 33.916 30.7018L33.8784 30.3364C33.8573 30.1308 33.8217 29.9343 33.7717 29.747C33.7208 29.552 33.6343 29.3837 33.512 29.242C33.3965 29.092 33.2389 28.9807 33.039 28.9082C32.8461 28.8274 32.5972 28.8021 32.2926 28.8323C31.8584 28.8755 31.5378 28.9381 31.3308 29.0201C31.1238 29.1022 30.9727 29.1672 30.8776 29.2151L30.7078 28.5743C30.8311 28.5006 31.0232 28.4238 31.2843 28.344C31.5531 28.2635 31.8779 28.2043 32.2587 28.1665Z" fill="white"/>
<path d="M14.4597 46.062C13.4204 46.062 12.627 45.7729 12.0796 45.1948C11.5384 44.6167 11.2678 43.7957 11.2678 42.7317C11.2678 42.2028 11.3509 41.7323 11.5169 41.3203C11.683 40.9021 11.9105 40.5515 12.1996 40.2686C12.4886 39.9796 12.833 39.7612 13.2328 39.6136C13.6325 39.466 14.0661 39.3922 14.5335 39.3922C14.8041 39.3922 15.0501 39.4138 15.2715 39.4568C15.4929 39.4937 15.6867 39.5398 15.8527 39.5952C16.0188 39.6444 16.1571 39.6967 16.2678 39.752C16.3785 39.8074 16.4585 39.8504 16.5077 39.8812L16.0926 41.0435C15.8958 40.939 15.6651 40.8498 15.4007 40.776C15.1424 40.7022 14.8472 40.6653 14.5151 40.6653C14.2937 40.6653 14.0753 40.7022 13.8601 40.776C13.651 40.8498 13.4634 40.9697 13.2974 41.1358C13.1375 41.2957 13.0083 41.5048 12.9099 41.7631C12.8115 42.0214 12.7623 42.335 12.7623 42.704C12.7623 42.9992 12.7931 43.276 12.8546 43.5343C12.9222 43.7865 13.0268 44.0048 13.1682 44.1893C13.3158 44.3738 13.5065 44.5214 13.7402 44.6321C13.9739 44.7366 14.2568 44.7889 14.5889 44.7889C14.798 44.7889 14.9855 44.7766 15.1516 44.752C15.3177 44.7274 15.4653 44.6997 15.5944 44.669C15.7236 44.6321 15.8373 44.5921 15.9357 44.5491C16.0341 44.506 16.1233 44.466 16.2033 44.4291L16.5999 45.5823C16.397 45.7053 16.111 45.816 15.742 45.9144C15.373 46.0128 14.9456 46.062 14.4597 46.062ZM19.3786 44.9734C19.5139 44.9734 19.643 44.9703 19.766 44.9642C19.889 44.958 19.9874 44.9488 20.0612 44.9365V43.8941C20.0059 43.8818 19.9229 43.8695 19.8122 43.8572C19.7014 43.8449 19.6 43.8387 19.5077 43.8387C19.3786 43.8387 19.2556 43.848 19.1387 43.8664C19.028 43.8787 18.9296 43.9064 18.8435 43.9494C18.7574 43.9925 18.6898 44.0509 18.6406 44.1247C18.5914 44.1985 18.5668 44.2908 18.5668 44.4015C18.5668 44.6167 18.6375 44.7674 18.7789 44.8535C18.9265 44.9334 19.1264 44.9734 19.3786 44.9734ZM19.2679 40.9513C19.6738 40.9513 20.012 40.9974 20.2826 41.0896C20.5532 41.1819 20.7685 41.3141 20.9284 41.4863C21.0944 41.6585 21.2113 41.8676 21.2789 42.1136C21.3466 42.3596 21.3804 42.6333 21.3804 42.9347V45.7945C21.1836 45.8375 20.9099 45.8867 20.5594 45.9421C20.2088 46.0036 19.7845 46.0343 19.2863 46.0343C18.9727 46.0343 18.6867 46.0066 18.4284 45.9513C18.1762 45.8959 17.9579 45.8068 17.7734 45.6837C17.5889 45.5546 17.4475 45.3885 17.349 45.1856C17.2506 44.9826 17.2014 44.7336 17.2014 44.4384C17.2014 44.1555 17.2568 43.9156 17.3675 43.7188C17.4844 43.522 17.6381 43.3652 17.8288 43.2483C18.0194 43.1315 18.2377 43.0484 18.4837 42.9992C18.7297 42.9439 18.985 42.9162 19.2494 42.9162C19.4278 42.9162 19.5846 42.9254 19.7199 42.9439C19.8614 42.9562 19.9751 42.9746 20.0612 42.9992V42.8701C20.0612 42.6364 19.9905 42.4488 19.8491 42.3074C19.7076 42.1659 19.4616 42.0952 19.111 42.0952C18.8773 42.0952 18.6467 42.1136 18.4192 42.1505C18.1916 42.1813 17.9948 42.2274 17.8288 42.2889L17.6535 41.1819C17.7334 41.1573 17.8318 41.1327 17.9487 41.1081C18.0717 41.0773 18.2039 41.0527 18.3454 41.0343C18.4868 41.0097 18.6344 40.9912 18.7882 40.9789C18.9481 40.9605 19.108 40.9513 19.2679 40.9513ZM26.7654 45.7668C26.5317 45.8344 26.2304 45.8959 25.8614 45.9513C25.4924 46.0128 25.1049 46.0435 24.699 46.0435C24.2869 46.0435 23.9425 45.9882 23.6658 45.8775C23.3952 45.7668 23.1799 45.613 23.02 45.4162C22.8601 45.2133 22.7464 44.9734 22.6787 44.6967C22.6111 44.4199 22.5772 44.1155 22.5772 43.7834V41.0804H23.9518V43.6173C23.9518 44.0601 24.0102 44.3799 24.127 44.5767C24.2439 44.7735 24.4622 44.8719 24.782 44.8719C24.8804 44.8719 24.985 44.8689 25.0957 44.8627C25.2064 44.8504 25.3048 44.8381 25.3909 44.8258V41.0804H26.7654V45.7668ZM29.4487 44.9457C29.7009 44.9457 29.8792 44.9211 29.9838 44.8719C30.0883 44.8227 30.1406 44.7274 30.1406 44.586C30.1406 44.4753 30.0729 44.3799 29.9376 44.3C29.8023 44.2139 29.5963 44.1186 29.3196 44.014C29.1043 43.9341 28.9075 43.851 28.7291 43.7649C28.5569 43.6788 28.4093 43.5774 28.2863 43.4605C28.1633 43.3375 28.068 43.193 28.0004 43.0269C27.9327 42.8609 27.8989 42.661 27.8989 42.4273C27.8989 41.9722 28.068 41.6124 28.4063 41.348C28.7445 41.0835 29.2089 40.9513 29.7993 40.9513C30.0945 40.9513 30.3774 40.9789 30.648 41.0343C30.9186 41.0835 31.1338 41.1389 31.2937 41.2004L31.0539 42.2705C30.894 42.2151 30.7187 42.1659 30.528 42.1229C30.3435 42.0798 30.1344 42.0583 29.9007 42.0583C29.4702 42.0583 29.255 42.1782 29.255 42.4181C29.255 42.4734 29.2642 42.5226 29.2827 42.5657C29.3011 42.6087 29.338 42.6518 29.3934 42.6948C29.4487 42.7317 29.5225 42.7748 29.6148 42.824C29.7132 42.867 29.8362 42.9162 29.9838 42.9716C30.2851 43.0823 30.5342 43.193 30.731 43.3037C30.9278 43.4082 31.0815 43.5251 31.1922 43.6542C31.3091 43.7772 31.3891 43.9156 31.4321 44.0694C31.4813 44.2231 31.5059 44.4015 31.5059 44.6044C31.5059 45.0841 31.3245 45.447 30.9616 45.693C30.6049 45.939 30.0975 46.062 29.4395 46.062C29.009 46.062 28.6492 46.0251 28.3601 45.9513C28.0772 45.8775 27.8804 45.816 27.7697 45.7668L28.0004 44.6505C28.2341 44.7428 28.4739 44.8166 28.7199 44.8719C28.9659 44.9211 29.2089 44.9457 29.4487 44.9457ZM32.3025 43.5435C32.3025 43.113 32.3671 42.7379 32.4962 42.4181C32.6315 42.0921 32.8068 41.8215 33.0221 41.6063C33.2373 41.391 33.4833 41.228 33.7601 41.1173C34.043 41.0066 34.332 40.9513 34.6272 40.9513C35.316 40.9513 35.8603 41.1635 36.2601 41.5878C36.6598 42.006 36.8597 42.6241 36.8597 43.4421C36.8597 43.522 36.8566 43.6112 36.8505 43.7096C36.8443 43.8018 36.8382 43.8849 36.832 43.9587H33.7139C33.7447 44.2416 33.8769 44.466 34.1106 44.6321C34.3443 44.7981 34.658 44.8812 35.0516 44.8812C35.3037 44.8812 35.5497 44.8596 35.7896 44.8166C36.0356 44.7674 36.2355 44.709 36.3892 44.6413L36.5737 45.7576C36.4999 45.7945 36.4015 45.8314 36.2785 45.8683C36.1555 45.9052 36.0171 45.9359 35.8634 45.9605C35.7158 45.9913 35.5559 46.0159 35.3837 46.0343C35.2115 46.0528 35.0393 46.062 34.8671 46.062C34.4304 46.062 34.0491 45.9974 33.7232 45.8683C33.4034 45.7391 33.1358 45.5638 32.9206 45.3424C32.7115 45.1149 32.5547 44.8473 32.4501 44.5398C32.3517 44.2323 32.3025 43.9002 32.3025 43.5435ZM35.5313 43.0177C35.5251 42.9008 35.5036 42.7871 35.4667 42.6764C35.436 42.5657 35.3837 42.4673 35.3099 42.3812C35.2422 42.2951 35.1531 42.2243 35.0424 42.169C34.9378 42.1136 34.8056 42.086 34.6457 42.086C34.4919 42.086 34.3597 42.1136 34.249 42.169C34.1383 42.2182 34.046 42.2858 33.9722 42.3719C33.8984 42.458 33.84 42.5595 33.797 42.6764C33.7601 42.7871 33.7324 42.9008 33.7139 43.0177H35.5313Z" fill="white"/>
</svg>
