<svg width="124" height="41" viewBox="0 0 124 41" fill="none" xmlns="http://www.w3.org/2000/svg">
<path d="M2.15098 12.0852H5.41633V30.0446H2.15098V12.0852ZM9.5626 16.9314C10.1673 16.7586 10.9534 16.5945 11.9209 16.439C12.8884 16.2835 13.9596 16.2057 15.1344 16.2057C16.2401 16.2057 17.1645 16.3612 17.9074 16.6722C18.6503 16.9659 19.2377 17.3892 19.6696 17.9421C20.1188 18.4777 20.4298 19.1342 20.6026 19.9116C20.7926 20.6718 20.8876 21.5098 20.8876 22.4254V30.0446H17.7519V22.9178C17.7519 22.1922 17.7 21.5789 17.5964 21.0778C17.51 20.5595 17.3545 20.1449 17.1299 19.8339C16.9226 19.5056 16.6289 19.2724 16.2488 19.1342C15.886 18.9787 15.4368 18.9009 14.9012 18.9009C14.5038 18.9009 14.0892 18.9269 13.6572 18.9787C13.2253 19.0305 12.9057 19.0737 12.6984 19.1083V30.0446H9.5626V16.9314ZM28.117 27.7899C28.9463 27.7899 29.551 27.6949 29.9311 27.5049C30.3112 27.2975 30.5013 26.952 30.5013 26.4683C30.5013 26.0191 30.2939 25.6476 29.8793 25.3539C29.4819 25.0602 28.8168 24.7406 27.8838 24.395C27.3137 24.1877 26.7867 23.9717 26.303 23.7471C25.8365 23.5053 25.4305 23.2288 25.0849 22.9178C24.7394 22.6069 24.463 22.2354 24.2556 21.8035C24.0656 21.3543 23.9706 20.81 23.9706 20.1708C23.9706 18.9269 24.4284 17.9507 25.3441 17.2424C26.2598 16.5167 27.5037 16.1539 29.0759 16.1539C29.8707 16.1539 30.6308 16.2317 31.3565 16.3871C32.0821 16.5254 32.6263 16.6636 32.9891 16.8018L32.419 19.3415C32.0735 19.186 31.6329 19.0478 31.0973 18.9269C30.5617 18.7886 29.9398 18.7195 29.2314 18.7195C28.5922 18.7195 28.0739 18.8318 27.6765 19.0564C27.2791 19.2638 27.0804 19.592 27.0804 20.0412C27.0804 20.2658 27.115 20.4645 27.1841 20.6373C27.2705 20.81 27.4087 20.9742 27.5987 21.1297C27.7888 21.2679 28.0393 21.4147 28.3503 21.5702C28.6613 21.7085 29.0414 21.8553 29.4906 22.0108C30.2335 22.2872 30.8641 22.5637 31.3824 22.8401C31.9007 23.0992 32.324 23.4016 32.6522 23.7471C32.9978 24.0754 33.2483 24.4555 33.4038 24.8874C33.5593 25.3193 33.637 25.8376 33.637 26.4423C33.637 27.7381 33.1533 28.7229 32.1858 29.3967C31.2355 30.0532 29.8707 30.3815 28.0911 30.3815C26.899 30.3815 25.9401 30.2778 25.2145 30.0705C24.4889 29.8805 23.9792 29.725 23.6855 29.604L24.2297 26.9866C24.6962 27.1766 25.2491 27.358 25.8883 27.5308C26.5448 27.7036 27.2878 27.7899 28.117 27.7899ZM36.4108 12.9145L39.5466 12.3962V16.4908H44.3668V19.1083H39.5466V24.6283C39.5466 25.7167 39.7193 26.4942 40.0649 26.9606C40.4104 27.4271 40.9978 27.6604 41.8271 27.6604C42.3973 27.6604 42.8983 27.5999 43.3302 27.479C43.7794 27.358 44.1336 27.2457 44.3928 27.1421L44.9111 29.6299C44.5482 29.7854 44.0731 29.9409 43.4857 30.0964C42.8983 30.2692 42.2072 30.3556 41.4125 30.3556C40.445 30.3556 39.633 30.226 38.9764 29.9668C38.3372 29.7077 37.8275 29.3362 37.4474 28.8525C37.0673 28.3514 36.7995 27.7554 36.644 27.0643C36.4885 26.356 36.4108 25.5526 36.4108 24.6542V12.9145ZM52.1666 27.8418C53.1341 27.8418 53.8684 27.7899 54.3694 27.6863V24.2136C54.1966 24.1618 53.9461 24.1099 53.6178 24.0581C53.2896 24.0063 52.9268 23.9804 52.5294 23.9804C52.1839 23.9804 51.8297 24.0063 51.4669 24.0581C51.1213 24.1099 50.8017 24.205 50.508 24.3432C50.2316 24.4814 50.007 24.6801 49.8342 24.9392C49.6614 25.1811 49.575 25.4921 49.575 25.8722C49.575 26.6151 49.8083 27.1334 50.2748 27.4271C50.7412 27.7036 51.3718 27.8418 52.1666 27.8418ZM51.9074 16.1539C52.944 16.1539 53.8165 16.2835 54.5249 16.5426C55.2332 16.8018 55.7947 17.1646 56.2094 17.6311C56.6413 18.0976 56.9437 18.6677 57.1164 19.3415C57.3065 19.998 57.4015 20.7237 57.4015 21.5184V29.7336C56.9177 29.8373 56.1835 29.9582 55.1987 30.0964C54.2312 30.2519 53.1341 30.3297 51.9074 30.3297C51.0954 30.3297 50.3525 30.2519 49.6787 30.0964C49.0049 29.9409 48.4261 29.6904 47.9424 29.3449C47.4759 28.9993 47.1044 28.5501 46.828 27.9973C46.5688 27.4444 46.4393 26.762 46.4393 25.9499C46.4393 25.1725 46.5861 24.516 46.8798 23.9804C47.1908 23.4448 47.6055 23.0129 48.1238 22.6846C48.6421 22.3391 49.2381 22.0972 49.9119 21.959C50.603 21.8035 51.32 21.7257 52.0629 21.7257C52.4085 21.7257 52.7713 21.7516 53.1514 21.8035C53.5315 21.838 53.9375 21.9071 54.3694 22.0108V21.4925C54.3694 21.1297 54.3262 20.7841 54.2398 20.4559C54.1534 20.1276 53.9979 19.8425 53.7733 19.6007C53.566 19.3415 53.2809 19.1428 52.9181 19.0046C52.5726 18.8664 52.132 18.7973 51.5964 18.7973C50.8708 18.7973 50.2056 18.8491 49.601 18.9528C48.9963 19.0564 48.5039 19.1774 48.1238 19.3156L47.735 16.7759C48.1324 16.6377 48.7112 16.4994 49.4714 16.3612C50.2316 16.223 51.0436 16.1539 51.9074 16.1539Z" fill="#0B99FF"/>
<path d="M124 9.80717V37.8174C124 39.4937 122.66 40.8628 121.02 40.8628H69.155C67.5021 40.8628 66.1748 39.4937 66.1748 37.8174V9.80717V8.89867C66.1748 7.99016 67.0138 7.32477 67.8778 7.5423L93.0464 13.953C93.71 14.1322 94.3862 14.209 95.0874 14.209C95.7636 14.209 96.4523 14.1194 97.1285 13.953L121.871 7.64467C122.948 7.37596 123.988 8.1949 124 9.33373V9.80717Z" fill="#0B99FF"/>
<path d="M115.323 4.31775C115.323 4.31775 97.2164 9.66644 97.0035 9.71762C96.39 9.87117 95.7388 9.93514 95.0627 9.93514C94.3865 9.93514 93.7354 9.85838 93.1093 9.71762C92.8588 9.65364 74.8526 4.31775 74.8526 4.31775C72.9618 3.79312 73.3125 0.862854 75.2658 0.862854H114.91C116.863 0.87565 117.214 3.80591 115.323 4.31775Z" fill="#D1ECFF"/>
<path d="M69.0916 23.2807C69.0916 22.2786 69.2471 21.3456 69.5581 20.4818C69.8691 19.6007 70.3096 18.8405 70.8798 18.2012C71.4672 17.562 72.1755 17.0609 73.0048 16.6981C73.8341 16.3353 74.7671 16.1539 75.8037 16.1539C77.0822 16.1539 78.2916 16.3871 79.4319 16.8536L78.7581 19.4193C78.3952 19.2638 77.9806 19.1342 77.5141 19.0305C77.0649 18.9269 76.5812 18.875 76.0629 18.875C74.8362 18.875 73.9032 19.2638 73.264 20.0412C72.6247 20.8014 72.3051 21.8812 72.3051 23.2807C72.3051 24.6283 72.6075 25.6994 73.2122 26.4942C73.8168 27.2716 74.8362 27.6604 76.2702 27.6604C76.8058 27.6604 77.3327 27.6085 77.851 27.5049C78.3693 27.4012 78.8185 27.2716 79.1986 27.1161L79.6392 29.7077C79.2936 29.8805 78.7667 30.0359 78.0583 30.1742C77.3673 30.3124 76.6503 30.3815 75.9074 30.3815C74.7498 30.3815 73.7391 30.2087 72.8753 29.8632C72.0287 29.5004 71.3203 29.008 70.7502 28.386C70.1973 27.7467 69.7827 26.9952 69.5062 26.1314C69.2298 25.2502 69.0916 24.3 69.0916 23.2807ZM86.8354 27.8418C87.8029 27.8418 88.5372 27.7899 89.0382 27.6863V24.2136C88.8654 24.1618 88.6149 24.1099 88.2866 24.0581C87.9584 24.0063 87.5956 23.9804 87.1982 23.9804C86.8527 23.9804 86.4985 24.0063 86.1357 24.0581C85.7901 24.1099 85.4705 24.205 85.1768 24.3432C84.9004 24.4814 84.6758 24.6801 84.503 24.9392C84.3302 25.1811 84.2438 25.4921 84.2438 25.8722C84.2438 26.6151 84.4771 27.1334 84.9436 27.4271C85.41 27.7036 86.0406 27.8418 86.8354 27.8418ZM86.5762 16.1539C87.6128 16.1539 88.4853 16.2835 89.1937 16.5426C89.902 16.8018 90.4635 17.1646 90.8782 17.6311C91.3101 18.0976 91.6125 18.6677 91.7852 19.3415C91.9753 19.998 92.0703 20.7237 92.0703 21.5184V29.7336C91.5865 29.8373 90.8523 29.9582 89.8675 30.0964C88.9 30.2519 87.8029 30.3297 86.5762 30.3297C85.7642 30.3297 85.0213 30.2519 84.3475 30.0964C83.6737 29.9409 83.0949 29.6904 82.6112 29.3449C82.1447 28.9993 81.7732 28.5501 81.4968 27.9973C81.2376 27.4444 81.1081 26.762 81.1081 25.9499C81.1081 25.1725 81.2549 24.516 81.5486 23.9804C81.8596 23.4448 82.2743 23.0129 82.7926 22.6846C83.3109 22.3391 83.9069 22.0972 84.5807 21.959C85.2718 21.8035 85.9888 21.7257 86.7317 21.7257C87.0773 21.7257 87.4401 21.7516 87.8202 21.8035C88.2003 21.838 88.6063 21.9071 89.0382 22.0108V21.4925C89.0382 21.1297 88.995 20.7841 88.9086 20.4559C88.8222 20.1276 88.6667 19.8425 88.4421 19.6007C88.2348 19.3415 87.9497 19.1428 87.5869 19.0046C87.2414 18.8664 86.8008 18.7973 86.2652 18.7973C85.5396 18.7973 84.8744 18.8491 84.2697 18.9528C83.6651 19.0564 83.1727 19.1774 82.7926 19.3156L82.4038 16.7759C82.8012 16.6377 83.38 16.4994 84.1402 16.3612C84.9004 16.223 85.7124 16.1539 86.5762 16.1539ZM103.633 19.3156C103.374 19.2292 103.011 19.1428 102.545 19.0564C102.096 18.9528 101.569 18.9009 100.964 18.9009C100.618 18.9009 100.247 18.9355 99.8496 19.0046C99.4695 19.0737 99.2017 19.1342 99.0462 19.186V30.0446H95.9104V17.1387C96.5151 16.9141 97.2667 16.7068 98.1651 16.5167C99.0808 16.3094 100.091 16.2057 101.197 16.2057C101.405 16.2057 101.646 16.223 101.923 16.2576C102.199 16.2748 102.476 16.3094 102.752 16.3612C103.029 16.3958 103.296 16.4476 103.555 16.5167C103.815 16.5686 104.022 16.6204 104.177 16.6722L103.633 19.3156ZM108.825 23.2288C108.825 24.611 109.153 25.6994 109.809 26.4942C110.466 27.2716 111.373 27.6604 112.531 27.6604C113.032 27.6604 113.455 27.6431 113.8 27.6085C114.163 27.5567 114.457 27.5049 114.682 27.453V19.6784C114.405 19.4884 114.034 19.3156 113.567 19.1601C113.118 18.9873 112.634 18.9009 112.116 18.9009C110.976 18.9009 110.138 19.2897 109.602 20.0671C109.084 20.8446 108.825 21.8985 108.825 23.2288ZM117.817 29.6299C117.195 29.82 116.409 29.9928 115.459 30.1482C114.526 30.3037 113.541 30.3815 112.505 30.3815C111.433 30.3815 110.475 30.2174 109.628 29.8891C108.781 29.5608 108.056 29.0944 107.451 28.4897C106.864 27.8677 106.406 27.1248 106.078 26.2609C105.767 25.3798 105.611 24.395 105.611 23.3066C105.611 22.2354 105.741 21.2679 106 20.404C106.276 19.5229 106.674 18.7714 107.192 18.1494C107.71 17.5274 108.341 17.0523 109.084 16.724C109.827 16.3785 110.682 16.2057 111.649 16.2057C112.306 16.2057 112.885 16.2835 113.386 16.439C113.887 16.5945 114.319 16.7672 114.682 16.9573V10.4525L117.817 9.9342V29.6299Z" fill="white"/>
</svg>
