<svg width="116" height="49" viewBox="0 0 116 49" fill="none" xmlns="http://www.w3.org/2000/svg">
<path d="M8.51794 19.6719C8.51794 18.4222 9.54331 17.9416 11.2416 17.9416C13.6768 17.9416 16.7529 18.6785 19.1882 19.9923V12.4623C16.5286 11.4048 13.9011 10.9883 11.2416 10.9883C4.7369 10.9883 0.411133 14.3848 0.411133 20.0564C0.411133 28.9002 12.5874 27.4903 12.5874 31.3034C12.5874 32.7773 11.3057 33.258 9.51127 33.258C6.85172 33.258 3.45519 32.1685 0.763603 30.6946V38.3207C3.74358 39.6024 6.75559 40.1472 9.51127 40.1472C16.1762 40.1472 20.7583 36.8468 20.7583 31.1111C20.7262 21.5624 8.51794 23.2607 8.51794 19.6719ZM30.1788 4.57975L22.3604 6.24597L22.3284 31.9122C22.3284 36.6545 25.8851 40.1472 30.6274 40.1472C33.2549 40.1472 35.1775 39.6665 36.2349 39.0898V32.5851C35.2095 33.0016 30.1468 34.4756 30.1468 29.7333V18.3581H36.2349V11.533H30.1468L30.1788 4.57975ZM46.2002 13.9042L45.6875 11.533H38.7663V39.5704H46.777V20.5691C48.6675 18.1018 51.8717 18.5504 52.8651 18.9028V11.533C51.8397 11.1485 48.0907 10.4436 46.2002 13.9042ZM54.8197 11.533H62.8624V39.5704H54.8197V11.533ZM54.8197 9.09777L62.8624 7.36747V0.862793L54.8197 2.56106V9.09777ZM79.5887 10.9883C76.4485 10.9883 74.4298 12.4623 73.3083 13.4876L72.8918 11.501H65.8424V48.8628L73.8531 47.1645L73.8851 38.0964C75.0386 38.9296 76.7369 40.1151 79.5567 40.1151C85.2923 40.1151 90.5153 35.501 90.5153 25.3434C90.4832 16.051 85.1962 10.9883 79.5887 10.9883ZM77.6661 33.0657C75.7756 33.0657 74.6541 32.3928 73.8851 31.5597L73.8531 19.6719C74.6862 18.7426 75.8397 18.1018 77.6661 18.1018C80.582 18.1018 82.6007 21.3701 82.6007 25.5677C82.6007 29.8615 80.6141 33.0657 77.6661 33.0657ZM115.765 25.6639C115.765 17.4609 111.792 10.9883 104.198 10.9883C96.5714 10.9883 91.9572 17.4609 91.9572 25.5998C91.9572 35.2446 97.4045 40.1151 105.223 40.1151C109.036 40.1151 111.92 39.25 114.099 38.0324V31.6238C111.92 32.7133 109.42 33.3862 106.248 33.3862C103.14 33.3862 100.384 32.2967 100.032 28.5157H115.701C115.701 28.0991 115.765 26.4329 115.765 25.6639ZM99.9358 22.6198C99.9358 18.999 102.147 17.493 104.165 17.493C106.12 17.493 108.203 18.999 108.203 22.6198H99.9358Z" fill="#6772E5"/>
</svg>
