<svg width="48" height="48" viewBox="0 0 48 48" fill="none" xmlns="http://www.w3.org/2000/svg">
<path d="M20.2211 2.04395C21.5261 2.05876 21.7288 2.26944 21.9784 3.36068C22.4005 5.25349 22.8712 7.13643 23.3319 9.02101C23.5396 9.87195 23.4994 10.6867 22.7975 11.294C22.4696 11.5951 22.0666 11.8058 21.6292 11.905C21.1918 12.0041 20.7356 11.9881 20.3066 11.8586C19.4958 11.6331 19.0468 11.0685 18.8827 10.2966C18.6364 9.14445 18.4555 7.9923 18.2126 6.84016C18.0954 6.1966 17.9278 5.55963 17.7268 4.93747C17.2729 3.46931 17.7787 2.5476 19.2914 2.17891C19.5984 2.11629 19.9088 2.07123 20.2211 2.04395Z" fill="#02304C"/>
<path d="M28.0512 2.105C26.4832 2.63827 25.8467 3.66204 26.3526 5.1697C26.634 6.00747 27.2237 6.80245 27.8468 7.45918C28.6844 8.3381 28.609 9.54456 27.5252 10.1223C25.9036 10.9847 24.4948 10.3873 24.0492 8.61955C23.612 6.89627 23.1832 5.16312 22.7996 3.43325C22.5952 2.51318 22.4511 1.52399 23.3708 0.870554C24.4161 0.131536 25.6189 -0.116998 26.8585 0.302712C27.6575 0.570997 27.8502 1.33306 28.0512 2.105Z" fill="#02304C"/>
<path d="M18.0671 10.7823C18.0453 12.1797 16.4204 12.9566 15.2478 12.2488C14.9747 12.0842 14.6581 11.8374 14.5626 11.5608C13.9076 9.68119 13.2225 7.80484 12.7199 5.8857C12.467 4.9574 13.5341 4.06531 14.8775 3.82665C15.8609 3.65054 16.7035 4.11304 16.9648 5.14339C17.335 6.59838 17.588 8.08301 17.8794 9.55611C17.9682 10.012 18.0218 10.4745 18.0671 10.7823Z" fill="#02304C"/>
<path d="M34.5376 2.77492C32.596 2.61032 28.708 2.21201 28.708 2.21201C28.9174 1.66557 29.2859 0.694472 29.7131 0.391623C30.936 -0.488945 33.499 0.210571 34.1841 1.54377C34.3449 1.86637 34.3885 2.24822 34.5376 2.77492Z" fill="#02304C"/>
<path d="M38.7667 15.0039C36.8101 17.0646 34.8435 19.1187 32.9941 21.2749C31.5267 22.9817 29.8482 23.6401 27.6738 22.8829C26.5515 22.4929 25.4375 22.0797 24.4022 21.7078C24.7959 22.8599 26.6084 23.6071 30.8265 24.2309C30.8151 24.6683 30.7004 25.0972 30.4914 25.4835C30.4763 25.5108 30.4595 25.5372 30.4412 25.5625C30.0609 26.1452 29.3875 26.4085 28.4059 26.3657C27.6705 26.3344 26.9317 26.2834 26.0171 26.2324H26.007C26.2533 28.2075 26.8195 32.9675 27.0373 34.8011C27.039 34.8087 27.0433 34.8156 27.0496 34.8205C27.0558 34.8254 27.0636 34.8281 27.0716 34.8281C27.0796 34.8281 27.0874 34.8254 27.0936 34.8205C27.0998 34.8156 27.1042 34.8087 27.1059 34.8011C27.0959 32.7914 27.3137 29.646 27.2734 28.01C27.2734 27.8141 27.6219 27.4602 27.8346 27.4389C28.5734 27.3681 29.3238 27.4125 30.2184 27.4125L31.4094 34.4505L31.6741 36.1738L30.8164 36.3169L29.1144 36.4964L16.5256 37.8213C16.3263 34.6266 16.132 31.9421 16.0063 31.1438C16.0063 31.1257 16.0063 31.1093 16.0063 31.0928C15.8556 30.0592 15.6562 29.0321 15.4485 28.0083C15.3915 27.7252 15.3329 27.4438 15.281 27.1607C15.1755 26.6455 15.0699 26.1287 14.9677 25.6119C14.9376 25.4572 14.9158 25.2992 14.9007 25.2169L19.2561 24.7626C19.2561 24.677 19.2444 24.598 19.2377 24.5058C18.6832 24.5058 18.1288 24.4943 17.5743 24.5058C15.8455 24.5486 14.5908 23.7931 14.0749 22.2196C13.4616 20.3209 12.9665 18.3872 12.5924 16.4293C12.1987 14.3406 11.9977 12.2174 11.7012 10.0563C12.5857 9.9641 12.9827 10.4283 13.1418 10.899C13.8621 13.0387 15.4234 13.5423 17.4838 13.2642C17.9998 13.195 18.5341 13.2543 19.1774 13.2543C18.5442 14.943 18.1723 16.5461 18.6397 18.2299C18.7134 17.6111 18.7268 16.979 18.8776 16.3783C19.0486 15.6624 19.2916 14.9649 19.6029 14.2962C19.9748 13.5209 20.6666 13.2461 21.6466 13.386C21.2194 14.9825 21.2563 16.4968 22.0537 17.9814C22.0537 17.1584 22.0302 16.4046 22.0537 15.6508C22.1156 14.0048 22.8125 12.7457 24.4592 12.1499C26.0757 11.5656 27.6939 10.9977 29.3171 10.4529C29.7466 10.335 30.1913 10.2796 30.6372 10.2883C31.1397 10.2752 31.7176 10.1847 32.1147 10.3953C32.4396 10.5698 32.5401 11.1409 32.7562 11.5277C32.9105 11.8292 33.1413 12.0866 33.4263 12.275C33.2588 11.8075 33.0628 11.3483 32.9472 10.8677C32.711 9.89004 32.9673 9.55098 33.9523 9.25307C34.4897 9.08026 34.9937 8.81986 35.4432 8.48277C33.0125 9.45222 30.9722 8.34287 28.9503 7.3619C27.6437 6.73151 27.0205 5.59583 27.0909 4.13425C27.1244 3.44461 27.4259 3.0644 28.1931 3.13353C30.7176 3.36067 33.2454 3.55159 35.7665 3.80507C36.8386 3.9137 37.5522 4.55231 37.8437 5.57443C38.4434 7.68121 39.0252 9.79293 39.5892 11.9096C39.9058 13.0831 39.6328 14.0937 38.7667 15.0039Z" fill="#02304C"/>
<path d="M47.9969 33.5372C48.0111 33.6633 47.9997 33.791 47.9635 33.9129C47.9272 34.0347 47.8668 34.1484 47.7857 34.2472C47.7045 34.346 47.6043 34.4281 47.4908 34.4887C47.3773 34.5493 47.2527 34.5873 47.1242 34.6004L30.8265 36.3138L29.1246 36.4932L16.5358 37.8182L13.9007 38.0947L2.04564 39.3374C1.91737 39.3511 1.78762 39.3398 1.66379 39.3042C1.53996 39.2686 1.42449 39.2093 1.32399 39.1299C1.22348 39.0504 1.13991 38.9522 1.07805 38.8409C1.01619 38.7297 0.977264 38.6075 0.963489 38.4815L0.00362263 29.7334C-0.0240884 29.4786 0.0522417 29.2233 0.215863 29.0236C0.379485 28.824 0.617033 28.6963 0.87638 28.6685L13.43 27.3518L15.2727 27.1592L24.0958 26.2309H24.1058L28.6187 25.7585L30.448 25.566L45.9633 23.9332C46.2225 23.906 46.4821 23.981 46.685 24.1418C46.888 24.3026 47.0176 24.536 47.0454 24.7907L47.9969 33.5372Z" fill="#0B99FF"/>
<path d="M11.6775 28.3178L12.4544 28.2407L13.2684 36.1556L12.4915 36.2328L11.6775 28.3178ZM14.6937 30.2567C14.9083 30.1739 15.1983 30.0758 15.5637 29.9626C15.9291 29.8494 16.3822 29.766 16.923 29.7123C17.3724 29.6677 17.7523 29.6954 18.0627 29.7953C18.3807 29.8945 18.6398 30.0572 18.84 30.2835C19.0471 30.5014 19.206 30.7741 19.3166 31.1015C19.4272 31.429 19.5033 31.7945 19.5448 32.198L19.8843 35.4988L19.1416 35.5725L18.8268 32.5116C18.7837 32.0928 18.7169 31.7418 18.6262 31.4585C18.5431 31.1745 18.4236 30.9479 18.2677 30.7788C18.1194 30.6089 17.9309 30.4968 17.7022 30.4426C17.4803 30.38 17.2056 30.365 16.8781 30.3975C16.5277 30.4323 16.225 30.4816 15.9699 30.5454C15.7225 30.6084 15.5622 30.6589 15.4892 30.6969L16.0225 35.8822L15.2798 35.9559L14.6937 30.2567ZM22.9418 34.6645C23.3683 34.6221 23.7116 34.5188 23.9717 34.3545C24.2387 34.1819 24.3549 33.9281 24.3205 33.593C24.304 33.4331 24.2633 33.2987 24.1982 33.1898C24.1408 33.0801 24.0502 32.9853 23.9266 32.9053C23.8029 32.8252 23.6416 32.7528 23.4425 32.6879C23.2511 32.6223 23.0124 32.546 22.7265 32.459C22.4962 32.3896 22.2773 32.319 22.0699 32.2473C21.8617 32.168 21.6751 32.075 21.5103 31.9683C21.3446 31.854 21.2071 31.7138 21.0977 31.5477C20.9883 31.3817 20.9206 31.173 20.8948 30.9218C20.8455 30.4421 20.9845 30.036 21.312 29.7035C21.647 29.3702 22.1307 29.1722 22.7629 29.1094C23.1666 29.0694 23.5014 29.0707 23.7675 29.1135C24.0411 29.1556 24.234 29.198 24.3461 29.2407L24.2429 29.9201C24.1468 29.8835 23.9843 29.8381 23.7556 29.7839C23.5345 29.7289 23.2145 29.7223 22.7956 29.7639C22.628 29.7805 22.47 29.8154 22.3216 29.8686C22.18 29.9134 22.056 29.9796 21.9496 30.0671C21.8424 30.1469 21.7603 30.2474 21.7035 30.3684C21.6459 30.4818 21.6254 30.6185 21.6418 30.7784C21.6583 30.9383 21.7028 31.0723 21.7755 31.1804C21.8482 31.2886 21.9464 31.3827 22.07 31.4627C22.2005 31.5344 22.3534 31.6 22.5288 31.6595C22.7119 31.7182 22.9185 31.7823 23.1488 31.8518C23.3867 31.9204 23.6136 31.9941 23.8294 32.0726C24.0521 32.1428 24.2504 32.2385 24.4245 32.3597C24.5978 32.4732 24.7437 32.6203 24.8623 32.8008C24.9801 32.9737 25.0535 33.201 25.0825 33.4828C25.1373 34.0158 24.9769 34.4394 24.6014 34.7535C24.2335 35.067 23.703 35.2581 23.0099 35.3269C22.4919 35.3783 22.0912 35.372 21.8076 35.3078C21.5247 35.2513 21.3353 35.2047 21.2392 35.1681L21.3641 34.475C21.3885 34.4879 21.4408 34.5097 21.5208 34.5402C21.6001 34.5631 21.7069 34.5909 21.8411 34.6238C21.9745 34.649 22.1303 34.6681 22.3087 34.6812C22.4946 34.6935 22.7056 34.6879 22.9418 34.6645ZM26.7614 28.8509L29.115 28.6172L29.1796 29.2454L26.826 29.4791L27.149 32.6199C27.1835 32.955 27.2383 33.2264 27.3136 33.4343C27.3956 33.6339 27.4959 33.7854 27.6143 33.8891C27.7326 33.9927 27.87 34.056 28.0262 34.0789C28.1825 34.1019 28.352 34.1043 28.5348 34.0861C28.8471 34.0551 29.0949 33.9959 29.2783 33.9085C29.4609 33.8134 29.6024 33.7301 29.7028 33.6586L29.949 34.2572C29.8494 34.3363 29.671 34.4348 29.4138 34.5527C29.1558 34.6629 28.8707 34.7335 28.5584 34.7645C28.1928 34.8008 27.8796 34.7858 27.6189 34.7193C27.3649 34.6446 27.152 34.5195 26.9801 34.3443C26.815 34.1607 26.6871 33.9273 26.5964 33.644C26.5057 33.3607 26.44 33.0211 26.3993 32.6251L25.8402 27.1886L26.5688 26.9778L26.7614 28.8509ZM32.8973 33.6645C33.1867 33.6358 33.4373 33.6032 33.649 33.5668C33.8675 33.522 34.0514 33.4769 34.2006 33.4313L33.9868 31.3526C33.8991 31.3229 33.7619 31.298 33.5752 31.2781C33.3877 31.2506 33.134 31.2527 32.8141 31.2844C32.6313 31.3026 32.4424 31.3367 32.2475 31.3868C32.0518 31.4294 31.8749 31.5046 31.7167 31.6126C31.5577 31.713 31.4328 31.8446 31.3418 32.0075C31.2508 32.1704 31.2183 32.3775 31.2441 32.6287C31.2668 32.8495 31.3203 33.0327 31.4045 33.1782C31.4963 33.3229 31.6117 33.4345 31.7506 33.513C31.8971 33.5908 32.0641 33.6434 32.2516 33.6709C32.4459 33.6901 32.6611 33.688 32.8973 33.6645ZM32.2625 28.1663C32.651 28.1277 32.9844 28.1523 33.2627 28.24C33.5479 28.3194 33.7845 28.4498 33.9724 28.6311C34.1596 28.8048 34.3049 29.0211 34.4085 29.2801C34.5121 29.539 34.5799 29.8246 34.612 30.1368L34.9949 33.8601C34.9211 33.8905 34.8134 33.9281 34.6718 33.9729C34.5294 34.0102 34.3646 34.0534 34.1773 34.1028C33.99 34.1522 33.7791 34.1962 33.5446 34.2349C33.3184 34.2804 33.0834 34.3152 32.8397 34.3394C32.5274 34.3705 32.2344 34.3649 31.9608 34.3229C31.6948 34.28 31.4553 34.1961 31.2424 34.0711C31.0363 33.9378 30.8644 33.7625 30.7266 33.5454C30.5957 33.32 30.5131 33.0397 30.4786 32.7047C30.4457 32.3849 30.4785 32.1048 30.5768 31.8642C30.6752 31.6237 30.8274 31.4202 31.0334 31.2535C31.2386 31.0793 31.4901 30.9428 31.7877 30.8441C32.0853 30.7453 32.4131 30.6781 32.7711 30.6426C32.8778 30.632 32.989 30.6286 33.1048 30.6325C33.2275 30.628 33.3433 30.6319 33.4523 30.6442C33.5681 30.6481 33.6653 30.6576 33.7438 30.6729C33.8291 30.6798 33.8878 30.6894 33.9199 30.7016L33.8823 30.3361C33.8611 30.1305 33.8255 29.9341 33.7755 29.7467C33.7247 29.5518 33.6381 29.3835 33.5158 29.2418C33.4004 29.0917 33.2427 28.9805 33.0429 28.908C32.8499 28.8272 32.6011 28.8019 32.2964 28.8321C31.8622 28.8752 31.5416 28.9378 31.3346 29.0199C31.1276 29.102 30.9766 29.167 30.8815 29.2149L30.7117 28.5741C30.8349 28.5003 31.0271 28.4235 31.2882 28.3438C31.5569 28.2633 31.8817 28.2041 32.2625 28.1663Z" fill="white"/>
<path d="M14.4637 46.0618C13.4243 46.0618 12.631 45.7727 12.0836 45.1946C11.5424 44.6165 11.2718 43.7955 11.2718 42.7315C11.2718 42.2026 11.3548 41.7321 11.5209 41.3201C11.6869 40.9019 11.9145 40.5513 12.2035 40.2684C12.4926 39.9794 12.837 39.761 13.2367 39.6134C13.6365 39.4658 14.0701 39.392 14.5375 39.392C14.8081 39.392 15.0541 39.4135 15.2755 39.4566C15.4969 39.4935 15.6906 39.5396 15.8567 39.595C16.0227 39.6442 16.1611 39.6964 16.2718 39.7518C16.3825 39.8072 16.4625 39.8502 16.5117 39.881L16.0965 41.0433C15.8997 40.9388 15.6691 40.8496 15.4046 40.7758C15.1463 40.702 14.8511 40.6651 14.519 40.6651C14.2976 40.6651 14.0793 40.702 13.8641 40.7758C13.655 40.8496 13.4674 40.9695 13.3013 41.1356C13.1414 41.2955 13.0123 41.5046 12.9139 41.7629C12.8155 42.0212 12.7663 42.3348 12.7663 42.7038C12.7663 42.999 12.797 43.2758 12.8585 43.5341C12.9262 43.7862 13.0307 44.0046 13.1722 44.1891C13.3198 44.3736 13.5104 44.5212 13.7441 44.6319C13.9778 44.7364 14.2607 44.7887 14.5928 44.7887C14.8019 44.7887 14.9895 44.7764 15.1556 44.7518C15.3216 44.7272 15.4692 44.6995 15.5984 44.6688C15.7275 44.6319 15.8413 44.5919 15.9397 44.5489C16.0381 44.5058 16.1273 44.4658 16.2072 44.4289L16.6039 45.5821C16.401 45.7051 16.115 45.8158 15.746 45.9142C15.377 46.0126 14.9495 46.0618 14.4637 46.0618ZM19.3825 44.9732C19.5178 44.9732 19.647 44.9701 19.77 44.964C19.893 44.9578 19.9914 44.9486 20.0652 44.9363V43.8939C20.0098 43.8816 19.9268 43.8693 19.8161 43.857C19.7054 43.8447 19.6039 43.8385 19.5117 43.8385C19.3825 43.8385 19.2595 43.8477 19.1427 43.8662C19.032 43.8785 18.9336 43.9062 18.8475 43.9492C18.7614 43.9923 18.6937 44.0507 18.6445 44.1245C18.5953 44.1983 18.5707 44.2905 18.5707 44.4013C18.5707 44.6165 18.6415 44.7672 18.7829 44.8533C18.9305 44.9332 19.1304 44.9732 19.3825 44.9732ZM19.2718 40.9511C19.6777 40.9511 20.016 40.9972 20.2866 41.0894C20.5572 41.1817 20.7725 41.3139 20.9324 41.4861C21.0984 41.6583 21.2153 41.8674 21.2829 42.1134C21.3506 42.3594 21.3844 42.6331 21.3844 42.9345V45.7942C21.1876 45.8373 20.9139 45.8865 20.5634 45.9418C20.2128 46.0033 19.7884 46.0341 19.2903 46.0341C18.9766 46.0341 18.6907 46.0064 18.4324 45.9511C18.1802 45.8957 17.9619 45.8065 17.7774 45.6835C17.5929 45.5544 17.4514 45.3883 17.353 45.1854C17.2546 44.9824 17.2054 44.7334 17.2054 44.4382C17.2054 44.1552 17.2608 43.9154 17.3715 43.7186C17.4883 43.5218 17.6421 43.365 17.8327 43.2481C18.0234 43.1313 18.2417 43.0482 18.4877 42.999C18.7337 42.9437 18.9889 42.916 19.2534 42.916C19.4317 42.916 19.5886 42.9252 19.7239 42.9437C19.8653 42.956 19.9791 42.9744 20.0652 42.999V42.8699C20.0652 42.6362 19.9945 42.4486 19.853 42.3072C19.7116 42.1657 19.4656 42.095 19.115 42.095C18.8813 42.095 18.6507 42.1134 18.4231 42.1503C18.1956 42.1811 17.9988 42.2272 17.8327 42.2887L17.6574 41.1817C17.7374 41.1571 17.8358 41.1325 17.9526 41.1079C18.0756 41.0771 18.2079 41.0525 18.3493 41.0341C18.4908 41.0095 18.6384 40.991 18.7921 40.9787C18.952 40.9603 19.1119 40.9511 19.2718 40.9511ZM26.7694 45.7666C26.5357 45.8342 26.2343 45.8957 25.8653 45.9511C25.4963 46.0126 25.1089 46.0433 24.703 46.0433C24.2909 46.0433 23.9465 45.988 23.6698 45.8773C23.3992 45.7666 23.1839 45.6128 23.024 45.416C22.8641 45.2131 22.7503 44.9732 22.6827 44.6965C22.615 44.4197 22.5812 44.1153 22.5812 43.7832V41.0802H23.9557V43.6171C23.9557 44.0599 24.0142 44.3797 24.131 44.5765C24.2479 44.7733 24.4662 44.8717 24.786 44.8717C24.8844 44.8717 24.9889 44.8687 25.0996 44.8625C25.2104 44.8502 25.3088 44.8379 25.3949 44.8256V41.0802H26.7694V45.7666ZM29.4527 44.9455C29.7048 44.9455 29.8832 44.9209 29.9877 44.8717C30.0923 44.8225 30.1446 44.7272 30.1446 44.5858C30.1446 44.4751 30.0769 44.3797 29.9416 44.2998C29.8063 44.2137 29.6003 44.1183 29.3235 44.0138C29.1083 43.9338 28.9115 43.8508 28.7331 43.7647C28.5609 43.6786 28.4133 43.5771 28.2903 43.4603C28.1673 43.3373 28.072 43.1928 28.0043 43.0267C27.9367 42.8607 27.9029 42.6608 27.9029 42.4271C27.9029 41.972 28.072 41.6122 28.4102 41.3477C28.7485 41.0833 29.2128 40.9511 29.8032 40.9511C30.0984 40.9511 30.3813 40.9787 30.6519 41.0341C30.9225 41.0833 31.1378 41.1386 31.2977 41.2001L31.0578 42.2703C30.8979 42.2149 30.7227 42.1657 30.532 42.1227C30.3475 42.0796 30.1384 42.0581 29.9047 42.0581C29.4742 42.0581 29.2589 42.178 29.2589 42.4179C29.2589 42.4732 29.2682 42.5224 29.2866 42.5655C29.3051 42.6085 29.342 42.6516 29.3973 42.6946C29.4527 42.7315 29.5265 42.7746 29.6187 42.8238C29.7171 42.8668 29.8401 42.916 29.9877 42.9714C30.2891 43.0821 30.5382 43.1928 30.735 43.3035C30.9318 43.408 31.0855 43.5249 31.1962 43.654C31.3131 43.777 31.393 43.9154 31.4361 44.0691C31.4853 44.2229 31.5099 44.4013 31.5099 44.6042C31.5099 45.0839 31.3284 45.4468 30.9656 45.6928C30.6089 45.9388 30.1015 46.0618 29.4434 46.0618C29.0129 46.0618 28.6532 46.0249 28.3641 45.9511C28.0812 45.8773 27.8844 45.8158 27.7737 45.7666L28.0043 44.6503C28.238 44.7426 28.4779 44.8164 28.7239 44.8717C28.9699 44.9209 29.2128 44.9455 29.4527 44.9455ZM32.3065 43.5433C32.3065 43.1128 32.371 42.7377 32.5002 42.4179C32.6355 42.0919 32.8108 41.8213 33.026 41.606C33.2413 41.3908 33.4873 41.2278 33.764 41.1171C34.0469 41.0064 34.336 40.9511 34.6312 40.9511C35.32 40.9511 35.8643 41.1632 36.264 41.5876C36.6638 42.0058 36.8637 42.6239 36.8637 43.4418C36.8637 43.5218 36.8606 43.611 36.8544 43.7094C36.8483 43.8016 36.8421 43.8846 36.836 43.9584H33.7179C33.7487 44.2413 33.8809 44.4658 34.1146 44.6319C34.3483 44.7979 34.6619 44.881 35.0555 44.881C35.3077 44.881 35.5537 44.8594 35.7936 44.8164C36.0396 44.7672 36.2394 44.7088 36.3932 44.6411L36.5777 45.7573C36.5039 45.7942 36.4055 45.8311 36.2825 45.868C36.1595 45.9049 36.0211 45.9357 35.8674 45.9603C35.7198 45.991 35.5599 46.0156 35.3877 46.0341C35.2155 46.0525 35.0432 46.0618 34.871 46.0618C34.4344 46.0618 34.0531 45.9972 33.7271 45.868C33.4073 45.7389 33.1398 45.5636 32.9246 45.3422C32.7154 45.1147 32.5586 44.8471 32.4541 44.5396C32.3557 44.2321 32.3065 43.9 32.3065 43.5433ZM35.5353 43.0175C35.5291 42.9006 35.5076 42.7869 35.4707 42.6762C35.4399 42.5655 35.3877 42.4671 35.3139 42.381C35.2462 42.2949 35.157 42.2241 35.0463 42.1688C34.9418 42.1134 34.8095 42.0858 34.6496 42.0858C34.4959 42.0858 34.3637 42.1134 34.253 42.1688C34.1423 42.218 34.05 42.2856 33.9762 42.3717C33.9024 42.4578 33.844 42.5593 33.8009 42.6762C33.764 42.7869 33.7364 42.9006 33.7179 43.0175H35.5353Z" fill="#02304C"/>
</svg>
