<svg width="139" height="49" viewBox="0 0 139 49" fill="none" xmlns="http://www.w3.org/2000/svg">
<path d="M8.52847 35.1438C9.11165 36.6944 9.91903 38.0202 10.9508 39.1213C11.9825 40.2225 13.2049 41.0651 14.6178 41.6494C16.0308 42.2337 17.5671 42.5258 19.2269 42.5258C20.8418 42.5258 22.3556 42.2224 23.7687 41.6156C25.1817 41.0088 26.4152 40.1549 27.4693 39.0539C28.5234 37.9527 29.3421 36.6382 29.9253 35.1101C30.5084 33.5819 30.8 31.8742 30.8 29.9865V0.862793H37.8649V48.0538H30.8673V43.6718C29.2973 45.3346 27.4468 46.6155 25.3162 47.5146C23.1854 48.4133 20.8866 48.8628 18.4195 48.8628C15.9074 48.8628 13.5637 48.4245 11.3881 47.5481C9.21259 46.6718 7.32848 45.4247 5.73618 43.8066C4.14388 42.1886 2.88776 40.245 1.96826 37.9752C1.04862 35.7056 0.588867 33.1775 0.588867 30.3909V0.862793H7.65379V29.9865C7.65379 31.8742 7.9453 33.5931 8.52847 35.1438Z" fill="#010202"/>
<path d="M50.0429 0.862793V18.0538C51.6128 16.4808 53.4297 15.2337 55.493 14.3123C57.5564 13.3908 59.7993 12.9302 62.2215 12.9302C64.7336 12.9302 67.0883 13.402 69.2864 14.3458C71.4843 15.2896 73.3906 16.5706 75.0056 18.1886C76.6205 19.8067 77.8989 21.7167 78.8409 23.9189C79.7829 26.1213 80.2538 28.4583 80.2538 30.9303C80.2538 33.402 79.7829 35.7279 78.8409 37.9076C77.8989 40.0875 76.6205 41.9864 75.0056 43.6042C73.3906 45.2223 71.4843 46.5032 69.2864 47.447C67.0883 48.3908 64.7334 48.8626 62.2215 48.8626C59.7991 48.8626 57.5452 48.402 55.4594 47.4806C53.3735 46.5593 51.5456 45.3121 49.9756 43.739V48.0537H43.2471V0.862793H50.0429ZM50.8166 35.5819C51.4221 37.0202 52.2633 38.2786 53.3399 39.3573C54.4165 40.4359 55.6724 41.2899 57.1078 41.9191C58.5433 42.5484 60.0908 42.863 61.7506 42.863C63.3655 42.863 64.8905 42.5484 66.3259 41.9191C67.7612 41.2899 69.0059 40.4361 70.0603 39.3573C71.1144 38.2788 71.9554 37.0202 72.5834 35.5819C73.2114 34.1437 73.5254 32.5932 73.5254 30.9303C73.5254 29.2673 73.2114 27.7055 72.5834 26.2448C71.9554 24.7841 71.1144 23.5145 70.0603 22.4358C69.0061 21.3573 67.7614 20.5145 66.3259 19.9078C64.8903 19.3011 63.3653 18.9976 61.7506 18.9976C60.1358 18.9976 58.6106 19.301 57.1752 19.9078C55.7399 20.5147 54.4839 21.3573 53.4072 22.4358C52.3308 23.5145 51.4784 24.7841 50.8504 26.2448C50.2224 27.7055 49.9084 29.2673 49.9084 30.9303C49.9083 32.5932 50.2111 34.1437 50.8166 35.5819Z" fill="#010202"/>
<path d="M84.0882 23.9864C84.9852 21.8291 86.219 19.9302 87.7888 18.2898C89.3587 16.6494 91.2204 15.3572 93.3736 14.4134C95.5267 13.4696 97.8593 12.9978 100.371 12.9978C102.838 12.9978 105.126 13.4472 107.234 14.346C109.343 15.2449 111.159 16.4921 112.684 18.0877C114.21 19.6831 115.398 21.5708 116.25 23.7505C117.103 25.9304 117.529 28.3012 117.529 30.863V33.0878H89.6057C89.83 34.481 90.2786 35.7732 90.9514 36.964C91.6244 38.155 92.4652 39.1887 93.4745 40.0651C94.4838 40.9417 95.6276 41.6271 96.9061 42.1213C98.1846 42.6157 99.5413 42.863 100.977 42.863C105.059 42.863 108.356 41.1775 110.868 37.8067L115.78 41.4471C114.075 43.7392 111.967 45.537 109.455 46.8403C106.943 48.1437 104.117 48.7954 100.977 48.7954C98.4201 48.7954 96.0316 48.3458 93.8111 47.447C91.5907 46.5483 89.6619 45.2897 88.0247 43.6716C86.3874 42.0536 85.0978 40.1548 84.1558 37.9751C83.2138 35.7954 82.7428 33.4245 82.7428 30.8627C82.7425 28.4359 83.1912 26.1437 84.0882 23.9864ZM93.5418 21.3234C91.6354 22.9189 90.3682 25.0425 89.7402 27.6942H110.666C110.083 25.0425 108.838 22.9189 106.932 21.3234C105.025 19.728 102.794 18.9302 100.237 18.9302C97.6799 18.9302 95.4482 19.728 93.5418 21.3234Z" fill="#010202"/>
<path d="M130.246 22.0987C128.81 23.6717 128.092 25.8065 128.092 28.5033V48.054H121.297V13.6719H128.025V17.9191C128.877 16.5258 129.988 15.4246 131.356 14.6157C132.724 13.8066 134.35 13.402 136.234 13.402H138.589V19.7391H135.763C133.52 19.7393 131.681 20.5257 130.246 22.0987Z" fill="#010202"/>
</svg>
