<svg width="132" height="44" viewBox="0 0 132 44" fill="none" xmlns="http://www.w3.org/2000/svg">
<g clip-path="url(#clip0_5_11030)">
<path d="M33.9668 2.35705C32.8809 1.96641 31.7331 1.77038 30.5773 1.7782C26.8399 1.7782 24.2003 3.63696 24.1816 6.3052C24.1582 8.26541 26.0573 9.3701 27.4939 10.0251C28.9679 10.6984 29.4608 11.1228 29.4561 11.7247C29.4467 12.6402 28.2788 13.0553 27.1926 13.0553C25.6999 13.0553 24.8847 12.8501 23.6303 12.3358L23.1655 12.1213L22.6352 15.1931C23.5439 15.5667 25.1813 15.8873 26.8726 15.915C30.846 15.915 33.4435 14.0678 33.4739 11.2289C33.5066 9.66297 32.4788 8.47988 30.3157 7.50207C29.0006 6.86791 28.1854 6.44356 28.1854 5.80015C28.1854 5.23052 28.8838 4.6217 30.3438 4.6217C31.3154 4.59849 32.2811 4.77847 33.1773 5.14981L33.5276 5.30432L34.0579 2.33629L33.9668 2.35705ZM43.6656 2.02727H40.7457C39.837 2.02727 39.1526 2.27403 38.7555 3.16421L33.1399 15.7236H37.1133L37.9075 13.6641L42.7569 13.6687C42.8714 14.1508 43.2218 15.7236 43.2218 15.7236H46.7257L43.6656 2.02727ZM18.8066 1.91196H22.5931L20.2245 15.6152H16.4426L18.8066 1.90735V1.91196ZM9.19421 9.46464L9.58665 11.3672L13.2868 2.02727H17.2976L11.3386 15.7051H7.33716L4.06686 4.12357C4.01389 3.9326 3.8895 3.76859 3.7188 3.66464C2.54009 3.06351 1.29118 2.60733 0 2.30631L0.0513904 2.01804H6.14583C6.97275 2.05033 7.63848 2.30631 7.86042 3.17804L9.19187 9.47153L9.19421 9.46464ZM38.9937 10.8622L40.5027 7.0293C40.484 7.07083 40.8134 6.23832 41.005 5.72404L41.2643 6.90708L42.1402 10.8598H38.9914L38.9937 10.8622Z" fill="#1434CB"/>
<path d="M72.5031 2.38345H65.3856L65.5579 15.3093H72.6754L72.5031 2.38345Z" fill="#FF5F00"/>
<path d="M65.8318 8.86294C65.7968 6.23391 66.9918 3.90209 68.8567 2.39326C67.4567 1.29593 65.6993 0.632959 63.7917 0.632959C59.2727 0.632959 55.6657 4.31358 55.7264 8.86294C55.7871 13.4123 59.4923 17.0929 64.0113 17.0929C65.9189 17.0929 67.6588 16.4299 69.029 15.3326C67.1244 13.8466 65.8669 11.4919 65.8318 8.86294Z" fill="#EB001B"/>
<path d="M82.0083 8.82996C82.069 13.3793 78.4624 17.0599 73.9434 17.0599C72.0359 17.0599 70.2784 16.397 68.8784 15.2996C70.7655 13.7908 71.9377 11.459 71.9027 8.82996C71.8677 6.20094 70.6101 3.86913 68.7049 2.3603C70.0751 1.26297 71.8151 0.6 73.7227 0.6C78.2416 0.6 81.9475 4.30348 82.0083 8.82996Z" fill="#F79E1B"/>
<path fill-rule="evenodd" clip-rule="evenodd" d="M106.887 8.45034C106.806 8.45541 106.724 8.46195 106.641 8.46849C106.459 8.48286 106.274 8.49753 106.089 8.49811C104.777 8.50224 103.464 8.50353 102.152 8.50489H102.151C101.495 8.50554 100.84 8.50624 100.183 8.50724C100.136 8.5073 100.088 8.50495 100.04 8.50259C99.9051 8.49599 99.7695 8.48934 99.6586 8.53499C99.5336 8.58629 99.4127 8.74863 99.3893 8.87816C99.3765 8.94785 99.5686 9.12179 99.6761 9.12839C100.027 9.15001 100.379 9.14741 100.732 9.14482C100.852 9.14394 100.972 9.14306 101.092 9.14317C101.594 9.14341 102.094 9.14359 102.595 9.14376C103.846 9.14418 105.097 9.14459 106.349 9.14641C106.465 9.14659 106.58 9.15389 106.713 9.16226C106.78 9.16644 106.851 9.17092 106.928 9.17486C107.024 10.0733 106.787 10.903 106.457 11.6928C105.43 14.1511 103.382 15.3593 100.751 15.7742C98.9799 16.0534 97.2341 15.9214 95.5286 15.3401C92.8541 14.4283 91.1113 12.1058 91.0167 9.38527C90.9565 7.64783 91.2392 6.01753 92.3343 4.5841C93.4481 3.12639 95.0024 2.33295 96.8171 1.99659C98.8625 1.61743 100.889 1.69951 102.827 2.49589C105.335 3.52599 106.621 5.41909 106.949 7.96038C106.961 8.05286 106.957 8.14852 106.949 8.24176C106.946 8.27687 106.934 8.31133 106.917 8.35928C106.909 8.38502 106.898 8.41465 106.887 8.45034ZM113.055 9.15048C113.458 9.15048 113.861 9.14942 114.263 9.1483C115.278 9.14559 116.292 9.14288 117.306 9.15737C117.853 9.16503 118.411 9.19595 118.943 9.30775C120.462 9.62672 121.545 11.1659 121.36 12.6746C121.165 14.2615 119.878 15.4321 118.256 15.449C116.639 15.4657 115.021 15.4753 113.404 15.4849C111.755 15.4947 110.106 15.5045 108.458 15.5218C107.906 15.5276 107.654 15.4098 107.673 14.8013C107.722 13.1295 107.719 11.4552 107.684 9.78281C107.673 9.2416 107.869 9.12609 108.39 9.13569C109.508 9.15625 110.627 9.15254 111.745 9.14883C112.182 9.14741 112.619 9.14594 113.055 9.14594V9.15048ZM108.001 2.23061C107.909 2.23799 107.813 2.24571 107.71 2.25231C107.71 2.32109 107.71 2.38575 107.71 2.44754C107.71 2.59241 107.71 2.72147 107.71 2.85064C107.709 3.31313 107.71 3.77565 107.711 4.23819C107.714 5.42956 107.717 6.62096 107.688 7.81176C107.675 8.36499 107.864 8.5126 108.422 8.5056C110.206 8.48309 111.99 8.47226 113.775 8.46142C115.256 8.45246 116.737 8.44345 118.217 8.42778C119.854 8.41064 121.114 7.27691 121.335 5.67278C121.535 4.21643 120.52 2.74879 119.002 2.38849C118.459 2.25932 117.879 2.22725 117.314 2.22341C114.794 2.20574 112.274 2.20443 109.754 2.20312C109.342 2.20291 108.931 2.20269 108.52 2.20241C108.352 2.20233 108.185 2.21576 108.001 2.23061Z" fill="#B3B8BB"/>
<path d="M5.18642 26.518H1.82461C1.59468 26.5178 1.39885 26.6889 1.36303 26.9212L0.0033614 35.739C-0.00928882 35.8218 0.0141317 35.9061 0.0674561 35.9698C0.120781 36.0334 0.198666 36.07 0.280604 36.0699H1.88556C2.11566 36.0699 2.31154 35.8986 2.34714 35.6661L2.71385 33.2878C2.74943 33.0555 2.94503 32.8842 3.17494 32.8841H4.23917C6.45369 32.8841 7.73175 31.7879 8.06549 29.6158C8.21595 28.6655 8.07192 27.9188 7.63684 27.3959C7.15907 26.8217 6.31159 26.518 5.18642 26.518ZM5.57427 29.7385C5.39042 30.9724 4.46874 30.9724 3.57753 30.9724H3.07023L3.42612 28.668C3.44765 28.5287 3.56502 28.4261 3.70288 28.4261H3.93539C4.54247 28.4261 5.11514 28.4261 5.41107 28.7801C5.58754 28.9913 5.64161 29.305 5.57427 29.7385ZM15.2355 29.6988H13.6256C13.4878 29.6988 13.3704 29.8013 13.3489 29.9406L13.2776 30.4012L13.165 30.2342C12.8165 29.7168 12.0393 29.5439 11.2636 29.5439C9.48467 29.5439 7.96521 30.9221 7.66932 32.8554C7.51547 33.8198 7.73421 34.7419 8.26904 35.385C8.7596 35.9763 9.46154 36.2227 10.2967 36.2227C11.7301 36.2227 12.525 35.2799 12.525 35.2799L12.4532 35.7375C12.4403 35.8203 12.4634 35.9047 12.5166 35.9686C12.5697 36.0324 12.6475 36.0692 12.7295 36.0694H14.1796C14.4097 36.0695 14.6056 35.8981 14.6412 35.6656L15.5112 30.0296C15.5242 29.947 15.5011 29.8627 15.448 29.7991C15.3949 29.7354 15.3173 29.6988 15.2355 29.6988ZM12.9915 32.9037C12.8361 33.8444 12.1062 34.4759 11.1751 34.4759C10.7077 34.4759 10.3341 34.3226 10.0942 34.032C9.85631 33.7433 9.76584 33.3325 9.84153 32.875C9.98656 31.9423 10.7288 31.2902 11.6456 31.2902C12.1027 31.2902 12.4743 31.4455 12.7191 31.7387C12.9644 32.0348 13.0618 32.4481 12.9915 32.9037ZM23.8094 29.6988H22.1916C22.0367 29.699 21.892 29.7775 21.8048 29.9085L19.5736 33.2702L18.6278 30.0397C18.5681 29.8374 18.386 29.6989 18.1794 29.6988H16.5897C16.4992 29.6985 16.4141 29.743 16.3613 29.8183C16.3085 29.8935 16.2946 29.9902 16.3238 30.0779L18.1057 35.4268L16.4305 37.8458C16.3698 37.9332 16.3619 38.048 16.41 38.1432C16.4581 38.2386 16.5542 38.2983 16.659 38.2983H18.2748C18.428 38.2985 18.5715 38.2218 18.6587 38.0932L24.0394 30.1488C24.0988 30.0612 24.1058 29.947 24.0575 29.8526C24.0092 29.7581 23.9136 29.6988 23.8094 29.6988Z" fill="#253B80"/>
<path d="M29.1655 26.518H25.8032C25.5735 26.5181 25.3779 26.6891 25.3421 26.9212L23.9824 35.739C23.9697 35.8216 23.9929 35.9059 24.0461 35.9696C24.0991 36.0332 24.1769 36.0699 24.2587 36.0699H25.9841C26.1449 36.0696 26.2816 35.9498 26.3066 35.7873L26.6924 33.2878C26.728 33.0555 26.9237 32.8842 27.1535 32.884H28.2172C30.4323 32.884 31.7098 31.7879 32.0441 29.6158C32.195 28.6655 32.05 27.9188 31.615 27.3959C31.1377 26.8217 30.2907 26.518 29.1655 26.518ZM29.5534 29.7385C29.37 30.9724 28.4483 30.9724 27.5566 30.9724H27.0498L27.4062 28.668C27.4273 28.5287 27.5446 28.426 27.6825 28.4262H27.915C28.5216 28.4262 29.0947 28.4262 29.3906 28.7801C29.5671 28.9913 29.6207 29.3051 29.5534 29.7385ZM39.2141 29.6987H37.6052C37.4673 29.6984 37.3498 29.8012 37.3289 29.9406L37.2577 30.4012L37.1446 30.2342C36.7961 29.7169 36.0194 29.5439 35.2437 29.5439C33.4647 29.5439 31.9458 30.9221 31.6499 32.8554C31.4965 33.8198 31.7143 34.7419 32.2491 35.385C32.7406 35.9763 33.4416 36.2227 34.2768 36.2227C35.7102 36.2227 36.505 35.28 36.505 35.28L36.4333 35.7375C36.4204 35.8205 36.4436 35.9051 36.497 35.969C36.5503 36.0328 36.6284 36.0695 36.7105 36.0693H38.1602C38.3901 36.0692 38.5857 35.8979 38.6212 35.6656L39.4918 30.0296C39.5043 29.9467 39.4808 29.8624 39.4274 29.7988C39.3739 29.7352 39.296 29.6987 39.2141 29.6987ZM36.9701 32.9037C36.8157 33.8444 36.0848 34.4759 35.1537 34.4759C34.6872 34.4759 34.3127 34.3226 34.0728 34.032C33.8349 33.7433 33.7454 33.3325 33.8201 32.875C33.9661 31.9423 34.7074 31.2901 35.6242 31.2901C36.0814 31.2901 36.4529 31.4455 36.6977 31.7386C36.944 32.0348 37.0413 32.4481 36.9701 32.9037ZM41.112 26.7598L39.7322 35.739C39.7194 35.8216 39.7426 35.9059 39.7958 35.9696C39.8489 36.0332 39.9266 36.0699 40.0085 36.0699H41.3956C41.6262 36.0699 41.8218 35.8989 41.8572 35.6661L43.2179 26.8488C43.2307 26.7661 43.2074 26.6818 43.1543 26.6181C43.1012 26.5544 43.0235 26.5176 42.9416 26.5175H41.3883C41.2505 26.518 41.1335 26.6206 41.112 26.7598Z" fill="#179BD7"/>
<g clip-path="url(#clip1_5_11030)">
<path d="M62.3375 28.3208C62.0094 28.691 61.4843 28.983 60.9592 28.9413C60.8936 28.4408 61.1506 27.9089 61.4515 27.5805C61.7796 27.1999 62.3539 26.9287 62.8188 26.9079C62.8735 27.4293 62.6602 27.9402 62.3375 28.3208ZM62.8134 29.0404C62.0531 28.9987 61.4023 29.4522 61.0413 29.4522C60.6749 29.4522 60.1224 29.0612 59.5208 29.0717C58.7387 29.0821 58.0113 29.5044 57.612 30.177C56.7916 31.5222 57.3987 33.5139 58.1918 34.6088C58.5801 35.151 59.045 35.7454 59.6575 35.7245C60.2373 35.7037 60.467 35.3648 61.1671 35.3648C61.8727 35.3648 62.0751 35.7245 62.6876 35.7141C63.322 35.7037 63.7213 35.1719 64.1097 34.6296C64.5526 34.0144 64.7331 33.4148 64.7441 33.3835C64.7331 33.3731 63.519 32.9299 63.508 31.5951C63.4971 30.4794 64.4652 29.9476 64.5089 29.9163C63.9619 29.1446 63.1088 29.0612 62.8134 29.0404ZM67.2053 27.5283V35.6568H68.5289V32.8778H70.3611C72.0347 32.8778 73.2107 31.7829 73.2107 30.1979C73.2107 28.6129 72.0566 27.5284 70.4049 27.5284L67.2053 27.5283ZM68.5289 28.592H70.0548C71.2034 28.592 71.8597 29.1759 71.8597 30.203C71.8597 31.2302 71.2034 31.8194 70.0494 31.8194H68.5289V28.592ZM75.6281 35.7193C76.4595 35.7193 77.2306 35.3179 77.5807 34.6818H77.608V35.6568H78.8332V31.6108C78.8332 30.4377 77.8487 29.6817 76.3336 29.6817C74.928 29.6817 73.8888 30.4481 73.8505 31.5013H75.0429C75.1413 31.0008 75.628 30.6723 76.2953 30.6723C77.1048 30.6723 77.5588 31.0321 77.5588 31.6942V32.1426L75.907 32.2364C74.3701 32.3251 73.5388 32.9247 73.5388 33.9675C73.5388 35.0207 74.3975 35.7193 75.6281 35.7193ZM75.9836 34.7548C75.2781 34.7548 74.8295 34.4315 74.8295 33.9362C74.8295 33.4253 75.2616 33.1281 76.0875 33.0811L77.5588 32.9925V33.4513C77.5588 34.2125 76.8806 34.7548 75.9836 34.7548M80.4685 37.8674C81.7593 37.8674 82.3664 37.3982 82.8969 35.9748L85.2214 29.7599H83.8759L82.3171 34.5618H82.2898L80.731 29.7599H79.3473L81.5897 35.6776L81.4694 36.0374C81.267 36.6474 80.9389 36.882 80.3536 36.882C80.2497 36.882 80.0474 36.8716 79.9653 36.8612V37.8362C80.0419 37.857 80.37 37.8674 80.4685 37.8674" fill="#B3B8BB"/>
</g>
<g clip-path="url(#clip2_5_11030)">
<path d="M118.36 29.8766C119.102 29.8766 119.676 30.0836 120.115 30.4976C120.553 30.9116 120.756 31.4636 120.756 32.1536V35.4654H119.811V34.7065H119.777C119.372 35.3276 118.799 35.638 118.124 35.638C117.55 35.638 117.044 35.4655 116.639 35.1206C116.268 34.7756 116.032 34.2926 116.032 33.7751C116.032 33.2231 116.234 32.7746 116.639 32.4296C117.044 32.0846 117.618 31.9466 118.293 31.9466C118.9 31.9466 119.372 32.0502 119.743 32.2916V32.0502C119.743 31.7281 119.626 31.4062 119.391 31.1964L119.338 31.1532C119.069 30.9117 118.731 30.7737 118.36 30.7737C117.786 30.7737 117.348 31.0152 117.044 31.4982L116.167 30.9461C116.707 30.2216 117.415 29.8766 118.36 29.8766ZM113.603 27.5307C114.208 27.5307 114.784 27.7461 115.244 28.1478L115.324 28.2206C115.796 28.6346 116.032 29.2556 116.032 29.9111C116.032 30.5666 115.796 31.1531 115.324 31.6015C114.851 32.05 114.278 32.2915 113.603 32.2915L111.983 32.257V35.4654H110.971V27.5307H113.603ZM118.495 32.7745C118.09 32.7745 117.753 32.878 117.483 33.085C117.213 33.2575 117.078 33.499 117.078 33.8095C117.078 34.0855 117.213 34.3269 117.415 34.465C117.652 34.6375 117.921 34.741 118.191 34.741C118.569 34.741 118.947 34.5907 119.243 34.3182L119.305 34.258C119.642 33.9475 119.811 33.568 119.811 33.154C119.507 32.9125 119.069 32.7745 118.495 32.7745M113.67 28.4966H111.983V31.2566H113.67C114.041 31.2566 114.413 31.1187 114.649 30.8427C115.189 30.3252 115.189 29.4627 114.683 28.9452L114.649 28.9107C114.379 28.6347 114.041 28.4622 113.67 28.4967M126.221 30.0491L122.881 37.8804H121.869L123.117 35.155L120.924 30.0836H122.004L123.59 33.982H123.623L125.175 30.0836H126.221V30.0491Z" fill="#B3B8BB"/>
<path d="M107.968 31.5671C107.968 31.2566 107.935 30.9461 107.901 30.6356H103.683V32.3951H106.079C105.978 32.947 105.674 33.4645 105.202 33.7751V34.9135H106.652C107.496 34.12 107.968 32.947 107.968 31.5671" fill="#4285F4"/>
<path d="M103.683 36.0175C104.898 36.0175 105.91 35.6035 106.652 34.9135L105.202 33.7751C104.797 34.051 104.291 34.2235 103.683 34.2235C102.536 34.2235 101.524 33.4301 101.187 32.3261H99.7021V33.499C100.478 35.0515 101.996 36.0175 103.683 36.0175Z" fill="#34A853"/>
<path d="M101.187 32.3261C100.984 31.7741 100.984 31.1531 101.187 30.5666V29.3937H99.7021C99.061 30.6701 99.061 32.1881 99.7021 33.499L101.187 32.3261Z" fill="#FBBC04"/>
<path d="M103.683 28.7037C104.324 28.7037 104.932 28.9452 105.404 29.3937L106.686 28.0827C105.876 27.3237 104.797 26.8752 103.717 26.9097C102.03 26.9097 100.478 27.8757 99.7358 29.4282L101.22 30.6011C101.524 29.4971 102.536 28.7037 103.683 28.7037Z" fill="#EA4335"/>
</g>
</g>
<defs>
<clipPath id="clip0_5_11030">
<rect width="132" height="43" fill="white" transform="translate(0 0.6)"/>
</clipPath>
<clipPath id="clip1_5_11030">
<rect width="28" height="11" fill="white" transform="translate(57.2213 26.9079)"/>
</clipPath>
<clipPath id="clip2_5_11030">
<rect width="27" height="11" fill="white" transform="translate(99.2213 26.9079)"/>
</clipPath>
</defs>
</svg>
