<svg width="276" height="240" viewBox="0 0 276 240" fill="none" xmlns="http://www.w3.org/2000/svg">
<path d="M213.165 143.145V143.104C207.582 141.25 199.016 141.879 197.743 142.639C196.39 143.545 195.228 144.707 194.322 146.06C191.315 150.326 189.159 155.133 187.972 160.216L127.249 165.861C125.012 161.03 121.639 156.699 118.252 154.086C117.284 153.275 116.169 152.66 114.968 152.273C114.439 152.209 113.903 152.228 113.38 152.327C111.177 145.944 108.057 139.786 104.157 139.396C95.9466 138.575 81.6193 141.325 77.7124 149.289C73.8056 157.254 72.5809 177.137 72.5809 177.137L69.844 179.873C67.8479 175.985 65.0716 172.549 61.6883 169.781C60.7238 168.966 59.6076 168.35 58.4041 167.968C57.7199 167.777 54.9831 168.201 52.1162 169.138C51.9999 169.029 51.8904 168.919 51.7673 168.817C49.0305 166.525 43.42 165.272 40.2863 171.116C37.1526 176.959 40.9158 188.022 42.7905 190.527C43.7009 191.806 44.8427 192.904 46.1568 193.763C48.3668 199.237 52.3146 206.215 58.3904 206.537C60.4715 206.649 62.5523 206.312 64.4919 205.55C66.4315 204.787 68.1844 203.616 69.6319 202.117C73.573 198.012 73.9972 192.244 72.5125 186.599L73.1488 185.669C73.1488 185.669 74.5651 187.687 79.9908 186.873C81.5637 186.711 83.0549 186.093 84.2808 185.094C86.8261 191.587 90.9382 198.094 97.4723 199.066C100.277 199.495 103.14 199.315 105.869 198.538C108.598 197.761 111.127 196.405 113.284 194.563C114.539 193.48 115.633 192.225 116.534 190.835C120.193 190.633 123.64 189.053 126.182 186.415C128.456 183.989 129.757 180.81 129.835 177.486L137.916 176.541C142.988 178.804 148.523 179.84 154.07 179.566C159.382 179.224 164.41 177.048 168.295 173.408L186.707 171.834C187.015 178.97 189.58 185.518 195.601 189.124C197.907 190.5 200.483 191.36 203.152 191.644C205.822 191.929 208.521 191.632 211.064 190.773C219.555 187.927 221.567 175.31 222.114 167.64C222.963 155.324 219.035 144.89 213.165 143.145Z" fill="#263238" stroke="#263238" stroke-width="0.75" stroke-linecap="round" stroke-linejoin="round"/>
<path d="M100.75 195.104C100.044 196.007 99.144 196.739 98.1162 197.246" stroke="white" stroke-width="0.5" stroke-linecap="round" stroke-linejoin="round"/>
<path d="M104.068 178.888C104.068 178.888 104.883 187.783 101.852 193.428" stroke="white" stroke-width="0.5" stroke-linecap="round" stroke-linejoin="round"/>
<path d="M106.471 188.714C105.697 192.135 104.158 195.453 101.175 196.924" stroke="white" stroke-width="0.5" stroke-linecap="round" stroke-linejoin="round"/>
<path d="M110.185 178.211C110.185 178.211 111.553 192.997 104.239 196.568" stroke="white" stroke-width="0.5" stroke-linecap="round" stroke-linejoin="round"/>
<path d="M113.25 177.869C113.25 177.869 114.619 192.661 107.298 196.226" stroke="white" stroke-width="0.5" stroke-linecap="round" stroke-linejoin="round"/>
<path d="M205.557 188.235C204.771 189.228 203.794 190.054 202.684 190.664" stroke="white" stroke-width="0.5" stroke-linecap="round" stroke-linejoin="round"/>
<path d="M211.058 169.768C211.058 169.768 210.621 179.887 206.864 186.326" stroke="white" stroke-width="0.5" stroke-linecap="round" stroke-linejoin="round"/>
<path d="M212.037 180.975C210.805 184.868 208.835 188.645 205.722 190.287" stroke="white" stroke-width="0.5" stroke-linecap="round" stroke-linejoin="round"/>
<path d="M217.134 169.015C217.134 169.015 216.401 185.874 208.759 189.911" stroke="white" stroke-width="0.5" stroke-linecap="round" stroke-linejoin="round"/>
<path d="M220.185 168.646C220.185 168.646 219.453 185.498 211.811 189.541" stroke="white" stroke-width="0.5" stroke-linecap="round" stroke-linejoin="round"/>
<path d="M60.3204 204.252C59.7381 205.144 58.9703 205.9 58.0693 206.469" stroke="white" stroke-width="0.5" stroke-linecap="round" stroke-linejoin="round"/>
<path d="M61.4016 189.863C61.4016 189.863 63.3311 197.389 61.1553 202.651" stroke="white" stroke-width="0.5" stroke-linecap="round" stroke-linejoin="round"/>
<path d="M64.9802 197.944C64.6723 200.988 63.6118 204.054 60.9639 205.737" stroke="white" stroke-width="0.5" stroke-linecap="round" stroke-linejoin="round"/>
<path d="M67.1758 188.399C67.1758 188.399 70.3916 200.886 63.8506 204.998" stroke="white" stroke-width="0.5" stroke-linecap="round" stroke-linejoin="round"/>
<path d="M70.0635 187.66C70.0635 187.66 73.2861 200.147 66.7383 204.266" stroke="white" stroke-width="0.5" stroke-linecap="round" stroke-linejoin="round"/>
<path d="M93.6483 173.818C95.2767 183.13 94.2573 191.095 91.3836 191.608C88.5099 192.121 84.8494 184.964 83.221 175.652C81.5926 166.34 82.6121 158.376 85.4926 157.863C88.3731 157.349 92.0199 164.499 93.6483 173.818Z" fill="#0B99FF" stroke="#263238" stroke-linecap="round" stroke-linejoin="round"/>
<path d="M92.1971 174.017C92.6487 177.588 92.2313 180.578 91.2529 180.702C90.2745 180.825 89.125 178.033 88.6734 174.462C88.2219 170.89 88.6734 167.893 89.6177 167.77C90.5619 167.647 91.7455 170.445 92.1971 174.017Z" fill="#0B99FF" stroke="#263238" stroke-linecap="round" stroke-linejoin="round"/>
<path d="M85.335 165.478C85.432 164.279 85.6219 163.089 85.9029 161.92" stroke="#263238" stroke-width="0.75" stroke-linecap="round" stroke-linejoin="round"/>
<path d="M89.8708 188.248C87.9774 184.457 86.6233 180.42 85.8477 176.254C85.3324 173.307 85.1237 170.315 85.225 167.325" stroke="#263238" stroke-width="0.75" stroke-linecap="round" stroke-linejoin="round"/>
<path d="M53.381 201.493C55.4494 200.92 55.6217 195.026 53.7657 188.33C51.9098 181.633 48.7286 176.669 46.6602 177.242C44.5918 177.815 44.4196 183.709 46.2755 190.406C48.1314 197.102 51.3127 202.066 53.381 201.493Z" fill="#0B99FF" stroke="#263238" stroke-linecap="round" stroke-linejoin="round"/>
<path d="M53.0887 188.597C53.7387 191.142 53.7045 193.346 53.0066 193.524C52.3087 193.701 51.2276 191.779 50.5777 189.24C49.9277 186.702 49.9619 184.485 50.6598 184.314C51.3576 184.143 52.4387 186.052 53.0887 188.597Z" stroke="#263238" stroke-width="0.75" stroke-linecap="round" stroke-linejoin="round"/>
<path d="M47.355 183.035C47.3168 182.158 47.3465 181.279 47.4439 180.407" stroke="#263238" stroke-width="0.75" stroke-linecap="round" stroke-linejoin="round"/>
<path d="M52.6844 199.107C50.9735 196.533 49.6308 193.732 48.6955 190.787C48.0561 188.701 47.6342 186.555 47.4365 184.383" stroke="#263238" stroke-width="0.75" stroke-linecap="round" stroke-linejoin="round"/>
<path d="M200.049 74.0403C192.838 59.1588 189.725 57.8657 184.928 57.6193C180.132 57.373 168.809 55.9636 156.192 57.982C156.192 57.982 120.996 57.3662 93.7646 73.8624C65.3358 91.0839 51.5011 106.212 49.5648 114.053C47.6285 121.894 41.0191 142.324 37.8854 154.038C34.7517 165.752 32.617 176.069 36.6128 185.552C39.028 191.286 41.6006 193.01 44.9054 192.983C44.3998 192.076 43.9541 191.136 43.5712 190.171C40.287 182.036 40.6838 170.397 44.4333 169.645C48.1827 168.892 50.4201 176.685 52.6848 185.183C53.1344 187.056 53.7432 188.887 54.5048 190.657C60.1085 188.542 69.0853 183.815 81.0178 178.902C79.8851 171.439 79.8597 163.849 80.9426 156.378C82.7078 144.698 90.1725 142.119 93.4225 149.228C96.1115 155.085 97.1104 168.194 97.3772 172.614C102.167 170.965 106.176 169.877 108.646 169.727C108.646 169.727 149.48 160.504 179.578 159.765C209.676 159.026 224.736 158.307 224.736 158.307C224.736 158.307 207.261 88.8945 200.049 74.0403Z" fill="white"/>
<mask id="mask0_1068_33929" style="mask-type:luminance" maskUnits="userSpaceOnUse" x="34" y="56" width="191" height="137">
<path d="M200.049 74.0403C192.838 59.1588 189.725 57.8657 184.928 57.6193C180.132 57.373 168.809 55.9636 156.192 57.982C156.192 57.982 120.996 57.3662 93.7646 73.8624C65.3358 91.0839 51.5011 106.212 49.5648 114.053C47.6285 121.894 41.0191 142.324 37.8854 154.038C34.7517 165.752 32.617 176.069 36.6128 185.552C39.028 191.286 41.6006 193.01 44.9054 192.983C44.3998 192.076 43.9541 191.136 43.5712 190.171C40.287 182.036 40.6838 170.397 44.4333 169.645C48.1827 168.892 50.4201 176.685 52.6848 185.183C53.1344 187.056 53.7432 188.887 54.5048 190.657C60.1085 188.542 69.0853 183.815 81.0178 178.902C79.8851 171.439 79.8597 163.849 80.9426 156.378C82.7078 144.698 90.1725 142.119 93.4225 149.228C96.1115 155.085 97.1104 168.194 97.3772 172.614C102.167 170.965 106.176 169.877 108.646 169.727C108.646 169.727 149.48 160.504 179.578 159.765C209.676 159.026 224.736 158.307 224.736 158.307C224.736 158.307 207.261 88.8945 200.049 74.0403Z" fill="white"/>
</mask>
<g mask="url(#mask0_1068_33929)">
<path d="M103.822 145.841C103.822 145.841 99.6823 151.507 94.6465 152.718C96.4254 159.245 97.1575 168.906 97.3833 172.56C101.66 171.089 105.293 170.055 107.783 169.754C108.146 167.62 108.365 166.258 108.365 166.258L103.822 145.841Z" fill="#0B99FF"/>
<path opacity="0.2" d="M52.862 185.799C54.7641 185.99 56.0299 186.811 59.8957 185.847C66.7378 184.143 61.8183 170.938 73.1693 165.546C75.3728 164.435 77.7706 163.761 80.2303 163.562C80.3324 161.146 80.5608 158.736 80.9146 156.344C81.2159 153.994 81.9098 151.711 82.9672 149.591C79.8677 148.64 79.3067 147.73 74.0246 150.241C62.6667 155.632 64.3704 169.542 57.5626 171.246C52.13 172.614 51.8289 170.432 47.7031 171.444C49.6326 174.181 51.1242 179.511 52.6294 185.128C52.7457 185.381 52.8005 185.566 52.862 185.799Z" fill="#0B99FF"/>
<g style="mix-blend-mode:multiply">
<path opacity="0.2" d="M41.6891 174.106C38.5076 176.295 36.6123 179.579 35.5312 182.35C35.8245 183.444 36.1855 184.518 36.6123 185.566C39.0275 191.3 41.6002 193.024 44.9049 192.997C44.3993 192.089 43.9536 191.15 43.5707 190.185C41.4839 185.005 40.9228 178.416 41.6891 174.106Z" fill="#0B99FF"/>
</g>
<g style="mix-blend-mode:multiply" opacity="0.2">
<path d="M184.928 57.6195L183.689 57.5442C133.79 70.3115 113.49 130.453 106.504 159.436C106.88 162.317 107.291 165.143 107.735 167.893C108.584 167.729 107.995 169.727 108.645 169.693C108.645 169.693 149.479 160.47 179.577 159.731C209.676 158.992 224.735 158.273 224.735 158.273C224.735 158.273 207.26 88.8946 200.049 74.0404C192.837 59.1863 189.724 57.8384 184.928 57.6195Z" fill="#0B99FF"/>
</g>
</g>
<path d="M200.049 74.0403C192.838 59.1588 189.725 57.8657 184.928 57.6193C180.132 57.373 168.809 55.9636 156.192 57.982C156.192 57.982 120.996 57.3662 93.7646 73.8624C65.3358 91.0839 51.5011 106.212 49.5648 114.053C47.6285 121.894 41.0191 142.324 37.8854 154.038C34.7517 165.752 32.617 176.069 36.6128 185.552C39.028 191.286 41.6006 193.01 44.9054 192.983C44.3998 192.076 43.9541 191.136 43.5712 190.171C40.287 182.036 40.6838 170.397 44.4333 169.645C48.1827 168.892 50.4201 176.685 52.6848 185.183C53.1344 187.056 53.7432 188.887 54.5048 190.657C60.1085 188.542 69.0853 183.815 81.0178 178.902C79.8851 171.439 79.8597 163.849 80.9426 156.378C82.7078 144.698 90.1725 142.119 93.4225 149.228C96.1115 155.085 97.1104 168.194 97.3772 172.614C102.167 170.965 106.176 169.877 108.646 169.727C108.646 169.727 149.48 160.504 179.578 159.765C209.676 159.026 224.736 158.307 224.736 158.307C224.736 158.307 207.261 88.8945 200.049 74.0403Z" stroke="#263238" stroke-linecap="round" stroke-linejoin="round"/>
<path opacity="0.2" d="M50.6865 149.139C51.1562 149.53 51.7279 149.778 52.3341 149.854C52.9403 149.931 53.5556 149.832 54.1076 149.57C56.2628 148.708 56.4818 145.465 56.4818 145.465L59.7112 145.253L60.3612 135.12L53.2455 137.918C53.2455 137.918 51.3365 147.846 50.6865 149.139Z" fill="#0B99FF"/>
<path d="M41.3538 178.772C39.3107 179.858 37.3789 181.141 35.5859 182.604C35.8696 183.606 36.2123 184.591 36.6122 185.552C39.0275 191.286 41.6001 193.01 44.9048 192.983C44.3992 192.076 43.9536 191.136 43.5706 190.171C42.168 186.531 41.4176 182.672 41.3538 178.772Z" fill="#263238" stroke="#263238" stroke-width="0.75" stroke-linecap="round" stroke-linejoin="round"/>
<path d="M52.2531 173.12C52.0679 173.12 51.8864 173.069 51.7275 172.974C51.5687 172.879 51.4382 172.743 51.35 172.58C51.2254 172.343 51.1986 172.068 51.2754 171.812C51.3522 171.556 51.5264 171.34 51.7605 171.211C51.9247 171.123 65.2394 162.871 76.2688 157.007C76.3878 156.944 76.5182 156.905 76.6524 156.892C76.7867 156.879 76.9221 156.892 77.0511 156.932C77.1801 156.971 77.3 157.036 77.4041 157.121C77.5082 157.207 77.5944 157.312 77.6577 157.432C77.7211 157.551 77.7604 157.681 77.7733 157.815C77.7863 157.949 77.7727 158.085 77.7333 158.214C77.6939 158.343 77.6295 158.463 77.5437 158.567C77.458 158.671 77.3526 158.757 77.2335 158.82C66.2109 164.677 52.9031 172.922 52.7389 173.011C52.5891 173.089 52.4218 173.126 52.2531 173.12Z" fill="#263238" stroke="#263238" stroke-miterlimit="10"/>
<path d="M69.6595 104.535L69.1874 116.283C69.0848 117.884 70.0153 118.657 71.24 117.966L90.1584 105.651C90.8539 105.166 91.4147 104.512 91.7881 103.751C92.1615 102.989 92.3353 102.146 92.2931 101.299L92.1768 88.1965C92.04 87.0059 91.2326 86.5202 90.2405 87.0333C86.6826 88.8738 79.8132 95.1001 71.6027 100.895C71.0464 101.336 70.5867 101.887 70.2524 102.513C69.9181 103.139 69.7163 103.828 69.6595 104.535Z" fill="#0B99FF" stroke="#263238" stroke-linecap="round" stroke-linejoin="round"/>
<path d="M82.4404 101.224L91.6841 103.482" stroke="#263238" stroke-linecap="round" stroke-linejoin="round"/>
<path d="M69.7969 118.021L75.5032 105.418" stroke="#263238" stroke-linecap="round" stroke-linejoin="round"/>
<path d="M69.7695 104.145L78.1579 105.192C79.0269 105.322 80.1079 104.604 80.8947 103.359L91.8421 87.6833" stroke="#263238" stroke-linecap="round" stroke-linejoin="round"/>
<path d="M116.604 82.7092L118.547 112.13C118.597 112.979 118.82 113.81 119.202 114.57C119.584 115.33 120.116 116.004 120.768 116.552C121.419 117.099 122.175 117.508 122.989 117.754C123.804 117.999 124.66 118.076 125.505 117.98L190.861 109.496C191.761 109.392 192.628 109.094 193.402 108.622C194.176 108.151 194.838 107.517 195.343 106.764C195.848 106.011 196.184 105.158 196.326 104.263C196.469 103.368 196.416 102.452 196.17 101.58L187.919 72.4051C187.528 71.0186 186.67 69.8097 185.491 68.9831C184.311 68.1564 182.882 67.7627 181.446 67.8688C170.854 68.6488 145.45 70.9272 121.468 76.2708C120.028 76.5979 118.75 77.4235 117.86 78.6017C116.97 79.7798 116.525 81.2347 116.604 82.7092Z" fill="#0B99FF" stroke="#263238" stroke-linecap="round" stroke-linejoin="round"/>
<path d="M165.182 91.8298L195.02 105.966" stroke="#263238" stroke-linecap="round" stroke-linejoin="round"/>
<path d="M121.023 116.687L146.223 94.1355" stroke="#263238" stroke-linecap="round" stroke-linejoin="round"/>
<path d="M116.822 81.9362L152.983 96.804C154.34 97.3586 155.83 97.507 157.27 97.2313C158.711 96.9556 160.04 96.2676 161.097 95.2508L186.871 70.9136" stroke="#263238" stroke-linecap="round" stroke-linejoin="round"/>
<path d="M189.038 113.66C195.18 113.509 200.039 108.493 199.891 102.456C199.742 96.4197 194.642 91.6485 188.5 91.7997C182.357 91.9509 177.498 96.9672 177.647 103.004C177.796 109.04 182.895 113.812 189.038 113.66Z" fill="#263238" stroke="#263238" stroke-width="0.75" stroke-linecap="round" stroke-linejoin="round"/>
<path d="M187.57 107.95H187.535C187.319 107.95 187.106 107.9 186.914 107.802C186.721 107.705 186.554 107.563 186.427 107.389L182.055 101.354C181.842 101.06 181.754 100.693 181.811 100.335C181.868 99.976 182.065 99.6548 182.359 99.4415C182.653 99.2283 183.02 99.1406 183.379 99.1977C183.737 99.2548 184.058 99.4521 184.272 99.746L187.535 104.248L195.335 93.4718C195.548 93.1779 195.87 92.9806 196.228 92.9235C196.587 92.8664 196.954 92.9541 197.248 93.1674C197.542 93.3806 197.739 93.7018 197.796 94.0605C197.853 94.4191 197.765 94.7858 197.552 95.0797L188.657 107.395C188.531 107.566 188.367 107.704 188.179 107.801C187.99 107.897 187.781 107.948 187.57 107.95Z" fill="white" stroke="#263238" stroke-linecap="round" stroke-linejoin="round"/>
<path d="M146.243 137.439C146.243 137.439 169.506 132.978 185.448 133.293L186.406 137.124C186.406 137.124 152.935 138.712 146.558 141.914L146.243 137.439Z" fill="#263238" stroke="#263238" stroke-width="0.75" stroke-linecap="round" stroke-linejoin="round"/>
<path d="M146.558 141.9L147.242 145.732C147.313 146.159 147.548 146.541 147.897 146.797C148.246 147.052 148.681 147.161 149.11 147.1C154.946 146.265 175.431 143.453 186.057 143.713C186.319 143.721 186.579 143.667 186.816 143.556C187.053 143.444 187.26 143.279 187.421 143.072C187.581 142.865 187.691 142.623 187.74 142.366C187.79 142.109 187.778 141.844 187.706 141.592L186.433 137.138" stroke="#263238" stroke-linecap="round" stroke-linejoin="round"/>
<path d="M61.6682 135.133L61.5382 119.328L62.325 103.078C62.3309 102.923 62.2897 102.769 62.2069 102.637C62.1242 102.506 62.0036 102.402 61.8609 102.34C61.7183 102.278 61.5603 102.26 61.4075 102.289C61.2547 102.318 61.1142 102.393 61.0045 102.503C58.0624 105.514 53.0266 110.071 51.535 113.806C49.5987 118.644 47.3066 142.454 47.3066 142.454L61.6682 135.133Z" fill="#263238" stroke="#263238" stroke-width="0.75" stroke-linecap="round" stroke-linejoin="round"/>
<path d="M43.4473 131.958H41.1552C39.9876 131.958 39.041 132.905 39.041 134.073V145.882C39.041 147.05 39.9876 147.996 41.1552 147.996H43.4473C44.615 147.996 45.5615 147.05 45.5615 145.882V134.073C45.5615 132.905 44.615 131.958 43.4473 131.958Z" fill="#263238" stroke="#263238" stroke-width="0.75" stroke-linecap="round" stroke-linejoin="round"/>
<path d="M44.8916 120.929C45.9766 121.137 47.0363 121.461 48.0526 121.894C48.8954 122.308 49.6612 122.864 50.3174 123.536L53.7384 119.013C53.7384 119.013 48.7232 116.913 47.7721 115.633L46.8279 114.347L44.8916 120.929Z" fill="white"/>
<mask id="mask1_1068_33929" style="mask-type:luminance" maskUnits="userSpaceOnUse" x="44" y="114" width="10" height="10">
<path d="M44.8916 120.929C45.9766 121.137 47.0363 121.461 48.0526 121.894C48.8954 122.308 49.6612 122.864 50.3174 123.536L53.7384 119.013C53.7384 119.013 48.7232 116.913 47.7721 115.633L46.8279 114.347L44.8916 120.929Z" fill="white"/>
</mask>
<g mask="url(#mask1_1068_33929)">
<g style="mix-blend-mode:multiply" opacity="0.5">
<path d="M47.7653 115.633L46.8826 114.408L46.78 114.477L44.8916 120.908C44.8916 120.908 45.2542 120.977 45.7674 121.1L50.6595 117.556C49.5903 117.088 48.6109 116.437 47.7653 115.633Z" fill="#0B99FF"/>
</g>
</g>
<path d="M44.8916 120.929C45.9766 121.137 47.0363 121.461 48.0526 121.894C48.8954 122.308 49.6612 122.864 50.3174 123.536L53.7384 119.013C53.7384 119.013 48.7232 116.913 47.7721 115.633L46.8279 114.347L44.8916 120.929Z" stroke="#263238" stroke-width="0.75" stroke-linecap="round" stroke-linejoin="round"/>
<path d="M52.117 117.091L47.9365 122.421L48.5044 124.234L54.8744 117.617L52.117 117.091Z" fill="#0B99FF" stroke="#263238" stroke-linecap="round" stroke-linejoin="round"/>
<path d="M45.4252 102.031C42.5994 99.8418 35.2373 101.238 33.7936 106.424C32.9042 109.619 33.3968 114.409 33.3968 114.409L41.7852 112.63L42.4694 113.663C43.8378 115.715 46.8004 114.347 47.5667 113.663C47.9841 113.3 47.9567 112.233 47.8473 111.35L48.1825 111.275C48.1825 111.275 48.2441 104.228 45.4252 102.031Z" fill="#263238" stroke="#263238" stroke-width="0.75" stroke-linecap="round" stroke-linejoin="round"/>
<path d="M42.2915 112C38.6097 111.59 34.8828 111.944 31.3441 113.04C25.8705 114.874 25.0289 116.461 28.9494 116.366C32.8699 116.27 42.2915 112 42.2915 112Z" fill="#263238" stroke="#263238" stroke-width="0.75" stroke-linecap="round" stroke-linejoin="round"/>
<path d="M35.5313 110.009C36.1699 110.009 36.6876 109.302 36.6876 108.429C36.6876 107.556 36.1699 106.848 35.5313 106.848C34.8927 106.848 34.375 107.556 34.375 108.429C34.375 109.302 34.8927 110.009 35.5313 110.009Z" fill="#0B99FF"/>
<path d="M61.5379 119.328C61.5379 119.328 54.0458 117.426 51.74 119.178C49.4342 120.929 48.8458 123.823 49.5848 127.333C50.3237 130.843 52.1232 140.073 52.1232 140.073L61.6679 135.133L61.5379 119.328Z" fill="#263238" stroke="#263238" stroke-width="0.75" stroke-linecap="round" stroke-linejoin="round"/>
<path d="M49.6467 138.602C49.6467 138.602 49.2431 142.146 48.771 142.646C48.2989 143.145 35.8463 132.684 35.0868 131.699C34.3273 130.713 34.8473 127.197 35.0868 126.095C35.3263 124.993 34.9226 124.391 33.7184 125.151C32.5142 125.91 32.8358 129.071 32.8358 129.071C32.8358 129.071 29.1616 128.189 28.4295 128.086C27.6974 127.983 27.0611 128.893 27.1705 129.619C27.28 130.344 28.2447 130.405 28.2447 130.405C27.9979 131.456 28.0669 132.555 28.4432 133.566C29.0863 134.894 29.8116 135.729 31.18 136.057C32.5918 136.277 34.0213 136.364 35.4494 136.317C35.4494 136.317 41.8126 142.379 43.6599 144.644C45.5073 146.909 49.4004 149.987 51.3367 149.433C53.273 148.879 55.1204 139.211 55.1204 139.211L49.6467 138.602Z" fill="white"/>
<mask id="mask2_1068_33929" style="mask-type:luminance" maskUnits="userSpaceOnUse" x="27" y="124" width="29" height="26">
<path d="M49.6467 138.602C49.6467 138.602 49.2431 142.146 48.771 142.646C48.2989 143.145 35.8463 132.684 35.0868 131.699C34.3273 130.713 34.8473 127.197 35.0868 126.095C35.3263 124.993 34.9226 124.391 33.7184 125.151C32.5142 125.91 32.8358 129.071 32.8358 129.071C32.8358 129.071 29.1616 128.189 28.4295 128.086C27.6974 127.983 27.0611 128.893 27.1705 129.619C27.28 130.344 28.2447 130.405 28.2447 130.405C27.9979 131.456 28.0669 132.555 28.4432 133.566C29.0863 134.894 29.8116 135.729 31.18 136.057C32.5918 136.277 34.0213 136.364 35.4494 136.317C35.4494 136.317 41.8126 142.379 43.6599 144.644C45.5073 146.909 49.4004 149.987 51.3367 149.433C53.273 148.879 55.1204 139.211 55.1204 139.211L49.6467 138.602Z" fill="white"/>
</mask>
<g mask="url(#mask2_1068_33929)">
<g style="mix-blend-mode:multiply" opacity="0.5">
<path d="M48.7712 142.646L52.4112 143.857C52.5266 144.621 52.3653 145.4 51.9562 146.055C51.5472 146.71 50.9174 147.197 50.1807 147.429C48.5728 147.962 45.6854 146.135 43.6328 144.596L43.6944 144.671C45.576 146.943 49.4349 150.015 51.3712 149.461C53.3075 148.907 55.1549 139.239 55.1549 139.239L49.647 138.554C49.647 138.554 49.2433 142.147 48.7712 142.646Z" fill="#0B99FF"/>
</g>
</g>
<path d="M49.6467 138.602C49.6467 138.602 49.2431 142.146 48.771 142.646C48.2989 143.145 35.8463 132.684 35.0868 131.699C34.3273 130.713 34.8473 127.197 35.0868 126.095C35.3263 124.993 34.9226 124.391 33.7184 125.151C32.5142 125.91 32.8358 129.071 32.8358 129.071C32.8358 129.071 29.1616 128.189 28.4295 128.086C27.6974 127.983 27.0611 128.893 27.1705 129.619C27.28 130.344 28.2447 130.405 28.2447 130.405C27.9979 131.456 28.0669 132.555 28.4432 133.566C29.0863 134.894 29.8116 135.729 31.18 136.057C32.5918 136.277 34.0213 136.364 35.4494 136.317C35.4494 136.317 41.8126 142.379 43.6599 144.644C45.5073 146.909 49.4004 149.987 51.3367 149.433C53.273 148.879 55.1204 139.211 55.1204 139.211L49.6467 138.602Z" stroke="#263238" stroke-width="0.75" stroke-linecap="round" stroke-linejoin="round"/>
<path d="M37.2008 133.621L35.4492 136.344L36.3455 136.953L38.1382 134.387L37.2008 133.621Z" fill="#263238" stroke="#263238" stroke-miterlimit="10"/>
<path d="M36.5992 136.187C36.9771 136.187 37.2835 135.88 37.2835 135.503C37.2835 135.125 36.9771 134.818 36.5992 134.818C36.2214 134.818 35.915 135.125 35.915 135.503C35.915 135.88 36.2214 136.187 36.5992 136.187Z" fill="white" stroke="#263238" stroke-width="0.75" stroke-linecap="round" stroke-linejoin="round"/>
<path d="M34.9229 115.284C34.9229 115.284 35.3402 116.317 36.0381 118.131C36.736 119.944 40.4855 123.768 42.3191 123.987C44.1528 124.206 46.3491 117.542 46.6981 116.167C46.8144 115.715 46.9307 114.99 46.9307 114.99C46.9307 114.99 49.2365 113.902 48.7028 112.588C48.1691 111.275 47.0881 110.673 46.5749 111.076C46.0617 111.48 45.9728 113.184 45.2065 113.197C44.4402 113.211 44.0228 112.972 43.3454 112.068C42.6681 111.165 35.6481 113.04 34.9229 115.284Z" fill="white"/>
<mask id="mask3_1068_33929" style="mask-type:luminance" maskUnits="userSpaceOnUse" x="34" y="110" width="15" height="14">
<path d="M34.9229 115.284C34.9229 115.284 35.3402 116.317 36.0381 118.131C36.736 119.944 40.4855 123.768 42.3191 123.987C44.1528 124.206 46.3491 117.542 46.6981 116.167C46.8144 115.715 46.9307 114.99 46.9307 114.99C46.9307 114.99 49.2365 113.902 48.7028 112.588C48.1691 111.275 47.0881 110.673 46.5749 111.076C46.0617 111.48 45.9728 113.184 45.2065 113.197C44.4402 113.211 44.0228 112.972 43.3454 112.068C42.6681 111.165 35.6481 113.04 34.9229 115.284Z" fill="white"/>
</mask>
<g mask="url(#mask3_1068_33929)">
<path opacity="0.5" d="M43.3318 112.068C42.6476 111.172 35.6481 113.047 34.9229 115.284L35.3197 116.297C37.9953 114.683 40.9029 113.49 43.9407 112.76C43.7137 112.551 43.5096 112.32 43.3318 112.068Z" fill="#0B99FF"/>
<g style="mix-blend-mode:multiply">
<path opacity="0.5" d="M48.6138 112.404C48.0527 111.227 47.0606 110.693 46.5612 111.076C46.2481 111.485 46.0159 111.949 45.877 112.445C46.7858 112.343 47.7023 112.329 48.6138 112.404Z" fill="#0B99FF"/>
</g>
</g>
<path d="M34.9229 115.284C34.9229 115.284 35.3402 116.317 36.0381 118.131C36.736 119.944 40.4855 123.768 42.3191 123.987C44.1528 124.206 46.3491 117.542 46.6981 116.167C46.8144 115.715 46.9307 114.99 46.9307 114.99C46.9307 114.99 49.2365 113.902 48.7028 112.588C48.1691 111.275 47.0881 110.673 46.5749 111.076C46.0617 111.48 45.9728 113.184 45.2065 113.197C44.4402 113.211 44.0228 112.972 43.3454 112.068C42.6681 111.165 35.6481 113.04 34.9229 115.284Z" stroke="#263238" stroke-width="0.75" stroke-linecap="round" stroke-linejoin="round"/>
<path d="M37.4061 115.777C37.5293 116.194 37.4882 116.578 37.324 116.625C37.1598 116.673 36.9204 116.372 36.7972 115.941C36.674 115.51 36.7151 115.141 36.8793 115.093C37.0435 115.045 37.283 115.373 37.4061 115.777Z" fill="#263238" stroke="#263238" stroke-miterlimit="10"/>
<path d="M36.1338 114.614C37.0917 114.34 37.5022 115.059 37.6185 115.722L37.7964 116.509L38.3917 119.554L39.2948 119.171" stroke="#263238" stroke-width="0.5" stroke-linecap="round" stroke-linejoin="round"/>
<path d="M40.0332 114.846C40.2413 114.618 40.5003 114.442 40.7892 114.333C41.0781 114.223 41.3887 114.184 41.6958 114.217" stroke="#263238" stroke-width="0.5" stroke-linecap="round" stroke-linejoin="round"/>
<path d="M40.8276 112.951C40.4383 113.033 40.0811 113.225 39.7993 113.506C39.5175 113.786 39.3233 114.143 39.2402 114.532" stroke="#263238" stroke-width="0.5" stroke-linecap="round" stroke-linejoin="round"/>
<path d="M40.1084 120.156C40.1084 120.156 42.0926 119.759 42.25 118.336" stroke="#263238" stroke-width="0.5" stroke-linecap="round" stroke-linejoin="round"/>
<path d="M56.9543 143.734L46.9375 140.942C46.9375 140.942 47.8201 123.837 49.3664 120.943C51.7748 116.448 57.2964 118.473 58.3364 124.124C59.308 129.461 56.9543 143.734 56.9543 143.734Z" fill="#0B99FF" stroke="#263238" stroke-linecap="round" stroke-linejoin="round"/>
<path d="M47.1768 139.04C47.1768 139.04 52.6504 140.299 55.9825 141.394" stroke="#263238" stroke-width="0.5" stroke-linecap="round" stroke-linejoin="round"/>
<path d="M55.8457 117.953C55.8457 117.953 59.1025 118.206 61.2304 119.958" stroke="#0B99FF" stroke-width="0.5" stroke-linecap="round" stroke-linejoin="round"/>
<path d="M113.237 161.708C113.237 161.708 98.6501 166.853 97.3159 168.256C95.9817 169.658 96.1185 175.132 99.2659 177.794C102.413 180.455 124.848 174.42 140.886 172.662C156.924 170.904 192.133 168.317 206.502 167.619C220.87 166.921 227.404 168.817 228.663 164.335C229.922 159.854 229.765 155.064 227.028 154.093C224.291 153.121 174.426 145.136 113.237 161.708Z" fill="#263238" stroke="#263238" stroke-width="0.75" stroke-linecap="round" stroke-linejoin="round"/>
<path d="M96.2754 171.246C96.2754 171.246 96.9596 177.178 100.606 178.088C104.253 178.998 147.591 170.787 173.132 169.877C198.674 168.967 221.027 168.283 221.027 168.283" stroke="white" stroke-width="0.5" stroke-linecap="round" stroke-linejoin="round"/>
<path d="M117.445 174.256C134.386 170.151 169.233 164.349 227.87 165.998" stroke="white" stroke-width="0.5" stroke-linecap="round" stroke-linejoin="round"/>
<path d="M103.556 177.869C103.556 177.869 107.449 176.925 113.367 175.31" stroke="white" stroke-width="0.5" stroke-linecap="round" stroke-linejoin="round"/>
<path d="M107.127 178.546C107.311 181.09 107.243 183.645 106.922 186.175" stroke="white" stroke-width="0.5" stroke-linecap="round" stroke-linejoin="round"/>
<path d="M106.504 69.1345C106.504 69.1345 103.24 72.9592 102.987 76.3871" stroke="#263238" stroke-width="0.75" stroke-linecap="round" stroke-linejoin="round"/>
<path d="M102.646 79.1514C102.646 79.1514 100.189 118.226 106.689 159.813" stroke="#263238" stroke-width="0.75" stroke-linecap="round" stroke-linejoin="round"/>
<path d="M103.418 124.302C103.418 124.302 98.1159 126.15 98.0474 128.544C97.8695 134.983 98.5469 148.722 99.9495 150.056C101.352 151.39 105.711 147.86 105.711 147.86C105.711 147.86 111.868 148.393 112.553 147.011C113.237 145.629 110.671 126.177 110.288 124.48C109.905 122.783 103.418 124.302 103.418 124.302Z" fill="#0B99FF" stroke="#263238" stroke-linecap="round" stroke-linejoin="round"/>
<path d="M214.178 133.566C215.558 134.241 217.058 134.636 218.591 134.73C216.895 128.353 214.972 121.251 212.988 114.162C211.195 114.039 208.883 114.039 208.93 114.846C208.965 116.229 212.447 132.567 214.178 133.566Z" fill="#0B99FF" stroke="#263238" stroke-linecap="round" stroke-linejoin="round"/>
<path d="M102.659 126.314C102.659 126.314 102.892 138.629 103.802 143.419" stroke="#263238" stroke-width="0.75" stroke-linecap="round" stroke-linejoin="round"/>
<path d="M166.619 129.16C166.619 129.16 197.148 124.241 232.72 130.529" stroke="#263238" stroke-linecap="round" stroke-linejoin="round"/>
<path d="M259.562 148.448C261.662 149.077 263.728 149.741 265.719 150.453" stroke="#263238" stroke-linecap="round" stroke-linejoin="round"/>
<path d="M204.75 139.156C204.75 139.156 228.957 140.628 252.138 146.423" stroke="#263238" stroke-linecap="round" stroke-linejoin="round"/>
<path d="M131.074 195.528C151.006 192.482 171.257 192.121 191.284 194.454" stroke="#263238" stroke-linecap="round" stroke-linejoin="round"/>
<path d="M128.57 192.306C128.57 192.306 142.898 190.513 147.557 190.157" stroke="#263238" stroke-linecap="round" stroke-linejoin="round"/>
<path d="M224.523 59.4187C226.576 59.7129 228.629 60.1029 230.49 60.5476" stroke="#263238" stroke-linecap="round" stroke-linejoin="round"/>
<path d="M195.027 58.7415C203.458 58.146 211.921 58.2032 220.343 58.9126" stroke="#263238" stroke-linecap="round" stroke-linejoin="round"/>
<path d="M84.6367 141.626C84.6367 141.626 105.081 131.945 134.659 129.256" stroke="#263238" stroke-linecap="round" stroke-linejoin="round"/>
<path d="M119.066 123.871C119.066 123.871 131.444 120.648 150.273 119.567" stroke="#263238" stroke-linecap="round" stroke-linejoin="round"/>
<path d="M84.3018 192.23C86.7864 196.681 90.7959 200.083 95.5912 201.809" stroke="#263238" stroke-linecap="round" stroke-linejoin="round"/>
<path d="M83.6172 195.309C83.6172 195.309 86.6961 200.099 90.8014 202.151" stroke="#263238" stroke-linecap="round" stroke-linejoin="round"/>
<path d="M184.538 178.204C184.538 178.204 186.591 187.783 194.801 191.888" stroke="#263238" stroke-linecap="round" stroke-linejoin="round"/>
<path d="M185.564 186.757C187.192 189.14 189.439 191.032 192.064 192.23" stroke="#263238" stroke-linecap="round" stroke-linejoin="round"/>
<path d="M50.2012 205.203C50.2012 205.203 52.2538 208.624 59.438 208.624" stroke="#263238" stroke-linecap="round" stroke-linejoin="round"/>
<path d="M48.832 207.256C51.4494 209.432 54.6756 210.747 58.0688 211.019" stroke="#263238" stroke-linecap="round" stroke-linejoin="round"/>
<path d="M141.324 198.812C123.152 199.801 105.114 202.5 87.4492 206.872L87.8734 207.509C87.8734 207.509 102.926 204.313 130.746 211.156C158.566 217.998 160.399 223.471 190.956 223.471C221.513 223.471 251.166 216.178 251.166 216.178L247.458 214.125C220.021 202.514 182.417 196.513 141.324 198.812Z" fill="#0B99FF"/>
<path opacity="0.5" d="M141.324 198.812C123.152 199.801 105.114 202.5 87.4492 206.872L87.8734 207.509C87.8734 207.509 102.926 204.313 130.746 211.156C158.566 217.998 160.399 223.471 190.956 223.471C221.513 223.471 251.166 216.178 251.166 216.178L247.458 214.125C220.021 202.514 182.417 196.513 141.324 198.812Z" fill="white"/>
<path d="M74.3809 214.467C74.3809 214.467 110.302 208.993 141.433 229.862" stroke="#263238" stroke-linecap="round" stroke-linejoin="round"/>
<path d="M112.012 222.335C112.012 222.335 126.722 226.783 135.617 236.362" stroke="#263238" stroke-linecap="round" stroke-linejoin="round"/>
<path d="M198.906 204.888C198.906 204.888 219.775 206.941 238.59 218.23" stroke="#263238" stroke-linecap="round" stroke-linejoin="round"/>
<path d="M263.975 222.568C267.732 224.868 271.31 227.45 274.676 230.293" stroke="#263238" stroke-linecap="round" stroke-linejoin="round"/>
<path d="M19.1719 238.709C44.1112 217.498 89.1731 201.761 141.323 198.812C188.924 196.11 231.858 204.635 259.691 220.023" stroke="#263238" stroke-linecap="round" stroke-linejoin="round"/>
<path d="M171.196 204.546C171.196 204.546 192.749 205.572 207.117 210.362" stroke="#263238" stroke-linecap="round" stroke-linejoin="round"/>
<path d="M73.4775 42.1152C73.4775 42.1152 72.7933 32.6526 58.9381 32.3105C45.0829 31.9684 48.7913 41.7799 45.0761 44.1473C41.3608 46.5146 40.3414 42.7789 36.6193 45.1599C32.8972 47.5409 34.5666 52.262 31.5493 52.9394C28.5319 53.6167 24.4472 49.8946 20.732 52.2551C17.0167 54.6157 17.0099 56.6478 15.3199 56.6478C13.6299 56.6478 10.2499 55.2793 8.22465 56.6478C6.1994 58.0162 3.8252 59.672 3.8252 59.672H89.3511C89.3511 59.672 90.3638 56.6272 86.6143 54.602C82.8648 52.5767 81.2022 54.2599 79.8543 52.5493C78.5064 50.8388 83.6175 46.5146 73.4775 42.1152Z" fill="#0B99FF"/>
<path d="M124.293 5.90017C124.293 5.90017 123.883 0.207556 115.549 0.00229342C107.216 -0.202969 109.446 5.70174 107.209 7.12489C104.971 8.54805 104.362 6.31069 102.125 7.73384C99.8878 9.15699 100.907 12.0033 99.0736 12.407C97.2399 12.8107 94.8041 10.5801 92.5667 12.0033C90.3294 13.4264 90.3294 14.6443 89.3099 14.6443C88.2904 14.6443 86.2583 13.837 85.0405 14.6443C83.8226 15.4517 82.3994 16.478 82.3994 16.478H133.852C133.852 16.478 134.461 14.6443 132.223 13.4265C129.986 12.2086 128.973 13.2212 128.159 12.2086C127.345 11.1959 130.397 8.54805 124.293 5.90017Z" fill="#0B99FF"/>
<path opacity="0.7" d="M73.4775 42.1152C73.4775 42.1152 72.7933 32.6526 58.9381 32.3105C45.0829 31.9684 48.7913 41.7799 45.0761 44.1473C41.3608 46.5146 40.3414 42.7789 36.6193 45.1599C32.8972 47.5409 34.5666 52.262 31.5493 52.9394C28.5319 53.6167 24.4472 49.8946 20.732 52.2551C17.0167 54.6157 17.0099 56.6478 15.3199 56.6478C13.6299 56.6478 10.2499 55.2793 8.22465 56.6478C6.1994 58.0162 3.8252 59.672 3.8252 59.672H89.3511C89.3511 59.672 90.3638 56.6272 86.6143 54.602C82.8648 52.5767 81.2022 54.2599 79.8543 52.5493C78.5064 50.8388 83.6175 46.5146 73.4775 42.1152Z" fill="white"/>
<path opacity="0.8" d="M124.293 5.90017C124.293 5.90017 123.883 0.207556 115.549 0.00229342C107.216 -0.202969 109.446 5.70174 107.209 7.12489C104.971 8.54805 104.362 6.31069 102.125 7.73384C99.8878 9.15699 100.907 12.0033 99.0736 12.407C97.2399 12.8107 94.8041 10.5801 92.5667 12.0033C90.3294 13.4264 90.3294 14.6443 89.3099 14.6443C88.2904 14.6443 86.2583 13.837 85.0405 14.6443C83.8226 15.4517 82.3994 16.478 82.3994 16.478H133.852C133.852 16.478 134.461 14.6443 132.223 13.4265C129.986 12.2086 128.973 13.2212 128.159 12.2086C127.345 11.1959 130.397 8.54805 124.293 5.90017Z" fill="white"/>
</svg>
