<svg width="180" height="53" viewBox="0 0 180 53" fill="none" xmlns="http://www.w3.org/2000/svg">
<path d="M173.333 52.4746H6.66667C3.00167 52.4746 0 49.548 0 45.9746V6.97461C0 3.40124 3.00167 0.474612 6.66667 0.474612H173.333C176.998 0.474612 180 3.40124 180 6.97461V45.9746C180 49.548 176.998 52.4746 173.333 52.4746Z" fill="#292723"/>
<path d="M173.333 1.51623C176.42 1.51623 178.932 3.96511 178.932 6.97461V45.9746C178.932 48.9841 176.42 51.433 173.333 51.433H6.66667C3.58 51.433 1.06833 48.9841 1.06833 45.9746V6.97461C1.06833 3.96511 3.58 1.51623 6.66667 1.51623H173.333ZM173.333 0.474612H6.66667C3.00167 0.474612 0 3.40124 0 6.97461V45.9746C0 49.548 3.00167 52.4746 6.66667 52.4746H173.333C176.998 52.4746 180 49.548 180 45.9746V6.97461C180 3.40124 176.998 0.474612 173.333 0.474612Z" fill="#A6A6A6"/>
<path d="M13.9134 10.2751C13.5217 10.6748 13.295 11.2972 13.295 12.1032V40.8527C13.295 41.6587 13.5217 42.2811 13.9134 42.6808L14.01 42.7686L30.5334 26.6648V26.2846L14.01 10.1808L13.9134 10.2751Z" fill="url(#paint0_linear_8914_1452)"/>
<path d="M36.035 32.0352L30.5333 26.6645V26.2843L36.0417 20.9137L36.165 20.9835L42.6883 24.6024C44.55 25.6294 44.55 27.3194 42.6883 28.3529L36.165 31.9653L36.035 32.0352Z" fill="url(#paint1_linear_8914_1452)"/>
<path d="M36.165 31.9653L30.5333 26.4745L13.9133 42.6806C14.5317 43.3143 15.54 43.3907 16.6867 42.757L36.165 31.9653Z" fill="url(#paint2_linear_8914_1452)"/>
<path d="M36.165 20.9837L16.6867 10.1921C15.54 9.56486 14.5317 9.64124 13.9133 10.275L30.5333 26.4746L36.165 20.9837Z" fill="url(#paint3_linear_8914_1452)"/>
<path d="M63.2233 13.7918C63.2233 14.8773 62.89 15.7467 62.2333 16.395C61.4783 17.1637 60.495 17.5504 59.29 17.5504C58.1383 17.5504 57.155 17.1572 56.3483 16.382C55.54 15.5955 55.1367 14.6303 55.1367 13.4749C55.1367 12.3195 55.54 11.3543 56.3483 10.5743C57.155 9.79266 58.1383 9.39941 59.29 9.39941C59.8633 9.39941 60.41 9.51479 60.9317 9.72929C61.4517 9.94541 61.875 10.2379 62.1817 10.5987L61.485 11.2844C60.95 10.6685 60.2217 10.3647 59.29 10.3647C58.45 10.3647 57.7217 10.6507 57.1033 11.2275C56.4917 11.806 56.185 12.5552 56.185 13.4749C56.185 14.3947 56.4917 15.1503 57.1033 15.7288C57.7217 16.2992 58.45 16.5917 59.29 16.5917C60.1817 16.5917 60.9317 16.2992 61.5233 15.7223C61.9133 15.3404 62.135 14.8139 62.1933 14.1412H59.29V13.2019H63.1633C63.21 13.405 63.2233 13.6017 63.2233 13.7918Z" fill="white" stroke="white" stroke-width="0.16" stroke-miterlimit="10"/>
<path d="M69.3683 10.5352H65.73V13.0052H69.01V13.9445H65.73V16.4145H69.3683V17.3716H64.7V9.57812H69.3683V10.5352Z" fill="white" stroke="white" stroke-width="0.16" stroke-miterlimit="10"/>
<path d="M73.705 17.3716H72.675V10.5352H70.4433V9.57812H75.9383V10.5352H73.705V17.3716Z" fill="white" stroke="white" stroke-width="0.16" stroke-miterlimit="10"/>
<path d="M79.915 17.3716V9.57812H80.9434V17.3716H79.915Z" fill="white" stroke="white" stroke-width="0.16" stroke-miterlimit="10"/>
<path d="M85.5016 17.3716H84.48V10.5352H82.24V9.57812H87.7416V10.5352H85.5016V17.3716Z" fill="white" stroke="white" stroke-width="0.16" stroke-miterlimit="10"/>
<path d="M98.145 16.369C97.3566 17.1572 96.38 17.5504 95.215 17.5504C94.0433 17.5504 93.0666 17.1572 92.2783 16.369C91.4916 15.5825 91.1 14.6173 91.1 13.4749C91.1 12.3325 91.4916 11.3673 92.2783 10.5808C93.0666 9.79266 94.0433 9.39941 95.215 9.39941C96.3733 9.39941 97.35 9.79266 98.1383 10.5873C98.9317 11.3803 99.3233 12.339 99.3233 13.4749C99.3233 14.6173 98.9316 15.5825 98.145 16.369ZM93.04 15.7158C93.6333 16.2992 94.355 16.5917 95.215 16.5917C96.0683 16.5917 96.7966 16.2992 97.3833 15.7158C97.975 15.1324 98.275 14.3833 98.275 13.4749C98.275 12.5665 97.975 11.8174 97.3833 11.234C96.7966 10.6507 96.0683 10.3582 95.215 10.3582C94.355 10.3582 93.6333 10.6507 93.04 11.234C92.4483 11.8174 92.1483 12.5665 92.1483 13.4749C92.1483 14.3833 92.4483 15.1324 93.04 15.7158Z" fill="white" stroke="white" stroke-width="0.16" stroke-miterlimit="10"/>
<path d="M100.768 17.3716V9.57812H102.018L105.905 15.6394H105.95L105.905 14.1411V9.57812H106.933V17.3716H105.86L101.79 11.0114H101.745L101.79 12.5161V17.3716H100.768Z" fill="white" stroke="white" stroke-width="0.16" stroke-miterlimit="10"/>
<path d="M90.8466 28.7529C87.715 28.7529 85.1566 31.0766 85.1566 34.2828C85.1566 37.4629 87.715 39.811 90.8466 39.811C93.985 39.811 96.5433 37.4629 96.5433 34.2828C96.5433 31.0766 93.985 28.7529 90.8466 28.7529ZM90.8466 37.6335C89.1283 37.6335 87.65 36.2506 87.65 34.2828C87.65 32.2889 89.1283 30.9304 90.8466 30.9304C92.565 30.9304 94.05 32.2889 94.05 34.2828C94.05 36.2506 92.565 37.6335 90.8466 37.6335ZM78.4316 28.7529C75.2933 28.7529 72.7416 31.0766 72.7416 34.2828C72.7416 37.4629 75.2933 39.811 78.4316 39.811C81.5683 39.811 84.1216 37.4629 84.1216 34.2828C84.1216 31.0766 81.5683 28.7529 78.4316 28.7529ZM78.4316 37.6335C76.7116 37.6335 75.2283 36.2506 75.2283 34.2828C75.2283 32.2889 76.7116 30.9304 78.4316 30.9304C80.15 30.9304 81.6283 32.2889 81.6283 34.2828C81.6283 36.2506 80.15 37.6335 78.4316 37.6335ZM63.6583 30.4478V32.7975H69.4133C69.245 34.1105 68.795 35.0758 68.105 35.7485C67.265 36.561 65.9566 37.4629 63.6583 37.4629C60.1166 37.4629 57.3433 34.676 57.3433 31.2229C57.3433 27.7698 60.1166 24.9829 63.6583 24.9829C65.5733 24.9829 66.9666 25.7125 67.995 26.6583L69.6933 25.0024C68.255 23.6634 66.3416 22.6348 63.6583 22.6348C58.8016 22.6348 54.72 26.4876 54.72 31.2229C54.72 35.9581 58.8016 39.811 63.6583 39.811C66.2833 39.811 68.255 38.9725 69.805 37.3995C71.3933 35.8509 71.8883 33.6734 71.8883 31.9151C71.8883 31.3691 71.8416 30.867 71.7583 30.4478H63.6583ZM124.068 32.2694C123.6 31.0328 122.155 28.7529 119.212 28.7529C116.295 28.7529 113.867 30.9938 113.867 34.2828C113.867 37.38 116.27 39.811 119.492 39.811C122.097 39.811 123.6 38.2624 124.218 37.3605L122.285 36.1044C121.64 37.0241 120.762 37.6335 119.492 37.6335C118.23 37.6335 117.325 37.0696 116.745 35.9581L124.33 32.8983L124.068 32.2694ZM116.335 34.1105C116.27 31.9785 118.033 30.8865 119.297 30.8865C120.287 30.8865 121.127 31.3691 121.407 32.0598L116.335 34.1105ZM110.17 39.4746H112.663V23.2246H110.17V39.4746ZM106.087 29.9846H106.003C105.443 29.3379 104.375 28.7529 103.022 28.7529C100.182 28.7529 97.585 31.1839 97.585 34.3006C97.585 37.3995 100.182 39.811 103.022 39.811C104.375 39.811 105.443 39.2211 106.003 38.5549H106.087V39.3479C106.087 41.462 104.928 42.5979 103.06 42.5979C101.537 42.5979 100.592 41.5254 100.202 40.6235L98.0333 41.5059C98.6583 42.9716 100.313 44.7754 103.06 44.7754C105.983 44.7754 108.45 43.0984 108.45 39.018V29.0893H106.087V29.9846ZM103.235 37.6335C101.517 37.6335 100.078 36.2311 100.078 34.3006C100.078 32.3523 101.517 30.9304 103.235 30.9304C104.928 30.9304 106.263 32.3523 106.263 34.3006C106.263 36.2311 104.928 37.6335 103.235 37.6335ZM135.742 23.2246H129.778V39.4746H132.265V33.3175H135.742C138.503 33.3175 141.212 31.3691 141.212 28.2703C141.212 25.173 138.497 23.2246 135.742 23.2246ZM135.807 31.0571H132.265V25.485H135.807C137.663 25.485 138.723 26.9881 138.723 28.2703C138.723 29.528 137.663 31.0571 135.807 31.0571ZM151.178 28.722C149.382 28.722 147.513 29.4955 146.745 31.2099L148.952 32.1118C149.427 31.2099 150.3 30.9174 151.223 30.9174C152.513 30.9174 153.822 31.673 153.842 33.0071V33.1778C153.392 32.9243 152.428 32.5489 151.243 32.5489C148.867 32.5489 146.445 33.8245 146.445 36.2051C146.445 38.3826 148.392 39.785 150.58 39.785C152.253 39.785 153.177 39.0489 153.757 38.1925H153.842V39.4486H156.243V33.2151C156.243 30.334 154.037 28.722 151.178 28.722ZM150.878 37.627C150.065 37.627 148.932 37.2338 148.932 36.2506C148.932 34.9929 150.345 34.5103 151.568 34.5103C152.663 34.5103 153.177 34.7459 153.842 35.0563C153.647 36.561 152.318 37.627 150.878 37.627ZM164.993 29.0779L162.135 36.1223H162.05L159.095 29.0779H156.413L160.853 38.9221L158.32 44.4H160.918L167.76 29.0779H164.993ZM142.578 39.4746H145.072V23.2246H142.578V39.4746Z" fill="white"/>
<defs>
<linearGradient id="paint0_linear_8914_1452" x1="29.0663" y1="41.1521" x2="7.25617" y2="18.7827" gradientUnits="userSpaceOnUse">
<stop stop-color="#00A0FF"/>
<stop offset="0.0066" stop-color="#00A1FF"/>
<stop offset="0.2601" stop-color="#00BEFF"/>
<stop offset="0.5122" stop-color="#00D2FF"/>
<stop offset="0.7604" stop-color="#00DFFF"/>
<stop offset="1" stop-color="#00E3FF"/>
</linearGradient>
<linearGradient id="paint1_linear_8914_1452" x1="45.1125" y1="26.4726" x2="12.85" y2="26.4726" gradientUnits="userSpaceOnUse">
<stop stop-color="#FFE000"/>
<stop offset="0.4087" stop-color="#FFBD00"/>
<stop offset="0.7754" stop-color="#FFA500"/>
<stop offset="1" stop-color="#FF9C00"/>
</linearGradient>
<linearGradient id="paint2_linear_8914_1452" x1="33.1027" y1="23.4895" x2="3.52635" y2="-6.84515" gradientUnits="userSpaceOnUse">
<stop stop-color="#FF3A44"/>
<stop offset="1" stop-color="#C31162"/>
</linearGradient>
<linearGradient id="paint3_linear_8914_1452" x1="9.72973" y1="52.2456" x2="22.9369" y2="38.6999" gradientUnits="userSpaceOnUse">
<stop stop-color="#32A071"/>
<stop offset="0.0685" stop-color="#2DA771"/>
<stop offset="0.4762" stop-color="#15CF74"/>
<stop offset="0.8009" stop-color="#06E775"/>
<stop offset="1" stop-color="#00F076"/>
</linearGradient>
</defs>
</svg>
