<svg width="420" height="399" viewBox="0 0 420 399" fill="none" xmlns="http://www.w3.org/2000/svg">
<rect width="420" height="398" transform="matrix(-1 0 0 1 420 0.928711)" fill="url(#paint0_linear_979_9457)"/>
<path d="M80.891 194.035L77.9452 191.089L69.1035 199.929L77.9431 208.768L80.8889 205.82L77.0827 202.012H92.7848V197.845H77.0827L80.891 194.035Z" fill="#565656"/>
<path fill-rule="evenodd" clip-rule="evenodd" d="M64.7955 183.725C55.8455 192.675 55.8455 207.183 64.7955 216.133C73.7455 225.083 88.2538 225.083 97.2038 216.133C106.154 207.183 106.154 192.675 97.2038 183.725C88.2538 174.775 73.7455 174.775 64.7955 183.725ZM67.7413 186.67C64.225 190.187 62.2496 194.956 62.2496 199.929C62.2496 204.902 64.225 209.671 67.7413 213.187C71.2577 216.703 76.0268 218.679 80.9997 218.679C85.9725 218.679 90.7417 216.703 94.258 213.187C97.7743 209.671 99.7498 204.902 99.7498 199.929C99.7498 194.956 97.7743 190.187 94.258 186.67C90.7417 183.154 85.9725 181.179 80.9997 181.179C76.0268 181.179 71.2577 183.154 67.7413 186.67Z" fill="#565656"/>
<defs>
<linearGradient id="paint0_linear_979_9457" x1="3.88736e-07" y1="188.5" x2="308" y2="188.936" gradientUnits="userSpaceOnUse">
<stop stop-color="#FAF9F7" stop-opacity="0"/>
<stop offset="0.5" stop-color="#FAF9F7" stop-opacity="0.5"/>
<stop offset="1" stop-color="#FAF9F7"/>
</linearGradient>
</defs>
</svg>
