<svg width="420" height="399" viewBox="0 0 420 399" fill="none" xmlns="http://www.w3.org/2000/svg">
<rect y="0.928711" width="420" height="398" fill="url(#paint0_linear_979_9462)"/>
<path d="M339.109 194.035L342.055 191.089L350.896 199.929L342.057 208.768L339.111 205.82L342.917 202.012H327.215V197.845H342.917L339.109 194.035Z" fill="#565656"/>
<path fill-rule="evenodd" clip-rule="evenodd" d="M355.204 183.725C364.154 192.675 364.154 207.183 355.204 216.133C346.254 225.083 331.746 225.083 322.796 216.133C313.846 207.183 313.846 192.675 322.796 183.725C331.746 174.775 346.254 174.775 355.204 183.725ZM352.259 186.67C355.775 190.187 357.75 194.956 357.75 199.929C357.75 204.902 355.775 209.671 352.259 213.187C348.742 216.703 343.973 218.679 339 218.679C334.027 218.679 329.258 216.703 325.742 213.187C322.226 209.671 320.25 204.902 320.25 199.929C320.25 194.956 322.226 190.187 325.742 186.67C329.258 183.154 334.027 181.179 339 181.179C343.973 181.179 348.742 183.154 352.259 186.67Z" fill="#565656"/>
<defs>
<linearGradient id="paint0_linear_979_9462" x1="3.88736e-07" y1="189.429" x2="308" y2="189.864" gradientUnits="userSpaceOnUse">
<stop stop-color="#FAF9F7" stop-opacity="0"/>
<stop offset="0.5" stop-color="#FAF9F7" stop-opacity="0.5"/>
<stop offset="1" stop-color="#FAF9F7"/>
</linearGradient>
</defs>
</svg>
