<svg width="426" height="109" viewBox="0 0 426 109" fill="none" xmlns="http://www.w3.org/2000/svg">
<g filter="url(#filter0_d_8165_11861)">
<rect x="16.939" y="12.6719" width="392.017" height="74.4043" rx="18.1573" fill="white" shape-rendering="crispEdges"/>
<rect x="17.6955" y="13.4284" width="390.504" height="72.8912" rx="17.4007" stroke="black" stroke-opacity="0.08" stroke-width="1.51311" shape-rendering="crispEdges"/>
<circle cx="53.0083" cy="51.1476" r="10.4411" fill="black" stroke="#0B99FF" stroke-width="1.89839"/>
<path d="M51.6602 54.5482C51.4704 54.5482 51.2901 54.4723 51.1572 54.3394L48.4713 51.6535C48.196 51.3783 48.196 50.9227 48.4713 50.6475C48.7465 50.3722 49.2021 50.3722 49.4773 50.6475L51.6602 52.8304L56.5386 47.952C56.8138 47.6768 57.2694 47.6768 57.5446 47.952C57.8198 48.2273 57.8198 48.6828 57.5446 48.9581L52.1632 54.3394C52.0304 54.4723 51.85 54.5482 51.6602 54.5482Z" fill="white"/>
<rect x="91.9252" y="34.5029" width="31.2887" height="33.2887" rx="6.64435" stroke="#97CBF0" stroke-width="1.89839"/>
<path d="M102.978 54.4932C102.892 54.4932 102.834 54.426 102.805 54.2915L102.517 52.7499C102.498 52.6251 102.46 52.433 102.402 52.1736C102.354 51.9143 102.292 51.6309 102.215 51.3236C102.09 51.362 101.931 51.434 101.739 51.5397C101.557 51.6357 101.273 51.7942 100.889 52.0151C100.553 52.1976 100.294 52.3417 100.111 52.4474C99.9287 52.5434 99.775 52.6347 99.6502 52.7211C99.5253 52.7979 99.3716 52.894 99.1891 53.0093C99.1411 53.1533 99.0883 53.3262 99.0306 53.5279C98.973 53.7296 98.9154 53.9217 98.8577 54.1042C98.8001 54.2675 98.7233 54.3492 98.6272 54.3492C98.4831 54.3492 98.4111 54.2435 98.4111 54.0322C98.4111 54.0034 98.4159 53.9746 98.4255 53.9458C98.4255 53.9169 98.4303 53.8881 98.4399 53.8593L98.656 53.211C98.608 53.1341 98.584 53.0717 98.584 53.0237C98.584 52.9756 98.5984 52.9372 98.6272 52.9084V52.894C98.6272 52.7691 98.7089 52.6539 98.8721 52.5482C98.9298 52.4233 98.9826 52.3081 99.0306 52.2024C99.021 52.2024 99.0354 52.14 99.0738 52.0151C99.1123 51.8807 99.1939 51.6213 99.3188 51.2371L99.751 49.9692C99.8278 49.7483 99.9191 49.4602 100.025 49.1048C100.13 48.7494 100.265 48.322 100.428 47.8225L100.457 47.7793L100.832 46.8716C100.851 46.7756 100.884 46.6507 100.932 46.497C100.99 46.3337 101.052 46.1464 101.12 45.9351C101.129 45.8871 101.139 45.8391 101.149 45.791C101.168 45.743 101.182 45.6998 101.192 45.6614C101.24 45.4885 101.302 45.378 101.379 45.33C101.417 45.3108 101.451 45.3012 101.48 45.3012C101.576 45.3012 101.653 45.3684 101.71 45.5029C101.778 45.6277 101.806 45.7334 101.797 45.8198C101.855 46.0408 101.912 46.3097 101.97 46.6267C102.027 46.934 102.09 47.2846 102.157 47.6784L102.171 47.7217C102.22 47.8465 102.258 48.0002 102.287 48.1827C102.316 48.3652 102.344 48.5765 102.373 48.8166L102.56 50.56L102.762 50.4735C102.781 50.4639 102.81 50.4591 102.849 50.4591C102.964 50.4591 103.022 50.5696 103.022 50.7905C103.022 50.8865 103.002 50.9586 102.964 51.0066C102.925 51.0546 102.897 51.0882 102.877 51.1075L102.633 51.2227C102.642 51.2611 102.657 51.3284 102.676 51.4244C102.705 51.5205 102.738 51.6501 102.777 51.8134L102.95 52.5194C102.998 52.7019 103.046 52.9228 103.094 53.1821C103.142 53.4319 103.19 53.7152 103.238 54.0322C103.257 54.1571 103.238 54.2627 103.18 54.3492C103.122 54.4452 103.055 54.4932 102.978 54.4932ZM99.4917 52.188C99.5013 52.1784 99.5877 52.1304 99.751 52.0439C99.9239 51.9479 100.13 51.8326 100.371 51.6982C100.62 51.5637 100.87 51.4292 101.12 51.2947C101.369 51.1603 101.586 51.045 101.768 50.949C101.96 50.8433 102.075 50.7809 102.114 50.7617C102.114 50.7136 102.109 50.656 102.099 50.5888C102.099 50.5215 102.095 50.4399 102.085 50.3438C102.066 50.1229 102.037 49.902 101.999 49.6811C101.97 49.4506 101.936 49.2249 101.898 49.0039L101.739 47.9522C101.71 47.7313 101.638 47.3519 101.523 46.814L101.437 46.425C101.408 46.4922 101.369 46.5835 101.321 46.6987C101.283 46.814 101.235 46.9532 101.177 47.1165L100.803 48.0963C100.736 48.3076 100.649 48.5861 100.543 48.9319C100.438 49.2777 100.303 49.7003 100.14 50.1998C99.9479 50.7953 99.8086 51.2323 99.7222 51.5109C99.6357 51.7798 99.5781 51.9575 99.5493 52.0439C99.5205 52.1208 99.5013 52.1688 99.4917 52.188ZM103.983 54.1907C103.763 54.1907 103.652 54.0754 103.652 53.8449C103.652 53.259 103.753 52.2889 103.955 50.9346L103.263 51.2083C103.148 51.2083 103.09 51.1555 103.09 51.0498C103.09 50.9826 103.124 50.9298 103.191 50.8913C103.335 50.8049 103.474 50.728 103.609 50.6608C103.753 50.584 103.887 50.5119 104.012 50.4447C104.233 48.9559 104.459 47.7217 104.689 46.7419C104.93 45.7622 105.17 45.037 105.41 44.5664C105.458 44.4799 105.515 44.4367 105.583 44.4367C105.688 44.4367 105.741 44.4943 105.741 44.6096C105.741 44.6288 105.736 44.648 105.727 44.6672C105.727 44.6864 105.722 44.7057 105.712 44.7249C105.338 45.4549 105.016 46.9484 104.747 49.2056C104.737 49.2729 104.728 49.3353 104.718 49.3929C104.718 49.441 104.718 49.489 104.718 49.537C104.718 49.9308 104.858 50.1037 105.136 50.0557C105.261 50.0365 105.376 50.0221 105.482 50.0125C105.597 50.0029 105.703 49.9981 105.799 49.9981C106.385 49.9981 106.894 50.0749 107.326 50.2286C107.97 50.4591 108.291 50.8145 108.291 51.2947C108.291 51.7078 107.691 52.2745 106.49 52.9949C106.01 53.2926 105.578 53.5375 105.194 53.7296C104.81 53.9121 104.478 54.0514 104.2 54.1475C104.132 54.1763 104.06 54.1907 103.983 54.1907ZM104.661 53.355C105.064 53.2974 105.65 53.0429 106.418 52.5914C107.292 52.092 107.729 51.6693 107.729 51.3236C107.729 51.0066 107.47 50.7857 106.951 50.6608C106.625 50.5648 106.26 50.5167 105.856 50.5167C105.789 50.5167 105.688 50.5215 105.554 50.5311C105.429 50.5311 105.271 50.5407 105.078 50.56C104.925 50.5888 104.79 50.6752 104.675 50.8193C104.569 50.9634 104.507 51.1075 104.488 51.2515C104.478 51.3764 104.464 51.5301 104.445 51.7126C104.425 51.8855 104.406 52.0872 104.387 52.3177L104.358 52.894C104.339 53.2302 104.44 53.3839 104.661 53.355ZM109.574 54.2771C109.209 54.2771 108.916 54.1042 108.695 53.7585C108.513 53.4799 108.422 53.1773 108.422 52.8508C108.422 52.4954 108.47 52.164 108.566 51.8566C108.671 51.5397 108.815 51.2467 108.998 50.9778C109.401 50.4015 109.906 50.1133 110.511 50.1133C110.722 50.1133 110.89 50.195 111.015 50.3583C111.149 50.5119 111.202 50.6752 111.173 50.8481C111.125 51.1267 111.025 51.2659 110.871 51.2659C110.804 51.2659 110.77 51.2323 110.77 51.1651C110.77 51.1267 110.784 51.0882 110.813 51.0498H110.799C110.837 51.0018 110.857 50.9394 110.857 50.8625C110.857 50.7569 110.808 50.6656 110.712 50.5888C110.626 50.5023 110.53 50.4591 110.424 50.4591C110.002 50.4591 109.637 50.7329 109.329 51.2803C109.06 51.751 108.926 52.2457 108.926 52.7643C108.926 53.0237 108.993 53.2494 109.128 53.4415C109.272 53.6624 109.469 53.7729 109.718 53.7729C110.141 53.7729 110.54 53.624 110.914 53.3262C110.953 53.2878 111.001 53.2686 111.058 53.2686C111.154 53.2686 111.202 53.3262 111.202 53.4415C111.202 53.5183 111.173 53.5856 111.116 53.6432C110.751 54.0658 110.237 54.2771 109.574 54.2771ZM114.384 55.4441C114.115 55.4441 113.961 55.1224 113.923 54.4788L113.966 53.672C113.995 53.2686 113.975 53.0237 113.908 52.9372C112.861 53.8689 112.136 54.3348 111.733 54.3348C111.32 54.3348 111.113 54.0562 111.113 53.4991C111.113 53.0957 111.243 52.6443 111.502 52.1448C111.752 51.6645 112.011 51.3188 112.28 51.1075C112.655 50.8193 112.972 50.6752 113.231 50.6752C113.433 50.6752 113.634 50.7232 113.836 50.8193C113.855 50.8289 113.875 50.8433 113.894 50.8625C113.923 50.8817 113.951 50.9009 113.98 50.9202C114.048 50.9682 114.086 50.9922 114.096 50.9922C114.124 50.9922 114.139 50.9634 114.139 50.9057C114.177 50.4255 114.235 49.8924 114.312 49.3065C114.398 48.711 114.504 48.0626 114.629 47.3615C114.677 47.1309 114.744 46.8668 114.83 46.569C114.926 46.2713 115.042 45.9447 115.176 45.5893C115.33 45.2051 115.546 45.013 115.824 45.013C116.237 45.013 116.468 45.3684 116.516 46.0792C116.526 46.1272 116.53 46.18 116.53 46.2377C116.53 46.2857 116.53 46.3337 116.53 46.3817C116.53 47.1309 116.353 47.9186 115.997 48.7446L114.614 51.5109C114.605 51.8374 114.619 52.3225 114.657 52.966C114.667 53.0621 114.681 53.2014 114.701 53.3839C114.729 53.5567 114.758 53.7344 114.787 53.9169C114.816 54.0994 114.84 54.2531 114.859 54.378C114.888 54.5125 114.902 54.5845 114.902 54.5941C114.902 54.8246 114.85 55.0215 114.744 55.1848C114.638 55.3577 114.518 55.4441 114.384 55.4441ZM114.744 50.3871L115.709 48.3556C115.901 47.9618 116.026 47.5872 116.084 47.2318C116.151 46.8668 116.175 46.521 116.156 46.1944C116.127 45.6662 116.041 45.402 115.896 45.402C115.762 45.402 115.613 45.6181 115.45 46.0504C115.363 46.2713 115.291 46.5066 115.234 46.7563C115.176 46.9965 115.128 47.251 115.09 47.5199L115.075 47.5344C115.037 47.8417 114.989 48.2355 114.931 48.7158C114.874 49.1864 114.811 49.7435 114.744 50.3871ZM111.675 53.744C112.002 53.7729 112.352 53.672 112.727 53.4415C112.948 53.307 113.149 53.1341 113.332 52.9228C113.524 52.7019 113.702 52.4522 113.865 52.1736H113.879C113.908 52.0391 113.923 51.9095 113.923 51.7846C113.923 51.2563 113.731 50.9922 113.346 50.9922C113.068 50.9922 112.76 51.1651 112.424 51.5109C112.184 51.7702 111.982 52.0584 111.819 52.3753C111.589 52.8172 111.473 53.1725 111.473 53.4415C111.473 53.624 111.541 53.7248 111.675 53.744Z" fill="black"/>
<path d="M142.769 54.027C142.769 54.1521 142.798 54.271 142.856 54.3836C142.915 54.4963 142.986 54.5964 143.069 54.684C142.931 54.8008 142.756 54.9196 142.544 55.0406C142.331 55.1574 142.12 55.2158 141.912 55.2158C141.578 55.2158 141.411 55.0364 141.411 54.6777C141.411 54.4024 141.482 54.1042 141.624 53.783C141.77 53.4618 141.949 53.1385 142.162 52.8132C142.379 52.4878 142.6 52.1791 142.825 51.8871C143.05 51.5951 143.246 51.3407 143.413 51.1238C143.634 50.8318 143.855 50.5398 144.076 50.2478C144.298 49.9558 144.512 49.6618 144.721 49.3656C144.9 49.1153 145.107 48.8254 145.34 48.4959C145.574 48.1622 145.778 47.8202 145.954 47.4698C146.133 47.1152 146.223 46.7815 146.223 46.4687C146.223 46.3769 146.212 46.2872 146.191 46.1996C146.17 46.112 146.143 46.0265 146.11 45.9431C146.235 45.8847 146.379 45.8284 146.542 45.7742C146.704 45.7199 146.855 45.6928 146.992 45.6928C147.376 45.6928 147.676 45.7637 147.893 45.9056C148.11 46.0432 148.314 46.2747 148.506 46.6001C148.677 46.8879 148.807 47.2174 148.894 47.5887C148.982 47.9599 149.049 48.3374 149.094 48.7212C149.145 49.1049 149.193 49.4615 149.238 49.7911C149.293 50.1665 149.357 50.5669 149.432 50.9924C149.512 51.4179 149.612 51.835 149.733 52.2438C149.858 52.6526 150.014 53.0217 150.202 53.3512C150.365 53.6307 150.584 53.8727 150.859 54.077C151.138 54.2773 151.418 54.4504 151.697 54.5964C151.601 54.7298 151.47 54.8675 151.303 55.0093C151.14 55.147 150.972 55.2158 150.796 55.2158C150.333 55.2158 149.975 55.1157 149.72 54.9155C149.466 54.7111 149.232 54.417 149.019 54.0332C148.882 53.7871 148.767 53.539 148.675 53.2887C148.584 53.0342 148.508 52.7777 148.45 52.5191C148 52.5525 147.547 52.5733 147.092 52.5816C146.638 52.59 146.185 52.5942 145.735 52.5942C145.338 52.5942 144.944 52.59 144.552 52.5816C144.16 52.5691 143.768 52.5483 143.376 52.5191C143.201 52.8152 143.055 53.0947 142.938 53.3575C142.825 53.6161 142.769 53.8393 142.769 54.027ZM146.091 51.7745C146.458 51.7745 146.825 51.7787 147.192 51.787C147.564 51.7912 147.935 51.7954 148.306 51.7995C148.227 51.3157 148.16 50.8297 148.106 50.3417C148.056 49.8495 147.977 49.3635 147.868 48.8838C147.764 48.4041 147.593 47.9349 147.355 47.476C147.276 47.3259 147.18 47.1715 147.067 47.013C146.834 47.5177 146.56 47.9995 146.248 48.4584C145.935 48.913 145.622 49.3614 145.309 49.8036C145.159 50.0163 144.948 50.2979 144.677 50.6483C144.41 50.9987 144.143 51.3678 143.876 51.7557C144.239 51.7641 144.604 51.7703 144.971 51.7745C145.342 51.7745 145.716 51.7745 146.091 51.7745ZM154.732 47.4322C154.594 48.1247 154.457 48.8025 154.319 49.4657C154.181 50.1248 154.048 50.8005 153.919 51.493C154.006 51.2886 154.085 51.1155 154.156 50.9736C154.227 50.8276 154.311 50.6733 154.407 50.5106C154.536 50.2937 154.703 50.0393 154.907 49.7473C155.112 49.4511 155.341 49.1612 155.595 48.8776C155.854 48.5939 156.127 48.3583 156.415 48.1705C156.703 47.9828 156.997 47.889 157.297 47.889C157.727 47.889 158.079 47.9787 158.355 48.158C158.634 48.3332 158.851 48.5668 159.005 48.8588C159.164 49.1508 159.274 49.4699 159.337 49.8161C159.4 50.1581 159.431 50.496 159.431 50.8297C159.431 51.3678 159.354 51.9017 159.199 52.4315C159.049 52.9612 158.822 53.443 158.517 53.8768C158.213 54.3106 157.831 54.6569 157.372 54.9155C156.918 55.1741 156.388 55.3034 155.783 55.3034C155.374 55.3034 154.993 55.2158 154.638 55.0406C154.288 54.8654 153.948 54.6777 153.618 54.4775C153.581 54.6402 153.516 54.8091 153.424 54.9843C153.337 55.1553 153.203 55.2408 153.024 55.2408C152.915 55.2408 152.805 55.2116 152.692 55.1532C152.584 55.099 152.488 55.0385 152.404 54.9718C152.584 54.1584 152.738 53.3408 152.867 52.5191C153.001 51.6932 153.128 50.8673 153.249 50.0414C153.324 49.5366 153.393 49.0319 153.456 48.5272C153.518 48.0225 153.549 47.5157 153.549 47.0068C153.549 46.4812 153.408 46.0119 153.124 45.599C153.257 45.5281 153.408 45.4592 153.574 45.3925C153.745 45.3257 153.908 45.2924 154.062 45.2924C154.384 45.2924 154.596 45.4029 154.701 45.624C154.809 45.8451 154.863 46.0912 154.863 46.3623C154.863 46.5417 154.849 46.721 154.82 46.9004C154.795 47.0798 154.765 47.257 154.732 47.4322ZM156.928 49.2467C156.594 49.2467 156.279 49.3656 155.983 49.6034C155.687 49.8411 155.414 50.1477 155.164 50.5231C154.913 50.8985 154.69 51.2969 154.494 51.7182C154.302 52.1353 154.142 52.5295 154.012 52.9008C153.883 53.272 153.789 53.5702 153.731 53.7955C154.027 53.9415 154.352 54.0666 154.707 54.1709C155.066 54.2752 155.404 54.3273 155.721 54.3273C156.288 54.3273 156.761 54.1959 157.141 53.9331C157.52 53.6703 157.806 53.32 157.998 52.882C158.19 52.444 158.286 51.9622 158.286 51.4366C158.286 51.2156 158.267 50.9799 158.23 50.7296C158.192 50.4752 158.125 50.2374 158.029 50.0163C157.933 49.7911 157.796 49.6075 157.616 49.4657C157.441 49.3197 157.212 49.2467 156.928 49.2467ZM164.117 55.3284C163.65 55.3284 163.191 55.2763 162.741 55.172C162.294 55.0677 161.892 54.9009 161.533 54.6714C161.174 54.4379 160.889 54.1334 160.676 53.7579C160.463 53.3825 160.357 52.9258 160.357 52.3877C160.357 51.7453 160.492 51.1509 160.764 50.6045C161.039 50.058 161.41 49.5825 161.877 49.1779C162.344 48.7691 162.87 48.4521 163.454 48.2269C164.042 47.9974 164.651 47.8827 165.281 47.8827C165.444 47.8827 165.636 47.8911 165.857 47.9078C166.082 47.9244 166.299 47.9641 166.507 48.0266C166.72 48.085 166.897 48.181 167.039 48.3145C167.181 48.4438 167.252 48.6231 167.252 48.8525C167.252 48.9693 167.227 49.1216 167.177 49.3093C167.127 49.497 167.05 49.6242 166.945 49.691C166.758 49.4657 166.522 49.2989 166.238 49.1904C165.959 49.082 165.665 49.0111 165.356 48.9777C165.047 48.9443 164.755 48.9276 164.48 48.9276C163.6 48.9276 162.893 49.1842 162.359 49.6972C161.829 50.2061 161.564 50.909 161.564 51.8058C161.564 52.3981 161.692 52.8778 161.946 53.2449C162.205 53.6078 162.553 53.8747 162.991 54.0458C163.429 54.2126 163.917 54.296 164.455 54.296C164.989 54.296 165.402 54.2543 165.694 54.1709C165.99 54.0875 166.213 53.9894 166.363 53.8768C166.514 53.76 166.637 53.6516 166.733 53.5515C166.791 53.881 166.751 54.1605 166.614 54.3899C166.48 54.6151 166.282 54.7966 166.019 54.9342C165.757 55.0719 165.458 55.172 165.125 55.2346C164.791 55.2971 164.455 55.3284 164.117 55.3284ZM174.973 47.9703C174.99 47.5866 174.946 47.1674 174.842 46.7127C174.737 46.258 174.562 45.8784 174.316 45.5739C174.462 45.5114 174.629 45.4488 174.817 45.3862C175.004 45.3237 175.177 45.2924 175.336 45.2924C175.574 45.2924 175.759 45.357 175.893 45.4863C176.026 45.6115 176.12 45.7721 176.174 45.9681C176.229 46.16 176.256 46.356 176.256 46.5563C176.256 46.9108 176.22 47.2633 176.149 47.6137C176.083 47.9641 176.012 48.3124 175.937 48.6586C175.828 49.1633 175.728 49.6701 175.636 50.179C175.544 50.6879 175.499 51.203 175.499 51.7245C175.499 52.2667 175.576 52.7986 175.73 53.32C175.884 53.8372 176.158 54.294 176.55 54.6902C176.437 54.782 176.279 54.8946 176.074 55.0281C175.87 55.1616 175.693 55.2283 175.542 55.2283C175.275 55.2283 175.061 55.1553 174.898 55.0093C174.735 54.8592 174.614 54.6714 174.535 54.4462C174.456 54.2168 174.401 53.979 174.372 53.7329C174.347 53.4826 174.335 53.2574 174.335 53.0572C174.335 52.8653 174.341 52.6755 174.354 52.4878C174.366 52.2959 174.385 52.1061 174.41 51.9184C174.256 52.1395 174.062 52.3981 173.828 52.6943C173.599 52.9863 173.34 53.2845 173.052 53.589C172.764 53.8935 172.454 54.1751 172.12 54.4337C171.786 54.6923 171.438 54.903 171.075 55.0656C170.712 55.2241 170.345 55.3034 169.974 55.3034C169.444 55.3034 169.008 55.1803 168.666 54.9342C168.328 54.684 168.078 54.3544 167.915 53.9457C167.753 53.5327 167.671 53.0843 167.671 52.6004C167.671 51.9539 167.784 51.347 168.009 50.7797C168.234 50.2082 168.551 49.7056 168.96 49.2718C169.369 48.8379 169.851 48.498 170.405 48.2519C170.964 48.0058 171.575 47.8827 172.239 47.8827C172.547 47.8827 172.869 47.9224 173.202 48.0016C173.536 48.0809 173.853 48.1872 174.153 48.3207C174.454 48.4542 174.704 48.6002 174.904 48.7587C174.921 48.6294 174.935 48.5001 174.948 48.3708C174.96 48.2373 174.969 48.1038 174.973 47.9703ZM168.86 51.9434C168.86 52.3147 168.916 52.6526 169.029 52.9571C169.146 53.2574 169.329 53.4972 169.58 53.6766C169.83 53.8518 170.159 53.9394 170.568 53.9394C170.927 53.9394 171.29 53.8351 171.657 53.6265C172.028 53.418 172.385 53.1469 172.727 52.8132C173.069 52.4795 173.382 52.1207 173.665 51.737C173.949 51.3532 174.187 50.982 174.379 50.6232C174.57 50.2603 174.7 49.9538 174.766 49.7035C174.779 49.6284 174.792 49.5554 174.804 49.4845C174.595 49.301 174.347 49.1654 174.059 49.0778C173.776 48.986 173.478 48.9276 173.165 48.9026C172.856 48.8776 172.562 48.8651 172.283 48.8651C171.648 48.8651 171.073 48.9839 170.556 49.2217C170.038 49.4553 169.625 49.8015 169.317 50.2603C169.012 50.7192 168.86 51.2802 168.86 51.9434Z" fill="black"/>
<path d="M203.094 54.5442C202.786 54.5442 202.487 54.493 202.197 54.3904C201.906 54.2879 201.667 54.1342 201.479 53.9291C201.283 53.7156 201.185 53.4422 201.185 53.109C201.185 52.7075 201.343 52.2932 201.659 51.8661C201.975 51.4389 202.41 51.0972 202.966 50.8409C203.444 50.6274 203.944 50.4736 204.465 50.3796C204.995 50.2771 205.541 50.2259 206.105 50.2259C206.507 50.2259 206.904 50.2429 207.297 50.2771C207.69 50.3027 208.083 50.3412 208.476 50.3924C208.903 49.9226 209.334 49.4784 209.77 49.0598C210.206 48.6326 210.637 48.2653 211.064 47.9578C211.5 47.6502 211.931 47.4495 212.358 47.3555C212.119 47.3555 211.824 47.3427 211.474 47.3171C211.124 47.2829 210.748 47.2487 210.347 47.2145C209.954 47.1804 209.556 47.1633 209.155 47.1633C208.574 47.1633 208.027 47.2231 207.515 47.3427C207.011 47.4623 206.622 47.71 206.349 48.0859C206.272 48.197 206.216 48.3037 206.182 48.4063C206.148 48.5088 206.131 48.607 206.131 48.701C206.131 48.8206 206.156 48.9274 206.208 49.0213C206.242 49.0555 206.28 49.0939 206.323 49.1367C206.366 49.1708 206.404 49.1879 206.438 49.1879C206.404 49.2221 206.361 49.2392 206.31 49.2392C206.25 49.2392 206.191 49.2264 206.131 49.2007C206.08 49.1666 206.037 49.1324 206.003 49.0982C205.917 49.0042 205.853 48.8975 205.81 48.7779C205.768 48.6497 205.746 48.5259 205.746 48.4063C205.746 48.1671 205.802 47.9663 205.913 47.804C206.161 47.4794 206.468 47.2402 206.836 47.0864C207.211 46.9326 207.681 46.8557 208.245 46.8557C208.313 46.8557 208.382 46.8557 208.45 46.8557C208.527 46.8557 208.6 46.86 208.668 46.8686C209.309 46.9027 209.937 46.9668 210.552 47.0608C211.167 47.1547 211.82 47.2017 212.512 47.2017C212.888 47.2017 213.226 47.1846 213.524 47.1505C213.832 47.1078 214.033 47.0351 214.127 46.9326H214.152C214.255 46.9326 214.306 46.9882 214.306 47.0992C214.298 47.2444 214.221 47.3427 214.076 47.3939C213.939 47.4452 213.785 47.4708 213.614 47.4708C213.478 47.4708 213.341 47.4623 213.204 47.4452C213.076 47.4281 212.969 47.4153 212.884 47.4068C212.457 47.4324 212.008 47.5947 211.538 47.8937C211.077 48.1841 210.611 48.5558 210.142 49.0085C209.672 49.4527 209.206 49.9269 208.745 50.4309C208.899 50.4565 209.052 50.4821 209.206 50.5078C209.368 50.5334 209.526 50.5633 209.68 50.5975C209.962 50.2472 210.253 49.9098 210.552 49.5852C210.851 49.2605 211.141 48.9615 211.423 48.6882C211.611 48.5002 211.816 48.3208 212.038 48.15C212.26 47.9791 212.478 47.8382 212.692 47.7271C212.905 47.6075 213.093 47.5477 213.255 47.5477C213.144 47.6331 212.973 47.7912 212.743 48.0218C212.512 48.2439 212.299 48.4618 212.102 48.6754C211.863 48.9402 211.585 49.252 211.269 49.6108C210.962 49.9696 210.658 50.3412 210.359 50.7256C210.522 50.7598 210.68 50.7939 210.834 50.8281C210.996 50.8623 211.158 50.9007 211.32 50.9434C211.389 50.952 211.423 50.9776 211.423 51.0203C211.423 51.0374 211.406 51.0545 211.372 51.0716C211.346 51.0887 211.312 51.0929 211.269 51.0844L210.231 50.8794C209.89 51.3065 209.578 51.7166 209.296 52.1095C209.022 52.5025 208.826 52.8143 208.706 53.045C208.647 53.156 208.595 53.2713 208.553 53.3909C208.51 53.502 208.489 53.6045 208.489 53.6985C208.489 53.8693 208.561 53.9548 208.706 53.9548C208.8 53.9548 208.929 53.912 209.091 53.8266C209.339 53.6814 209.556 53.5105 209.744 53.3141C209.941 53.1176 210.124 52.9211 210.295 52.7246C210.33 52.7246 210.347 52.7502 210.347 52.8015C210.347 52.8784 210.33 52.9382 210.295 52.9809C209.902 53.4422 209.573 53.7583 209.309 53.9291C209.052 54.0914 208.766 54.1726 208.45 54.1726C208.245 54.1726 208.096 54.1256 208.002 54.0316C207.916 53.9291 207.873 53.8053 207.873 53.66C207.873 53.5148 207.903 53.3568 207.963 53.1859C208.032 53.0151 208.113 52.8485 208.207 52.6862C208.377 52.3872 208.578 52.0754 208.809 51.7507C209.04 51.4176 209.287 51.0844 209.552 50.7512C209.39 50.7256 209.228 50.7 209.065 50.6744C208.911 50.6487 208.749 50.6274 208.578 50.6103C208.228 51.0032 207.882 51.3877 207.54 51.7635C207.199 52.1394 206.87 52.4811 206.554 52.7887C206.238 53.0962 205.909 53.3867 205.567 53.66C205.225 53.9249 204.854 54.1384 204.452 54.3007C204.051 54.4631 203.598 54.5442 203.094 54.5442ZM203.145 54.0573C203.436 54.0573 203.739 54.0231 204.055 53.9548C204.371 53.8864 204.713 53.7497 205.08 53.5447C205.456 53.3397 205.866 53.0364 206.31 52.6349C206.635 52.3359 206.964 52.0113 207.297 51.661C207.63 51.3022 207.967 50.9392 208.309 50.5718C208.079 50.5462 207.844 50.5249 207.604 50.5078C207.374 50.4907 207.139 50.4821 206.9 50.4821C206.25 50.4821 205.584 50.5163 204.901 50.5847C204.226 50.6445 203.572 50.8238 202.94 51.1228C202.453 51.3364 202.09 51.6055 201.851 51.9301C201.603 52.2548 201.479 52.5666 201.479 52.8656C201.479 53.1902 201.62 53.4721 201.902 53.7113C202.184 53.9419 202.598 54.0573 203.145 54.0573ZM210.62 54.1982C210.423 54.1982 210.287 54.147 210.21 54.0445C210.124 53.9419 210.082 53.8138 210.082 53.66C210.082 53.5063 210.112 53.344 210.171 53.1731C210.231 52.9937 210.295 52.8314 210.364 52.6862C210.517 52.4299 210.684 52.1736 210.863 51.9173C211.051 51.6525 211.252 51.3791 211.466 51.0972C211.696 50.7897 211.961 50.4565 212.26 50.0977C212.559 49.7389 212.879 49.3887 213.221 49.047C213.571 48.6967 213.939 48.3892 214.323 48.1243C214.707 47.8595 215.1 47.6673 215.502 47.5477C215.579 47.5221 215.669 47.5007 215.771 47.4836C215.882 47.4666 215.993 47.458 216.104 47.458C216.198 47.458 216.288 47.4666 216.373 47.4836C216.467 47.4922 216.553 47.5135 216.63 47.5477C216.698 47.5819 216.766 47.6289 216.835 47.6887C216.903 47.7399 216.946 47.8168 216.963 47.9193C216.877 47.8424 216.775 47.7869 216.655 47.7527C216.536 47.71 216.39 47.6887 216.22 47.6887C215.878 47.6887 215.562 47.7656 215.271 47.9193C214.981 48.0645 214.703 48.261 214.438 48.5088C214.182 48.748 213.934 49.0128 213.695 49.3032C213.456 49.5852 213.217 49.8585 212.978 50.1233C212.636 50.5078 212.316 50.8922 212.017 51.2766C211.718 51.661 211.478 52.0113 211.299 52.3274C211.47 52.1138 211.662 51.8874 211.876 51.6482C212.089 51.409 212.298 51.1869 212.503 50.9819C212.708 50.7683 212.879 50.6017 213.016 50.4821C213.204 50.3113 213.388 50.1746 213.567 50.0721C213.746 49.961 213.93 49.897 214.118 49.8799C214.426 49.8628 214.579 50.0422 214.579 50.4181C214.579 50.6146 214.52 50.858 214.4 51.1485C214.289 51.4304 214.11 51.7337 213.862 52.0583C213.699 52.2718 213.49 52.5025 213.234 52.7502C212.986 52.9894 212.713 53.2201 212.414 53.4422C212.123 53.6643 211.824 53.848 211.517 53.9932C211.209 54.1299 210.91 54.1982 210.62 54.1982ZM210.735 54.0188C211.06 53.9932 211.401 53.8223 211.76 53.5063C212.128 53.1902 212.512 52.8058 212.914 52.353C213.213 52.0198 213.46 51.6995 213.657 51.3919C213.862 51.0759 213.994 50.8196 214.054 50.6231C214.063 50.5975 214.067 50.5633 214.067 50.5206C214.067 50.4522 214.05 50.3924 214.016 50.3412C213.981 50.2814 213.926 50.2515 213.849 50.2515C213.781 50.2515 213.687 50.2814 213.567 50.3412C213.456 50.401 213.315 50.5035 213.144 50.6487C212.999 50.7683 212.802 50.9477 212.555 51.1869C212.316 51.4176 212.072 51.6696 211.824 51.9429C211.747 52.0284 211.636 52.148 211.491 52.3017C211.354 52.4555 211.209 52.6264 211.055 52.8143C210.91 53.0022 210.786 53.1859 210.684 53.3653C210.581 53.5447 210.53 53.7028 210.53 53.8394C210.53 53.8992 210.551 53.9462 210.594 53.9804C210.637 54.006 210.684 54.0188 210.735 54.0188ZM214.965 54.2367C214.803 54.2367 214.637 54.211 214.466 54.1598C214.295 54.1171 214.154 54.0274 214.043 53.8907C213.932 53.754 213.876 53.5533 213.876 53.2884C213.876 52.998 213.953 52.6947 214.107 52.3786C214.261 52.0625 214.466 51.755 214.722 51.456C214.987 51.157 215.273 50.8879 215.581 50.6487C215.888 50.4095 216.196 50.2216 216.503 50.0849C216.819 49.9397 217.11 49.8671 217.375 49.8671C217.537 49.8671 217.648 49.9098 217.708 49.9952C217.776 50.0721 217.81 50.1661 217.81 50.2771C217.81 50.3882 217.785 50.495 217.733 50.5975C217.656 50.7769 217.52 50.9605 217.323 51.1485C217.135 51.3279 216.917 51.4176 216.67 51.4176C216.576 51.4176 216.52 51.3834 216.503 51.3151C216.495 51.2467 216.499 51.1955 216.516 51.1613C216.636 51.1271 216.798 51.0545 217.003 50.9434C217.208 50.8238 217.37 50.6445 217.49 50.4053C217.515 50.354 217.528 50.307 217.528 50.2643C217.528 50.1362 217.451 50.0721 217.298 50.0721C217.101 50.0721 216.845 50.196 216.529 50.4437C216.221 50.6829 215.88 51.0289 215.504 51.4816C215.239 51.7892 215.017 52.101 214.837 52.4171C214.666 52.7246 214.581 53.0407 214.581 53.3653C214.581 53.5618 214.619 53.7198 214.696 53.8394C214.773 53.9505 214.914 54.006 215.119 54.006C215.384 54.006 215.623 53.9419 215.837 53.8138C216.059 53.6857 216.264 53.5234 216.452 53.3269C216.64 53.1218 216.819 52.9211 216.99 52.7246C217.024 52.7246 217.041 52.7502 217.041 52.8015C217.041 52.8784 217.024 52.9382 216.99 52.9809C216.819 53.1774 216.636 53.3739 216.439 53.5703C216.243 53.7668 216.025 53.9291 215.786 54.0573C215.546 54.1769 215.273 54.2367 214.965 54.2367ZM217.225 54.1598C216.909 54.1769 216.751 53.9975 216.751 53.6216C216.751 53.4166 216.811 53.1731 216.93 52.8912C217.05 52.6007 217.229 52.2975 217.468 51.9814C217.656 51.7422 217.896 51.4816 218.186 51.1997C218.476 50.9178 218.793 50.6615 219.134 50.4309C219.476 50.1917 219.818 50.0208 220.159 49.9183C220.253 49.8927 220.352 49.8756 220.454 49.8671C220.557 49.85 220.681 49.8414 220.826 49.8414C220.962 49.8414 221.031 49.8585 221.031 49.8927C221.031 49.9354 220.971 49.9696 220.851 49.9952C220.749 50.0208 220.625 50.0635 220.48 50.1233C220.335 50.1831 220.202 50.2472 220.083 50.3156C219.835 50.4522 219.574 50.6402 219.301 50.8794C219.027 51.11 218.758 51.3749 218.494 51.6739C218.203 51.9985 217.964 52.3188 217.776 52.6349C217.588 52.9424 217.464 53.1987 217.404 53.4038C217.387 53.4721 217.379 53.5319 217.379 53.5832C217.379 53.7028 217.426 53.7625 217.52 53.7625C217.579 53.7625 217.661 53.7369 217.763 53.6857C217.866 53.6259 217.998 53.5276 218.16 53.3909C218.485 53.1176 218.81 52.8058 219.134 52.4555C219.467 52.1053 219.766 51.7422 220.031 51.3663C220.236 51.0759 220.475 50.7683 220.749 50.4437C221.022 50.1105 221.308 49.7902 221.607 49.4826C221.906 49.1666 222.197 48.8804 222.479 48.6241C222.769 48.3678 223.03 48.1628 223.26 48.009C223.525 47.8296 223.709 47.7271 223.811 47.7015C223.922 47.6759 224.016 47.663 224.093 47.663C224.016 47.7228 223.85 47.8766 223.594 48.1243C223.346 48.3635 223.047 48.6668 222.697 49.0341C222.355 49.4015 221.996 49.7987 221.62 50.2259C221.253 50.653 220.915 51.0801 220.608 51.5073C220.369 51.8319 220.142 52.1693 219.929 52.5196C219.715 52.8613 219.574 53.1347 219.506 53.3397C219.48 53.408 219.463 53.4678 219.455 53.5191C219.446 53.5703 219.442 53.6173 219.442 53.66C219.442 53.7967 219.497 53.8651 219.608 53.8651C219.685 53.8651 219.775 53.8352 219.877 53.7754C219.989 53.707 220.1 53.6301 220.211 53.5447C220.356 53.4251 220.497 53.2927 220.634 53.1475C220.779 53.0022 220.907 52.8613 221.018 52.7246C221.052 52.7246 221.069 52.7502 221.069 52.8015C221.069 52.8784 221.052 52.9382 221.018 52.9809C220.907 53.109 220.77 53.25 220.608 53.4038C220.454 53.5575 220.3 53.6942 220.147 53.8138C220.036 53.9078 219.907 53.9889 219.762 54.0573C219.617 54.1256 219.476 54.1598 219.339 54.1598C219.143 54.1598 219.002 54.1128 218.916 54.0188C218.84 53.9249 218.801 53.8053 218.801 53.66C218.801 53.5148 218.831 53.3568 218.891 53.1859C218.951 53.0151 219.023 52.8485 219.109 52.6862C218.963 52.8399 218.805 53.0065 218.635 53.1859C218.464 53.3568 218.353 53.4636 218.301 53.5063C218.113 53.6771 217.934 53.8266 217.763 53.9548C217.592 54.0744 217.413 54.1427 217.225 54.1598Z" fill="black"/>
<path d="M254.385 55.109C254.222 54.6306 254.047 54.1779 253.859 53.7507L253.103 52.0849L248.964 52.2643H248.913C248.776 52.5547 248.64 52.8367 248.503 53.11L248.119 53.8789C247.956 54.2035 247.798 54.5836 247.645 55.0193C247.593 55.1645 247.405 55.2372 247.081 55.2372C246.756 55.2372 246.594 55.156 246.594 54.9937C246.594 54.9424 246.611 54.8955 246.645 54.8527C246.679 54.8015 246.713 54.746 246.748 54.6862C246.782 54.6178 246.837 54.5068 246.914 54.353C247 54.1992 247.123 53.9686 247.286 53.661C247.457 53.3449 247.683 52.9093 247.965 52.354H247.875C247.773 52.354 247.679 52.2771 247.593 52.1233C247.508 51.961 247.465 51.8158 247.465 51.6877C247.465 51.5595 247.512 51.4954 247.606 51.4954H247.632C247.786 51.5125 247.952 51.5211 248.132 51.5211H248.375C249.528 49.2145 250.271 47.6341 250.605 46.7799C250.639 46.703 250.664 46.5876 250.682 46.4339C250.699 46.2716 250.728 46.1648 250.771 46.1135C250.814 46.0623 250.899 46.0366 251.027 46.0366C251.164 46.0366 251.314 46.0751 251.476 46.152C251.638 46.2288 251.732 46.3228 251.758 46.4339L251.719 46.6902C251.719 46.8012 251.946 47.3992 252.399 48.4841C253.825 51.8671 254.799 53.9344 255.32 54.6862C255.414 54.8228 255.461 54.9083 255.461 54.9424C255.461 55.0449 255.384 55.1218 255.231 55.1731C255.077 55.2329 254.906 55.2628 254.718 55.2628C254.53 55.2628 254.419 55.2115 254.385 55.109ZM249.298 51.4954L252.783 51.3545C252.057 49.6716 251.519 48.3688 251.168 47.4462C250.459 49.0266 249.836 50.3763 249.298 51.4954ZM258.939 55.3653C258.606 55.3653 258.307 55.2927 258.042 55.1475C257.786 55.0022 257.585 54.8143 257.44 54.5836L257.402 54.8143C257.385 54.8997 257.312 54.9894 257.184 55.0834C257.056 55.1688 256.936 55.2115 256.825 55.2115C256.68 55.2115 256.607 55.1261 256.607 54.9552L256.633 53.7892V47.5487L256.594 46.1904C256.594 46.105 256.671 46.0623 256.825 46.0623C256.979 46.0623 257.133 46.0964 257.286 46.1648C257.449 46.2246 257.53 46.31 257.53 46.4211L257.478 47.5615V50.4191C257.82 49.8382 258.188 49.4452 258.581 49.2402C258.982 49.0266 259.418 48.9198 259.888 48.9198C260.528 48.9198 261.054 49.1462 261.464 49.599C261.874 50.0517 262.079 50.6753 262.079 51.4698C262.079 52.2643 261.938 52.9477 261.656 53.5201C261.374 54.0924 260.994 54.5452 260.515 54.8784C260.046 55.203 259.52 55.3653 258.939 55.3653ZM257.876 54.1095C258.106 54.4512 258.474 54.6221 258.978 54.6221C259.482 54.6221 259.977 54.3487 260.464 53.802C260.96 53.2552 261.207 52.5462 261.207 51.6748C261.207 50.7949 260.981 50.2012 260.528 49.8937C260.323 49.757 260.075 49.6887 259.785 49.6887C259.495 49.6887 259.187 49.7826 258.862 49.9706C258.546 50.1585 258.252 50.4532 257.978 50.8547C257.705 51.2477 257.543 51.7859 257.491 52.4693C257.466 52.8281 257.453 53.2894 257.453 53.8532C257.487 53.8362 257.517 53.8276 257.543 53.8276C257.637 53.8276 257.748 53.9216 257.876 54.1095ZM266.003 55.3781C265.559 55.3781 265.144 55.2756 264.76 55.0706C264.384 54.857 264.081 54.5495 263.85 54.148C263.628 53.7379 263.517 53.2595 263.517 52.7128C263.517 52.166 263.611 51.6663 263.799 51.2135C263.995 50.7608 264.252 50.3635 264.568 50.0218C264.884 49.6801 265.238 49.411 265.631 49.2145C266.024 49.018 266.404 48.9198 266.772 48.9198C267.148 48.9198 267.455 48.9711 267.694 49.0736C267.934 49.1675 268.122 49.2829 268.258 49.4196C268.403 49.5562 268.506 49.6844 268.566 49.804C268.634 49.915 268.668 49.9834 268.668 50.009C268.668 50.1457 268.604 50.2781 268.476 50.4062C268.348 50.5344 268.245 50.5985 268.169 50.5985C268.092 50.5985 268.04 50.5771 268.015 50.5344C267.955 50.4148 267.895 50.2995 267.835 50.1884C267.776 50.0773 267.699 49.9919 267.605 49.9321C267.357 49.7613 267.101 49.6758 266.836 49.6758C266.289 49.6758 265.747 49.962 265.208 50.5344C264.662 51.1495 264.388 51.8372 264.388 52.5975C264.388 53.0417 264.474 53.4133 264.645 53.7123C264.978 54.3274 265.461 54.6349 266.093 54.6349C266.913 54.6349 267.75 54.2078 268.604 53.3535C268.732 53.2253 268.835 53.1613 268.912 53.1613C268.989 53.1613 269.027 53.1997 269.027 53.2766C269.027 53.3535 268.967 53.503 268.848 53.7251C268.728 53.9387 268.544 54.1736 268.297 54.4299C267.682 55.062 266.917 55.3781 266.003 55.3781ZM275.707 55.3012C275.502 55.3012 275.327 55.0834 275.181 54.6477C275.045 54.2035 274.976 53.8661 274.976 53.6354C274.609 54.2505 274.216 54.6947 273.797 54.9681C273.379 55.2414 272.888 55.3781 272.324 55.3781C271.76 55.3781 271.282 55.1517 270.889 54.699C270.504 54.2462 270.312 53.6012 270.312 52.764C270.312 51.756 270.637 50.8633 271.286 50.0859C271.935 49.3085 272.674 48.9198 273.503 48.9198C273.827 48.9198 274.114 48.9839 274.361 49.112C274.609 49.2316 274.801 49.3897 274.938 49.5861V47.5487L274.887 46.1904C274.887 46.105 274.964 46.0623 275.117 46.0623C275.271 46.0623 275.425 46.0964 275.579 46.1648C275.732 46.2246 275.809 46.31 275.809 46.4211L275.784 47.5615V52.7769C275.784 53.1442 275.822 53.5073 275.899 53.8661C275.976 54.2163 276.083 54.4769 276.219 54.6477C276.236 54.6819 276.245 54.7331 276.245 54.8015C276.245 54.8613 276.185 54.9595 276.066 55.0962C275.946 55.2329 275.826 55.3012 275.707 55.3012ZM272.337 54.6093C272.952 54.6093 273.537 54.306 274.092 53.6995C274.656 53.0929 274.938 52.3967 274.938 51.6108V50.2653C274.904 50.2995 274.861 50.3165 274.81 50.3165C274.767 50.3165 274.729 50.2952 274.694 50.2525C274.413 49.8595 273.994 49.663 273.439 49.663C273.174 49.663 272.9 49.7527 272.619 49.9321C272.337 50.103 272.089 50.3379 271.875 50.6369C271.414 51.2861 271.183 51.9525 271.183 52.6359C271.183 53.3193 271.294 53.8191 271.517 54.1351C271.747 54.4512 272.021 54.6093 272.337 54.6093Z" fill="black"/>
<path d="M294.692 42.1473C294.692 37.9535 298.092 34.5537 302.286 34.5537H330.286C334.479 34.5537 337.879 37.9535 337.879 42.1473V60.1473C337.879 64.341 334.479 67.7408 330.286 67.7408H302.286C298.092 67.7408 294.692 64.341 294.692 60.1472V42.1473Z" fill="#0B99FF"/>
<path d="M308.782 50.3032L306.655 50.2392L305.028 50.2776C304.951 50.457 304.865 50.6834 304.772 50.9567C304.686 51.2301 304.571 51.5505 304.426 51.9178C304.28 52.2766 304.114 52.6397 303.926 53.007C303.507 53.8186 303.106 54.2243 302.721 54.2243C302.388 54.2243 302.222 54.0364 302.222 53.6605C302.222 53.4213 302.456 53.0711 302.926 52.6098C303.123 52.4304 303.345 52.1356 303.593 51.7256C303.849 51.3155 304.071 50.8414 304.259 50.3032H303.798C303.661 50.3032 303.541 50.2648 303.439 50.1879C303.345 50.1025 303.298 49.9871 303.298 49.8419C303.298 49.6967 303.349 49.5771 303.452 49.4831C303.554 49.3892 303.665 49.3422 303.785 49.3422L304.682 49.355C305.408 47.7404 306.096 46.6256 306.745 46.0105C306.412 46.0105 305.908 46.0447 305.233 46.113C304.558 46.1728 304.148 46.2027 304.003 46.2027C303.866 46.2027 303.746 46.1643 303.644 46.0874C303.541 46.002 303.49 45.8866 303.49 45.7414C303.49 45.5876 303.541 45.4638 303.644 45.3698C303.755 45.2758 303.875 45.2288 304.003 45.2288L306.796 45.3057L309.833 45.2288C309.987 45.2288 310.111 45.2758 310.205 45.3698C310.299 45.4638 310.346 45.5834 310.346 45.7286C310.346 46.0447 310.171 46.2027 309.82 46.2027H309.513C309.513 47.5696 309.568 48.804 309.679 49.906C309.79 51.008 309.901 51.858 310.012 52.456C310.124 53.054 310.179 53.4341 310.179 53.5965C310.179 53.7502 310.128 53.8955 310.025 54.0321C309.931 54.1603 309.799 54.2243 309.628 54.2243C309.466 54.2243 309.325 54.1645 309.205 54.0449C309.086 53.9253 309.022 53.7545 309.013 53.5324L308.782 50.3032ZM308.552 46.0489L308.231 46.0361C307.266 46.1301 306.326 47.2407 305.412 49.3678C306.147 49.3849 306.6 49.3934 306.771 49.3934C306.941 49.3934 307.591 49.3763 308.718 49.3422C308.607 47.4542 308.552 46.3565 308.552 46.0489ZM311.79 52.0972C311.79 52.0972 311.824 51.3155 311.892 49.7522C311.892 48.3598 311.858 47.2706 311.79 46.4846C311.722 45.6987 311.687 45.2929 311.687 45.2673C311.687 44.7804 311.875 44.5369 312.251 44.5369C312.704 44.5369 312.93 44.8871 312.93 45.5876C312.93 46.0062 312.883 46.7196 312.789 47.7276C312.704 48.7356 312.657 49.4062 312.648 49.7394C313.007 49.2952 313.434 48.9449 313.93 48.6887C314.434 48.4324 314.938 48.3042 315.442 48.3042C315.955 48.3042 316.399 48.5135 316.775 48.9321C317.159 49.3422 317.351 49.8419 317.351 50.4314C317.351 51.3796 316.988 52.251 316.262 53.0454C315.536 53.8314 314.712 54.2243 313.789 54.2243C313.217 54.2243 312.738 54.0193 312.354 53.6093C311.978 53.1907 311.79 52.6867 311.79 52.0972ZM313.187 49.8804C312.811 50.2562 312.623 50.7176 312.623 51.2643C312.623 51.811 312.811 52.2766 313.187 52.661C313.571 53.0369 314.032 53.2248 314.571 53.2248C315.117 53.2248 315.574 53.0369 315.942 52.661C316.309 52.2766 316.493 51.811 316.493 51.2643C316.493 50.7176 316.309 50.2562 315.942 49.8804C315.574 49.5045 315.117 49.3165 314.571 49.3165C314.032 49.3165 313.571 49.5045 313.187 49.8804ZM320.753 49.3037C320.189 49.3037 319.728 49.5002 319.369 49.8932C319.019 50.2776 318.844 50.7389 318.844 51.2771C318.844 51.8153 319.027 52.2723 319.395 52.6482C319.77 53.0241 320.228 53.212 320.766 53.212C321.244 53.212 321.676 53.0369 322.06 52.6867C322.197 52.5671 322.299 52.5073 322.367 52.5073C322.436 52.5073 322.496 52.5329 322.547 52.5841C322.598 52.6354 322.624 52.6909 322.624 52.7507C322.624 52.9985 322.38 53.306 321.893 53.6733C321.415 54.0407 320.868 54.2243 320.253 54.2243C319.647 54.2243 319.117 53.9766 318.664 53.4811C318.22 52.9856 317.998 52.3706 317.998 51.6359C317.998 50.6962 318.352 49.906 319.061 49.2653C319.77 48.6246 320.552 48.3042 321.406 48.3042C321.765 48.3042 322.056 48.3683 322.278 48.4964C322.508 48.616 322.624 48.7741 322.624 48.9706C322.624 49.1585 322.564 49.3123 322.444 49.4319C322.333 49.5515 322.222 49.6113 322.111 49.6113C322 49.6113 321.808 49.56 321.535 49.4575C321.27 49.355 321.009 49.3037 320.753 49.3037ZM324.988 54.2243C324.45 54.2243 323.997 54.0108 323.629 53.5836C323.262 53.1565 323.078 52.6653 323.078 52.11C323.078 51.5462 323.19 51.0208 323.412 50.5339C323.634 50.0469 323.916 49.6454 324.257 49.3294C324.599 49.0133 324.966 48.7655 325.359 48.5861C325.761 48.3982 326.171 48.3042 326.59 48.3042C327.017 48.3042 327.41 48.4623 327.768 48.7784C327.76 48.1376 327.73 47.4371 327.679 46.6768C327.627 45.908 327.602 45.4253 327.602 45.2288C327.602 45.0324 327.653 44.8701 327.756 44.7419C327.858 44.6052 327.991 44.5369 328.153 44.5369C328.315 44.5369 328.452 44.6095 328.563 44.7547C328.682 44.8914 328.742 45.0793 328.742 45.3185C328.742 45.5492 328.704 46.0959 328.627 46.9588C328.559 47.813 328.524 48.616 328.524 49.3678C328.524 50.1196 328.554 50.7731 328.614 51.3284C328.674 51.8751 328.738 52.2467 328.806 52.4432C329.003 52.9643 329.101 53.3145 329.101 53.4939C329.101 53.9809 328.913 54.2243 328.537 54.2243C328.085 54.2243 327.82 53.7417 327.743 52.7764C327.401 53.2291 326.991 53.5836 326.513 53.8399C326.034 54.0962 325.526 54.2243 324.988 54.2243ZM324.488 49.8804C324.112 50.2562 323.924 50.7176 323.924 51.2643C323.924 51.811 324.112 52.2766 324.488 52.661C324.872 53.0369 325.334 53.2248 325.872 53.2248C326.419 53.2248 326.876 53.0369 327.243 52.661C327.61 52.2766 327.794 51.7939 327.794 51.213C327.794 50.6321 327.627 50.1708 327.294 49.8291C326.961 49.4874 326.504 49.3165 325.923 49.3165C325.351 49.3165 324.872 49.5045 324.488 49.8804Z" fill="black"/>
<path d="M364.524 50.3289L364.46 51.0977C364.263 51.0806 364.05 51.0721 363.819 51.0721C363.597 51.0721 363.409 51.0763 363.255 51.0849C363.136 52.0246 363.059 53.0454 363.025 54.1475H362.128C362.076 53.9253 362.051 53.6306 362.051 53.2633C362.051 52.896 362.059 52.5799 362.076 52.315C362.102 52.0417 362.132 51.7726 362.166 51.5078C362.2 51.2429 362.217 51.0892 362.217 51.0464C362.098 51.0379 361.816 51.0336 361.372 51.0336C360.927 51.0336 360.62 51.0422 360.449 51.0593C359.458 52.3919 358.544 53.4042 357.707 54.0962C356.87 54.7796 356.032 55.1213 355.195 55.1213C354.785 55.1213 354.443 54.9975 354.17 54.7497C353.888 54.502 353.747 54.1731 353.747 53.763C353.747 52.9856 354.337 52.2766 355.516 51.6359C356.703 50.9952 358.236 50.5638 360.116 50.3417C360.338 50 360.752 49.4746 361.359 48.7655C361.965 48.0479 362.563 47.4243 363.153 46.8947C363.409 46.2967 363.61 45.8824 363.755 45.6517C363.909 45.4125 364.058 45.2929 364.204 45.2929C364.349 45.2929 364.468 45.3484 364.562 45.4595C364.656 45.5706 364.703 45.7158 364.703 45.8952C364.703 46.066 364.605 46.3223 364.409 46.664C364.221 46.9972 364.024 47.5183 363.819 48.2273C363.614 48.9279 363.473 49.5899 363.396 50.2135C363.841 50.2135 364.216 50.252 364.524 50.3289ZM357.989 53.007C358.698 52.3321 359.232 51.6914 359.59 51.0849C358.155 51.1703 357.045 51.4394 356.259 51.8922C355.481 52.3449 355.093 52.8276 355.093 53.3402C355.093 53.5623 355.165 53.7374 355.311 53.8656C355.464 53.9937 355.665 54.0578 355.913 54.0578C356.579 54.0578 357.271 53.7075 357.989 53.007ZM362.371 50.2135C362.431 49.9231 362.508 49.56 362.602 49.1243C362.704 48.6801 362.764 48.4196 362.781 48.3427C362.371 48.7356 362.085 49.0261 361.923 49.214C361.76 49.3934 361.474 49.7437 361.064 50.2648C361.209 50.2562 361.384 50.252 361.589 50.252C361.803 50.2434 361.978 50.2349 362.115 50.2263C362.252 50.2178 362.337 50.2135 362.371 50.2135ZM367.472 50.6236C367.882 50.205 368.241 49.9188 368.548 49.765C368.864 49.6027 369.159 49.5216 369.432 49.5216C369.714 49.5216 369.945 49.6198 370.124 49.8163C370.312 50.0042 370.406 50.252 370.406 50.5595C370.406 51.354 370.073 52.1912 369.407 53.0711C368.74 53.9424 368.023 54.3781 367.254 54.3781C367.023 54.3781 366.805 54.3354 366.6 54.25L366.908 53.6862C367.045 53.7203 367.151 53.7374 367.228 53.7374C367.749 53.7374 368.223 53.447 368.651 52.8661C369.078 52.2851 369.291 51.7128 369.291 51.149C369.291 50.9696 369.231 50.8243 369.112 50.7133C369.001 50.5937 368.856 50.5339 368.676 50.5339C368.283 50.5339 367.822 50.85 367.292 51.4821C366.771 52.1143 366.314 52.9387 365.921 53.9552L365.139 53.6349C365.396 52.3279 365.908 50.7346 366.677 48.8552C367.446 46.9758 368.087 45.6474 368.599 44.8701L369.253 45.1007C368.689 46.1515 368.087 47.4542 367.446 49.009C366.814 50.5638 366.442 51.6188 366.331 52.1741C366.681 51.559 367.062 51.0422 367.472 50.6236ZM374.208 52.3279L374.515 52.5841C374.31 53.054 373.981 53.4299 373.528 53.7118C373.076 53.9937 372.636 54.1346 372.209 54.1346C371.79 54.1346 371.44 54.0022 371.158 53.7374C370.884 53.4726 370.748 53.1095 370.748 52.6482C370.748 52.1869 370.949 51.6872 371.35 51.149C371.752 50.6108 372.268 50.1665 372.901 49.8163C373.541 49.466 374.169 49.2909 374.784 49.2909C374.87 49.2909 374.998 49.2995 375.169 49.3165L375.13 49.8163C374.19 49.859 373.409 50.1452 372.785 50.6748C372.17 51.2045 371.863 51.7683 371.863 52.3663C371.863 52.614 371.939 52.8148 372.093 52.9686C372.247 53.1223 372.448 53.1992 372.696 53.1992C373.088 53.1992 373.592 52.9088 374.208 52.3279ZM382.642 44.6778L383.296 44.9085L383.116 45.2417C382.177 46.9929 381.378 48.6887 380.72 50.3289C380.284 51.4052 380.067 52.2125 380.067 52.7507C380.067 52.8874 380.101 52.9985 380.169 53.0839C380.237 53.1608 380.344 53.1992 380.489 53.1992C380.643 53.1992 380.818 53.101 381.015 52.9045L381.246 53.1223C381.134 53.3701 380.942 53.6007 380.669 53.8143C380.396 54.0193 380.131 54.1218 379.874 54.1218C379.379 54.1218 379.131 53.8314 379.131 53.2505C379.131 52.9088 379.225 52.3834 379.413 51.6743C378.405 53.4341 377.418 54.314 376.453 54.314C376.12 54.314 375.855 54.2115 375.659 54.0065C375.462 53.8015 375.364 53.5238 375.364 53.1736C375.364 52.6183 375.586 52.0417 376.03 51.4437C376.474 50.8457 377.021 50.3588 377.67 49.9829C378.32 49.5985 378.926 49.4062 379.49 49.4062L379.528 49.8547C378.794 49.9487 378.106 50.2691 377.465 50.8158C376.833 51.354 376.517 51.905 376.517 52.4688C376.517 52.708 376.581 52.9002 376.709 53.0454C376.837 53.1821 377.004 53.2505 377.209 53.2505C377.628 53.2505 378.174 52.802 378.849 51.905C379.097 51.5804 379.379 51.1062 379.695 50.4826C380.02 49.859 380.276 49.3593 380.464 48.9834C380.66 48.599 380.848 48.2273 381.028 47.8686C381.216 47.5012 381.459 47.0228 381.758 46.4334C382.057 45.8354 382.352 45.2502 382.642 44.6778Z" fill="black"/>
</g>
<defs>
<filter id="filter0_d_8165_11861" x="0.475451" y="0.912222" width="424.944" height="107.331" filterUnits="userSpaceOnUse" color-interpolation-filters="sRGB">
<feFlood flood-opacity="0" result="BackgroundImageFix"/>
<feColorMatrix in="SourceAlpha" type="matrix" values="0 0 0 0 0 0 0 0 0 0 0 0 0 0 0 0 0 0 127 0" result="hardAlpha"/>
<feOffset dy="4.70386"/>
<feGaussianBlur stdDeviation="8.23176"/>
<feComposite in2="hardAlpha" operator="out"/>
<feColorMatrix type="matrix" values="0 0 0 0 0 0 0 0 0 0 0 0 0 0 0 0 0 0 0.25 0"/>
<feBlend mode="normal" in2="BackgroundImageFix" result="effect1_dropShadow_8165_11861"/>
<feBlend mode="normal" in="SourceGraphic" in2="effect1_dropShadow_8165_11861" result="shape"/>
</filter>
</defs>
</svg>
