<svg width="108" height="66" viewBox="0 0 108 66" fill="none" xmlns="http://www.w3.org/2000/svg">
<g clip-path="url(#clip0_9200_50981)">
<path d="M64.6078 0.0462749H63V1.65256C63.0214 1.65256 63.0428 1.64869 63.0642 1.64869C63.9511 1.64869 64.6702 2.4258 64.6702 3.38417C64.6702 4.34253 63.9511 5.11964 63.0642 5.11964C63.0428 5.11964 63.0214 5.11771 63 5.11578V6.57744C63.8869 6.57744 64.606 7.35454 64.606 8.31291C64.606 9.27127 63.8869 10.0484 63 10.0484V11.5062C63.8869 11.5062 64.606 12.2833 64.606 13.2416C64.606 14.2 63.8869 14.9771 63 14.9771V16.4349C63.8869 16.4349 64.606 17.212 64.606 18.1704C64.606 19.1288 63.8869 19.9059 63 19.9059V21.3637C63.8869 21.3637 64.606 22.1408 64.606 23.0991C64.606 24.0575 63.8869 24.8346 63 24.8346V26.2924C63.8869 26.2924 64.606 27.0695 64.606 28.0279C64.606 28.9862 63.8869 29.7633 63 29.7633V31.2211C63.8869 31.2211 64.606 31.9982 64.606 32.9566C64.606 33.915 63.8869 34.6921 63 34.6921V36.1499C63.8869 36.1499 64.606 36.927 64.606 37.8853C64.606 38.8437 63.8869 39.6208 63 39.6208V41.0786C63.8869 41.0786 64.606 41.8557 64.606 42.8141C64.606 43.7725 63.8869 44.5496 63 44.5496V46.0074C63.8869 46.0074 64.606 46.7845 64.606 47.7428C64.606 48.7012 63.8869 49.4783 63 49.4783V50.9361C63.8869 50.9361 64.606 51.7132 64.606 52.6716C64.606 53.6299 63.8869 54.407 63 54.407V55.8648C63.8869 55.8648 64.606 56.6419 64.606 57.6003C64.606 58.5587 63.8869 59.3358 63 59.3358V60.7936C63.8869 60.7936 64.606 61.5707 64.606 62.5291C64.606 63.4874 63.8869 64.2645 63 64.2645V66H64.6078C64.6078 65.9884 64.6078 65.9769 64.6078 65.9653C64.6078 65.0069 65.3269 64.2298 66.2138 64.2298C67.1006 64.2298 67.8198 65.0069 67.8198 65.9653C67.8198 65.9769 67.8198 65.9884 67.8198 66H69.4258C69.4258 65.9884 69.4258 65.9769 69.4258 65.9653C69.4258 65.0069 70.1449 64.2298 71.0318 64.2298C71.9186 64.2298 72.6378 65.0069 72.6378 65.9653C72.6378 65.9769 72.6378 65.9884 72.6378 66H74.2438C74.2438 65.9884 74.2438 65.9769 74.2438 65.9653C74.2438 65.0069 74.9629 64.2298 75.8498 64.2298C76.7366 64.2298 77.4557 65.0069 77.4557 65.9653C77.4557 65.9769 77.4557 65.9884 77.4557 66H79.0617C79.0617 65.9884 79.0617 65.9769 79.0617 65.9653C79.0617 65.0069 79.7809 64.2298 80.6677 64.2298C81.5546 64.2298 82.2737 65.0069 82.2737 65.9653C82.2737 65.9769 82.2737 65.9884 82.2737 66H83.8797C83.8797 65.9884 83.8797 65.9769 83.8797 65.9653C83.8797 65.0069 84.5989 64.2298 85.4857 64.2298C86.3726 64.2298 87.0917 65.0069 87.0917 65.9653C87.0917 65.9769 87.0917 65.9884 87.0917 66H88.6977C88.6977 65.9884 88.6977 65.9769 88.6977 65.9653C88.6977 65.0069 89.4168 64.2298 90.3037 64.2298C91.1906 64.2298 91.9097 65.0069 91.9097 65.9653C91.9097 65.9769 91.9097 65.9884 91.9097 66H93.5157C93.5157 65.9884 93.5157 65.9769 93.5157 65.9653C93.5157 65.0069 94.2348 64.2298 95.1217 64.2298C96.0086 64.2298 96.7277 65.0069 96.7277 65.9653C96.7277 65.9769 96.7277 65.9884 96.7277 66H98.3337C98.3337 65.9884 98.3337 65.9769 98.3337 65.9653C98.3337 65.0069 99.0528 64.2298 99.9397 64.2298C100.827 64.2298 101.546 65.0069 101.546 65.9653C101.546 65.9769 101.546 65.9884 101.546 66H103.152C103.17 65.0571 103.88 64.2992 104.756 64.2992C105.632 64.2992 106.342 65.0571 106.36 66H108V64.2626C107.989 64.2626 107.979 64.2626 107.968 64.2626C107.081 64.2626 106.362 63.4855 106.362 62.5271C106.362 61.5688 107.081 60.7917 107.968 60.7917C107.979 60.7917 107.989 60.7917 108 60.7917V59.33C107.989 59.33 107.979 59.33 107.968 59.33C107.081 59.33 106.362 58.5529 106.362 57.5945C106.362 56.6362 107.081 55.8591 107.968 55.8591C107.979 55.8591 107.989 55.8591 108 55.8591V54.3974C107.989 54.3974 107.979 54.3974 107.968 54.3974C107.081 54.3974 106.362 53.6203 106.362 52.6619C106.362 51.7036 107.081 50.9265 107.968 50.9265C107.979 50.9265 107.989 50.9265 108 50.9265V49.4648C107.989 49.4648 107.979 49.4648 107.968 49.4648C107.081 49.4648 106.362 48.6877 106.362 47.7293C106.362 46.771 107.081 45.9939 107.968 45.9939C107.979 45.9939 107.989 45.9939 108 45.9939V44.5322C107.989 44.5322 107.979 44.5322 107.968 44.5322C107.081 44.5322 106.362 43.7551 106.362 42.7967C106.362 41.8384 107.081 41.0613 107.968 41.0613C107.979 41.0613 107.989 41.0613 108 41.0613V39.5996C107.989 39.5996 107.979 39.5996 107.968 39.5996C107.081 39.5996 106.362 38.8225 106.362 37.8641C106.362 36.9058 107.081 36.1287 107.968 36.1287C107.979 36.1287 107.989 36.1287 108 36.1287V34.667C107.989 34.667 107.979 34.667 107.968 34.667C107.081 34.667 106.362 33.8899 106.362 32.9315C106.362 31.9732 107.081 31.1961 107.968 31.1961C107.979 31.1961 107.989 31.1961 108 31.1961V29.7344C107.989 29.7344 107.979 29.7344 107.968 29.7344C107.081 29.7344 106.362 28.9573 106.362 27.999C106.362 27.0406 107.081 26.2635 107.968 26.2635C107.979 26.2635 107.989 26.2635 108 26.2635V24.8018C107.989 24.8018 107.979 24.8018 107.968 24.8018C107.081 24.8018 106.362 24.0247 106.362 23.0664C106.362 22.108 107.081 21.3309 107.968 21.3309C107.979 21.3309 107.989 21.3309 108 21.3309V19.8692C107.989 19.8692 107.979 19.8692 107.968 19.8692C107.081 19.8692 106.362 19.0921 106.362 18.1338C106.362 17.1754 107.081 16.3983 107.968 16.3983C107.979 16.3983 107.989 16.3983 108 16.3983V14.9366C107.989 14.9366 107.979 14.9366 107.968 14.9366C107.081 14.9366 106.362 14.1595 106.362 13.2011C106.362 12.2428 107.081 11.4657 107.968 11.4657C107.979 11.4657 107.989 11.4657 108 11.4657V10.004C107.989 10.004 107.979 10.004 107.968 10.004C107.081 10.004 106.362 9.22693 106.362 8.26856C106.362 7.3102 107.081 6.53309 107.968 6.53309C107.979 6.53309 107.989 6.53309 108 6.53309V5.07143C107.127 5.05215 106.426 4.28469 106.426 3.33789C106.426 2.3911 107.127 1.62363 108 1.60435V0H106.36C106.36 0.0115698 106.36 0.0231396 106.36 0.0347094C106.36 0.993076 105.641 1.77018 104.754 1.77018C103.867 1.77018 103.148 0.993076 103.148 0.0347094C103.148 0.0231396 103.148 0.0115698 103.148 0H101.542C101.524 0.94294 100.814 1.70076 99.9379 1.70076C99.0617 1.70076 98.3515 0.94294 98.3337 0H96.7277C96.7099 0.94294 95.9996 1.70076 95.1235 1.70076C94.2473 1.70076 93.5371 0.94294 93.5193 0H91.9133C91.8954 0.94294 91.1852 1.70076 90.3091 1.70076C89.4329 1.70076 88.7227 0.94294 88.7049 0H87.0989C87.081 0.94294 86.3708 1.70076 85.4946 1.70076C84.6185 1.70076 83.9083 0.94294 83.8904 0H82.2844C82.2666 0.94294 81.5564 1.70076 80.6802 1.70076C79.8041 1.70076 79.0939 0.94294 79.076 0H77.47C77.4522 0.94294 76.742 1.70076 75.8658 1.70076C74.9896 1.70076 74.2794 0.94294 74.2616 0H72.6556C72.6378 0.94294 71.9276 1.70076 71.0514 1.70076C70.1752 1.70076 69.465 0.94294 69.4472 0H67.8412C67.8233 0.94294 67.1131 1.70076 66.237 1.70076C65.3608 1.70076 64.6506 0.94294 64.6328 0L64.6078 0.0462749ZM104.756 3.51722V62.5233H66.212V3.51722H104.756Z" fill="#D80027"/>
<path fill-rule="evenodd" clip-rule="evenodd" d="M105.379 3.36655H66.0659V62.6552H105.379V3.36655ZM104.756 62.5233V3.51722H66.212V62.5233H104.756Z" fill="#D80027"/>
<path d="M104.756 3.51722V62.5233H66.212V3.51722H104.756Z" fill="#D80027"/>
<rect width="38.5714" height="20.3062" transform="translate(66.1113 3.58008)" fill="#03755B"/>
<rect width="38.5714" height="20.3062" transform="translate(66.2148 42.4023)" fill="#FFDA44"/>
<path d="M88.8926 32.6326L86.4885 33.4767L86.4885 36.2086L85.0024 33.9985L82.5981 34.8427L84.0841 32.6326L82.5981 30.4224L85.0024 31.2667L86.4885 29.0566L86.4885 31.7884L88.8926 32.6326Z" fill="#FFDA44"/>
</g>
<g clip-path="url(#clip1_9200_50981)">
<path d="M26.2214 55.8125C13.8112 55.8125 3.71582 45.8037 3.71582 33.5C3.71582 21.1962 13.8112 11.1875 26.2214 11.1875C38.6317 11.1875 48.7271 21.1962 48.7271 33.5C48.7271 45.8037 38.6317 55.8125 26.2214 55.8125ZM26.2214 13.3125C14.9944 13.3125 5.85921 22.3693 5.85921 33.5C5.85921 44.6307 14.9944 53.6875 26.2214 53.6875C37.4507 53.6875 46.5837 44.6307 46.5837 33.5C46.5837 22.3693 37.4507 13.3125 26.2214 13.3125Z" fill="#97CBF0"/>
<path d="M26.2208 51.5625C16.1726 51.5625 8.00195 43.4599 8.00195 33.5C8.00195 23.538 16.1747 15.4375 26.2208 15.4375C36.269 15.4375 44.4396 23.5401 44.4396 33.5C44.4418 43.462 36.269 51.5625 26.2208 51.5625ZM26.2208 17.5625C17.3536 17.5625 10.1453 24.711 10.1453 33.5C10.1453 42.289 17.3536 49.4375 26.2208 49.4375C35.0902 49.4375 42.2962 42.289 42.2962 33.5C42.2962 24.711 35.0902 17.5625 26.2208 17.5625Z" fill="#97CBF0"/>
<path d="M26.2211 53.6875C25.977 53.6881 25.74 53.6062 25.5492 53.4551C25.3585 53.304 25.2255 53.0929 25.1723 52.8567C25.119 52.6206 25.1487 52.3734 25.2564 52.1562C25.3641 51.939 25.5434 51.7648 25.7646 51.6624L32.9385 48.3176C34.306 47.6801 36.3722 47.6801 37.7311 48.3176L42.9674 50.7571C43.7348 51.1205 45.1537 51.1205 45.936 50.7571L51.1638 48.3176C52.5291 47.678 54.5889 47.678 55.9457 48.3176L63.1089 51.6624C63.3555 51.7886 63.5431 52.0047 63.6322 52.2653C63.7214 52.5258 63.7051 52.8105 63.5868 53.0594C63.4684 53.3083 63.2574 53.502 62.9979 53.5997C62.7385 53.6974 62.451 53.6916 62.1958 53.5834L55.0262 50.2386C54.2588 49.8774 52.8399 49.8774 52.0619 50.2386L46.8363 52.6781C45.4666 53.3177 43.4025 53.3177 42.0479 52.6781L36.8116 50.2386C36.04 49.8774 34.6232 49.8774 33.8452 50.2386L26.6691 53.5834C26.5301 53.6525 26.3766 53.6881 26.2211 53.6875ZM26.2211 45.1875C25.977 45.1881 25.74 45.1062 25.5492 44.9551C25.3585 44.804 25.2255 44.5929 25.1723 44.3567C25.119 44.1206 25.1487 43.8734 25.2564 43.6562C25.3641 43.439 25.5434 43.2648 25.7646 43.1624L32.9385 39.8176C34.306 39.1801 36.3722 39.1801 37.7311 39.8176L42.9674 42.2571C43.7348 42.6205 45.1537 42.6205 45.936 42.2571L51.1638 39.8176C52.5291 39.178 54.5889 39.178 55.9457 39.8176L63.1089 43.1624C63.3555 43.2886 63.5431 43.5047 63.6322 43.7653C63.7214 44.0258 63.7051 44.3105 63.5868 44.5594C63.4684 44.8083 63.2574 45.002 62.9979 45.0997C62.7385 45.1974 62.451 45.1916 62.1958 45.0834L55.0262 41.7386C54.2588 41.3774 52.8399 41.3774 52.0619 41.7386L46.8363 44.1781C45.4666 44.8177 43.4025 44.8177 42.0479 44.1781L36.8116 41.7386C36.04 41.3774 34.6232 41.3774 33.8452 41.7386L26.6691 45.0834C26.5301 45.1525 26.3766 45.1881 26.2211 45.1875ZM26.2211 36.6875C25.977 36.6881 25.74 36.6062 25.5492 36.4551C25.3585 36.304 25.2255 36.0929 25.1723 35.8567C25.119 35.6206 25.1487 35.3734 25.2564 35.1562C25.3641 34.939 25.5434 34.7648 25.7646 34.6624L32.9385 31.3176C34.306 30.6801 36.3722 30.6801 37.7311 31.3176L42.9674 33.7571C43.7348 34.1205 45.1537 34.1205 45.936 33.7571L51.1638 31.3176C52.5291 30.678 54.5889 30.678 55.9457 31.3176L63.1089 34.6624C63.3555 34.7886 63.5431 35.0047 63.6322 35.2653C63.7214 35.5258 63.7051 35.8105 63.5868 36.0594C63.4684 36.3083 63.2574 36.502 62.9979 36.5997C62.7385 36.6974 62.451 36.6916 62.1958 36.5834L55.0262 33.2386C54.2588 32.8774 52.8399 32.8774 52.0619 33.2386L46.8363 35.6781C45.4666 36.3177 43.4025 36.3177 42.0479 35.6781L36.8116 33.2386C36.04 32.8774 34.6232 32.8774 33.8452 33.2386L26.6691 36.5834C26.5301 36.6525 26.3766 36.6881 26.2211 36.6875ZM26.2211 28.1875C25.977 28.1881 25.74 28.1062 25.5492 27.9551C25.3585 27.804 25.2255 27.5929 25.1723 27.3567C25.119 27.1206 25.1487 26.8734 25.2564 26.6562C25.3641 26.439 25.5434 26.2648 25.7646 26.1624L32.9385 22.8176C34.306 22.1801 36.3722 22.1801 37.7311 22.8176L42.9674 25.2571C43.7348 25.6205 45.1537 25.6205 45.936 25.2571L51.1638 22.8176C52.5291 22.178 54.5889 22.178 55.9457 22.8176L63.1089 26.1624C63.3555 26.2886 63.5431 26.5047 63.6322 26.7653C63.7214 27.0258 63.7051 27.3105 63.5868 27.5594C63.4684 27.8083 63.2574 28.002 62.9979 28.0997C62.7385 28.1974 62.451 28.1916 62.1958 28.0834L55.0262 24.7386C54.2588 24.3774 52.8399 24.3774 52.0619 24.7386L46.8363 27.1781C45.4666 27.8177 43.4025 27.8177 42.0479 27.1781L36.8116 24.7386C36.04 24.3774 34.6232 24.3774 33.8452 24.7386L26.6734 28.0834C26.533 28.153 26.378 28.1887 26.2211 28.1875ZM26.2211 19.6875C25.977 19.6881 25.74 19.6062 25.5492 19.4551C25.3585 19.304 25.2255 19.0929 25.1723 18.8567C25.119 18.6206 25.1487 18.3734 25.2564 18.1562C25.3641 17.939 25.5434 17.7648 25.7646 17.6624L32.9385 14.3176C34.306 13.6801 36.3722 13.6801 37.7311 14.3176L42.9674 16.7571C43.7348 17.1205 45.1537 17.1205 45.936 16.7571L51.1638 14.3176C52.5291 13.678 54.5889 13.678 55.9457 14.3176L63.1089 17.6624C63.3555 17.7886 63.5431 18.0047 63.6322 18.2653C63.7214 18.5258 63.7051 18.8105 63.5868 19.0594C63.4684 19.3083 63.2574 19.502 62.9979 19.5997C62.7385 19.6974 62.451 19.6916 62.1958 19.5834L55.0262 16.2386C54.2588 15.8774 52.8399 15.8774 52.0619 16.2386L46.8363 18.6781C45.4666 19.3177 43.4025 19.3177 42.0479 18.6781L36.8116 16.2386C36.04 15.8774 34.6232 15.8774 33.8452 16.2386L26.6734 19.5834C26.533 19.653 26.378 19.6887 26.2211 19.6875Z" fill="#6F7580"/>
</g>
<defs>
<clipPath id="clip0_9200_50981">
<rect width="66" height="45" fill="white" transform="translate(108) rotate(90)"/>
</clipPath>
<clipPath id="clip1_9200_50981">
<rect width="60" height="51" fill="white" transform="translate(8 8)"/>
</clipPath>
</defs>
</svg>
