<svg width="16" height="17" viewBox="0 0 16 17" fill="none" xmlns="http://www.w3.org/2000/svg">
<mask id="path-1-inside-1_8914_2149" fill="white">
<path d="M2.21999 6.81474C2.21999 6.68807 2.26665 6.56141 2.36665 6.46141C2.55999 6.26807 2.87999 6.26807 3.07332 6.46141L7.41999 10.8081C7.73999 11.1281 8.25999 11.1281 8.57999 10.8081L12.9267 6.46141C13.12 6.26807 13.44 6.26807 13.6333 6.46141C13.8267 6.65474 13.8267 6.97474 13.6333 7.16807L9.28665 11.5147C8.94665 11.8547 8.48665 12.0481 7.99999 12.0481C7.51332 12.0481 7.05332 11.8614 6.71332 11.5147L2.36665 7.16807C2.27332 7.06807 2.21999 6.94141 2.21999 6.81474Z"/>
</mask>
<path d="M2.21999 6.81474C2.21999 6.68807 2.26665 6.56141 2.36665 6.46141C2.55999 6.26807 2.87999 6.26807 3.07332 6.46141L7.41999 10.8081C7.73999 11.1281 8.25999 11.1281 8.57999 10.8081L12.9267 6.46141C13.12 6.26807 13.44 6.26807 13.6333 6.46141C13.8267 6.65474 13.8267 6.97474 13.6333 7.16807L9.28665 11.5147C8.94665 11.8547 8.48665 12.0481 7.99999 12.0481C7.51332 12.0481 7.05332 11.8614 6.71332 11.5147L2.36665 7.16807C2.27332 7.06807 2.21999 6.94141 2.21999 6.81474Z" fill="#6F7580"/>
<path d="M3.07332 6.46141L4.48753 5.04719L4.48753 5.04719L3.07332 6.46141ZM7.41999 10.8081L6.00577 12.2223L6.00577 12.2223L7.41999 10.8081ZM8.57999 10.8081L7.16577 9.39386L8.57999 10.8081ZM12.9267 6.46141L14.3409 7.87562L14.3409 7.87562L12.9267 6.46141ZM13.6333 7.16807L12.2191 5.75386L12.2191 5.75386L13.6333 7.16807ZM9.28665 11.5147L10.7009 12.929L10.7009 12.929L9.28665 11.5147ZM6.71332 11.5147L8.1412 10.1143L8.1344 10.1074L8.12753 10.1005L6.71332 11.5147ZM2.36665 7.16807L0.904543 8.53271L0.928063 8.55791L0.952439 8.58229L2.36665 7.16807ZM4.21999 6.81474C4.21999 7.18988 4.07571 7.58078 3.78087 7.87562L0.952439 5.04719C0.457599 5.54203 0.219987 6.18626 0.219987 6.81474L4.21999 6.81474ZM3.78087 7.87562C3.19315 8.46333 2.24682 8.46333 1.65911 7.87562L4.48753 5.04719C3.51315 4.07281 1.92682 4.07281 0.952439 5.04719L3.78087 7.87562ZM1.65911 7.87562L6.00577 12.2223L8.8342 9.39386L4.48753 5.04719L1.65911 7.87562ZM6.00577 12.2223C7.10682 13.3233 8.89315 13.3233 9.9942 12.2223L7.16577 9.39386C7.62682 8.93281 8.37315 8.93281 8.8342 9.39386L6.00577 12.2223ZM9.9942 12.2223L14.3409 7.87562L11.5124 5.04719L7.16577 9.39386L9.9942 12.2223ZM14.3409 7.87562C13.7532 8.46334 12.8068 8.46333 12.2191 7.87562L15.0475 5.04719C14.0732 4.07281 12.4868 4.07281 11.5124 5.04719L14.3409 7.87562ZM12.2191 7.87562C11.6314 7.2879 11.6314 6.34157 12.2191 5.75386L15.0475 8.58229C16.0219 7.6079 16.0219 6.02157 15.0475 5.04719L12.2191 7.87562ZM12.2191 5.75386L7.87244 10.1005L10.7009 12.929L15.0475 8.58229L12.2191 5.75386ZM7.87244 10.1005C7.90434 10.0686 7.95176 10.0481 7.99999 10.0481L7.99999 14.0481C9.02155 14.0481 9.98896 13.6409 10.7009 12.929L7.87244 10.1005ZM7.99999 10.0481C8.01303 10.0481 8.03575 10.0508 8.06386 10.0623C8.09255 10.0742 8.11972 10.0924 8.1412 10.1143L5.28544 12.9152C6.01476 13.6588 6.99528 14.0481 7.99999 14.0481L7.99999 10.0481ZM8.12753 10.1005L3.78087 5.75386L0.952439 8.58229L5.29911 12.929L8.12753 10.1005ZM3.82876 5.80344C4.04236 6.03229 4.21999 6.38079 4.21999 6.81474L0.219987 6.81474C0.219987 7.50202 0.504277 8.10385 0.904543 8.53271L3.82876 5.80344Z" fill="#6F7580" mask="url(#path-1-inside-1_8914_2149)"/>
</svg>
