<svg width="45" height="45" viewBox="0 0 45 45" fill="none" xmlns="http://www.w3.org/2000/svg">
<circle cx="22.569" cy="22.5652" r="22.051" fill="#D9D9D9"/>
<path d="M22.5711 5.89209C18.2022 5.89209 14.6504 9.44389 14.6504 13.8128C14.6504 18.0983 18.0021 21.5667 22.371 21.7168C22.5044 21.7001 22.6378 21.7001 22.7378 21.7168C22.7712 21.7168 22.7878 21.7168 22.8212 21.7168C22.8379 21.7168 22.8379 21.7168 22.8545 21.7168C27.1234 21.5667 30.4751 18.0983 30.4918 13.8128C30.4918 9.44389 26.94 5.89209 22.5711 5.89209Z" fill="#292723" fill-opacity="0.3"/>
<path d="M31.042 26.1524C26.3897 23.0508 18.8025 23.0508 14.1168 26.1524C11.999 27.5697 10.8318 29.4874 10.8318 31.5384C10.8318 33.5895 11.999 35.4904 14.1001 36.8911C16.4346 38.4586 19.5028 39.2423 22.5711 39.2423C25.6393 39.2423 28.7075 38.4586 31.042 36.8911C33.1431 35.4737 34.3104 33.5728 34.3104 31.5051C34.2937 29.454 33.1431 27.5531 31.042 26.1524Z" fill="#292723" fill-opacity="0.3"/>
</svg>
